<svg xmlns="http://www.w3.org/2000/svg" width="123.871" height="160.507" viewBox="0 0 123.871 160.507">
  <g id="Group_268" data-name="Group 268" transform="translate(-101.612 -39.922)">
    <g id="Group_257" data-name="Group 257" transform="translate(101.612 88.043)">
      <path id="Path_1651" data-name="Path 1651" d="M130.862,162.254l2.112-.5,48.886-3.088a5.119,5.119,0,0,1,4.966,2.442l.7,1.972L217.7,258.7a4.164,4.164,0,0,1,.254,2.694,4.989,4.989,0,0,1-4.355,4.067l-53.329,5s-7.713-.245-9.532-7l-24.99-92.4s-.89-3.4,1.1-5.846A7.286,7.286,0,0,1,130.862,162.254Z" transform="translate(-125.265 -158.289)" fill="#6a6a89"/>
      <g id="Group_253" data-name="Group 253" transform="translate(1.141 0.351)">
        <path id="Path_1652" data-name="Path 1652" d="M234.74,258.022l-29.954-94.939-.7-1.972a5.119,5.119,0,0,0-4.966-2.442l-44.406,2.8,45.652-1.112s2.051-.417,3.541,4.06,30.837,93.6,30.837,93.6Z" transform="translate(-143.661 -158.64)" fill="#babaf4"/>
        <path id="Path_1653" data-name="Path 1653" d="M284.46,349.126l-.009-.005s6.031,21.031,4.876,23.281c-1.1,2.146-39.069,5.617-39.069,5.617s33.431-2.393,41.35-3.346a5.041,5.041,0,0,0,.136-.572,4.164,4.164,0,0,0-.254-2.694Z" transform="translate(-200.196 -271.347)" fill="#babaf4"/>
        <path id="Path_1654" data-name="Path 1654" d="M138.7,165.58l-4.479.283-2.113.5a7.284,7.284,0,0,0-4.013,2.965,5.226,5.226,0,0,0-.443.646c-.074,1.454,7.658,23.006,7.658,23.006s-4.707-20.517-3.661-23.769S138.68,165.581,138.7,165.58Z" transform="translate(-127.649 -162.746)" fill="#babaf4"/>
      </g>
      <path id="Path_1655" data-name="Path 1655" d="M146.446,172.146l42.963-2.774s3.475-.476,5.119,2.438l.795,1.9L222.764,260.2a3.72,3.72,0,0,1-2.169,4.277l-1.725.269-44.521,4.132a6.392,6.392,0,0,1-6.163-4.4l-8.7-29.984-8.146-27.983-8.558-29.548a3.839,3.839,0,0,1,.685-3.627A3.133,3.133,0,0,1,146.446,172.146Z" transform="translate(-135.352 -164.622)" fill="#f5fcfc"/>
      <path id="Path_1656" data-name="Path 1656" d="M131.487,166.9a5.329,5.329,0,0,0-3.3,3.851l-.066,2.125.558,2.085,25.614,90.726s.285,3.528,4.544,5.295c0,0,.617.663,3.785.714l53.827-4.753s1.194-.1,1.426-.663a4.409,4.409,0,0,1-3.58,3.9l-1.41.129-52.829,4.916a11.2,11.2,0,0,1-9.279-6.423l-10.93-40.464-5.9-21.62-8.431-31.666s-.859-3.223,2.38-6.333A8.527,8.527,0,0,1,131.487,166.9Z" transform="translate(-125.185 -163.179)" fill="#abc1d3"/>
      <path id="Path_1657" data-name="Path 1657" d="M175.843,329.775l-.167-.531a6.6,6.6,0,0,1-3.353-4.691l-16.3-57.737-.136-.433s14.705,57.407,16.091,60.375A4.725,4.725,0,0,0,175.843,329.775Z" transform="translate(-143.216 -222.04)" fill="#f5fcfc"/>
      <path id="Path_1658" data-name="Path 1658" d="M195.323,173.708l-.795-1.9c-1.645-2.914-5.119-2.438-5.119-2.438l-42.963,2.774a3.133,3.133,0,0,0-2.976,1.187,3.839,3.839,0,0,0-.685,3.627l.131.453,52.42-3.662Z" transform="translate(-135.352 -164.622)" fill="#697c87"/>
      <path id="Path_1659" data-name="Path 1659" d="M260.561,414.2a4.409,4.409,0,0,0,3.58-3.9c-.232.568-1.426.663-1.426.663l-53.827,4.753c-3.167-.051-3.785-.714-3.785-.714a8.99,8.99,0,0,1-1.495-.789,5.447,5.447,0,0,1,1.209,2.8,3.337,3.337,0,0,1-.717,1.832,9.764,9.764,0,0,0,2.221.4l52.829-4.916Z" transform="translate(-171.453 -307.196)" fill="#677e93" opacity="0.47"/>
      <g id="Group_254" data-name="Group 254">
        <path id="Path_1660" data-name="Path 1660" d="M217.708,258.437l-30.746-97.2a4.936,4.936,0,0,0-4.626-3.455v0l-.058,0c-.117,0-.234,0-.351.008l-15.343.988-33.75,2.141a5.952,5.952,0,0,0-.675.081,7.906,7.906,0,0,0-7.028,9.951l24.739,91.469a10.459,10.459,0,0,0,11.1,7.7l52.251-4.909a5.221,5.221,0,0,0,4.491-6.773ZM186.384,161.42l30.746,97.2a4.625,4.625,0,0,1,.181.876H217.3a2.352,2.352,0,0,1-.195,1,1.293,1.293,0,0,1-1.066.727l-53.614,4.8a7.67,7.67,0,0,1-8.124-5.494l-26.062-92.717a4.876,4.876,0,0,1,.731-4.158,5.1,5.1,0,0,1,3.217-2.047c.037,0,.072-.011.109-.013l42.508-2.737,7.267-.461a4.3,4.3,0,0,1,4.309,3.023Zm26.777,103.186-52.251,4.909a9.854,9.854,0,0,1-10.454-7.252l-24.739-91.469a7.3,7.3,0,0,1,3.445-8.261,5.65,5.65,0,0,0-.676.774,5.472,5.472,0,0,0-.819,4.667l26.062,92.717a8.2,8.2,0,0,0,6.415,5.816,8.5,8.5,0,0,0,2.338.113l53.614-4.8a1.936,1.936,0,0,0,1.024-.408,4.582,4.582,0,0,1-3.96,3.193Z" transform="translate(-124.854 -157.78)" fill="#2a2635"/>
        <path id="Path_1661" data-name="Path 1661" d="M172.418,268.569a6.526,6.526,0,0,1-5.082-4.564l-25.468-87.813a3.736,3.736,0,0,1,.535-3.2,3.894,3.894,0,0,1,2.957-1.645l44.045-2.845a5.21,5.21,0,0,1,5.339,3.588l27.721,87.352a3.788,3.788,0,0,1-.456,3.252,3.942,3.942,0,0,1-2.938,1.745L174.3,268.655A6.745,6.745,0,0,1,172.418,268.569ZM190.635,169.2a4.752,4.752,0,0,0-1.189-.072L145.4,171.969a3.274,3.274,0,0,0-2.485,1.38,3.114,3.114,0,0,0-.446,2.669l25.468,87.813a5.947,5.947,0,0,0,6.3,4.2l44.774-4.218a3.321,3.321,0,0,0,2.476-1.468,3.165,3.165,0,0,0,.381-2.717l-27.721-87.352A4.55,4.55,0,0,0,190.635,169.2Z" transform="translate(-134.833 -164.116)" fill="#2a2635"/>
      </g>
      <path id="Path_1662" data-name="Path 1662" d="M169.041,226.065l14.5,49.365a1.718,1.718,0,0,0,1.846,1.222l40.346-3.495a1.719,1.719,0,0,0,1.444-2.216l-14.986-48.4a1.718,1.718,0,0,0-1.729-1.207L170.6,223.865A1.718,1.718,0,0,0,169.041,226.065Z" transform="translate(-150.957 -195.386)" fill="#8599c6"/>
      <path id="Path_1663" data-name="Path 1663" d="M172,207.886a3.932,3.932,0,1,1-3.628-3.878A3.762,3.762,0,0,1,172,207.886Z" transform="translate(-148.126 -185.125)" fill="#98a8b7"/>
      <path id="Path_1664" data-name="Path 1664" d="M188.935,204.836l.693,2.3a1.085,1.085,0,0,0,1.1.77l24.853-1.32a1.086,1.086,0,0,0,.971-1.43l-.8-2.377a1.085,1.085,0,0,0-1.09-.738l-24.746,1.4A1.085,1.085,0,0,0,188.935,204.836Z" transform="translate(-162.743 -183.965)" fill="#98a8b7"/>
      <path id="Path_1665" data-name="Path 1665" d="M208.62,359.6l27.1-2.374.5,1.717-27.161,2.316Z" transform="translate(-174.418 -275.795)" fill="#98a8b7"/>
      <path id="Path_1666" data-name="Path 1666" d="M211.154,368.606l20.212-1.88.5,1.717-20.274,1.822Z" transform="translate(-175.918 -281.413)" fill="#98a8b7"/>
      <path id="Path_1667" data-name="Path 1667" d="M302.716,357.078a1.5,1.5,0,0,0,.438-.9,1.612,1.612,0,0,0-1.47-1.74,1.648,1.648,0,0,0-1.694.917,1.694,1.694,0,0,0-1.136-.618,1.612,1.612,0,0,0-1.819,1.371,1.57,1.57,0,0,0,.888,1.568l2.331,1.488a.732.732,0,0,0,.983-.2Z" transform="translate(-226.726 -274.137)" fill="#f96277"/>
      <path id="Path_1668" data-name="Path 1668" d="M268.377,420.531l7.848-.713a.587.587,0,0,1,.63.694l-.006.03a.587.587,0,0,1-.526.476l-7.842.684a.588.588,0,0,1-.628-.694h0A.589.589,0,0,1,268.377,420.531Z" transform="translate(-209.46 -312.825)" fill="#56566d"/>
      <path id="Path_1669" data-name="Path 1669" d="M217.615,426.19c.034.48.649.828,1.373.776s1.283-.483,1.249-.963-.649-.827-1.373-.776S217.581,425.71,217.615,426.19Z" transform="translate(-179.739 -316.025)" fill="#56566d"/>
      <path id="Path_1670" data-name="Path 1670" d="M143.208,235.393l3.246,11.415h0a1.483,1.483,0,0,1-1.838-1.041l-2.334-8.656a1.483,1.483,0,0,1,.854-1.752h0A.054.054,0,0,1,143.208,235.393Z" transform="translate(-135.135 -203.68)" fill="#677e93"/>
      <g id="Group_255" data-name="Group 255" transform="translate(3.708 19.413)">
        <path id="Path_1671" data-name="Path 1671" d="M138,216.226l-3.088-10.862a.053.053,0,0,0-.072-.035,1.483,1.483,0,0,0-.855,1.752l2.334,8.656a1.464,1.464,0,0,0,.376.653.742.742,0,0,0,.931.082Z" transform="translate(-133.935 -205.325)" fill="#677e93"/>
        <path id="Path_1672" data-name="Path 1672" d="M138.683,216.226l-3.088-10.862a.053.053,0,0,0-.072-.035c-.024.01-.044.025-.067.036a1.62,1.62,0,0,0-.338,1.318c.177.838,2.51,9.039,2.51,9.039A.892.892,0,0,0,138.683,216.226Z" transform="translate(-134.617 -205.325)" fill="#445866"/>
      </g>
      <g id="Group_256" data-name="Group 256" transform="translate(7.113 31.575)">
        <path id="Path_1673" data-name="Path 1673" d="M146.342,246.012l-3.088-10.862a.053.053,0,0,0-.072-.035,1.484,1.484,0,0,0-.855,1.752l2.334,8.656a1.464,1.464,0,0,0,.376.653.742.742,0,0,0,.931.082Z" transform="translate(-142.275 -235.111)" fill="#677e93"/>
        <path id="Path_1674" data-name="Path 1674" d="M147.023,246.012l-3.088-10.862a.053.053,0,0,0-.072-.035c-.024.01-.044.025-.067.036a1.62,1.62,0,0,0-.338,1.318c.177.838,2.51,9.039,2.51,9.039A.892.892,0,0,0,147.023,246.012Z" transform="translate(-142.957 -235.111)" fill="#445866"/>
      </g>
      <path id="Path_1675" data-name="Path 1675" d="M171.832,204.008a4.19,4.19,0,0,0-1.809.256,4.7,4.7,0,0,1,3.954,1.476c1.219,1.28.748,3.513-.207,4.824a3.475,3.475,0,0,0,1.689-2.678A3.762,3.762,0,0,0,171.832,204.008Z" transform="translate(-151.58 -185.126)" fill="#6c7e8e" opacity="0.34"/>
      <path id="Path_1676" data-name="Path 1676" d="M190.88,209.621a7.737,7.737,0,0,1-1.859-2.723,1.069,1.069,0,0,0-.084.815l.693,2.3a1.085,1.085,0,0,0,1.1.77l24.853-1.32a1.079,1.079,0,0,0,.975-.769C207.97,209.051,191.681,210.131,190.88,209.621Z" transform="translate(-162.745 -186.843)" fill="#6c7e8e" opacity="0.55"/>
      <path id="Path_1677" data-name="Path 1677" d="M150.155,169.594a1.316,1.316,0,1,1-1.066-1.412A1.254,1.254,0,0,1,150.155,169.594Z" transform="translate(-138.29 -163.92)" fill="#3f3f51"/>
      <path id="Path_1678" data-name="Path 1678" d="M199.825,167.095l-11.634.572a.736.736,0,0,1-.771-.7h0a.736.736,0,0,1,.7-.771l11.634-.572a.736.736,0,0,1,.771.7h0A.736.736,0,0,1,199.825,167.095Z" transform="translate(-161.873 -162.421)" fill="#3f3f51"/>
      <path id="Path_1679" data-name="Path 1679" d="M238.93,280.926c-1.715-3.785-2.751-4.785-2.945-6.375a15.943,15.943,0,0,0-1.668-4.246,17.277,17.277,0,0,1-1.772-2.119,2.987,2.987,0,0,0-2.849-1.3c-2.025.153-2.139,2.119-3.388,6.936-1.066,4.112,1.681,8.317,4.056,9.971,2.064,1.437,3.38,1.251,6.12,3.2S240.645,284.71,238.93,280.926Zm-8.631.78a7.512,7.512,0,0,1-2.417-5.893.3.3,0,0,1,.579-.069,23.525,23.525,0,0,0,2.286,5.59A.293.293,0,0,1,230.3,281.706Z" transform="translate(-184.745 -222.332)" fill="#c6d7e5"/>
    </g>
    <g id="Group_267" data-name="Group 267" transform="translate(142.9 39.922)">
      <g id="Group_261" data-name="Group 261" transform="translate(0.292 14.825)">
        <g id="Group_259" data-name="Group 259">
          <path id="Path_1680" data-name="Path 1680" d="M247.195,129.1a54.085,54.085,0,0,1-5.376,2.773,5.856,5.856,0,0,1-1.7-.833s-1.556,1.505-3.173,1.137a4.714,4.714,0,0,1-2.209-.969,2.532,2.532,0,0,1-2.364.108c-1.148-.638-2.714-2.589-4.146-5.413s-1.7-4.767-1.461-5.431a5.6,5.6,0,0,1,.9-1.409,4.839,4.839,0,0,1,.165-2.888,9.871,9.871,0,0,1,2.194-2.115,3.765,3.765,0,0,1,.445-2.358l21.182-11.862a3.569,3.569,0,0,1,2.294-.869c1.028.186,1.956,1.553,1.956,1.553l1.778-.848a4.5,4.5,0,0,1-.255-3.665c.826-1.657,6.141-7.454,8.293-10.284l1.8-2.658.115-.609s-1.082-5.767,1.689-6.231c0,0,2-.136,6.255,4.692s9.159,14.393,9.159,14.393,4.05,8.371,5.442,13.81,2.144,9.755-.281,10.481c0,0-1.757.526-5.524-3.553l-.543.159-4.4-.119-4.662.452-2.848.458-3.495.958-.888-.128-1.638-1.335-1.435.913a2.2,2.2,0,0,1,.776,2.159c-.377,1.229-5.251,3.783-5.251,3.783l-.506.59.616,4.233,4.268,15.927s1.46,3.835.941,4.793-4.687,3.334-5.515,3.3-3.983-6.906-3.983-6.906Z" transform="translate(-226.69 -76.231)" fill="#fffbf8"/>
          <g id="Group_258" data-name="Group 258" transform="translate(1.612 38.011)">
            <path id="Path_1681" data-name="Path 1681" d="M287.935,190.286l-.616-4.233.039-.045.021-.948,1.643-1.821-.337-.3-2.225-1.741-.725.236-12.016,6.949.492,1.069c.123-.131,10.448-6.147,10.448-6.147s-.667.781.1,4.422,6.345,22.137,6.408,22.815-4.123,3.091-4.123,3.091,0,.054,0,.137c.244.327.45.528.589.534.828.035,5-2.34,5.515-3.3s-.941-4.793-.941-4.793Z" transform="translate(-256.129 -176.351)" fill="#aea3c6"/>
            <path id="Path_1682" data-name="Path 1682" d="M242.372,186.205l-.314-.474a30.087,30.087,0,0,1-6.34-7.364,25.881,25.881,0,0,1-3.391-9.041,43.306,43.306,0,0,0,.956,7.035c.637,1.93,4.959,6.982,4.959,6.982s-.708,1.1-1.282.766-5.709-5.954-5.709-5.954,2.293,4.858,1.759,5.163c-.416.238-1.788-1.439-2.371-2.188,1.412,2.749,2.945,4.647,4.074,5.274a2.532,2.532,0,0,0,2.364-.108,4.714,4.714,0,0,0,2.209.969A3.887,3.887,0,0,0,242.372,186.205Z" transform="translate(-230.638 -169.326)" fill="#aea3c6"/>
          </g>
        </g>
        <g id="Group_260" data-name="Group 260" transform="translate(3.241 2.329)">
          <path id="Path_1683" data-name="Path 1683" d="M301.523,105.668a2.92,2.92,0,0,0-.305,1.616c.009,1.182,3.459,11.236,7.661,17.032,0,0,2.319,3.182,2.764,3.174a9.148,9.148,0,0,0,1.133-.131,50.322,50.322,0,0,1,7.55-1.3c2.539-.065,5.935-.249,5.935-.249l2.085.045L323.266,119l-3.5-6.013-2.665-5.2-2.153-5.227L313.2,97.563l-.788-3.1-.74-1.916-4.872,6.66-2.68,3.11Z" transform="translate(-274.029 -88.215)" fill="#e5d873"/>
          <path id="Path_1684" data-name="Path 1684" d="M321.7,112.986l-2.665-5.2-2.153-5.227-1.753-4.993-.788-3.1-.74-1.916-1.316,1.8c.095,3.488.429,10.081,2.754,14.935,3.969,8.286,6.913,11.468,6.913,11.468s-6.62,1.254-7.8,1.326c-.989.06-7.536-7.793-9.668-10.384a57.328,57.328,0,0,0,6.33,12.622s2.319,3.182,2.764,3.174a9.148,9.148,0,0,0,1.133-.131,50.323,50.323,0,0,1,7.55-1.3c2.539-.065,5.935-.249,5.935-.249l2.085.045L325.2,119Z" transform="translate(-275.958 -88.215)" fill="#d3af54"/>
          <path id="Path_1685" data-name="Path 1685" d="M260.6,133.438s-1.177.509-1.32.954.35,5.492,3.455,10.442,5.242,5.973,5.242,5.973l1.193-.483a2.617,2.617,0,0,1,.848,1.557,3.038,3.038,0,0,1-.889,1.886,37.786,37.786,0,0,1-4.593,2.465s-.58-.522.266-1.1a3.231,3.231,0,0,0,1.091-1.092l-1.062-.937-1.364-1.054-.861.188-9.762,5.475-2.254,1.475,1.3,2.83s-4.356,3.11-5.547,2.785-4.908-3.716-6.776-6.126-4.207-8.8-4.207-8.8l-.735-3.765a2.834,2.834,0,0,1,1.354-2.015c1.176-.6,10.242-5.675,10.242-5.675l8.429-4.661s2.8-2.187,3.992-1.869A3.879,3.879,0,0,1,260.6,133.438Z" transform="translate(-234.628 -111.472)" fill="#e5d873"/>
          <path id="Path_1686" data-name="Path 1686" d="M270.507,155.22l-1.193.483s-2.136-1.022-5.242-5.973a23.765,23.765,0,0,1-3.443-9.6c-2.3,1.673,3.374,12.448,3.312,13.654-.064,1.244-14.34,8.058-16.507,8.135-1.679.06-7.846-4.56-10.545-6.648.591,1.551,2.466,6.3,4.018,8.3,1.868,2.41,5.585,5.8,6.776,6.126s5.547-2.785,5.547-2.785l-1.3-2.83,2.254-1.475,9.762-5.475.861-.188L266.168,158l1.062.937a3.228,3.228,0,0,1-1.091,1.091c-.846.578-.266,1.1-.266,1.1a37.79,37.79,0,0,0,4.593-2.465,3.038,3.038,0,0,0,.889-1.886A2.617,2.617,0,0,0,270.507,155.22Z" transform="translate(-235.966 -116.368)" fill="#d3af54"/>
          <path id="Path_1687" data-name="Path 1687" d="M332.27,81.94s1.676-.371,5.486,5.051a114.515,114.515,0,0,1,9.471,16.91,62.935,62.935,0,0,1,4.435,13.21c-.022.213.218,2.892-.775,2.856s-5.094-2.915-9.53-11.422-6.784-13.907-6.784-13.907S329.644,83.4,332.27,81.94Z" transform="translate(-291.947 -81.935)" fill="#b28c39"/>
        </g>
        <path id="Path_1688" data-name="Path 1688" d="M344.763,125.283a2.472,2.472,0,0,1,1.855.174,18.11,18.11,0,0,1,2.848,5.237c.08.766-1.144,1.74-1.144,1.74l-2.217-4.128A18.09,18.09,0,0,1,344.763,125.283Z" transform="translate(-296.547 -105.19)" fill="#9b948f"/>
      </g>
      <g id="Group_264" data-name="Group 264" transform="translate(2.909 62.044)">
        <path id="Path_1689" data-name="Path 1689" d="M240.335,239.913l7.491-9.836s.6-.855,1.186-1a3.538,3.538,0,0,0,1.767-1.273,10.531,10.531,0,0,1,.988-1.725c.515-.566,6.027-6,6.027-6l3.088-3.527s2.328-2.673,2.839-3.288,4.868-1.886,5.123-2.832a4.664,4.664,0,0,0-.243-2.767,9.307,9.307,0,0,0-.673-1.026l-.739-.139-1.546.763-1.752.5.991-1.062,1.474-.92.443,1.164s1.491-.875,1.506-2.172a9.377,9.377,0,0,0-.581-2.863l-.436-.8a7.542,7.542,0,0,0,.025-1.754,2.287,2.287,0,0,0-1.407-1.591,5.112,5.112,0,0,0-1.649.224l-7.5,2.867-.448-.059,3.768-3.215a25.823,25.823,0,0,1,3.139-1.906,1.612,1.612,0,0,1,.591-.026l.1.946s1.352-.966,1.545-1.667a3.087,3.087,0,0,0-1.142-2.591,8.635,8.635,0,0,0-1.263-.468,7.543,7.543,0,0,0-3.048.75c-1.986.826-6.737,4.491-6.737,4.491a15.26,15.26,0,0,0-3.428,3.3c-1.141,1.722-2.71,4.634-2.71,4.634l-2.667,6.028-2.508,6.129-.971,2.442-4.879,3.566s-2.738,1.855-2.963,3.137.963,5.433.963,5.433l2.549,5.4a12.057,12.057,0,0,0,2.284,2.624A1.308,1.308,0,0,0,240.335,239.913Z" transform="translate(-233.1 -191.877)" fill="#f9caa7"/>
        <g id="Group_262" data-name="Group 262" transform="translate(1.569 0.142)">
          <path id="Path_1690" data-name="Path 1690" d="M236.942,224.616s7.084-3.414,7.636-4.1,7.826-18.529,9.564-20.471,9.11-7.09,10.525-7.2a13.222,13.222,0,0,1,2.439.025,4.612,4.612,0,0,0-3.767-.428c-2.168.67-9.951,6.235-11.239,8.188s-7.628,16.164-7.628,16.164l-1.228,3.07Z" transform="translate(-236.942 -192.225)" fill="#fff5cc"/>
          <path id="Path_1691" data-name="Path 1691" d="M285.563,210.691s3.873-.453,4.5-.659,6.289-2.749,6.923-2.659a4.653,4.653,0,0,1,1.364.509s-.718-1.637-1.532-1.609a12.374,12.374,0,0,0-2.67.772l-6.9,2.672Z" transform="translate(-265.711 -200.537)" fill="#fff5cc"/>
          <path id="Path_1692" data-name="Path 1692" d="M306.107,216.285s-2.233.479-2.558.587-5.727,2.011-5.727,2.011L299,217.622s4.258-2.545,5.48-2.568S306.046,215,306.107,216.285Z" transform="translate(-272.964 -205.729)" fill="#fff5cc"/>
        </g>
        <g id="Group_263" data-name="Group 263" transform="translate(0 2.116)">
          <path id="Path_1693" data-name="Path 1693" d="M302.941,212.56a3.53,3.53,0,0,0-1.08,0c-.577.091-1.231.268-1.231.268l-4.249,2.3-.768,1.027-1.268.726-.7.829-.151.582s-.334-1.861.22-2.553a10.045,10.045,0,0,1,1.575-1.439,25.95,25.95,0,0,1,6.817-3.374C304.359,210.342,302.941,212.56,302.941,212.56Z" transform="translate(-268.778 -205.205)" fill="#cc926a"/>
          <path id="Path_1694" data-name="Path 1694" d="M285.135,205.31a24.447,24.447,0,0,1,1.2-3.515c.327-.379,6.15-4.623,7.162-4.718a5.563,5.563,0,0,1,2.584.355,3.259,3.259,0,0,1,.063.751l-.517.846-.936.641-.265-.893-.974.228-1.627.836-2.638,1.975-1.693,1.541-.724.73Z" transform="translate(-263.889 -197.059)" fill="#cc926a"/>
          <path id="Path_1695" data-name="Path 1695" d="M268.6,224.445c-.047-.088-.1-.176-.154-.264l.361,1.745s-.258-.6-.695-.692-6.979,1.268-6.979,1.268l1.418-1.182s1.327-.6,2.588-1.133l-1.249.357.991-1.062,1.474-.92.362.951-.4.2a6.534,6.534,0,0,1,.922-.3,1.07,1.07,0,0,1,1.014.474c-.177-.263-.327-.461-.327-.461l-.577-.109a2.521,2.521,0,0,0,.955-1.757,6.465,6.465,0,0,0-.146-1.325c-2.126.065-5.51,2.319-7.366,3.679a3.849,3.849,0,0,0-1.53,2.52,20.734,20.734,0,0,1-.641,2.98c-.425,1.284-5.12,7.959-6.826,10.361a3.5,3.5,0,0,1-1.558,1.22,7.587,7.587,0,0,0-1.763.884,5.663,5.663,0,0,0-.8,1.58,6.952,6.952,0,0,1-1.807,2.638c-2.2,2-6.51,5.75-7.4,5.238-.96-.554-3.813-6.592-4.934-9.026a2.128,2.128,0,0,0-.409.834c-.225,1.282.963,5.433.963,5.433l2.549,5.4a12.057,12.057,0,0,0,2.284,2.624,1.308,1.308,0,0,0,1.41.094l7.491-9.836s.6-.855,1.186-1a3.538,3.538,0,0,0,1.767-1.273,10.532,10.532,0,0,1,.988-1.725c.515-.565,6.027-6,6.027-6l3.088-3.527s2.328-2.673,2.839-3.288,4.868-1.886,5.123-2.832A4.666,4.666,0,0,0,268.6,224.445Z" transform="translate(-233.1 -210.768)" fill="#cc926a"/>
        </g>
      </g>
      <g id="Group_265" data-name="Group 265" transform="translate(0 14.551)">
        <path id="Path_1696" data-name="Path 1696" d="M270.176,75.84c-.008.02-.027.056-.022.059a.982.982,0,0,0,.154.1,9.552,9.552,0,0,1,2.078,1.388,25.943,25.943,0,0,1,3.122,3.193,54.694,54.694,0,0,1,3.847,5.2,89.042,89.042,0,0,1,5.9,10.489,82.558,82.558,0,0,1,3.941,9.621,46.2,46.2,0,0,1,1.663,6.249,19.7,19.7,0,0,1,.374,3.573,5.284,5.284,0,0,1-.131,1.371c-.015.057-.036.117.015.17l-.205.775c-.1.038-.093.135-.12.211a1.724,1.724,0,0,1-2.032,1.18,4.717,4.717,0,0,1-1.549-.606,12.184,12.184,0,0,1-2.052-1.554c-.331-.3-.65-.617-.967-.935a.456.456,0,0,0-.379-.165,10.024,10.024,0,0,1-1.2-.065,32.635,32.635,0,0,0-4.934.121c-2.511.23-5,.62-7.472,1.1-.63.122-1.264.223-1.9.326a4.137,4.137,0,0,1-.868.062,1.044,1.044,0,0,1-.514-.154,6.035,6.035,0,0,1-1.17-.916l-.187-.185-1.089.593c.015.113.1.146.158.2a2.057,2.057,0,0,1-.193,3.17c-.26.178-.521.355-.793.515q-1.145.674-2.3,1.331c-.4.227-.815.43-1.223.645a.964.964,0,0,0-.274.162c-.01.1.069.09.115.117a.964.964,0,0,0,.13.065,1.728,1.728,0,0,1,.987,1.056,6.533,6.533,0,0,1,.389,1.473,1.559,1.559,0,0,1-.683,1.577,3.882,3.882,0,0,1-.594.351.586.586,0,0,0-.262.155l.174.97c.1.06.18,0,.258-.013a6.461,6.461,0,0,1,.822-.149,1.828,1.828,0,0,1,1.826.88,2.089,2.089,0,0,1,.232.451,3.782,3.782,0,0,1,.133,2.251.644.644,0,0,0-.008.1,3.22,3.22,0,0,1,.656,1.418,7.955,7.955,0,0,1,.337,2.111,1.69,1.69,0,0,1-.191.8,5.177,5.177,0,0,1-.266.475c-.1.149-.226.28-.346.427a4.395,4.395,0,0,1,.406.237,1.57,1.57,0,0,1,.423.494,4.437,4.437,0,0,1,.622,2.895,3.387,3.387,0,0,1-.082.392,1.117,1.117,0,0,1-.626.759,1.384,1.384,0,0,0-.388.224c.078.262.155.53.238.795.385,1.226.715,2.468,1.037,3.712.058.223.1.45.141.676a1.246,1.246,0,0,1-.307,1.08,3.188,3.188,0,0,1-.328.34c-.256.222-.511.449-.786.646a19.2,19.2,0,0,1-3.774,2.1,1.637,1.637,0,0,1-.595.153.812.812,0,0,1-.622-.228,5.556,5.556,0,0,1-.919-1.167c-.427-.706-.824-1.429-1.213-2.157-.051-.094-.1-.186-.169-.3-.162.1-.231.263-.35.374a3.042,3.042,0,0,0-.347.371,48.76,48.76,0,0,1-5.25,5.632c-.662.623-1.335,1.235-2,1.856-.328.306-.646.622-.971.931a2.549,2.549,0,0,0-.623.97,6.757,6.757,0,0,1-.386.942,2.107,2.107,0,0,1-.742.781,8.532,8.532,0,0,1-1.6.772.744.744,0,0,0-.349.245c-.254.324-.517.641-.761.973-1.182,1.611-2.353,3.231-3.54,4.839-.921,1.247-1.859,2.482-2.791,3.722a4.753,4.753,0,0,1-.5.576.87.87,0,0,1-.715.29.682.682,0,0,0-.387.041l-.633-.168a.061.061,0,0,0-.032-.084,5.2,5.2,0,0,1-1.619-1.49,14.756,14.756,0,0,1-1.667-2.812,27.894,27.894,0,0,1-2.623-7.732c-.049-.372-.078-.747-.1-1.122a1.569,1.569,0,0,1,.1-.749.276.276,0,0,0,.025-.068,2.031,2.031,0,0,1,.672-1.095,46.153,46.153,0,0,1,4.284-3.437c.853-.7,1.731-1.369,2.61-2.036a1.309,1.309,0,0,0,.454-.632c.362-.991.743-1.975,1.122-2.96q.393-1.018.8-2.03c.3-.753.608-1.507.924-2.255.35-.826.71-1.648,1.072-2.469q.874-1.979,1.829-3.921c.387-.782.751-1.575,1.188-2.331.461-.8.89-1.612,1.428-2.362a11.371,11.371,0,0,1,1.739-2.042.832.832,0,0,0,.08-.1,3.556,3.556,0,0,0-.285-.487c-.1-.014-.16.053-.228.1-.652.4-1.322.766-2,1.126-.492.263-.975.543-1.467.806-.374.2-.749.4-1.138.568a1.222,1.222,0,0,1-1.114-.14c-.242-.137-.47-.3-.706-.447-.06-.038-.126-.067-.2-.106-.48.206-.958.413-1.437.615-.2.085-.4.166-.609.239a2.733,2.733,0,0,1-2.021-.075,7.548,7.548,0,0,1-1.321-.711,5.262,5.262,0,0,1-.874.219,2.894,2.894,0,0,1-1.537-.144,2.845,2.845,0,0,1-.9-.6,12.449,12.449,0,0,1-1.226-1.34,23.121,23.121,0,0,1-2.662-4.2,10.987,10.987,0,0,1-.756-1.966c-.153-.561-.323-1.118-.439-1.689a3.632,3.632,0,0,1-.055-1.12,2.327,2.327,0,0,1,.471-1.165c.153-.2.32-.394.482-.592a.758.758,0,0,0-.045-.319,6.655,6.655,0,0,1-.151-1.37,2.1,2.1,0,0,1,.367-1.2,6.089,6.089,0,0,1,.73-.857,15.419,15.419,0,0,1,1.413-1.287c0-.2-.009-.4-.012-.6,0-.1-.007-.193,0-.289a2.262,2.262,0,0,1,.648-1.426,3,3,0,0,1,.789-.63q4.944-2.752,9.881-5.517,5.733-3.2,11.464-6.413a4.08,4.08,0,0,1,.924-.421.753.753,0,0,1,.32-.015,2.7,2.7,0,0,1,1.277.577,5.635,5.635,0,0,1,.613.568,1.06,1.06,0,0,1,.327.529l1.364-.628a.434.434,0,0,0-.029-.258,19.493,19.493,0,0,1-.363-2.148A2.109,2.109,0,0,1,256.7,95.6a6.2,6.2,0,0,1,.522-.83c.566-.788,1.18-1.538,1.808-2.276,1.108-1.3,2.231-2.587,3.315-3.907a61.834,61.834,0,0,0,4.262-5.837c.137-.214.287-.419.432-.63-.051-.454-.109-.911-.154-1.369a11.473,11.473,0,0,1,.006-2.612,4.3,4.3,0,0,1,.435-1.494,1.721,1.721,0,0,1,1.6-1.006c.061,0,.174.065.19-.075ZM256.918,140.9a.251.251,0,0,1,.068-.172,2.393,2.393,0,0,1,.418-.453c.5-.445.991-.893,1.5-1.326a13.2,13.2,0,0,1,1.316-1.032,25.238,25.238,0,0,1,2.659-1.576c.057-.028.109-.091.191-.052a8.9,8.9,0,0,1-.732.67c.093.234.186.469.282.7.007.017.036.025.069.047.106-.139.207-.285.323-.417s.252-.263.383-.388a1.211,1.211,0,0,0,.349-.853,2.221,2.221,0,0,0,0-.291,9.547,9.547,0,0,0-.508-2.449,1.886,1.886,0,0,0-.19-.392.536.536,0,0,0-.419-.254,1.514,1.514,0,0,0-.538.061,7.223,7.223,0,0,0-1.427.536c-.546.264-1.079.554-1.6.858a2.135,2.135,0,0,1-.357.177c-.687.241-1.367.5-2.037.781-.046.02-.1.076-.169.007.087-.071.168-.144.256-.205a29.517,29.517,0,0,1,3.9-2.269,6.181,6.181,0,0,1,1.155-.436,2.709,2.709,0,0,1,.788-.12.2.2,0,0,0,.176-.044.06.06,0,0,0,.017-.02.534.534,0,0,0,.033-.1,3.618,3.618,0,0,0-.139-1.616,1.8,1.8,0,0,0-.231-.452,1.166,1.166,0,0,0-1.086-.538,3.112,3.112,0,0,0-.574.084c-.377.088-.754.181-1.126.289a36.62,36.62,0,0,0-4.73,1.772,22.288,22.288,0,0,1-2.149.892,10.981,10.981,0,0,0-1.408.582,4.34,4.34,0,0,0-.474.269,4.875,4.875,0,0,0-1.1,1.053c-.04.049-.065.134-.166.1a4,4,0,0,1,.429-1.079,1.844,1.844,0,0,1,.717-.706,2.451,2.451,0,0,1,.36-.173.858.858,0,0,0,.327-.22,23.843,23.843,0,0,1,2.393-2.122,40.441,40.441,0,0,1,3.8-2.746,5.167,5.167,0,0,1,2.066-.755.96.96,0,0,1,.836.167.886.886,0,0,0,.287-.836,6.664,6.664,0,0,0-.267-1.13,1.459,1.459,0,0,0-.986-1.023,3.953,3.953,0,0,0-3.241.162c-.227.115-.447.244-.668.37-1.6.919-3.12,1.964-4.622,3.035-1.314.937-2.6,1.911-3.82,2.968a7.46,7.46,0,0,0-1,1.053c-.291.374-.539.776-.792,1.175a50.481,50.481,0,0,0-2.854,5.354c-.45.94-.889,1.886-1.305,2.842s-.848,1.932-1.264,2.9q-.674,1.571-1.332,3.149-.4.974-.781,1.96a22.126,22.126,0,0,1-.855,2.086.776.776,0,0,1-.222.28c-.27.207-.533.422-.8.627-1.557,1.18-3.467,2.347-4.918,3.655q-.635.572-1.24,1.175a1.988,1.988,0,0,0-.633,1.71c.029.24.042.483.069.724a27.733,27.733,0,0,0,1.069,4.438,23.478,23.478,0,0,0,2.108,4.549,10.785,10.785,0,0,0,1.394,2.038,4.088,4.088,0,0,0,.971.813,1.153,1.153,0,0,0,.332.143.8.8,0,0,0,.911-.272c.137-.185.292-.356.431-.539,1.5-1.968,2.961-3.958,4.421-5.952.859-1.173,1.737-2.331,2.689-3.432a2.049,2.049,0,0,1,.775-.581c.382-.158.751-.34,1.116-.533a1.569,1.569,0,0,0,.679-.686,2.828,2.828,0,0,0,.175-.438,3.8,3.8,0,0,1,.96-1.647c.105-.1.2-.212.305-.312.645-.606,1.287-1.215,1.938-1.814a59.471,59.471,0,0,0,4.52-4.577c.806-.921,1.588-1.862,2.378-2.8.587-.694,1.177-1.385,1.75-2.09a5.1,5.1,0,0,1,1.778-1.413c.7-.336,1.388-.695,2.089-1.028a13.065,13.065,0,0,1,1.4-.621,1.918,1.918,0,0,0,.583-.365.93.93,0,0,0,.351-.689,4.584,4.584,0,0,0-.438-2.368,1.943,1.943,0,0,0-.246-.4.516.516,0,0,0-.547-.2c-.188.044-.377.088-.561.148a31.222,31.222,0,0,0-3.323,1.285c-.176.081-.352.165-.534.231a1.993,1.993,0,0,0-.475.262q-.461.325-.931.637A.971.971,0,0,1,256.918,140.9Zm-1.841-40.865c-.242-.22-.482-.441-.726-.658a3.2,3.2,0,0,0-.654-.456.861.861,0,0,0-.96.027c-.149.1-.314.183-.473.272l-11.623,6.5-7.274,4.064c-.868.485-1.734.974-2.605,1.453a2,2,0,0,0-.757.714,1.082,1.082,0,0,0-.169.55,5.986,5.986,0,0,0,.067,1.268c.076.417.152.835.248,1.247a26.926,26.926,0,0,0,1.314,4,33.471,33.471,0,0,0,2.309,4.7,19.871,19.871,0,0,0,4.165,5.009c.9.768,1.839,1.5,2.815,2.174.1.069.2.138.3.2a.8.8,0,0,0,.63.087,2.392,2.392,0,0,0,.6-.248q1.153-.659,2.307-1.316c.517-.293,1.036-.582,1.553-.875.071-.04.156-.065.2-.149a.786.786,0,0,0-.129-.295c-.3-.609-.6-1.216-.9-1.827a2.57,2.57,0,0,1-.151-.407.312.312,0,0,1,.136-.378c.151-.1.289-.22.442-.319.916-.594,1.828-1.192,2.753-1.773,2.014-1.265,4.1-2.4,6.188-3.542.787-.431,1.587-.837,2.4-1.226.218-.1.443-.2.668-.286a.982.982,0,0,1,.937.1c.041.026.084.049.124.076a15.965,15.965,0,0,1,1.852,1.461,1.743,1.743,0,0,1,.241.271.509.509,0,0,1,.033.581,1.458,1.458,0,0,1-.289.371c-.214.2-.431.391-.648.584a2.517,2.517,0,0,0-.469.5c-.025.039-.053.081,0,.124a.2.2,0,0,0,.135-.035c.234-.128.472-.25.7-.382q1.706-.975,3.41-1.953a.746.746,0,0,0,.232-.172c.1-.123.2-.24.3-.363a1.54,1.54,0,0,0,.248-1.51,10.162,10.162,0,0,0-.427-.987c-.339.2-.7.318-1.03.486a.393.393,0,0,1-.345.026,2.467,2.467,0,0,1-.261-.124,4.939,4.939,0,0,1-1.038-.79,21.948,21.948,0,0,1-3.621-4.439,41.214,41.214,0,0,1-2.209-4.179,20.983,20.983,0,0,1-1.21-3.154,13.451,13.451,0,0,1-.551-3.652c0-.036,0-.073,0-.109a.85.85,0,0,1,.5-.819c.2-.088.382-.21.573-.316C254.988,100.113,255.047,100.095,255.076,100.037Zm28.238,15.449a.3.3,0,0,0-.116-.218,48.6,48.6,0,0,1-3.447-4.412,80.447,80.447,0,0,1-4.88-7.971,91.077,91.077,0,0,1-4.926-10.663,54.223,54.223,0,0,1-2.708-9.048c-.01-.05-.005-.12-.083-.133-.255.413-.5.831-.765,1.236a49.834,49.834,0,0,1-3.706,4.894c-.961,1.14-1.947,2.258-2.921,3.385a34.859,34.859,0,0,0-2.267,2.885,3.667,3.667,0,0,0-.4.692.805.805,0,0,0-.065.425c.036.264.071.528.111.791a22.573,22.573,0,0,0,.96,3.691c.739,2.212,1.7,4.332,2.633,6.467l.667,1.535a.091.091,0,0,1,0,.112,1.539,1.539,0,0,1-.371-.428c-.323-.527-.643-1.057-.969-1.583a16.032,16.032,0,0,1-.944-1.763,41.976,41.976,0,0,1-2-5.308.944.944,0,0,0-.138-.358c-.886.382-1.731.849-2.585,1.29,0,.279-.008.534.011.786.022.3.06.6.106.9a18.433,18.433,0,0,0,1.232,4.326,40.185,40.185,0,0,0,1.862,3.826,23.472,23.472,0,0,0,2.5,3.706,19.1,19.1,0,0,0,1.887,2.014,5.149,5.149,0,0,0,.889.67,22.924,22.924,0,0,0,2.292-1.2.815.815,0,0,0-.21-.289,14.689,14.689,0,0,1-1.642-2.4,3.71,3.71,0,0,1-.325-.808c-.013-.049-.06-.114.027-.152a3.855,3.855,0,0,1,.638.695q.478.641.955,1.285c.405.545.828,1.076,1.286,1.579a5.45,5.45,0,0,0,.765.723c.658.488.5.468,1.323.367.636-.078,1.269-.2,1.9-.327,2.242-.47,4.5-.822,6.778-1.082a34.494,34.494,0,0,1,4.892-.264C282.139,115.384,282.719,115.422,283.314,115.486Zm7.2,1.979c.01-.054.034-.173.056-.292a9.339,9.339,0,0,0,.1-2.1,23.718,23.718,0,0,0-.554-3.845A51.653,51.653,0,0,0,288.1,104.4a90.7,90.7,0,0,0-8.417-17.108,57.592,57.592,0,0,0-4.246-5.948,28.226,28.226,0,0,0-3.117-3.3,10.13,10.13,0,0,0-2.068-1.467,3.074,3.074,0,0,0-1.24-.387,1.167,1.167,0,0,0-1.128.589,2.9,2.9,0,0,0-.382,1.016,8.5,8.5,0,0,0-.137,1.41,17.7,17.7,0,0,0,.254,3c.1.671.239,1.336.389,2a54.91,54.91,0,0,0,2.242,7.295,91.3,91.3,0,0,0,7.821,15.829,73.019,73.019,0,0,0,4.557,6.44,27.921,27.921,0,0,0,3.146,3.322,9.874,9.874,0,0,0,2.044,1.439,3.042,3.042,0,0,0,1.241.382,1.152,1.152,0,0,0,1.061-.512A2.829,2.829,0,0,0,290.516,117.465Zm-61.146-3.112a.305.305,0,0,0-.194.116c-.323.31-.65.618-.964.937-.178.181-.34.378-.5.574a1.319,1.319,0,0,0-.292.878,5.839,5.839,0,0,0,.108,1.046q.179.947.435,1.875a25.758,25.758,0,0,0,2.228,5.633,15.153,15.153,0,0,0,4.081,4.816,8.117,8.117,0,0,0,1.5.941,2.427,2.427,0,0,0,1.9.151c.492-.175.97-.38,1.449-.585a.483.483,0,0,0,.1-.083c-.2-.15-.391-.287-.574-.437-.6-.492-1.173-1.011-1.733-1.547a22.061,22.061,0,0,1-3.626-4.479,33.458,33.458,0,0,1-2.223-4.413,25.654,25.654,0,0,1-1.65-5.261A1.641,1.641,0,0,0,229.37,114.353Zm31.006,6.391a17.686,17.686,0,0,0-1.8-1.472c-.386-.268-.428-.281-.864-.079-.55.255-1.1.515-1.634.8-3.467,1.829-6.866,3.776-10.143,5.931-.039.026-.074.057-.109.083a.79.79,0,0,0,.126.31c.055.1.07.232.186.287.184-.136.354-.274.536-.393.691-.451,1.376-.911,2.081-1.339,2.043-1.241,4.142-2.385,6.212-3.58a7.162,7.162,0,0,1,1.157-.528c.154-.056.282-.037.291.036.015.118-.083.167-.158.224a10.912,10.912,0,0,1-1.089.728q-1.1.641-2.206,1.275c-1.545.89-3.094,1.775-4.609,2.716-.67.416-1.342.827-2.012,1.242-.016.01-.02.039-.032.065.332.685.695,1.357,1.075,2.02.028.049.047.113.134.114.265-.217.533-.445.809-.662,1.448-1.144,2.952-2.209,4.48-3.243.985-.666,2-1.285,3.036-1.87a4.577,4.577,0,0,1,2.656-.587.478.478,0,0,0,.263-.021,1.707,1.707,0,0,1,.432-.855c.122-.134.254-.26.388-.382.206-.188.42-.367.625-.556A.39.39,0,0,0,260.376,120.744Zm-3.313,26.967c.015.033.035.089.063.142.449.86.915,1.71,1.413,2.542.142.238.307.465.467.693a3.128,3.128,0,0,0,.234.277.359.359,0,0,0,.363.111,2.525,2.525,0,0,0,.478-.172,19.2,19.2,0,0,0,3.247-1.779,7.5,7.5,0,0,0,1.049-.839c.433-.42.489-.55.356-1.126-.139-.6-.294-1.2-.447-1.8-.251-.984-.556-1.953-.846-2.921a.322.322,0,0,0-.213.065c-1.019.51-2.035,1.024-3.055,1.531a4.068,4.068,0,0,0-1.384,1.1c-.084.1-.169.206-.253.309q-.676.832-1.35,1.664A.362.362,0,0,0,257.063,147.711ZM233.8,130.724a.5.5,0,0,0-.217-.234,15.3,15.3,0,0,1-3.462-3.942,23.225,23.225,0,0,1-2.167-4.639c-.263-.756-.506-1.518-.719-2.29-.025-.089-.019-.2-.116-.255a1.836,1.836,0,0,0-.455.968,2.542,2.542,0,0,0,.062,1.046c.142.589.3,1.174.452,1.761a8.579,8.579,0,0,0,.625,1.628,22.315,22.315,0,0,0,2.84,4.389c.247.3.518.577.785.858a3.726,3.726,0,0,0,.577.5,1.6,1.6,0,0,0,.667.269A3,3,0,0,0,233.8,130.724Zm19.036,1c.365-.171.717-.332,1.066-.5a36.785,36.785,0,0,1,5.583-2.177c.078-.023.172-.021.22-.107a5.884,5.884,0,0,0-.407-1.768c-.124.034-.254.062-.378.105a3.346,3.346,0,0,0-.436.18c-.226.118-.448.243-.664.377a38.711,38.711,0,0,0-4.929,3.72C252.862,131.583,252.812,131.605,252.841,131.722Zm9.175,5.524a12.739,12.739,0,0,0-1.574,1.248,14.3,14.3,0,0,0,1.794-.648A4.942,4.942,0,0,0,262.015,137.246Zm-1.8-10.293-.4.131c.017.107.031.191.049.3A.881.881,0,0,0,260.22,126.953Z" transform="translate(-225.975 -75.56)" fill="#442e37"/>
        <path id="Path_1697" data-name="Path 1697" d="M295.772,223.874a8.781,8.781,0,0,0-1.273.886,3.468,3.468,0,0,0-.963,1.161.223.223,0,0,1-.067-.233,1.985,1.985,0,0,1,.995-1.517,6.5,6.5,0,0,1,.89-.4C295.542,223.7,295.552,223.705,295.772,223.874Z" transform="translate(-265.908 -163.229)" fill="#442e37"/>
        <path id="Path_1698" data-name="Path 1698" d="M332.406,81.211a2.81,2.81,0,0,1,.847.409,8.736,8.736,0,0,1,1.285,1.064,25.932,25.932,0,0,1,2.473,2.857,62.582,62.582,0,0,1,3.894,5.8,106.88,106.88,0,0,1,8.131,16.574,54.258,54.258,0,0,1,1.883,5.733,21.552,21.552,0,0,1,.636,3.28,6.744,6.744,0,0,1-.007,1.7,2.046,2.046,0,0,1-.192.623.873.873,0,0,1-.981.522,2.17,2.17,0,0,1-.775-.3,6.259,6.259,0,0,1-1.081-.795,16.952,16.952,0,0,1-1.525-1.557,43.633,43.633,0,0,1-3.363-4.476,93.985,93.985,0,0,1-5.419-9.3,101.4,101.4,0,0,1-4.863-10.891,52.751,52.751,0,0,1-1.7-5.3,20.487,20.487,0,0,1-.612-3.284,6.813,6.813,0,0,1,.009-1.488,2.237,2.237,0,0,1,.2-.695.886.886,0,0,1,1.052-.507C332.336,81.19,332.371,81.2,332.406,81.211Zm8.093,25.235c.036.068.069.132.1.2q.861,1.541,1.783,3.047a60.6,60.6,0,0,0,3.984,5.824,22.057,22.057,0,0,0,2.357,2.62,7,7,0,0,0,1,.785,2.1,2.1,0,0,0,.659.3c.277.062.413,0,.514-.265a2.313,2.313,0,0,0,.146-.674,7.472,7.472,0,0,0-.032-1.307,20.18,20.18,0,0,0-.527-2.821,51.882,51.882,0,0,0-1.779-5.577,106.6,106.6,0,0,0-9.559-19.023,50.794,50.794,0,0,0-3.353-4.667,18.8,18.8,0,0,0-2.115-2.249,5.166,5.166,0,0,0-.937-.684,2.656,2.656,0,0,0-.463-.208c-.318-.1-.479-.015-.588.3a2.617,2.617,0,0,0-.136.712,9.644,9.644,0,0,0,.168,2.17,32.208,32.208,0,0,0,1.109,4.367,82.05,82.05,0,0,0,3.8,9.565.412.412,0,0,0,.147.222c.1-.022.22-.044.336-.071a3.627,3.627,0,0,1,.757-.081,1.287,1.287,0,0,1,.81.274,3.492,3.492,0,0,1,.356.308,5.689,5.689,0,0,1,.623.757,14.319,14.319,0,0,1,1.478,2.792c.125.289.227.588.329.886a2.678,2.678,0,0,1,.138.639,1.3,1.3,0,0,1-.2.833A3.586,3.586,0,0,1,340.5,106.446Zm-.254-.549a5.154,5.154,0,0,0,.562-.686.793.793,0,0,0,.143-.719c-.057-.2-.1-.4-.173-.592a20.045,20.045,0,0,0-.923-2.1,10.359,10.359,0,0,0-.793-1.346,4.253,4.253,0,0,0-.587-.691.858.858,0,0,0-.5-.272,2.248,2.248,0,0,0-.96.118c.194.579,1.887,3.938,3.046,6.044C340.1,105.739,340.124,105.841,340.245,105.9Z" transform="translate(-288.119 -78.871)" fill="#442e37"/>
      </g>
      <g id="Group_266" data-name="Group 266" transform="translate(58.468)">
        <path id="Path_1699" data-name="Path 1699" d="M369.172,63.291l5.472-23.37,7.736,3.631Z" transform="translate(-369.172 -39.922)" fill="#4530ae"/>
        <path id="Path_1700" data-name="Path 1700" d="M381.4,98.316l11.948-14.7,7.172,11.234Z" transform="translate(-376.41 -65.775)" fill="#4530ae"/>
        <path id="Path_1701" data-name="Path 1701" d="M394.878,142.452l13.086.269-.8,4.251Z" transform="translate(-384.382 -100.589)" fill="#4530ae"/>
      </g>
    </g>
    <path id="Path_1702" data-name="Path 1702" d="M221.339,381.973l-.332-.411a1.7,1.7,0,0,0,.107-.592,2.278,2.278,0,1,0-2.253,1.945,2.437,2.437,0,0,0,1.6-.573l.578.124A.307.307,0,0,0,221.339,381.973Z" transform="translate(-77.532 -200.646)" fill="#98a8b7"/>
  </g>
</svg>
