<svg xmlns="http://www.w3.org/2000/svg" width="522.173" height="551.207" viewBox="0 0 522.173 551.207">
  <g id="Group_3368" data-name="Group 3368" transform="translate(-870.285 -315.321)" opacity="0.898">
    <path id="Path_1758" data-name="Path 1758" d="M902.369,604.618A37.5,37.5,0,0,1,907.3,563.5a36.819,36.819,0,0,1,57.166,1.278,37.394,37.394,0,0,1-12.393,56.251,36.866,36.866,0,0,1-49.709-16.416Z" transform="translate(5.495 49.523)" fill="#e1d9f1"/>
    <path id="Path_1759" data-name="Path 1759" d="M952.228,584.989c-2.892,12.4-14.323,21.946-14.323,21.946s-14.518-3.534-22.455-13.316c-6.669-8.171-6.152-18.808.553-22.665,9.537-5.542,16.328,11.854,16.328,11.854s-1.563-18.623,9.511-17.9C949.459,565.4,954.627,574.7,952.228,584.989Z" transform="translate(8.09 52.549)" fill="#fff"/>
    <path id="Path_1760" data-name="Path 1760" d="M1281.792,694.895a36.787,36.787,0,0,1-38.762-3.371,37.428,37.428,0,0,1,2.421-61.46,36.755,36.755,0,0,1,44.416,3.865,37.392,37.392,0,0,1-8.074,60.966Z" transform="translate(74.93 65.071)" fill="#e1d9f1"/>
    <path id="Path_1761" data-name="Path 1761" d="M1272.139,654.573a11.312,11.312,0,0,1-7.808,9.843,11.216,11.216,0,0,1-12.021-3.511,11.4,11.4,0,0,1-1.38-12.529,11.323,11.323,0,0,1,4.564-4.714,11.229,11.229,0,0,1,14.055,2.632,11.325,11.325,0,0,1,2.591,8.279Z" transform="translate(79.462 68.841)" fill="#fff"/>
    <path id="Path_1762" data-name="Path 1762" d="M1279.6,682.529l-.4,4.662a36.783,36.783,0,0,1-38.762-3.373l.4-4.65a19.634,19.634,0,0,1,6.767-13.518,19.363,19.363,0,0,1,27.613,2.395,19.628,19.628,0,0,1,3.632,6.8A19.878,19.878,0,0,1,1279.6,682.529Z" transform="translate(77.52 72.777)" fill="#fff"/>
    <path id="Path_1763" data-name="Path 1763" d="M1256.027,441.368h-4.382a4.877,4.877,0,0,1-3.474-1.453,4.938,4.938,0,0,1-1.441-3.507,4.99,4.99,0,0,1,4.915-4.958h6.15l2.869-16.7h-5.532a4.946,4.946,0,0,1-3.511-1.464,5.022,5.022,0,0,1,0-7.066,4.946,4.946,0,0,1,3.511-1.464h7.227l1.889-11.433a4.94,4.94,0,0,1,4.927-4.128,5.067,5.067,0,0,1,2.082.5,5.111,5.111,0,0,1,2.7,3.225,5.177,5.177,0,0,1,.133,2.155l-1.695,9.683h14.95l1.9-11.433A4.994,4.994,0,0,1,1291,390.3a4.9,4.9,0,0,1,3.3-1.1,5,5,0,0,1,2.094.461,5.065,5.065,0,0,1,1.707,1.3,4.957,4.957,0,0,1,1.017,1.895,5.17,5.17,0,0,1,.157,2.151l-1.634,9.683h4.394a4.91,4.91,0,0,1,3.486,1.453,4.993,4.993,0,0,1,1.44,3.507,5.062,5.062,0,0,1-1.477,3.476,5,5,0,0,1-3.45,1.484h-6.089l-2.869,16.7h5.435a4.9,4.9,0,0,1,3.474,1.453,4.989,4.989,0,0,1,0,7.014,4.9,4.9,0,0,1-3.474,1.453h-7.154l-2.01,11.8a4.972,4.972,0,0,1-1.695,2.982,4.909,4.909,0,0,1-3.22,1.148,4.966,4.966,0,0,1-2.082-.479,5.084,5.084,0,0,1-2.845-5.36l1.828-10.092h-15.108l-2.009,11.8a5.02,5.02,0,0,1-1.743,3.014,5.1,5.1,0,0,1-7.106-.633,4.944,4.944,0,0,1-1.089-4.092Zm26.8-9.993,2.917-16.7H1270.82l-2.869,16.7Z" transform="translate(78.844 15.554)" fill="#e1d9f1"/>
    <path id="Path_1764" data-name="Path 1764" d="M1256.932,389.719a41.17,41.17,0,0,0,9.721-57.083,40.454,40.454,0,0,0-56.654-9.8,41.159,41.159,0,0,0-9.721,57.083A40.454,40.454,0,0,0,1256.932,389.719Z" transform="translate(67.493 0)" fill="#e1d9f1"/>
    <path id="Path_1765" data-name="Path 1765" d="M1222.508,370.268c-1.077-.683-2.01-1.662-3.45-1.525-.557,0-.436-.409-.436-.707V351.668c0-.4,0-.719.46-.942,4.128-2.1,5.92-6.2,8.45-9.77a16.365,16.365,0,0,0,2.76-5.892,16.59,16.59,0,0,0,.242-6.507c-.17-1.241.4-1.773,1.489-2.022a2.678,2.678,0,0,1,3.087.979,21.542,21.542,0,0,1,2.409,7.179c.254,2.071-.484,4.08-.75,6.138-.182,1.489-.52,2.977-.811,4.489.363.26.775.125,1.174.137h13.716c1.937,0,2.869.558,3.135,1.847a3.779,3.779,0,0,1-.327,2.331A3.737,3.737,0,0,1,1252,351.3c-.351.173-.969,0-1,.558s.593.5.92.719c1.646,1.14,1.332,3.5-.569,4.872-.472.322-1.356.174-1.38.856s.823.533,1.235.918c1.319,1.327.666,3.806-1.332,4.811a5.956,5.956,0,0,0-.8.322c-.23.149-.46.322,0,.633,1.973,1.425,1.937,3.409-.061,4.86l-.593.433a3.922,3.922,0,0,1-2.458.533H1224.4a2.439,2.439,0,0,1-.993-.081A2.554,2.554,0,0,1,1222.508,370.268Z" transform="translate(72.924 2.329)" fill="#fff" fill-rule="evenodd"/>
    <path id="Path_1766" data-name="Path 1766" d="M1204.98,356.673v-10.39c0-.707.073-1.053.92-1.041h12.59c.823,0,.944.284.944,1.017v20.917c0,.892-.23,1.14-1.114,1.128h-12.19c-1.029,0-1.162-.347-1.15-1.241C1205.016,363.617,1204.98,360.145,1204.98,356.673Z" transform="translate(70.053 6.3)" fill="#fff" fill-rule="evenodd"/>
    <path id="Path_1767" data-name="Path 1767" d="M1291.208,375.356h-334.3V795.67h334.3Z" transform="translate(17.818 12.641)" fill="#455a64"/>
    <path id="Path_1768" data-name="Path 1768" d="M1269.52,413.948H973.209V712.542H1269.52Z" transform="translate(21.251 20.767)" fill="#fff"/>
    <path id="Path_1769" data-name="Path 1769" d="M986.985,404.624a9.649,9.649,0,0,1-11.377-.864,9.822,9.822,0,0,1,1.174-15.782,9.648,9.648,0,0,1,11.378.856,9.827,9.827,0,0,1-1.175,15.791Z" transform="translate(21.034 14.991)" fill="#fff"/>
    <path id="Path_1770" data-name="Path 1770" d="M983.659,394.2a2.99,2.99,0,0,1-.5,1.654,2.957,2.957,0,0,1-1.326,1.1,2.937,2.937,0,0,1-3.218-.644,2.989,2.989,0,0,1,.447-4.578,2.943,2.943,0,0,1,3.733.366,2.979,2.979,0,0,1,.861,2.108Z" transform="translate(22.208 15.982)" fill="#37474f"/>
    <path id="Path_1771" data-name="Path 1771" d="M986.187,401.355v1.24a9.646,9.646,0,0,1-10.212,0v-1.24a5.167,5.167,0,0,1,1.5-3.639,5.078,5.078,0,0,1,7.221,0A5.168,5.168,0,0,1,986.187,401.355Z" transform="translate(21.833 17.032)" fill="#37474f"/>
    <path id="Path_1772" data-name="Path 1772" d="M1212.568,393.679a.912.912,0,0,1,.642.277.94.94,0,0,1,.266.654.906.906,0,0,1-.266.64.926.926,0,0,1-.642.264.907.907,0,0,1-.908-.9,1.15,1.15,0,0,1,.061-.352.895.895,0,0,1,.5-.5A.936.936,0,0,1,1212.568,393.679Z" transform="translate(71.46 16.499)" fill="#c7c7c7"/>
    <path id="Path_1773" data-name="Path 1773" d="M1214.875,393.679a.945.945,0,0,1,.654.276,1.009,1.009,0,0,1,.278.655.879.879,0,0,1-.073.35.983.983,0,0,1-.206.3.954.954,0,0,1-.3.195.906.906,0,0,1-.351.064.858.858,0,0,1-.63-.265.907.907,0,0,1-.266-.639.871.871,0,0,1,.06-.352.957.957,0,0,1,.194-.3.91.91,0,0,1,.291-.2A.934.934,0,0,1,1214.875,393.679Z" transform="translate(71.949 16.499)" fill="#c7c7c7"/>
    <path id="Path_1774" data-name="Path 1774" d="M1217.209,393.679a.912.912,0,0,1,.641.277.917.917,0,0,1,.109,1.16.871.871,0,0,1-.412.332.888.888,0,0,1-.521.047.94.94,0,0,1-.472-.253.917.917,0,0,1,.145-1.409A.911.911,0,0,1,1217.209,393.679Z" transform="translate(72.436 16.499)" fill="#c7c7c7"/>
    <path id="Path_1775" data-name="Path 1775" d="M1091.033,392.625h-93.5v4.785h93.5Z" transform="translate(26.373 16.278)" fill="#37474f"/>
    <path id="Path_1776" data-name="Path 1776" d="M1258.628,660.615h-237.2V732.53Z" transform="translate(31.405 72.706)" fill="#37474f"/>
    <path id="Path_1777" data-name="Path 1777" d="M1040.673,690.874l-1.44-.286-2.942-11.048L1029.5,672.1l.605-1.376h23.969l.654,1.314Zm-8.728-18.6,5.69,6.2.182.347,2.554,9.622,12.057-16.218Z" transform="translate(33.104 74.835)" fill="#c7c7c7"/>
    <path id="Path_1778" data-name="Path 1778" d="M1053.354,670.482l-18.534,8.289.654,1.5,18.534-8.289Z" transform="translate(34.224 74.784)" fill="#c7c7c7"/>
    <path id="Path_1779" data-name="Path 1779" d="M983.434,690.1a10.19,10.19,0,0,1-5.993-1.968,10.372,10.372,0,0,1-.092-16.653,10.184,10.184,0,0,1,11.994-.163,10.368,10.368,0,0,1,3.934,11.419l1.551,6.348-.984.991-5.377-1.24A10.181,10.181,0,0,1,983.434,690.1Zm0-18.959a8.6,8.6,0,0,0-6.86,3.422,8.727,8.727,0,0,0,.438,11.049,8.564,8.564,0,0,0,10.851,1.648l.6-.086,4.417,1.029-1.231-5.257V682.5a8.876,8.876,0,0,0,.419-2.652,8.719,8.719,0,0,0-2.523-6.163,8.583,8.583,0,0,0-6.115-2.542Z" transform="translate(21.251 74.566)" fill="#c7c7c7"/>
    <path id="Path_1780" data-name="Path 1780" d="M1144.246,557.153a1.039,1.039,0,0,1-.315.7,1.062,1.062,0,0,1-.69.315c-1.235-.063-2.736-.174-4.406-.286-2.578-10.787-5.726-19.5-5.036-16.119a53.611,53.611,0,0,1,.7,15.858l-8.68-.707c-1.029-18.524-3.68-32.51-3.91-28.344-1.078,16.838-2.748,22.07-4.661,27.637-20.918-1.772-48.35-4.414-68.143-6.745-.969-10.291-1.562-21.375-2.01-20.669-3.426,5.295-5.23,13.391-6.149,19.69-6.283-.793-11.307-1.537-14.345-2.145,0,0-.363-8.593-.218-11.382A58.5,58.5,0,0,1,1031.3,514.2c3-6.732,7.385-12.4,11.682-18.325l.109-.137a60.085,60.085,0,0,0,6.961-12.337v-.087a57.681,57.681,0,0,0,2.942-9.807c2.47-12.213,10.823-21.972,22.759-23.72,24.429-17.755,45.081-6.2,49.585,10.49.424,1.625.811,3.472,1.223,5.48v.063c1.307,7.439,2.082,16.949,2.99,24.338v.075a68.992,68.992,0,0,0,1.5,8.6C1134.973,512.417,1146.558,521.369,1144.246,557.153Z" transform="translate(32.441 26.438)" fill="#263238"/>
    <path id="Path_1781" data-name="Path 1781" d="M1070.79,450.429c-8.074,2.976-13.461,8.158-15.81,17.011-1.356,5.158-2.385,10.241-5.024,14.879s-6.549,8.6-10.459,12.4c-6.15,5.952-10.8,12.09-12.784,20.831s-2.966,19.516-1.065,28.281h.085c-1.32-8.815.145-20.582,2.808-29.274,2.93-9.56,9.212-14.99,15.8-21.673a41.1,41.1,0,0,0,10.871-18.859c1.138-4.377,1.683-9.014,4.007-12.97,2.772-4.736,7.385-7.352,11.984-9.634a.561.561,0,0,0,.291-.294.542.542,0,0,0-.012-.413.525.525,0,0,0-.69-.284Z" transform="translate(32.077 28.44)" fill="#263238"/>
    <path id="Path_1782" data-name="Path 1782" d="M1124.6,509.995c-4.419-7.7-9.176-14.395-11.173-23.484-1.8-8.283-2.349-16.863-4.213-25.146,0-.136-.23-.1-.194,0,2.627,14.619,1.634,28.89,9.091,41.872,4.055,7.055,8.159,13.638,10.374,21.748a69.4,69.4,0,0,1,1.755,26.038.135.135,0,0,0-.012.1.234.234,0,0,0,.024.092.485.485,0,0,0,.073.07.228.228,0,0,0,.085.034.207.207,0,0,0,.1-.007.194.194,0,0,0,.085-.048.23.23,0,0,0,.061-.08.257.257,0,0,0,.012-.1A57.472,57.472,0,0,0,1124.6,509.995Z" transform="translate(49.847 30.733)" fill="#263238"/>
    <path id="Path_1783" data-name="Path 1783" d="M1101.449,544.2c39.307,41.5,88.165,128.242,78.493,145.489-10.75,19.219-67.428-39.863-65.649-42.689,1.513-2.405-18.074-54.63-32.3-92.832S1091.729,533.934,1101.449,544.2Z" transform="translate(43.231 45.391)" fill="#eb9481"/>
    <path id="Path_1784" data-name="Path 1784" d="M1149.867,593.954,1093.442,604.2s-14.079-40.3-16.875-62.664c-1.574-12.535,5.738-13.044,14.938-6.386C1123.706,558.469,1149.867,593.954,1149.867,593.954Z" transform="translate(42.969 45.394)" fill="#4317af"/>
    <path id="Path_1785" data-name="Path 1785" d="M1089.038,548.261a4.476,4.476,0,0,1-.944,1.1,6.139,6.139,0,0,1-.617.5h-.169a5.574,5.574,0,0,1-1.55-1.612,1.668,1.668,0,0,1-.266-.822,1.722,1.722,0,0,1,.157-.852.88.88,0,0,1,.3-.312.844.844,0,0,1,.424-.109,1.074,1.074,0,0,0,.4.517,1.055,1.055,0,0,0,.617.195,1.083,1.083,0,0,0,.617-.195,1.152,1.152,0,0,0,.4-.517.831.831,0,0,1,.424.108.907.907,0,0,1,.315.314,1.734,1.734,0,0,1,.157.856A1.69,1.69,0,0,1,1089.038,548.261Zm17.444-1.425a1.861,1.861,0,0,0,.206,1.413,5.57,5.57,0,0,0,1.549,1.612h.169a5.806,5.806,0,0,0,.63-.5.681.681,0,0,0,.133-.137c-.835-.793-1.671-1.611-2.639-2.392Zm-27.758-13.788a.874.874,0,0,0-.3-.315.816.816,0,0,0-.424-.107.958.958,0,0,0-.472.111,7.741,7.741,0,0,0-1.065,3.248,3.139,3.139,0,0,0,.436.335h.17s.291-.211.605-.5a4.768,4.768,0,0,0,.956-1.1,1.8,1.8,0,0,0,.254-.824A1.854,1.854,0,0,0,1078.724,533.048ZM1089.2,573.68a.808.808,0,0,0-.315-.313.83.83,0,0,0-.424-.108,1.148,1.148,0,0,1-.4.516,1.07,1.07,0,0,1-1.235,0,1.071,1.071,0,0,1-.4-.516.845.845,0,0,0-.424.109.882.882,0,0,0-.3.312,1.72,1.72,0,0,0-.157.851,1.667,1.667,0,0,0,.266.823,5.48,5.48,0,0,0,1.549,1.6h.169a5.43,5.43,0,0,0,.617-.483,4.887,4.887,0,0,0,.956-1.116,1.752,1.752,0,0,0,.266-.849,1.68,1.68,0,0,0-.169-.875Zm20.918,0a1.033,1.033,0,0,0-.315-.312.845.845,0,0,0-.424-.109,1.141,1.141,0,0,0-.617.21,1.169,1.169,0,0,0-.411.51,1.155,1.155,0,0,0-.4-.511,1.126,1.126,0,0,0-.605-.208.813.813,0,0,0-.424.109.822.822,0,0,0-.315.312,1.72,1.72,0,0,0-.157.851,1.668,1.668,0,0,0,.266.823,5.636,5.636,0,0,0,1.562,1.6h.157a5.851,5.851,0,0,0,.629-.483,4.263,4.263,0,0,0,.932-1.116,1.758,1.758,0,0,0,.291-.844,1.824,1.824,0,0,0-.145-.88Zm20.906,0a.865.865,0,0,0-.3-.313.845.845,0,0,0-.436-.108,1.126,1.126,0,0,0-.605.208.412.412,0,1,1-.8,0,1.154,1.154,0,0,0-.617-.207.844.844,0,0,0-.424.109.79.79,0,0,0-.3.312,1.719,1.719,0,0,0-.169.85,1.807,1.807,0,0,0,.266.824,5.332,5.332,0,0,0,1.562,1.6h.169a6.225,6.225,0,0,0,.617-.483,4.165,4.165,0,0,0,.932-1.116,1.754,1.754,0,0,0,.3-.841,1.71,1.71,0,0,0-.157-.883Zm-31.39-13.638a.9.9,0,0,0-.315-.315.83.83,0,0,0-.424-.108,1.123,1.123,0,0,0-.617.209.412.412,0,1,1-.8,0,1.153,1.153,0,0,0-.617-.208.828.828,0,0,0-.424.111.813.813,0,0,0-.315.311,1.869,1.869,0,0,0-.157.851,1.8,1.8,0,0,0,.267.822,5.727,5.727,0,0,0,1.562,1.612h.157a6.128,6.128,0,0,0,.629-.5,4.148,4.148,0,0,0,.932-1.116,1.646,1.646,0,0,0,.291-.811,1.852,1.852,0,0,0-.133-.85Zm20.906,0a.815.815,0,0,0-.738-.422,1.046,1.046,0,0,1-.388.517,1.082,1.082,0,0,1-.617.195,1.054,1.054,0,0,1-.617-.195,1.069,1.069,0,0,1-.4-.517.844.844,0,0,0-.436.108.87.87,0,0,0-.3.315,1.716,1.716,0,0,0-.157.851,1.662,1.662,0,0,0,.266.822,5.817,5.817,0,0,0,1.55,1.612h.169s.3-.211.63-.5a4.9,4.9,0,0,0,.932-1.116,1.637,1.637,0,0,0,.291-.809,1.706,1.706,0,0,0-.109-.852Zm-10.471,40.619a.81.81,0,0,0-.315-.308.823.823,0,0,0-.424-.115,1.116,1.116,0,0,0-.605.209.411.411,0,1,1-.8,0,1.177,1.177,0,0,0-.617-.209.814.814,0,0,0-.726.423,1.391,1.391,0,0,0-.17.793l3.692-.669c.012-.034.024-.071.036-.111ZM1099.606,587.1a.921.921,0,0,0-.315-.318.838.838,0,0,0-.424-.115,1.137,1.137,0,0,0-.617.215.413.413,0,1,1-.8,0,1.161,1.161,0,0,0-.617-.214.8.8,0,0,0-.424.119.817.817,0,0,0-.315.315,1.867,1.867,0,0,0-.157.851,1.8,1.8,0,0,0,.266.823,5.477,5.477,0,0,0,1.562,1.6h.157a5.539,5.539,0,0,0,1.562-1.6,1.772,1.772,0,0,0,.3-.809,1.858,1.858,0,0,0-.121-.852Zm20.906,0a.834.834,0,0,0-.738-.433,1.017,1.017,0,0,1-.387.533,1.057,1.057,0,0,1-1.247,0,1.085,1.085,0,0,1-.388-.533.851.851,0,0,0-.436.115.891.891,0,0,0-.3.318,1.723,1.723,0,0,0-.157.852,1.666,1.666,0,0,0,.266.822,5.539,5.539,0,0,0,1.549,1.6h.169a5.383,5.383,0,0,0,.63-.5,4.727,4.727,0,0,0,.932-1.1,1.632,1.632,0,0,0,.3-.806,1.862,1.862,0,0,0-.1-.855Zm20.919,0a.892.892,0,0,0-.3-.318.85.85,0,0,0-.436-.115,1.133,1.133,0,0,0-.605.215,1.166,1.166,0,0,0-.4.516,1.188,1.188,0,0,0-.412-.506,1.221,1.221,0,0,0-.605-.225.863.863,0,0,0-.436.116.9.9,0,0,0-.3.317,1.723,1.723,0,0,0-.157.851,1.8,1.8,0,0,0,.266.823,5.328,5.328,0,0,0,1.562,1.6h.157a5.394,5.394,0,0,0,.63-.5,4.026,4.026,0,0,0,.932-1.1,1.754,1.754,0,0,0,.315-.8,1.727,1.727,0,0,0-.109-.857Z" transform="translate(42.992 45.757)" fill="#fff"/>
    <path id="Path_1786" data-name="Path 1786" d="M1090.793,585.4c8.547-2.306,31.911-7.86,47.575-9.473.1,0,.169.347.085.372-12.832,3.323-38.871,8.084-47.49,9.622C1090.744,585.924,1090.636,585.441,1090.793,585.4Z" transform="translate(45.994 54.875)" fill="#263238"/>
    <path id="Path_1787" data-name="Path 1787" d="M1142.3,595.333l-48.87,8.853s-14.067-40.285-16.863-62.641c-1.017-8.021,1.634-11.159,6.077-10.575Z" transform="translate(42.969 45.394)" opacity="0.1"/>
    <path id="Path_1788" data-name="Path 1788" d="M1141.113,688.951h-143s13.009-100.531,59.058-153.389c12.433-14.258,34.973-10.043,45.626-.4a100.758,100.758,0,0,1,10.375,11.878c9.685,12.548,25.506,42.653,26.983,50.835,2.458,13.466-9.382,28.022-9.382,28.022Z" transform="translate(26.495 44.434)" fill="#4317af"/>
    <path id="Path_1789" data-name="Path 1789" d="M1063.634,548.261a4.837,4.837,0,0,1-.932,1.1c-.206.176-.412.341-.63.5h-.157a5.43,5.43,0,0,1-1.562-1.612,1.813,1.813,0,0,1-.278-.822,1.733,1.733,0,0,1,.169-.852.778.778,0,0,1,.3-.314.843.843,0,0,1,.436-.108,1.124,1.124,0,0,1,.605.208.412.412,0,1,0,.8,0,1.153,1.153,0,0,1,.617-.207.8.8,0,0,1,.424.111.815.815,0,0,1,.315.31,1.892,1.892,0,0,1,.157.857A1.833,1.833,0,0,1,1063.634,548.261Zm21.04-1.686a.834.834,0,0,0-.739-.421,1.091,1.091,0,0,0-.605.208,1.077,1.077,0,0,0-.4.511,1.167,1.167,0,0,0-.411-.51,1.142,1.142,0,0,0-.617-.209.832.832,0,0,0-.424.11,1.012,1.012,0,0,0-.315.311,1.859,1.859,0,0,0-.145.851,1.67,1.67,0,0,0,.266.823,5.429,5.429,0,0,0,1.562,1.612H1083a7.311,7.311,0,0,0,.629-.5,4.322,4.322,0,0,0,.932-1.1,1.826,1.826,0,0,0,.279-.827,1.755,1.755,0,0,0-.158-.859Zm20.918,0a.834.834,0,0,0-.738-.421,1.078,1.078,0,0,1-1.634.516,1.14,1.14,0,0,1-.4-.516.772.772,0,0,0-.412.109.822.822,0,0,0-.315.312,1.872,1.872,0,0,0-.157.852,1.8,1.8,0,0,0,.266.822,5.615,5.615,0,0,0,1.562,1.612h.169a7.844,7.844,0,0,0,.617-.5,4.754,4.754,0,0,0,.944-1.1,1.828,1.828,0,0,0,.278-.827,1.905,1.905,0,0,0-.157-.859Zm-31.378-13.527a.807.807,0,0,0-.315-.314.763.763,0,0,0-.424-.108,1.128,1.128,0,0,0-.605.211,1.146,1.146,0,0,0-.4.508,1.265,1.265,0,0,0-.412-.5,1.225,1.225,0,0,0-.617-.219.761.761,0,0,0-.412.109.71.71,0,0,0-.3.312,1.621,1.621,0,0,0-.169.856,1.7,1.7,0,0,0,.266.83,5.81,5.81,0,0,0,1.562,1.6h.169s.291-.211.617-.5a4.026,4.026,0,0,0,.932-1.1,1.689,1.689,0,0,0,.266-.829A1.742,1.742,0,0,0,1074.214,533.048Zm20.918,0a.8.8,0,0,0-.315-.312.815.815,0,0,0-.424-.109,1.225,1.225,0,0,0-.605.219,1.172,1.172,0,0,0-.411.5,1.236,1.236,0,0,0-.4-.508,1.168,1.168,0,0,0-.617-.211.818.818,0,0,0-.424.108.806.806,0,0,0-.315.314,1.888,1.888,0,0,0-.157.857,1.835,1.835,0,0,0,.278.829,5.411,5.411,0,0,0,1.562,1.6h.157c.218-.154.424-.32.629-.5a4.606,4.606,0,0,0,.932-1.1,1.828,1.828,0,0,0,.278-.826,1.755,1.755,0,0,0-.145-.861Zm-52.345,40.631a.864.864,0,0,0-.3-.313.844.844,0,0,0-.436-.108,1.126,1.126,0,0,0-.605.208,1.154,1.154,0,0,0-.4.511,1.177,1.177,0,0,0-.412-.512,1.082,1.082,0,0,0-.605-.207.818.818,0,0,0-.739.421,1.719,1.719,0,0,0-.157.851,1.8,1.8,0,0,0,.266.823,5.328,5.328,0,0,0,1.562,1.6h.169a6.171,6.171,0,0,0,.617-.483,4.163,4.163,0,0,0,.932-1.116,1.765,1.765,0,0,0,.3-.844,1.707,1.707,0,0,0-.17-.88Zm20.919,0a.806.806,0,0,0-.315-.31.826.826,0,0,0-.424-.112.717.717,0,0,1-1.416.208,1.131,1.131,0,0,0-.617-.208.83.83,0,0,0-.424.108.9.9,0,0,0-.315.313,1.868,1.868,0,0,0-.158.851,1.818,1.818,0,0,0,.279.823,5.328,5.328,0,0,0,1.562,1.6h.157a7.374,7.374,0,0,0,.629-.483,4.942,4.942,0,0,0,.932-1.116,1.753,1.753,0,0,0,.3-.841,1.838,1.838,0,0,0-.145-.882Zm20.918,0a.834.834,0,0,0-.738-.421,1.093,1.093,0,0,0-.605.208,1.075,1.075,0,0,0-.4.511,1.169,1.169,0,0,0-.412-.51,1.122,1.122,0,0,0-.617-.21.844.844,0,0,0-.424.109.914.914,0,0,0-.315.312,1.711,1.711,0,0,0-.145.851,1.673,1.673,0,0,0,.266.823,5.332,5.332,0,0,0,1.562,1.6h.157a6.326,6.326,0,0,0,.63-.483,4.411,4.411,0,0,0,.932-1.116,1.885,1.885,0,0,0,.315-.839,1.844,1.844,0,0,0-.146-.885Zm20.919,0a.809.809,0,0,0-.315-.313.831.831,0,0,0-.424-.108,1.071,1.071,0,0,1-.4.516,1.07,1.07,0,0,1-1.235,0,1.148,1.148,0,0,1-.4-.516.845.845,0,0,0-.424.109.871.871,0,0,0-.3.312,1.867,1.867,0,0,0-.157.851,1.8,1.8,0,0,0,.266.823,5.639,5.639,0,0,0,1.55,1.6h.182a5.429,5.429,0,0,0,.617-.483,4.836,4.836,0,0,0,.944-1.116,1.881,1.881,0,0,0,.315-.839,1.845,1.845,0,0,0-.145-.885Zm20.918,0a.821.821,0,0,0-.315-.312.845.845,0,0,0-.424-.109,1.156,1.156,0,0,0-.617.21,1.171,1.171,0,0,0-.411.51,1.127,1.127,0,0,0-.387-.511,1.165,1.165,0,0,0-.617-.208.844.844,0,0,0-.424.109.821.821,0,0,0-.315.312,1.721,1.721,0,0,0-.157.851,1.8,1.8,0,0,0,.266.823,5.63,5.63,0,0,0,1.562,1.6h.169a5.672,5.672,0,0,0,.617-.483,4.555,4.555,0,0,0,.944-1.116,1.881,1.881,0,0,0,.327-.834,1.858,1.858,0,0,0-.121-.89Zm-73.275-13.638a.8.8,0,0,0-.315-.312.813.813,0,0,0-.424-.11,1.116,1.116,0,0,0-.605.209,1.074,1.074,0,0,0-.4.51,1.176,1.176,0,0,0-.411-.51,1.142,1.142,0,0,0-.617-.209.845.845,0,0,0-.424.11,1,1,0,0,0-.315.312,1.855,1.855,0,0,0-.145.851,1.67,1.67,0,0,0,.266.822,5.433,5.433,0,0,0,1.562,1.612h.157s.291-.211.63-.5a4.4,4.4,0,0,0,.932-1.116,1.753,1.753,0,0,0,.315-.8,1.727,1.727,0,0,0-.109-.857Zm20.919,0a.811.811,0,0,0-.315-.315.8.8,0,0,0-.424-.108,1.084,1.084,0,0,0-.605.209,1.072,1.072,0,0,0-.4.51,1.174,1.174,0,0,0-.411-.511,1.121,1.121,0,0,0-.617-.208.761.761,0,0,0-.412.11.8.8,0,0,0-.315.312,1.7,1.7,0,0,0-.157.849,1.791,1.791,0,0,0,.254.824,5.7,5.7,0,0,0,1.574,1.612h.169s.291-.211.618-.5a4.667,4.667,0,0,0,.932-1.116,1.9,1.9,0,0,0,.327-.8,1.738,1.738,0,0,0-.109-.859Zm20.918,0a.8.8,0,0,0-.315-.312.844.844,0,0,0-.424-.11,1.176,1.176,0,0,0-.617.209,1.15,1.15,0,0,0-.4.51,1.245,1.245,0,0,0-.4-.51,1.155,1.155,0,0,0-.617-.209.831.831,0,0,0-.424.108.811.811,0,0,0-.315.315,1.863,1.863,0,0,0-.157.851,1.8,1.8,0,0,0,.266.822,5.744,5.744,0,0,0,1.561,1.612h.17s.291-.211.63-.5a4.8,4.8,0,0,0,.932-1.116,1.8,1.8,0,0,0,.242-1.661Zm20.919,0a.812.812,0,0,0-.315-.315.831.831,0,0,0-.424-.108,1.156,1.156,0,0,0-.617.209,1.241,1.241,0,0,0-.4.51,1.069,1.069,0,0,0-.4-.511,1.154,1.154,0,0,0-.617-.208.858.858,0,0,0-.424.111.812.812,0,0,0-.315.311,1.862,1.862,0,0,0-.157.851,1.96,1.96,0,0,0,.266.822,5.747,5.747,0,0,0,1.562,1.612h.169a6.906,6.906,0,0,0,.618-.5,4.458,4.458,0,0,0,.944-1.116,1.887,1.887,0,0,0,.339-.8,1.748,1.748,0,0,0-.085-.864Zm-94.218,40.619a.868.868,0,0,0-.3-.311.859.859,0,0,0-.424-.111,1.177,1.177,0,0,0-.617.209,1.143,1.143,0,0,0-.4.51v-.124c-.315.793-.605,1.575-.872,2.38a7.161,7.161,0,0,0,.859.72h.169s.278-.212.617-.5a4.829,4.829,0,0,0,.932-1.1,1.764,1.764,0,0,0,.3-.807,1.716,1.716,0,0,0-.121-.853Zm20.918,0a.812.812,0,0,0-.315-.315.8.8,0,0,0-.424-.108,1.145,1.145,0,0,0-1,.719,1.374,1.374,0,0,0-.411-.5,1.269,1.269,0,0,0-.617-.22.86.86,0,0,0-.424.111,1.013,1.013,0,0,0-.315.311,1.732,1.732,0,0,0-.146.856,1.692,1.692,0,0,0,.267.829,5.334,5.334,0,0,0,1.562,1.6h.169a5.815,5.815,0,0,0,.617-.5,4.02,4.02,0,0,0,.932-1.1,1.762,1.762,0,0,0,.351-.8,1.78,1.78,0,0,0-.073-.873Zm20.918,0a.809.809,0,0,0-.315-.311.859.859,0,0,0-.424-.111,1.226,1.226,0,0,0-.605.22,1.169,1.169,0,0,0-.412.5,1.237,1.237,0,0,0-.4-.508,1.186,1.186,0,0,0-.617-.211.83.83,0,0,0-.424.108.813.813,0,0,0-.315.315,1.888,1.888,0,0,0-.157.857,1.814,1.814,0,0,0,.267.828,5.521,5.521,0,0,0,1.574,1.6h.157a6.866,6.866,0,0,0,.63-.5,4.708,4.708,0,0,0,.932-1.1,1.911,1.911,0,0,0,.363-.8,1.788,1.788,0,0,0-.061-.875Zm20.919,0a.813.813,0,0,0-.315-.315.83.83,0,0,0-.424-.108,1.112,1.112,0,0,0-.605.211,1.069,1.069,0,0,0-.4.508,1.29,1.29,0,0,0-.424-.5,1.184,1.184,0,0,0-.605-.22.833.833,0,0,0-.424.11.8.8,0,0,0-.315.312,1.889,1.889,0,0,0-.157.856,1.984,1.984,0,0,0,.266.829,5.639,5.639,0,0,0,1.562,1.6h.169a4.725,4.725,0,0,0,.617-.5,4.07,4.07,0,0,0,.944-1.1,1.911,1.911,0,0,0,.375-.8,1.8,1.8,0,0,0-.061-.878Zm20.919,0a.813.813,0,0,0-.315-.315.829.829,0,0,0-.424-.108,1.144,1.144,0,0,1-.4.517,1.075,1.075,0,0,1-1.235,0,1.067,1.067,0,0,1-.4-.517.844.844,0,0,0-.424.109.874.874,0,0,0-.3.314,1.74,1.74,0,0,0-.157.857,1.817,1.817,0,0,0,.266.828,5.642,5.642,0,0,0,1.55,1.6h.182a4.237,4.237,0,0,0,.605-.5,4.4,4.4,0,0,0,.956-1.1,1.908,1.908,0,0,0,.375-.8,1.8,1.8,0,0,0-.061-.878Zm20.918,0a.892.892,0,0,0-.315-.312.834.834,0,0,0-.424-.11,1.27,1.27,0,0,0-.617.22,1.372,1.372,0,0,0-.412.5,1.144,1.144,0,0,0-1-.719.845.845,0,0,0-.739.422,1.738,1.738,0,0,0-.157.857,1.685,1.685,0,0,0,.266.828,5.639,5.639,0,0,0,1.562,1.6h.157a4.623,4.623,0,0,0,.63-.5,4.11,4.11,0,0,0,.932-1.1,1.928,1.928,0,0,0,.4-.79,1.816,1.816,0,0,0-.036-.883Zm-93.976-13.552a.819.819,0,0,0-.726-.435,1.084,1.084,0,0,1-.387.533,1.057,1.057,0,0,1-1.247,0,1.085,1.085,0,0,1-.387-.533.852.852,0,0,0-.436.115.885.885,0,0,0-.3.32,1.592,1.592,0,0,0-.157.851,1.664,1.664,0,0,0,.266.822,5.563,5.563,0,0,0,1.55,1.6h.169a5.528,5.528,0,0,0,.63-.5,4.7,4.7,0,0,0,.932-1.1,1.671,1.671,0,0,0,.266-.823A1.716,1.716,0,0,0,1032.341,587.108Zm20.918,0a.888.888,0,0,0-.3-.318.863.863,0,0,0-.436-.116,1.133,1.133,0,0,0-.605.216,1.172,1.172,0,0,0-.4.516,1.189,1.189,0,0,0-.412-.506,1.221,1.221,0,0,0-.605-.225.863.863,0,0,0-.436.116.889.889,0,0,0-.3.318,1.719,1.719,0,0,0-.157.851,1.67,1.67,0,0,0,.266.822,5.348,5.348,0,0,0,1.562,1.6h.157a5.516,5.516,0,0,0,.63-.5,4.024,4.024,0,0,0,.932-1.1,1.791,1.791,0,0,0,.278-.818,1.726,1.726,0,0,0-.145-.855Zm20.919,0a.884.884,0,0,0-.3-.32.85.85,0,0,0-.436-.115,1.152,1.152,0,0,0-1,.731,1.2,1.2,0,0,0-.412-.517,1.136,1.136,0,0,0-.617-.214.777.777,0,0,0-.411.116.83.83,0,0,0-.315.318,1.708,1.708,0,0,0-.157.85,1.672,1.672,0,0,0,.266.823,5.421,5.421,0,0,0,1.562,1.6h.169a6,6,0,0,0,.617-.5,4.024,4.024,0,0,0,.932-1.1,1.789,1.789,0,0,0,.291-.817,1.733,1.733,0,0,0-.145-.856Zm20.919,0a.827.827,0,0,0-.315-.318.819.819,0,0,0-.424-.116.717.717,0,0,1-1.417.216,1.137,1.137,0,0,0-.617-.216.84.84,0,0,0-.424.115.825.825,0,0,0-.315.32,1.863,1.863,0,0,0-.157.851,1.8,1.8,0,0,0,.266.822,5.537,5.537,0,0,0,1.574,1.6h.157a6.876,6.876,0,0,0,.63-.5,4.608,4.608,0,0,0,.932-1.1,1.783,1.783,0,0,0,.291-.815,1.735,1.735,0,0,0-.121-.858Zm20.918,0a.824.824,0,0,0-.315-.32.809.809,0,0,0-.424-.115,1.173,1.173,0,0,0-.617.216,1.148,1.148,0,0,0-.387.516,1.2,1.2,0,0,0-.411-.517,1.136,1.136,0,0,0-.617-.214.867.867,0,0,0-.424.119.83.83,0,0,0-.315.316,1.709,1.709,0,0,0-.145.851,1.789,1.789,0,0,0,.254.822,5.654,5.654,0,0,0,1.562,1.6h.169a4.7,4.7,0,0,0,.617-.5,4.061,4.061,0,0,0,.944-1.1,1.776,1.776,0,0,0,.3-.812,1.745,1.745,0,0,0-.121-.861Zm20.447-.4a.813.813,0,0,0-.242,0,1.184,1.184,0,0,0-.605.219,1.3,1.3,0,0,0-.424.5,1.138,1.138,0,0,0-1.017-.719.844.844,0,0,0-.424.109.874.874,0,0,0-.3.312,1.738,1.738,0,0,0-.157.856,1.689,1.689,0,0,0,.254.83,6.117,6.117,0,0,0,1.574,1.613h.17a7.029,7.029,0,0,0,.605-.508,4.445,4.445,0,0,0,.956-1.1,2.938,2.938,0,0,0,.218-.645Zm-114.652,41.016a.809.809,0,0,0-.738-.422,1.1,1.1,0,0,0-.605.21,1.177,1.177,0,0,0-.412.51,1.149,1.149,0,0,0-.4-.51,1.117,1.117,0,0,0-.605-.21.845.845,0,0,0-.436.108.869.869,0,0,0-.3.315,1.592,1.592,0,0,0-.157.851,1.662,1.662,0,0,0,.266.822,5.432,5.432,0,0,0,1.562,1.613h.157c.218-.155.424-.321.63-.5a4.723,4.723,0,0,0,.932-1.1,1.821,1.821,0,0,0,.3-.821,1.761,1.761,0,0,0-.121-.866Zm20.919,0a.812.812,0,0,0-.315-.315.773.773,0,0,0-.424-.108,1.116,1.116,0,0,0-.605.21,1.151,1.151,0,0,0-.4.51,1.183,1.183,0,0,0-.411-.512,1.125,1.125,0,0,0-.605-.207.815.815,0,0,0-.738.422,1.717,1.717,0,0,0-.157.851,1.668,1.668,0,0,0,.266.822,5.433,5.433,0,0,0,1.562,1.613h.169s.291-.211.617-.5a4.1,4.1,0,0,0,.932-1.1,1.811,1.811,0,0,0,.315-.818,1.775,1.775,0,0,0-.121-.868Zm20.919,0a.811.811,0,0,0-.315-.311.828.828,0,0,0-.424-.111,1.128,1.128,0,0,0-1.017.719,1.138,1.138,0,0,0-1.017-.719.83.83,0,0,0-.424.108.81.81,0,0,0-.315.315,1.863,1.863,0,0,0-.157.851,1.806,1.806,0,0,0,.278.822,5.433,5.433,0,0,0,1.562,1.613h.157c.218-.155.424-.321.629-.5a4.843,4.843,0,0,0,.932-1.1,1.8,1.8,0,0,0,.315-.816,1.644,1.644,0,0,0-.1-.87Zm20.918,0a.81.81,0,0,0-.315-.315.8.8,0,0,0-.423-.108,1.085,1.085,0,0,0-.605.21,1.071,1.071,0,0,0-.4.51,1.173,1.173,0,0,0-1.029-.719.848.848,0,0,0-.424.11.806.806,0,0,0-.315.312,1.71,1.71,0,0,0-.145.851,1.789,1.789,0,0,0,.254.822,5.629,5.629,0,0,0,1.574,1.613h.157a7.289,7.289,0,0,0,.63-.5,4.6,4.6,0,0,0,.932-1.1,1.8,1.8,0,0,0,.327-.814,1.651,1.651,0,0,0-.1-.873Zm20.919,0a.811.811,0,0,0-.315-.315.831.831,0,0,0-.424-.108,1.068,1.068,0,0,1-.4.517,1.075,1.075,0,0,1-1.235,0,1.144,1.144,0,0,1-.4-.517.845.845,0,0,0-.424.109.875.875,0,0,0-.3.313,1.715,1.715,0,0,0-.157.851,1.791,1.791,0,0,0,.266.822,5.739,5.739,0,0,0,1.55,1.613h.182a7.481,7.481,0,0,0,.605-.5,4.524,4.524,0,0,0,.956-1.1,1.8,1.8,0,0,0,.327-.814,1.654,1.654,0,0,0-.1-.873Zm20.919,0a.807.807,0,0,0-.315-.312.847.847,0,0,0-.424-.11,1.174,1.174,0,0,0-1.029.719,1.071,1.071,0,0,0-.4-.51,1.084,1.084,0,0,0-.605-.21.848.848,0,0,0-.424.11.806.806,0,0,0-.315.312,1.716,1.716,0,0,0-.157.851,1.792,1.792,0,0,0,.266.822,5.746,5.746,0,0,0,1.562,1.613h.169c.206-.155.424-.321.618-.5a4.5,4.5,0,0,0,.944-1.1,1.942,1.942,0,0,0,.339-.809,1.8,1.8,0,0,0-.073-.878Zm-94.218-13.578a.781.781,0,0,0-.3-.312.844.844,0,0,0-.424-.109,1.068,1.068,0,0,1-.4.516,1.055,1.055,0,0,1-.617.2,1.082,1.082,0,0,1-.617-.2,1.146,1.146,0,0,1-.4-.516.831.831,0,0,0-.424.108.9.9,0,0,0-.315.314,1.869,1.869,0,0,0-.157.851,1.813,1.813,0,0,0,.278.823,5.63,5.63,0,0,0,1.55,1.611h.169c.218-.154.424-.32.629-.5a4.734,4.734,0,0,0,.932-1.1,1.719,1.719,0,0,0,.254-1.686Zm20.919,0a.841.841,0,0,0-.739-.421,1.092,1.092,0,0,0-.605.208,1.073,1.073,0,0,0-.4.511,1.172,1.172,0,0,0-.412-.51,1.132,1.132,0,0,0-.617-.209.846.846,0,0,0-.424.109.917.917,0,0,0-.315.312,1.714,1.714,0,0,0-.145.851,1.793,1.793,0,0,0,.254.823,5.6,5.6,0,0,0,1.574,1.611h.157c.218-.154.424-.32.63-.5a4.023,4.023,0,0,0,.932-1.1,1.8,1.8,0,0,0,.363-.8,1.822,1.822,0,0,0-.073-.883Zm20.918,0a.807.807,0,0,0-.315-.314.832.832,0,0,0-.424-.108,1.166,1.166,0,0,0-.617.208,1.13,1.13,0,0,0-.387.511,1.174,1.174,0,0,0-.411-.512,1.152,1.152,0,0,0-.617-.207.844.844,0,0,0-.424.109.874.874,0,0,0-.3.312,1.712,1.712,0,0,0-.157.85,1.793,1.793,0,0,0,.254.824,5.81,5.81,0,0,0,1.562,1.611h.182s.291-.211.617-.5a4.253,4.253,0,0,0,.932-1.1,1.779,1.779,0,0,0,.363-.8,1.688,1.688,0,0,0-.061-.884Zm20.919,0a.823.823,0,0,0-.315-.312.845.845,0,0,0-.424-.109,1.174,1.174,0,0,0-1.029.719,1.126,1.126,0,0,0-.387-.511,1.166,1.166,0,0,0-.617-.208.831.831,0,0,0-.424.108.807.807,0,0,0-.315.314,1.721,1.721,0,0,0-.157.851,1.8,1.8,0,0,0,.266.823,5.723,5.723,0,0,0,1.562,1.611h.169a6.55,6.55,0,0,0,.617-.5,4.4,4.4,0,0,0,.944-1.1,1.929,1.929,0,0,0,.375-.8,1.832,1.832,0,0,0-.048-.886Zm20.918,0a.807.807,0,0,0-.315-.314.833.833,0,0,0-.424-.108,1.133,1.133,0,0,0-1.017.719,1.128,1.128,0,0,0-1.017-.719.859.859,0,0,0-.424.111.805.805,0,0,0-.315.31,1.864,1.864,0,0,0-.157.851,1.807,1.807,0,0,0,.266.823,5.723,5.723,0,0,0,1.562,1.611h.157a4.726,4.726,0,0,0,.629-.5,4.288,4.288,0,0,0,.944-1.1,1.784,1.784,0,0,0,.387-.8,1.845,1.845,0,0,0-.048-.889Zm20.2-.421a1.119,1.119,0,0,0-.617.207,1.175,1.175,0,0,0-.411.512,1.156,1.156,0,0,0-.4-.515,1.139,1.139,0,0,0-.617-.2.845.845,0,0,0-.424.109.874.874,0,0,0-.3.312,1.867,1.867,0,0,0-.169.85,1.806,1.806,0,0,0,.267.824,5.542,5.542,0,0,0,1.574,1.611h.157c.557-1.016,1.126-2.12,1.658-3.3a.8.8,0,0,0-.206-.254.858.858,0,0,0-.278-.155Zm-114.435,41.053a.834.834,0,0,0-.315-.317.82.82,0,0,0-.424-.116,1.21,1.21,0,0,0-.605.225,1.188,1.188,0,0,0-.412.506,1.167,1.167,0,0,0-.4-.516,1.138,1.138,0,0,0-.617-.215.839.839,0,0,0-.424.115.828.828,0,0,0-.315.318,1.868,1.868,0,0,0-.157.852,1.814,1.814,0,0,0,.278.822,5.33,5.33,0,0,0,1.562,1.6h.157a6.631,6.631,0,0,0,.63-.5,4.609,4.609,0,0,0,.932-1.1,1.776,1.776,0,0,0,.4-.789,1.826,1.826,0,0,0-.036-.885Zm20.919,0a.829.829,0,0,0-.315-.318.808.808,0,0,0-.424-.115,1.173,1.173,0,0,0-.617.215,1.142,1.142,0,0,0-.387.516,1.187,1.187,0,0,0-.411-.517,1.127,1.127,0,0,0-.618-.214.868.868,0,0,0-.424.119.82.82,0,0,0-.315.315,1.714,1.714,0,0,0-.145.851,1.79,1.79,0,0,0,.254.823,5.516,5.516,0,0,0,1.574,1.6h.169a5.837,5.837,0,0,0,.617-.5,4.026,4.026,0,0,0,.932-1.1,1.765,1.765,0,0,0,.411-.786,1.836,1.836,0,0,0-.036-.888Zm20.919,0a.821.821,0,0,0-.315-.315.867.867,0,0,0-.424-.119,1.16,1.16,0,0,0-.617.214,1.188,1.188,0,0,0-.412.517,1.141,1.141,0,0,0-.387-.516,1.173,1.173,0,0,0-.617-.215.808.808,0,0,0-.424.115.828.828,0,0,0-.315.318,1.722,1.722,0,0,0-.157.852,1.8,1.8,0,0,0,.266.822,5.632,5.632,0,0,0,1.562,1.6h.17a5.271,5.271,0,0,0,.617-.5,4.5,4.5,0,0,0,.944-1.1,1.892,1.892,0,0,0,.412-.783,1.71,1.71,0,0,0-.012-.891Zm20.918,0a.829.829,0,0,0-.315-.318.841.841,0,0,0-.424-.115,1.15,1.15,0,0,0-1.017.731,1.187,1.187,0,0,0-.412-.506,1.169,1.169,0,0,0-.605-.225.819.819,0,0,0-.424.116.832.832,0,0,0-.315.317,1.866,1.866,0,0,0-.157.851,1.8,1.8,0,0,0,.266.823,5.634,5.634,0,0,0,1.562,1.6h.157a4.127,4.127,0,0,0,.629-.5,4.285,4.285,0,0,0,.944-1.1,1.742,1.742,0,0,0,.424-.781,1.716,1.716,0,0,0-.012-.893Zm20.919,0a.828.828,0,0,0-.315-.318.839.839,0,0,0-.424-.115,1.107,1.107,0,0,1-.4.533,1.057,1.057,0,0,1-1.247,0,1.084,1.084,0,0,1-.387-.533.853.853,0,0,0-.424.116.8.8,0,0,0-.3.317,1.722,1.722,0,0,0-.157.852,1.668,1.668,0,0,0,.266.822,5.466,5.466,0,0,0,1.55,1.6h.169a5.016,5.016,0,0,0,.617-.5,4.156,4.156,0,0,0,.944-1.1,1.655,1.655,0,0,0,.436-.781,1.718,1.718,0,0,0-.012-.893Zm20.906,0a.8.8,0,0,0-.3-.317.852.852,0,0,0-.424-.116,1.21,1.21,0,0,0-.617.225,1.281,1.281,0,0,0-.412.506,1.087,1.087,0,0,0-.4-.516,1.1,1.1,0,0,0-.605-.215.788.788,0,0,0-.424.116.834.834,0,0,0-.315.317,1.722,1.722,0,0,0-.157.852,1.668,1.668,0,0,0,.266.822,5.478,5.478,0,0,0,1.562,1.6h.157a4.529,4.529,0,0,0,.629-.5,4.113,4.113,0,0,0,.932-1.1,1.779,1.779,0,0,0,.448-.777,1.736,1.736,0,0,0,.012-.9ZM1011.071,641.2a.808.808,0,0,0-.315-.314.79.79,0,0,0-.424-.108,1.092,1.092,0,0,0-.605.208,1.075,1.075,0,0,0-.4.511,1.17,1.17,0,0,0-.412-.512,1.109,1.109,0,0,0-.617-.207.846.846,0,0,0-.424.111.9.9,0,0,0-.315.31,1.713,1.713,0,0,0-.145.851,1.792,1.792,0,0,0,.254.823,5.607,5.607,0,0,0,1.574,1.611h.157s.3-.211.629-.5a4.665,4.665,0,0,0,.932-1.116,1.75,1.75,0,0,0,.448-.776,1.619,1.619,0,0,0,0-.9Zm20.919,0a.873.873,0,0,0-.3-.312.832.832,0,0,0-.424-.109,1.07,1.07,0,0,1-.4.516,1.076,1.076,0,0,1-1.235,0,1.149,1.149,0,0,1-.4-.516.819.819,0,0,0-.424.108.808.808,0,0,0-.315.314,1.861,1.861,0,0,0-.157.851,1.794,1.794,0,0,0,.266.823,5.991,5.991,0,0,0,1.549,1.611h.182s.29-.211.617-.5a4.7,4.7,0,0,0,.944-1.116,1.751,1.751,0,0,0,.448-.776,1.619,1.619,0,0,0,0-.9Zm20.918,0a.805.805,0,0,0-.315-.312.845.845,0,0,0-.424-.109,1.165,1.165,0,0,0-.617.208,1.249,1.249,0,0,0-.4.511,1.144,1.144,0,0,0-.4-.51,1.156,1.156,0,0,0-.617-.209.844.844,0,0,0-.424.109.805.805,0,0,0-.315.312,1.867,1.867,0,0,0-.157.851,1.963,1.963,0,0,0,.266.823,5.722,5.722,0,0,0,1.562,1.611h.17s.29-.211.617-.5a4.45,4.45,0,0,0,.944-1.116,1.739,1.739,0,0,0,.46-.77,1.638,1.638,0,0,0,.024-.9Zm20.919,0a.809.809,0,0,0-.315-.314.819.819,0,0,0-.424-.108,1.133,1.133,0,0,0-1.017.719,1.128,1.128,0,0,0-1.017-.719.832.832,0,0,0-.424.109.873.873,0,0,0-.3.312,1.869,1.869,0,0,0-.169.85,1.807,1.807,0,0,0,.266.824,5.82,5.82,0,0,0,1.562,1.611h.169a7.029,7.029,0,0,0,.617-.5,4.167,4.167,0,0,0,.932-1.116,1.666,1.666,0,0,0,.484-.769,1.766,1.766,0,0,0,.024-.906Zm20.919,0a1.009,1.009,0,0,0-.315-.312.844.844,0,0,0-.424-.109,1.123,1.123,0,0,0-.617.209,1.169,1.169,0,0,0-.411.51,1.075,1.075,0,0,0-.4-.511,1.124,1.124,0,0,0-.605-.208.763.763,0,0,0-.424.108.809.809,0,0,0-.315.314,1.716,1.716,0,0,0-.157.851,1.665,1.665,0,0,0,.266.823,5.724,5.724,0,0,0,1.562,1.611h.157s.3-.211.63-.5a4.269,4.269,0,0,0,.932-1.116,1.668,1.668,0,0,0,.484-.766,1.779,1.779,0,0,0,.048-.908Zm20.906,0a.867.867,0,0,0-.3-.314.832.832,0,0,0-.436-.108,1.125,1.125,0,0,0-.605.208.412.412,0,1,1-.8,0,1.141,1.141,0,0,0-.617-.207.785.785,0,0,0-.424.111.806.806,0,0,0-.315.31,1.722,1.722,0,0,0-.157.851,1.808,1.808,0,0,0,.266.823,5.566,5.566,0,0,0,1.562,1.611h.157a6.242,6.242,0,0,0,.629-.5,4.169,4.169,0,0,0,.932-1.116,1.757,1.757,0,0,0,.5-.763,1.79,1.79,0,0,0,.048-.912Zm17.384.161a1.693,1.693,0,0,0-.1.775,1.626,1.626,0,0,0,.254.738.731.731,0,0,0,.133.211Zm-132.1,40.47a.8.8,0,0,0-.3-.318.833.833,0,0,0-.43-.115,1.13,1.13,0,0,0-.609.211,1.148,1.148,0,0,0-.4.508,1.754,1.754,0,0,0-.259-.385c-.2,1.1-.332,2.071-.467,2.876a6.861,6.861,0,0,0,.639.5h.173l.615-.483a3.811,3.811,0,0,0,.931-1.128,1.783,1.783,0,0,0,.278-.817A1.7,1.7,0,0,0,1000.939,681.836Zm20.919,0a.881.881,0,0,0-.3-.312.858.858,0,0,0-.436-.109,1.224,1.224,0,0,0-.605.219,1.264,1.264,0,0,0-.412.5,1.145,1.145,0,0,0-1-.719.844.844,0,0,0-.436.108.864.864,0,0,0-.3.314,1.738,1.738,0,0,0-.157.857,1.688,1.688,0,0,0,.266.829,5.712,5.712,0,0,0,1.562,1.6h.157c.218-.154.424-.32.63-.5a4.114,4.114,0,0,0,.932-1.1,1.824,1.824,0,0,0,.278-.826,1.755,1.755,0,0,0-.145-.861Zm20.918,0a.864.864,0,0,0-.3-.314.844.844,0,0,0-.436-.108,1.145,1.145,0,0,0-1,.719,1.265,1.265,0,0,0-.412-.5,1.225,1.225,0,0,0-.605-.219.871.871,0,0,0-.436.111.862.862,0,0,0-.3.31,1.741,1.741,0,0,0-.157.857,1.832,1.832,0,0,0,.266.829,5.712,5.712,0,0,0,1.562,1.6h.169s.291-.211.617-.5a4.021,4.021,0,0,0,.932-1.1,1.69,1.69,0,0,0,.291-.825,1.758,1.758,0,0,0-.145-.862Zm20.919,0a.807.807,0,0,0-.315-.31.826.826,0,0,0-.424-.111,1.225,1.225,0,0,0-.605.219,1.169,1.169,0,0,0-.411.5,1.144,1.144,0,0,0-1.017-.719.83.83,0,0,0-.424.108.9.9,0,0,0-.315.314,1.891,1.891,0,0,0-.157.857,1.837,1.837,0,0,0,.279.829,5.55,5.55,0,0,0,1.562,1.6h.157c.218-.154.424-.32.63-.5a4.724,4.724,0,0,0,.932-1.1,1.676,1.676,0,0,0,.291-.821,1.761,1.761,0,0,0-.121-.866Zm20.918,0a.835.835,0,0,0-.738-.421,1.138,1.138,0,0,0-.605.211,1.068,1.068,0,0,0-.4.509,1.375,1.375,0,0,0-.412-.5,1.267,1.267,0,0,0-.617-.219.846.846,0,0,0-.424.109.916.916,0,0,0-.315.312,1.734,1.734,0,0,0-.145.857,1.7,1.7,0,0,0,.266.829,5.4,5.4,0,0,0,1.562,1.6h.157a7.055,7.055,0,0,0,.63-.5,4.025,4.025,0,0,0,.932-1.1,1.672,1.672,0,0,0,.3-.82,1.765,1.765,0,0,0-.121-.867Zm20.919,0a.808.808,0,0,0-.315-.314.83.83,0,0,0-.424-.108,1.071,1.071,0,0,1-.4.516,1.07,1.07,0,0,1-1.235,0,1.147,1.147,0,0,1-.4-.516.845.845,0,0,0-.424.109.87.87,0,0,0-.3.312,1.888,1.888,0,0,0-.157.857,1.822,1.822,0,0,0,.266.829,5.906,5.906,0,0,0,1.549,1.6h.182c.206-.152.411-.318.617-.5a4.391,4.391,0,0,0,.944-1.1,1.8,1.8,0,0,0,.3-.82,1.766,1.766,0,0,0-.121-.867Zm20.918,0a.821.821,0,0,0-.315-.312.846.846,0,0,0-.424-.109,1.184,1.184,0,0,0-.605.219,1.3,1.3,0,0,0-.424.5,1.068,1.068,0,0,0-.4-.509,1.1,1.1,0,0,0-.605-.211.844.844,0,0,0-.424.109.82.82,0,0,0-.315.312,1.739,1.739,0,0,0-.157.857,1.822,1.822,0,0,0,.266.829,5.712,5.712,0,0,0,1.562,1.6h.17a6.478,6.478,0,0,0,.617-.5,4.392,4.392,0,0,0,.944-1.1,1.8,1.8,0,0,0,.315-.815,1.782,1.782,0,0,0-.1-.872ZM1011.41,668.2a.869.869,0,0,0-.3-.315.844.844,0,0,0-.436-.108,1.145,1.145,0,0,0-1,.719,1.168,1.168,0,0,0-.412-.5,1.226,1.226,0,0,0-.605-.22.8.8,0,0,0-.424.111.81.81,0,0,0-.315.311,1.742,1.742,0,0,0-.157.857,1.836,1.836,0,0,0,.266.829,5.344,5.344,0,0,0,1.562,1.6h.157a4.141,4.141,0,0,0,.63-.5,4.036,4.036,0,0,0,.932-1.1,1.841,1.841,0,0,0,.278-.829A1.746,1.746,0,0,0,1011.41,668.2Zm20.919,0a.808.808,0,0,0-.726-.422,1.045,1.045,0,0,1-.387.517,1.095,1.095,0,0,1-1.247,0,1.044,1.044,0,0,1-.387-.517.844.844,0,0,0-.436.108.87.87,0,0,0-.3.315,1.614,1.614,0,0,0-.157.857,1.692,1.692,0,0,0,.266.829,5.57,5.57,0,0,0,1.55,1.6h.169a5.529,5.529,0,0,0,.63-.5,4.718,4.718,0,0,0,.932-1.1,1.693,1.693,0,0,0,.266-.829,1.612,1.612,0,0,0-.157-.857Zm20.918,0a.8.8,0,0,0-.315-.312.784.784,0,0,0-.423-.11,1.146,1.146,0,0,0-1,.719,1.261,1.261,0,0,0-.412-.5,1.226,1.226,0,0,0-.605-.22.809.809,0,0,0-.738.422,1.744,1.744,0,0,0-.157.857,1.7,1.7,0,0,0,.266.829,5.344,5.344,0,0,0,1.561,1.6h.157a5.538,5.538,0,0,0,.629-.5,4.032,4.032,0,0,0,.932-1.1,1.7,1.7,0,0,0,.291-.824,1.753,1.753,0,0,0-.145-.862Zm20.919,0a.811.811,0,0,0-.315-.315.8.8,0,0,0-.424-.108,1.145,1.145,0,0,0-1,.719,1.372,1.372,0,0,0-.412-.5,1.268,1.268,0,0,0-.617-.22.762.762,0,0,0-.411.11.805.805,0,0,0-.315.312,1.731,1.731,0,0,0-.157.856,1.7,1.7,0,0,0,.266.83,5.415,5.415,0,0,0,1.562,1.6h.169a5.836,5.836,0,0,0,.617-.5,4.043,4.043,0,0,0,.932-1.1,1.685,1.685,0,0,0,.291-.823,1.63,1.63,0,0,0-.133-.863Zm20.919,0a.805.805,0,0,0-.315-.312.845.845,0,0,0-.424-.11,1.225,1.225,0,0,0-.605.22,1.168,1.168,0,0,0-.412.5,1.244,1.244,0,0,0-.4-.508,1.188,1.188,0,0,0-.617-.211.83.83,0,0,0-.424.108.811.811,0,0,0-.315.315,1.888,1.888,0,0,0-.157.857,1.828,1.828,0,0,0,.266.829,5.533,5.533,0,0,0,1.574,1.6h.157a6.878,6.878,0,0,0,.629-.5,4.625,4.625,0,0,0,.932-1.1,1.823,1.823,0,0,0,.3-.821,1.915,1.915,0,0,0-.121-.865Zm20.918,0a.811.811,0,0,0-.315-.315.831.831,0,0,0-.424-.108,1.113,1.113,0,0,0-.605.211,1.075,1.075,0,0,0-.4.508,1.289,1.289,0,0,0-.424-.5,1.185,1.185,0,0,0-.605-.22.861.861,0,0,0-.424.111.81.81,0,0,0-.315.311,1.734,1.734,0,0,0-.145.857,1.822,1.822,0,0,0,.254.829,5.649,5.649,0,0,0,1.562,1.6h.169a4.717,4.717,0,0,0,.617-.5,4.078,4.078,0,0,0,.944-1.1,1.817,1.817,0,0,0,.315-.818,1.929,1.929,0,0,0-.121-.868Zm20.919,0a.81.81,0,0,0-.315-.311.862.862,0,0,0-.424-.111,1.145,1.145,0,0,1-.4.517,1.076,1.076,0,0,1-1.235,0,1.068,1.068,0,0,1-.4-.517.831.831,0,0,0-.424.108.812.812,0,0,0-.315.315,1.738,1.738,0,0,0-.157.857,1.826,1.826,0,0,0,.266.829,5.733,5.733,0,0,0,1.55,1.6h.181a5.4,5.4,0,0,0,.617-.5,4.49,4.49,0,0,0,.944-1.1,1.8,1.8,0,0,0,.315-.816,1.777,1.777,0,0,0-.1-.87Z" transform="translate(26.571 45.757)" fill="#fff"/>
    <path id="Path_1790" data-name="Path 1790" d="M1121.352,593.195c-1.332-5.555-4.394-10.626-7.094-15.586-2.845-5.244-5.823-10.4-8.886-15.511l-.327-.546c-.508-1.637-1.235-3.236-1.864-4.823-.787-2.02-1.634-4.03-2.457-6.076,0-.062-.133,0-.109,0,.641,2.121,1.235,4.241,2.046,6.312l.581,1.623c-1.029-1.7-2.058-3.4-3.135-5.083-1.816-2.864-3.692-5.667-5.557-8.531,0-.074-.157,0-.109.062,2.917,5.035,5.714,10.13,8.607,15.165s5.762,10.092,8.486,15.225c1.344,2.542,2.663,5.109,3.934,7.7a67.618,67.618,0,0,1,3.268,7.514,24.36,24.36,0,0,1,.109,15.424c-1.755,5.679-4.915,10.837-7.869,15.933-.121.2.182.446.339.248C1117.636,613.987,1123.943,604.093,1121.352,593.195Z" transform="translate(46.776 48.35)" fill="#263238"/>
    <path id="Path_1791" data-name="Path 1791" d="M1183.56,669.458c-9.2,12.821-33.738,14.879-95.029,25.915-8.486,1.524-35.276-55.9-26.306-57.991,11.307-2.654,55.746-10.44,59.063-10.6C1149.289,625.516,1189.807,660.778,1183.56,669.458Z" transform="translate(39.613 65.575)" fill="#eb9481"/>
    <path id="Path_1792" data-name="Path 1792" d="M1087.667,633.421s-25.955,3.5-39,9.6c-17.5,8.158-29.283,22.467-33.859,28.753-9.539,13.143-23.607,51.556-13.328,57.58,9.285,5.444,21.705-34.568,21.705-34.568s-19.333,38.685-6.949,43.16,24.138-42.776,24.138-42.776-18.982,40.2-5.484,42.776c10.217,1.947,23.279-40.246,23.279-40.246s-16.064,34.655-5.653,37.122c11.549,2.666,26-35.473,26-35.473,27.516,1.773,41.329-8.68,50.275-17.358C1130.981,679.893,1087.667,633.421,1087.667,633.421Z" transform="translate(26.446 66.98)" fill="#eb9481"/>
    <path id="Path_1793" data-name="Path 1793" d="M1026.537,672.711c-2.457,4.463-4.915,8.964-6.961,13.638s-3.9,9.411-5.5,14.234c-3.9,11.866-4.515,19.9-4.419,19.405,2.155-11.643,9.164-28.518,11.21-33.119s3.826-9.411,5.847-14.073C1026.827,672.673,1026.585,672.611,1026.537,672.711Z" transform="translate(28.925 75.243)" fill="#263238"/>
    <path id="Path_1794" data-name="Path 1794" d="M1040.184,678.568c-2.869,5.84-5.92,11.519-8.535,17.482s-4.552,11.792-6.731,17.88c-.169.471.145.409.327,0,2.457-6.014,5.133-11.371,7.614-17.359s4.758-12.051,7.457-17.9C1040.365,678.543,1040.22,678.481,1040.184,678.568Z" transform="translate(32.129 76.478)" fill="#263238"/>
    <path id="Path_1795" data-name="Path 1795" d="M1052.28,681.441c-4.83,8.68-8.05,18.264-11.065,27.724-.145.471.23.347.412-.123,3.486-9.287,6.15-16.6,10.9-27.44A.146.146,0,1,0,1052.28,681.441Z" transform="translate(35.564 77.075)" fill="#263238"/>
    <path id="Path_1796" data-name="Path 1796" d="M1137.746,633.812c-4.068-2.6-15.616-8.68-26.959-7.019a.124.124,0,0,0-.073.029.141.141,0,0,0-.024.07.133.133,0,0,0,.024.07.117.117,0,0,0,.073.029c9.358,0,22.71,4.787,26.874,6.981C1137.758,634.035,1137.843,633.874,1137.746,633.812Z" transform="translate(50.2 65.525)" fill="#263238"/>
    <path id="Path_1797" data-name="Path 1797" d="M1062.918,535.508c.617,2.38,12.36,17.581,23.194,16.763,3.523-.272,2.93-19.726,2.93-19.726l.278-1.452,3.91-20.26L1069.346,496.3l-3.438-1.909s-.714,5.617-1.525,12.61c0,.322-.085.644-.121.991s-.121.769-.157,1.14c-.133,1.042-.266,2.108-.375,3.174-.085.818-.169,1.6-.23,2.48s-.157,1.686-.242,2.541A134.009,134.009,0,0,0,1062.918,535.508Z" transform="translate(40.106 37.706)" fill="#eb9481"/>
    <path id="Path_1798" data-name="Path 1798" d="M1064.1,507a41.195,41.195,0,0,0,24.938,24.09l3.91-20.26L1069.063,496.3l-3.438-1.909S1064.911,500.009,1064.1,507Z" transform="translate(40.389 37.706)" fill="#263238"/>
    <path id="Path_1799" data-name="Path 1799" d="M1123.9,486.317c5.8,35.759-14.769,43.3-22.444,44.55-6.948,1.128-30.76,4.116-40.19-30.849s5.241-48.977,20.991-52.423S1118.1,450.57,1123.9,486.317Z" transform="translate(39.168 27.68)" fill="#eb9481"/>
    <path id="Path_1800" data-name="Path 1800" d="M1106.452,474.11a23.651,23.651,0,0,1-2.469-.236,4,4,0,0,1-2.458-.731,1.2,1.2,0,0,1-.363-.757,1.22,1.22,0,0,1,.194-.818,3.175,3.175,0,0,1,1.368-.96,3.132,3.132,0,0,1,1.659-.131,4.676,4.676,0,0,1,3.087,1.327,1.318,1.318,0,0,1,.339.708,1.334,1.334,0,0,1-.1.782,1.415,1.415,0,0,1-.508.6A1.369,1.369,0,0,1,1106.452,474.11Z" transform="translate(48.191 32.658)" fill="#263238"/>
    <path id="Path_1801" data-name="Path 1801" d="M1086.825,476.479c.835-.2,1.562-.508,2.361-.782a3.99,3.99,0,0,0,2.251-1.24,1.276,1.276,0,0,0,.194-.812,1.256,1.256,0,0,0-.363-.749,3.149,3.149,0,0,0-3.184-.4,4.664,4.664,0,0,0-2.736,1.984,1.349,1.349,0,0,0-.157.751,1.4,1.4,0,0,0,.266.719,1.361,1.361,0,0,0,1.368.527Z" transform="translate(44.829 33.041)" fill="#263238"/>
    <path id="Path_1802" data-name="Path 1802" d="M1091.626,482.792c0-.1-.182.137-.169.235.411,2.48.46,5.3-1.622,6.4-.06,0,0,.161,0,.136C1092.51,488.842,1092.389,485.049,1091.626,482.792Z" transform="translate(45.802 35.258)" fill="#263238"/>
    <path id="Path_1803" data-name="Path 1803" d="M1089.688,480.934c-3.946.236-3.184,8.171.46,7.949S1092.969,480.7,1089.688,480.934Z" transform="translate(45.223 34.871)" fill="#263238"/>
    <path id="Path_1804" data-name="Path 1804" d="M1088.8,481.414c-.654.521-1.223,1.375-2.058,1.537s-1.755-.571-2.47-1.315c-.061-.075-.121,0-.121.111.121,1.513.847,3.013,2.457,3.087s2.469-1.375,2.663-2.938C1089.343,481.6,1089.065,481.216,1088.8,481.414Z" transform="translate(44.611 34.962)" fill="#263238"/>
    <path id="Path_1805" data-name="Path 1805" d="M1102.839,480.826c0-.1.206.1.206.2.133,2.479.7,5.258,2.99,5.877.061,0,.073.149,0,.149C1103.287,486.926,1102.573,483.207,1102.839,480.826Z" transform="translate(48.535 34.844)" fill="#263238"/>
    <path id="Path_1806" data-name="Path 1806" d="M1104.789,478.543c3.9-.645,4.915,7.254,1.3,7.848S1101.52,479.089,1104.789,478.543Z" transform="translate(48.535 34.361)" fill="#263238"/>
    <path id="Path_1807" data-name="Path 1807" d="M1105.912,478.957c.666.347,1.38,1.029,2.119.979s1.392-.991,1.84-1.885c0-.086.121,0,.133.075.23,1.5-.073,3.137-1.465,3.62s-2.469-.743-2.954-2.207C1105.488,479.279,1105.645,478.833,1105.912,478.957Z" transform="translate(49.119 34.258)" fill="#263238"/>
    <path id="Path_1808" data-name="Path 1808" d="M1091.986,498.863c.605.546,1.223,1.315,2.118,1.339a6.216,6.216,0,0,0,2.6-.743.069.069,0,0,1,.048-.007.074.074,0,0,1,.049.027.085.085,0,0,1,.012.1,3.338,3.338,0,0,1-1.32,1.165,3.265,3.265,0,0,1-1.719.323,2.621,2.621,0,0,1-1.332-.732,2.718,2.718,0,0,1-.7-1.35C1091.659,498.851,1091.84,498.79,1091.986,498.863Z" transform="translate(46.206 38.641)" fill="#263238"/>
    <path id="Path_1809" data-name="Path 1809" d="M1101.842,494.353s.908,3.633,1.09,5.369a9.3,9.3,0,0,1-9.333-1.834c-.145-.137.061-.361.242-.262a12.368,12.368,0,0,0,7.711,1.34c0-.484-1.743-6.2-1.477-6.2a14.736,14.736,0,0,1,4.007.472c-1.658-7.613-4.5-14.879-6.041-22.492a.31.31,0,0,1,.012-.182.225.225,0,0,1,.133-.122.237.237,0,0,1,.182.008.28.28,0,0,1,.121.134c3.523,7.439,5.6,16.119,7.518,23.943C1106.249,495.5,1102.569,494.577,1101.842,494.353Z" transform="translate(46.59 32.66)" fill="#263238"/>
    <path id="Path_1810" data-name="Path 1810" d="M1100.668,495.041a8.9,8.9,0,0,1-3.329,3.112,4.008,4.008,0,0,1-2.457.373c-1.792-.31-2-1.935-1.78-3.361a9.937,9.937,0,0,1,.581-2.207A11.574,11.574,0,0,0,1100.668,495.041Z" transform="translate(46.481 37.404)" fill="#263238"/>
    <path id="Path_1811" data-name="Path 1811" d="M1097.339,497.77a4.007,4.007,0,0,1-2.457.372c-1.792-.31-2-1.934-1.78-3.36C1095.039,494.806,1097.024,495.935,1097.339,497.77Z" transform="translate(46.481 37.788)" fill="#ff9abb"/>
    <path id="Path_1812" data-name="Path 1812" d="M1063.189,498.925c6.791.608,7.929-15.064,7.929-15.064s28.618-6.026,30.179-29.758c0,0,5.508,14.879,20.906,21.078,0,0-1.985-25.865-22.565-30.118,0,0-25.64-8.307-39.1,12.461S1058.637,498.516,1063.189,498.925Z" transform="translate(38.31 26.974)" fill="#263238"/>
    <path id="Path_1813" data-name="Path 1813" d="M1097.4,450.8a26.033,26.033,0,0,1-.884,10.837,26.637,26.637,0,0,1-5.072,9.758,22.257,22.257,0,0,1-1.876,2.033l-.956.993c-.351.3-.714.582-1.077.868-.726.558-1.417,1.152-2.167,1.686s-1.574.942-2.361,1.4c-.4.223-.787.459-1.223.669l-1.235.546-2.457,1.079c-1.719.558-3.474,1.017-5.205,1.45,1.622-.793,3.293-1.4,4.915-2.195l2.361-1.24,1.15-.62c.387-.236.726-.508,1.1-.757q1.072-.768,2.179-1.488c.678-.533,1.32-1.128,2-1.7l1-.844.9-.954a25.764,25.764,0,0,0,1.731-1.947,30.65,30.65,0,0,0,5.157-9.1,34.069,34.069,0,0,0,1.428-5.121A33.158,33.158,0,0,0,1097.4,450.8Z" transform="translate(42.24 28.527)" fill="#263238"/>
    <path id="Path_1814" data-name="Path 1814" d="M1068.414,492.659s-8.668-10.688-13.534-7.439,2.24,19.094,8.377,20.88a5.989,5.989,0,0,0,2.4.362,6.086,6.086,0,0,0,5.472-4.255Z" transform="translate(38.109 35.645)" fill="#eb9481"/>
    <path id="Path_1815" data-name="Path 1815" d="M1056.372,488.8c-.085,0-.1.137,0,.162,4.31,1.389,6.8,5.121,8.619,9.064-1.368-1.476-3.123-2.195-5.084-.546a.125.125,0,0,0,.121.211,3.75,3.75,0,0,1,2.264-.167,3.794,3.794,0,0,1,1.949,1.172,17.8,17.8,0,0,1,2.215,3.2c.218.36.884.1.714-.322v-.087C1066.855,496.1,1062.158,488.962,1056.372,488.8Z" transform="translate(38.748 36.528)" fill="#263238"/>
    <path id="Path_1816" data-name="Path 1816" d="M1064.809,501.027a1.518,1.518,0,0,1-.242.823,1.454,1.454,0,0,1-2.251.237,1.407,1.407,0,0,1-.4-.755,1.447,1.447,0,0,1,.617-1.518,1.466,1.466,0,0,1,2.276,1.213Z" transform="translate(39.922 38.795)" fill="#fff"/>
    <path id="Path_1817" data-name="Path 1817" d="M1060.643,500.024a1.054,1.054,0,0,0,0-2.108,1.054,1.054,0,0,0,0,2.108Z" transform="translate(39.44 38.448)" fill="#fff"/>
    <path id="Path_1818" data-name="Path 1818" d="M1055.187,487.237l-2.216-.191a.73.73,0,0,0-.8.677l-.012.063a.741.741,0,0,0,.678.8l2.216.193a.737.737,0,0,0,.8-.678v-.062A.742.742,0,0,0,1055.187,487.237Z" transform="translate(37.875 36.158)" fill="#a385eb"/>
    <path id="Path_1819" data-name="Path 1819" d="M1055.084,488.125l-2.2.292a.736.736,0,0,0-.63.834v.061a.747.747,0,0,0,.835.64l2.2-.292a.736.736,0,0,0,.63-.834v-.061A.747.747,0,0,0,1055.084,488.125Z" transform="translate(37.893 36.385)" fill="#a385eb"/>
    <path id="Path_1820" data-name="Path 1820" d="M1054.176,470.978l-2.046,3.285,10.447,9.51,4.431-7.439Zm7.99,9.151-7.3-5.915.46-.781,8.45,4.1Z" transform="translate(37.869 32.776)" fill="#a385eb"/>
    <path id="Path_1821" data-name="Path 1821" d="M1054.846,465.969l-.666,3.819,13.231,4.848,1.344-8.543Zm10.823,5.444-8.982-2.7.133-.893,9.37.6Z" transform="translate(38.301 31.721)" fill="#a385eb"/>
    <path id="Path_1822" data-name="Path 1822" d="M1069.466,452.937c2.736-1.029,5.351-16.453-4.721-23.794s-22.952,1.041-17.553,13.639C1050.617,450.817,1063.667,455.12,1069.466,452.937Z" transform="translate(36.561 23.39)" fill="#263238"/>
    <path id="Path_1823" data-name="Path 1823" d="M1051.231,427.909a17.357,17.357,0,0,0-5.8,9.784,10.434,10.434,0,0,0,3.051,9.919,20.859,20.859,0,0,0,9.987,4.959,30.812,30.812,0,0,0,5.75.707,15.331,15.331,0,0,0,5.8-.644,13.671,13.671,0,0,1-5.75,1.723,25.515,25.515,0,0,1-6.077-.1,20.075,20.075,0,0,1-11.222-4.96,11.721,11.721,0,0,1-3.2-11.928,15.26,15.26,0,0,1,7.457-9.461Z" transform="translate(36.008 23.707)" fill="#263238"/>
    <path id="Path_1824" data-name="Path 1824" d="M1142.374,574.12l17.129-2.33-6.694-49.968-21.669,2.951Z" transform="translate(54.506 43.481)" fill="#a385eb"/>
    <path id="Path_1825" data-name="Path 1825" d="M1131.14,524.772l4.285,18.821,6.949,30.539,17.129-2.33-6.694-49.981Z" transform="translate(54.506 43.481)" fill="#a385eb"/>
    <path id="Path_1826" data-name="Path 1826" d="M1131.14,524.772l4.285,18.821,19.938-2.715-2.554-19.057Z" transform="translate(54.506 43.481)" opacity="0.1"/>
    <path id="Path_1827" data-name="Path 1827" d="M1130.762,534.83l26.959-3.668-2.772-20.644-26.959,3.669Z" transform="translate(53.842 41.101)" fill="#a385eb"/>
    <path id="Path_1828" data-name="Path 1828" d="M1112.93,515.263l21.233-.744-4.467-33.391-20.677,4.948Z" transform="translate(49.848 34.913)" fill="#a385eb"/>
    <path id="Path_1829" data-name="Path 1829" d="M1134.26,483.223l6.61,49.287,35.7-.534,85.78,19.181L1246.5,432.784,1168.845,474.2Z" transform="translate(55.163 24.733)" fill="#a385eb"/>
    <path id="Path_1830" data-name="Path 1830" d="M1246.656,551.268c10.483-1.426,15.411-29.213,11-62.066s-16.464-58.327-26.947-56.9-15.4,29.215-11,62.066S1236.173,552.694,1246.656,551.268Z" transform="translate(72.817 24.62)" fill="#a385eb"/>
    <path id="Path_1831" data-name="Path 1831" d="M1245.84,542.473c8.583-1.167,12.372-25.752,8.462-54.912s-14.03-51.853-22.614-50.686-12.36,25.754-8.462,54.914S1237.257,543.641,1245.84,542.473Z" transform="translate(73.573 25.586)" opacity="0.2"/>
    <path id="Path_1832" data-name="Path 1832" d="M1225.3,484.827c.509,3.881,1.138,7.637,1.865,11.245a11.745,11.745,0,0,0,12.59-.231,11.963,11.963,0,0,0,5.23-11.536l-.739-5.579a11.969,11.969,0,0,0-2.639-6,11.748,11.748,0,0,0-17.541-.659C1224.252,476.172,1224.675,480.45,1225.3,484.827Z" transform="translate(74.073 32.244)" fill="#a385eb"/>
    <path id="Path_1833" data-name="Path 1833" d="M1125.674,531.03l41.05-1.426-8.655-64.586L1118.12,474.6Z" transform="translate(51.764 31.521)" fill="#a385eb"/>
    <path id="Path_1834" data-name="Path 1834" d="M1125.674,531.03l41.05-1.426-8.655-64.586L1118.12,474.6Z" transform="translate(51.764 31.521)" opacity="0.2"/>
    <path id="Path_1835" data-name="Path 1835" d="M1224.438,440.1a37.218,37.218,0,0,0-4.636,12.6,86.01,86.01,0,0,0-1.6,13.4c-.157,2.257-.1,4.5-.133,6.757s.121,4.5.279,6.745.291,4.5.533,6.733.484,4.476.787,6.708a148.192,148.192,0,0,0,5.9,26.31,77.939,77.939,0,0,0,5.327,12.4c2.227,3.868,4.818,7.723,8.474,10.341a33.031,33.031,0,0,1-7.881-10.638,78.407,78.407,0,0,1-4.915-12.4,157.2,157.2,0,0,1-5.581-26.186,161.928,161.928,0,0,1-1.8-26.733,86.278,86.278,0,0,1,1.223-13.329A39.113,39.113,0,0,1,1224.438,440.1Z" transform="translate(72.809 26.274)" opacity="0.2"/>
    <path id="Path_1836" data-name="Path 1836" d="M1263.638,433.1c-2.457,1.835-4.915,3.72-7.287,5.74s-4.721,3.992-7.046,6.038-4.612,4.129-6.84,6.274l-3.341,3.224c-1.077,1.115-2.2,2.195-3.244,3.335,1.235-.905,2.457-1.873,3.692-2.815l3.607-2.926c2.4-1.96,4.721-3.992,7.045-6.038s4.6-4.129,6.828-6.274S1261.52,435.371,1263.638,433.1Z" transform="translate(76.56 24.8)" fill="#263238"/>
    <path id="Path_1837" data-name="Path 1837" d="M1241.61,507.553c3.341,1.017,6.707,1.885,10.084,2.741s6.767,1.611,10.156,2.368,6.8,1.438,10.229,2.058l5.133.905c1.731.26,3.438.558,5.181.769-1.683-.521-3.365-.955-5.036-1.438l-5.06-1.3c-3.365-.855-6.755-1.611-10.145-2.368s-6.8-1.438-10.229-2.058S1245.072,508,1241.61,507.553Z" transform="translate(77.766 40.477)" fill="#263238"/>
    <path id="Path_1838" data-name="Path 1838" d="M1305.5,500.287c-5.072-.608-10.169-1.066-15.265-1.5s-10.193-.793-15.277-1.128-10.2-.608-15.313-.806l-7.663-.284c-2.542,0-5.109-.137-7.663-.137,2.53.31,5.073.546,7.627.818l7.627.682c5.1.447,10.2.794,15.289,1.129s10.2.606,15.314.8S1300.381,500.261,1305.5,500.287Z" transform="translate(78.337 38.135)" fill="#263238"/>
    <path id="Path_1839" data-name="Path 1839" d="M1291.34,434.9c-4.479,2.64-8.874,5.418-13.256,8.208s-8.7,5.655-13.025,8.531-8.607,5.8-12.868,8.8l-6.368,4.489c-2.082,1.55-4.213,3.049-6.283,4.624,2.24-1.315,4.443-2.7,6.67-4.042l6.585-4.166c4.37-2.79,8.7-5.655,13.026-8.531s8.619-5.815,12.868-8.8S1287.188,438.029,1291.34,434.9Z" transform="translate(77.331 25.18)" fill="#263238"/>
    <path id="Path_1840" data-name="Path 1840" d="M1243.28,481.791c5.968-.582,11.912-1.313,17.844-2.07s11.864-1.637,17.8-2.48,11.827-1.784,17.723-2.765l8.861-1.5c2.942-.546,5.9-1.054,8.837-1.649-2.99.284-5.956.644-8.934.967l-8.91,1.1c-5.944.757-11.864,1.637-17.8,2.48s-11.839,1.786-17.723,2.777S1249.163,480.639,1243.28,481.791Z" transform="translate(78.118 32.849)" fill="#263238"/>
    <path id="Path_1841" data-name="Path 1841" d="M1043.067,552.2c-18.631,30.737-50.148,97.083-38.145,121.2,11.561,23.223,128.15-40.47,142.907-52.076,6.44-5.034-23.642-64.673-30.978-59.937-9.842,6.312-57.429,45.418-58.47,45.616-2.215.435,4.406-21.661,8.885-49.037C1073.754,518.154,1056.467,530.107,1043.067,552.2Z" transform="translate(27.37 45.585)" fill="#eb9481"/>
    <path id="Path_1842" data-name="Path 1842" d="M1175.44,536.945c4.358,5.2.654,11.159.654,11.159a14.437,14.437,0,0,1,7.748,6.026c2.954,5.2-3.825,12.126-3.825,12.126a17.7,17.7,0,0,1,7.154,7.663c2.324,5.257-3.511,13.229-3.511,13.229a15.732,15.732,0,0,1,2.082,10.738c-2.009,9.919-16.282,15.338-25.385,18.735-13.546,5.059-38.024,4.874-43.532,5.7l-22.795-58.436s36.208-27.353,47.454-29.945C1150.951,531.751,1170.525,531.13,1175.44,536.945Z" transform="translate(46.692 45.703)" fill="#eb9481"/>
    <path id="Path_1843" data-name="Path 1843" d="M1166.58,544.714c-10.617-.111-20.689,2.951-30.918,5.43a.168.168,0,0,0-.121.217.145.145,0,0,0,.073.11.188.188,0,0,0,.133.021c10.145-2.578,20.664-3.1,30.894-5.27a.29.29,0,0,0,.133-.1.285.285,0,0,0,.048-.171.276.276,0,0,0-.085-.159A.243.243,0,0,0,1166.58,544.714Z" transform="translate(55.431 48.301)" fill="#263238"/>
    <path id="Path_1844" data-name="Path 1844" d="M1169.708,559.779a27.8,27.8,0,0,0-7.058,1.563c-2.47.731-4.927,1.512-7.385,2.318-4.927,1.625-9.721,3.348-14.515,5.232-.206.075-.145.423.1.347,4.854-1.6,9.745-3.137,14.672-4.538,2.457-.694,4.927-1.375,7.385-2.046a31.741,31.741,0,0,0,6.912-2.194.352.352,0,0,0,.145-.163.335.335,0,0,0,.036-.215.4.4,0,0,0-.1-.2A.42.42,0,0,0,1169.708,559.779Z" transform="translate(56.503 51.474)" fill="#263238"/>
    <path id="Path_1845" data-name="Path 1845" d="M1172.475,577.662c-2.094,0-4.346,1.066-6.283,1.748-2.215.794-4.418,1.563-6.634,2.319-4.431,1.525-8.873,3.049-13.353,4.414a.159.159,0,0,0-.073.091.142.142,0,0,0-.012.121.187.187,0,0,0,.073.1.184.184,0,0,0,.109.035c4.552-1.364,9.14-2.666,13.691-4.068,2.228-.681,4.455-1.388,6.682-2.1,1.889-.606,4.322-1.152,5.883-2.479a.1.1,0,0,0,.012-.057.09.09,0,0,0-.012-.056c0-.018-.012-.034-.036-.046A.087.087,0,0,0,1172.475,577.662Z" transform="translate(57.658 55.24)" fill="#263238"/>
    <path id="Path_1846" data-name="Path 1846" d="M1083.544,633c-7.542,3.72-15.156,7.266-22.94,10.453s-15.58,6.088-23.521,8.567c-4.455,1.426-8.946,2.8-13.534,3.992-.121,0,0,.224.061.2a189.7,189.7,0,0,0,24.356-6.41q5.938-2.046,11.755-4.477c3.837-1.6,7.675-3.248,11.367-5.157,4.225-2.195,8.462-4.451,12.529-6.944a.138.138,0,0,0,.048-.063.084.084,0,0,0,0-.076.131.131,0,0,0-.048-.061A.133.133,0,0,0,1083.544,633Z" transform="translate(31.84 66.892)" fill="#263238"/>
    <path id="Path_1847" data-name="Path 1847" d="M1148.757,603.762c-9.019,2.479-23.376,1.8-23.509,1.9-2.724,2.417-13.933,9.733-16.791,11.357-.109.062,0,.223.109.173,6.162-2.839,13.885-7.067,17.13-10.2,12.759.445,19.139-1.773,23.11-2.939C1149.011,603.961,1148.975,603.687,1148.757,603.762Z" transform="translate(49.72 60.733)" fill="#263238"/>
    <path id="Path_1848" data-name="Path 1848" d="M1003.95,602.567l57.3,1.984s8.22-41.908,7.8-64.475c-.23-12.635-7.542-12.09-15.7-4.167C1024.8,563.659,1003.95,602.567,1003.95,602.567Z" transform="translate(27.724 45.251)" fill="#4317af"/>
    <path id="Path_1849" data-name="Path 1849" d="M1039.479,545.338a2.372,2.372,0,0,1-.218.57,4.478,4.478,0,0,1-.944,1.1,6.456,6.456,0,0,1-.617.5h-.1Zm20.834-1.116a.808.808,0,0,0-.315-.31.858.858,0,0,0-.424-.111,1.153,1.153,0,0,0-.617.207,1.176,1.176,0,0,0-.411.512,1.128,1.128,0,0,0-.387-.511,1.163,1.163,0,0,0-.617-.208.829.829,0,0,0-.424.108.809.809,0,0,0-.315.314,1.72,1.72,0,0,0-.157.851,1.8,1.8,0,0,0,.266.823,5.724,5.724,0,0,0,1.562,1.611h.169a6.5,6.5,0,0,0,.617-.5,4.594,4.594,0,0,0,.944-1.1,1.818,1.818,0,0,0,.254-.829A1.737,1.737,0,0,0,1060.313,544.222Zm-42.624,29.534a3.1,3.1,0,0,0,.641-.8,1.3,1.3,0,0,0,.121-.3C1018.21,573.025,1017.943,573.4,1017.689,573.756Zm21.681-2.479a.835.835,0,0,0-.739-.421,1.162,1.162,0,0,0-.617.208,1.127,1.127,0,0,0-.387.511,1.171,1.171,0,0,0-.412-.512,1.151,1.151,0,0,0-.617-.207.857.857,0,0,0-.424.111.806.806,0,0,0-.315.31,1.716,1.716,0,0,0-.145.851,1.8,1.8,0,0,0,.254.823,5.632,5.632,0,0,0,1.562,1.6h.182c.206-.15.412-.311.605-.483a4.445,4.445,0,0,0,.944-1.116,1.8,1.8,0,0,0,.266-.823A1.717,1.717,0,0,0,1039.37,571.277Zm20.918,0a.806.806,0,0,0-.315-.31.857.857,0,0,0-.424-.111,1.151,1.151,0,0,0-.617.207,1.168,1.168,0,0,0-.412.512,1.075,1.075,0,0,0-.4-.511,1.089,1.089,0,0,0-.605-.208.817.817,0,0,0-.424.108.808.808,0,0,0-.315.314,1.715,1.715,0,0,0-.157.851,1.8,1.8,0,0,0,.266.823,5.634,5.634,0,0,0,1.562,1.6h.17a5.718,5.718,0,0,0,.617-.483,4.7,4.7,0,0,0,.944-1.116,1.653,1.653,0,0,0,.266-.82,1.868,1.868,0,0,0-.133-.855Zm-33.327-10.4.157.111h.169a8.023,8.023,0,0,0,.63-.508,4.2,4.2,0,0,0,.92-1.1,2.1,2.1,0,0,0,.254-1.24A29.208,29.208,0,0,0,1026.962,560.875Zm22.928-3.174a.8.8,0,0,0-.315-.312.845.845,0,0,0-.424-.11,1.153,1.153,0,0,0-.617.209,1.126,1.126,0,0,0-.388.51,1.173,1.173,0,0,0-1.029-.719.845.845,0,0,0-.424.11.8.8,0,0,0-.315.312,1.71,1.71,0,0,0-.145.851,1.789,1.789,0,0,0,.254.822,5.726,5.726,0,0,0,1.562,1.612h.169s.291-.211.63-.5a4.639,4.639,0,0,0,.932-1.116,1.806,1.806,0,0,0,.242-.828,1.7,1.7,0,0,0-.182-.845Zm-31.414,40.619a.868.868,0,0,0-.3-.311.86.86,0,0,0-.424-.111,1.176,1.176,0,0,0-.617.209.412.412,0,1,1-.8,0,1.143,1.143,0,0,0-.617-.207.864.864,0,0,0-.424.114,1.008,1.008,0,0,0-.315.309,1.853,1.853,0,0,0-.157.849,1.791,1.791,0,0,0,.254.824l.121.174,3.026.111c.048-.088.109-.179.157-.272a1.849,1.849,0,0,0,.242-.838,1.873,1.873,0,0,0-.194-.849Zm20.918,0a.809.809,0,0,0-.315-.311.86.86,0,0,0-.424-.111,1.069,1.069,0,0,1-.4.517,1.076,1.076,0,0,1-1.235,0,1.145,1.145,0,0,1-.4-.517.864.864,0,0,0-.424.114.894.894,0,0,0-.315.309,1.708,1.708,0,0,0-.145.851,1.785,1.785,0,0,0,.254.822,4.223,4.223,0,0,0,.738.93l1.767.063a4.772,4.772,0,0,0,.787-.979,1.83,1.83,0,0,0,.254-.833,1.879,1.879,0,0,0-.169-.853Zm20.2-.422a1.145,1.145,0,0,1-.4.517,1.076,1.076,0,0,1-1.235,0,1.069,1.069,0,0,1-.4-.517.86.86,0,0,0-.424.111.809.809,0,0,0-.315.311,1.716,1.716,0,0,0-.157.851,1.658,1.658,0,0,0,.266.822,5.634,5.634,0,0,0,1.562,1.613h.169l.387-.3c.109-.57.339-1.736.63-3.4Zm-30.676-13.143a.9.9,0,0,0-.3-.317.852.852,0,0,0-.424-.116,1.085,1.085,0,0,1-.387.533,1.064,1.064,0,0,1-.629.2,1.121,1.121,0,0,1-.63-.2,1.085,1.085,0,0,1-.387-.533.839.839,0,0,0-.424.115.829.829,0,0,0-.315.318,1.868,1.868,0,0,0-.157.852,1.8,1.8,0,0,0,.266.822,5.749,5.749,0,0,0,1.562,1.6h.17a6.631,6.631,0,0,0,.63-.5,4.727,4.727,0,0,0,.932-1.1,1.967,1.967,0,0,0,.254-.827,1.711,1.711,0,0,0-.182-.847Zm20.918,0a.832.832,0,0,0-.315-.317.853.853,0,0,0-.424-.116,1.171,1.171,0,0,0-.617.215,1.142,1.142,0,0,0-.387.516,1.4,1.4,0,0,0-.412-.506,1.251,1.251,0,0,0-.617-.225.852.852,0,0,0-.424.116.832.832,0,0,0-.315.317,1.87,1.87,0,0,0-.157.851,1.958,1.958,0,0,0,.266.823,5.634,5.634,0,0,0,1.562,1.6h.169a5.292,5.292,0,0,0,.618-.5,4.073,4.073,0,0,0,.944-1.1,1.8,1.8,0,0,0,.266-.822A1.723,1.723,0,0,0,1049.842,584.754Z" transform="translate(30.013 48.11)" fill="#fff"/>
    <path id="Path_1850" data-name="Path 1850" d="M1058.331,584.509c-8.789-1.042-32.722-3.174-48.447-2.48-.1,0-.121.372,0,.372,13.171,1.439,39.585,2.405,48.435,2.679C1058.452,585.054,1058.488,584.533,1058.331,584.509Z" transform="translate(28.956 56.13)" fill="#263238"/>
    <path id="Path_1851" data-name="Path 1851" d="M1059.653,556.85q-.981,3.721-1.852,7.514c0-.3.073-.608.1-.918.351-3.509.69-7.006.944-10.527a.073.073,0,0,0-.145,0c-1.695,12.275-6.513,43.285-6.791,46.67-.266,0-2.881.075-3.5,0-.133,0-.121.2,0,.212s4.237.508,4.261.421c1.707-5.977,4.3-28.58,4.842-33.59a96.4,96.4,0,0,0,2.2-9.77C1059.725,556.825,1059.665,556.812,1059.653,556.85Z" transform="translate(37.065 50.015)" fill="#263238"/>
    <path id="Path_1852" data-name="Path 1852" d="M1151.078,439.752c-.956,9.572-8.607,17.93-8.607,17.93s-11.222-1.241-18.207-7.786c-5.8-5.468-6.416-13.54-1.792-17.1,6.634-5.109,13.437,7.291,13.437,7.291s-2.966-13.862,5.363-14.408C1147.072,425.3,1151.878,431.767,1151.078,439.752Z" transform="translate(52.035 23.234)" fill="#fc3fa8"/>
    <path id="Path_1853" data-name="Path 1853" d="M1130.991,387.153a14.621,14.621,0,0,1-3.45,7.2,14.409,14.409,0,0,1-7.3-3.124c-2.336-2.195-2.591-5.431-.726-6.869,2.651-2.046,5.387,2.926,5.387,2.926s-1.235-5.555,2.155-5.778C1129.453,381.363,1131.318,383.955,1130.991,387.153Z" transform="translate(51.798 13.936)" fill="#fc3fa8"/>
    <path id="Path_1854" data-name="Path 1854" d="M1160.726,413.38c-4.225,5.655-12.2,7.985-12.2,7.985s-6.61-5.071-8.522-11.878c-1.6-5.691,1.065-11,5.314-11.469,6.15-.683,5.726,9.745,5.726,9.745s3.353-9.919,8.825-7.018C1163.668,402.691,1164.249,408.656,1160.726,413.38Z" transform="translate(56.273 17.406)" fill="#fc3fa8"/>
    <path id="Path_1855" data-name="Path 1855" d="M1018.4,413.9H898.087v68.455H1018.4Z" transform="translate(5.433 20.757)" fill="#fc3fa8"/>
    <path id="Path_1856" data-name="Path 1856" d="M918.438,470.445l-20.351,21.041V470.445Z" transform="translate(5.433 32.664)" fill="#fc3fa8"/>
    <path id="Path_1857" data-name="Path 1857" d="M983.888,425.256H912.449v2.12h71.439Z" transform="translate(8.457 23.148)" fill="#fff"/>
    <path id="Path_1858" data-name="Path 1858" d="M961.4,430.6H912.449v2.121H961.4Z" transform="translate(8.457 24.274)" fill="#fff"/>
    <path id="Path_1859" data-name="Path 1859" d="M997.976,435.949H912.449v2.12h85.528Z" transform="translate(8.457 25.4)" fill="#fff"/>
    <path id="Path_1860" data-name="Path 1860" d="M941.868,441.295H912.449v2.12h29.419Z" transform="translate(8.457 26.526)" fill="#fff"/>
    <path id="Path_1861" data-name="Path 1861" d="M979.556,446.651H912.449v2.121h67.107Z" transform="translate(8.457 27.653)" fill="#fff"/>
    <path id="Path_1862" data-name="Path 1862" d="M983.888,452H912.449v2.12h71.439Z" transform="translate(8.457 28.779)" fill="#fff"/>
    <path id="Path_1863" data-name="Path 1863" d="M965.973,457.345H912.449v2.121h53.524Z" transform="translate(8.457 29.905)" fill="#fff"/>
    <path id="Path_1864" data-name="Path 1864" d="M917.694,538.359h120.313V488.266H917.694Z" transform="translate(9.562 36.416)" fill="#dbdbdb"/>
    <path id="Path_1865" data-name="Path 1865" d="M1000.27,529.646l20.35,21.041V529.646Z" transform="translate(26.949 45.129)" fill="#dbdbdb"/>
    <path id="Path_1866" data-name="Path 1866" d="M997.791,497.044h-64.77v2.181h64.77Z" transform="translate(12.789 38.264)" fill="#fff"/>
    <path id="Path_1867" data-name="Path 1867" d="M1015.471,502.555h-82.45v2.181h82.45Z" transform="translate(12.789 39.425)" fill="#fff"/>
    <path id="Path_1868" data-name="Path 1868" d="M992.943,508.055H933.021v2.181h59.922Z" transform="translate(12.789 40.583)" fill="#fff"/>
    <path id="Path_1869" data-name="Path 1869" d="M1008.385,513.565H933.021v2.183h75.364Z" transform="translate(12.789 41.743)" fill="#fff"/>
    <path id="Path_1870" data-name="Path 1870" d="M982.447,519.065H933.021v2.181h49.426Z" transform="translate(12.789 42.901)" fill="#fff"/>
    <path id="Path_1871" data-name="Path 1871" d="M1243.456,351.726H1149.94v39.851h93.516Z" transform="translate(58.464 7.666)" fill="#fc3fa8"/>
    <path id="Path_1872" data-name="Path 1872" d="M1179.59,384.645h21.718L1190.461,399.7Z" transform="translate(64.707 14.597)" fill="#fc3fa8"/>
    <path id="Path_1873" data-name="Path 1873" d="M1182.687,371.343a23.95,23.95,0,0,1-5.169,6.112,34.14,34.14,0,0,1-3.45,2.729h-.908c-.242-.174-6.15-4.167-8.607-8.853-1.768-3.261-2.01-6.894-.605-9.262a4.557,4.557,0,0,1,4.055-2.344,6.363,6.363,0,0,1,5.617,3.98,6.334,6.334,0,0,1,5.593-3.98,4.6,4.6,0,0,1,2.361.608,4.546,4.546,0,0,1,1.707,1.736C1184.685,364.449,1184.455,368.082,1182.687,371.343Z" transform="translate(61.223 9.35)" fill="#fff"/>
    <path id="Path_1874" data-name="Path 1874" d="M1215.992,362.8l-11.149,15.015-2.385-8.952-1.38.62-.666-1.5,1.3-.57-5.29-5.816h18.267l3.692-1.637h-23.812l-.605,1.376,6.791,7.44,2.942,11.048,1.453.272,13.909-18.7Z" transform="translate(67.733 9.399)" fill="#fff"/>
    <path id="Path_1875" data-name="Path 1875" d="M1214.514,362.306l-11.149,15.016-2.385-8.952Z" transform="translate(69.211 9.893)" fill="#fff"/>
    <path id="Path_1876" data-name="Path 1876" d="M1214.257,361.312l-12.977,5.816-5.29-5.816Z" transform="translate(68.16 9.684)" fill="#fff"/>
    <path id="Path_1877" data-name="Path 1877" d="M1203.852,781.188v27.821a14.533,14.533,0,0,1-14.527,14.527H886.812a14.527,14.527,0,0,1-14.527-14.527V524.527A14.527,14.527,0,0,1,886.812,510h14.305" transform="translate(0 40.992)" fill="none" stroke="rgba(67,23,175,0.15)" stroke-width="4"/>
  </g>
</svg>
