<svg id="Layer_1" data-name="Layer 1" xmlns="http://www.w3.org/2000/svg" viewBox="0 0 129.74 105.93"><defs><style>.cls-1{fill:#ebebeb;}.cls-2{fill:#fff;}.cls-3{fill:#263339;}.cls-4{fill:#dbdbdb;}.cls-5{fill:#e34e96;}.cls-6{fill:#010101;}.cls-12,.cls-16,.cls-6{isolation:isolate;opacity:0.1;}.cls-7{fill:#d2d2d2;}.cls-8{fill:#eb9481;}.cls-9{fill:#4a4455;}.cls-10{fill:#465b65;}.cls-11{fill:#41378d;}.cls-12{fill:#020202;}.cls-13{fill:#c8c7c7;}.cls-14{fill:#a6a6a6;}.cls-15{fill:#f29abb;}.cls-16{fill:#040504;}</style></defs><g id="OBJECTS"><path class="cls-1" d="M75.66,128c34.5,0,62.4-2.41,62.4-5.38s-27.95-5.37-62.4-5.37-62.4,2.41-62.4,5.37S41.18,128,75.66,128Z" transform="translate(-8.33 -22.08)"/><path class="cls-2" d="M109.64,45.33h-2.08v2.08h2.08Z" transform="translate(-8.33 -22.08)"/><path class="cls-2" d="M118.47,47.41h-2.08l.85-1-.85-1h2.08l.85,1Z" transform="translate(-8.33 -22.08)"/><path class="cls-2" d="M109.64,52.25h-2.08v2.08h2.08Z" transform="translate(-8.33 -22.08)"/><path class="cls-2" d="M118.47,54.33h-2.08l.85-1-.85-1h2.08l.85,1Z" transform="translate(-8.33 -22.08)"/><path class="cls-1" d="M118.53,54.43h-2.35l.94-1.14-.94-1.15h2.35l.94,1.15Zm-1.9-.21h1.8l.74-.93-.74-.94h-1.8l.74.94Z" transform="translate(-8.33 -22.08)"/><path class="cls-2" d="M113.12,52.25l.34.68.74.11-.55.54.13.73-.69-.35-.66.35.12-.73L112,53l.73-.11Z" transform="translate(-8.33 -22.08)"/><path class="cls-1" d="M114,54.52l-.81-.42-.82.42.16-.9-.66-.65.9-.13.43-.83.43.83.9.13-.65.65Zm-.83-.67.54.28-.1-.6.42-.42-.59-.09-.27-.54-.27.54-.59.09.42.42-.1.6Z" transform="translate(-8.33 -22.08)"/><path class="cls-2" d="M109.64,59.18h-2.08v2.07h2.08Z" transform="translate(-8.33 -22.08)"/><path class="cls-2" d="M118.47,61.25h-2.08l.85-1-.85-1h2.08l.85,1Z" transform="translate(-8.33 -22.08)"/><path class="cls-2" d="M113.12,59.18l.34.67.74.12-.55.53.13.73-.69-.35-.66.35.12-.73L112,60l.73-.12Z" transform="translate(-8.33 -22.08)"/><path class="cls-3" d="M49,94.64v-.31a15.91,15.91,0,0,0,1.69-.06v.31C50.1,94.61,49.52,94.63,49,94.64Zm-2.13-.06c-.56,0-1.13-.09-1.69-.17V94.1c.56.06,1.12.12,1.7.16Zm6-.22-.05-.31c.55-.08,1.12-.17,1.67-.28l.06.31c-.57.11-1.14.2-1.7.28ZM43.06,94c-.55-.11-1.11-.24-1.66-.38l.08-.31c.54.14,1.09.27,1.64.38Zm13.52-.47-.08-.3c.53-.15,1.09-.31,1.62-.49l.1.31c-.57.17-1.11.33-1.67.48ZM39.31,93c-.53-.18-1.08-.38-1.6-.6l.12-.29c.52.21,1.06.42,1.58.59Zm20.87-.69-.12-.29.81-.34.74-.34.13.29L61,92Zm-24.41-.78c-.52-.25-1-.52-1.52-.8l.16-.28c.49.28,1,.55,1.47.8Zm27.86-.89-.16-.28c.47-.28,1-.59,1.41-.9l.18.26c-.46.32-.93.62-1.43.92Zm-31.2-1c-.47-.3-.94-.63-1.39-1l.18-.26c.46.34.92.66,1.39,1Zm34.33-1.18-.2-.25c.42-.34.85-.73,1.27-1.11l.22.24c-.41.39-.84.77-1.27,1.12ZM29.38,87.37c-.43-.37-.85-.74-1.27-1.16l.22-.22c.42.39.82.77,1.27,1.13ZM69.57,85.9l-.23-.23c.38-.4.73-.82,1.12-1.27l.24.21c-.37.44-.73.86-1.13,1.27ZM26.64,84.69c-.38-.43-.73-.88-1.09-1.32l.25-.2c.34.43.7.88,1.08,1.3ZM72.05,83l-.27-.19c.33-.43.67-.9,1-1.37l.27.18ZM24.33,81.63a15.53,15.53,0,0,1-.85-1.47l.28-.15c.26.48.55,1,.85,1.47ZM74.25,79.8,74,79.64c.31-.48.6-1,.9-1.47l.27.17c-.31.51-.61,1-.91,1.46ZM22.58,78.2a13.47,13.47,0,0,1-.53-1.63l.3-.08c.15.54.32,1.07.52,1.6Zm53.65-1.67L76,76.37l.85-1.47.28.15Zm1.84-3.36L77.78,73c.27-.5.53-1,.79-1.5l.28.14c-.28.51-.55,1-.8,1.51Zm1.75-3.39-.29-.14.73-1.52.29.14Zm1.68-3.42-.28-.14L82,64.7l.28.14ZM83.23,63,83,62.81l.78-1.51.29.14ZM85,59.58l-.28-.16c.26-.49.54-1,.81-1.46l.28.14L85,59.57Zm1.86-3.33-.28-.16c.28-.48.57-1,.85-1.47l.28.17-.83,1.43Zm2-3.24-.26-.17c.3-.49.61-1,.93-1.42l.26.17c-.3.45-.6.92-.91,1.4ZM91,49.86l-.25-.19c.33-.46.67-.91,1-1.37l.26.19-1,1.35Zm2.32-3L93,46.64c.37-.43.74-.89,1.11-1.3l.24.2-1.06,1.27ZM95.8,44l-.24-.22c.4-.43.8-.83,1.19-1.22l.23.22c-.36.37-.73.78-1.15,1.19Zm2.72-2.66-.21-.23c.42-.38.85-.73,1.28-1.12l.2.25c-.39.33-.82.73-1.23,1.08Zm2.94-2.41-.19-.26,1.38-1,.17.26c-.42.3-.88.63-1.33,1Zm3.13-2.14-.17-.28c.47-.3,1-.58,1.46-.87l.16.28c-.46.26-1,.54-1.43.84Z" transform="translate(-8.33 -22.08)"/><path class="cls-4" d="M109.37,22.94a.53.53,0,0,1-.09.3.54.54,0,0,1-.23.19.52.52,0,0,1-.58-.12.51.51,0,0,1-.14-.26.55.55,0,0,1,0-.31.5.5,0,0,1,.19-.24.6.6,0,0,1,.29-.08.49.49,0,0,1,.21,0,.45.45,0,0,1,.17.11,1,1,0,0,1,.11.17A.48.48,0,0,1,109.37,22.94Z" transform="translate(-8.33 -22.08)"/><path class="cls-4" d="M109.77,24.39v.19H108v-.19a.9.9,0,0,1,.26-.64.91.91,0,0,1,1.55.63Z" transform="translate(-8.33 -22.08)"/><path class="cls-4" d="M110.71,22.63a.6.6,0,0,1-.08.29.5.5,0,0,1-.24.19.42.42,0,0,1-.31,0,.4.4,0,0,1-.26-.14.54.54,0,0,1-.12-.58.63.63,0,0,1,.2-.23.44.44,0,0,1,.29-.08.51.51,0,0,1,.37.15A.53.53,0,0,1,110.71,22.63Z" transform="translate(-8.33 -22.08)"/><path class="cls-4" d="M111.1,24.07v.23h-1.82v-.2a.91.91,0,0,1,.91-.9h0a.91.91,0,0,1,.64.27A.88.88,0,0,1,111.1,24.07Z" transform="translate(-8.33 -22.08)"/><path class="cls-3" d="M111.08,33.33l-.15-.28.73-.38.14.29Z" transform="translate(-8.33 -22.08)"/><path class="cls-5" d="M110.11,28.21l-2.65,7.3L113,31.15l21.33-7.74Z" transform="translate(-8.33 -22.08)"/><path class="cls-6" d="M110.11,28.21l-2.65,7.3L113,31.15l21.33-7.74Z" transform="translate(-8.33 -22.08)"/><path class="cls-3" d="M113.75,32.85l-6.29,2.66L113,31.15Z" transform="translate(-8.33 -22.08)"/><path class="cls-5" d="M113,31.15l21.33-7.74-17.5,17.08Z" transform="translate(-8.33 -22.08)"/><path class="cls-5" d="M110.11,28.21l-8.87-5.73,33.13.93Z" transform="translate(-8.33 -22.08)"/><path class="cls-7" d="M23.89,120.74l61.28.27c14.89-11.7,16.43-29,5.8-39.52-6.43-6.36-14.6-5.09-22.37-6.09h0a23.17,23.17,0,0,1-7.88-2.31c-8-4.25-12.48-14.19-19.25-22.57-.85-1.05-1.72-2.07-2.64-3.05a14.49,14.49,0,0,0-22.32,2.2C1.8,70.8,8.54,102.24,23.89,120.74Z" transform="translate(-8.33 -22.08)"/><path class="cls-4" d="M22.54,72.4c1.6,25.14,30.63,34.51,48.76,27,15.77-6.55,10.6-21.5-2.7-24h0a23.17,23.17,0,0,1-7.88-2.31c-8-4.25-12.48-14.19-19.25-22.57C31.41,45.31,21.35,54,22.54,72.4Z" transform="translate(-8.33 -22.08)"/><path class="cls-8" d="M71.24,124.68c-.91-.33-21.52-16.33-21.93-17.44-.15-.43,2-3.56,4.71-7.28.59-.8,1.2-1.63,1.83-2.46,4-5.43,8.47-11.1,8.47-11.1L78.16,97.07l-8.85,10.79-1.94,2.38s5.14,9.66,5.47,10.92S72.15,125,71.24,124.68Z" transform="translate(-8.33 -22.08)"/><path class="cls-1" d="M58,94.6l-2.2,2.9c-.63.84-1.23,1.66-1.81,2.46-2.72,3.72-4.87,6.85-4.72,7.28.41,1.11,21,17.11,21.93,17.44s1.88-2.26,1.58-3.51-5.48-10.93-5.48-10.93l1.94-2.37,2-2.41Z" transform="translate(-8.33 -22.08)"/><path class="cls-9" d="M71.34,124.87c-.92-.33-21.82-16.7-22.23-17.83-.18-.52,3.12-5.14,6.7-9.88l13.62,10.62-2,2.4S72.64,120,73,121.31,72.28,125.2,71.34,124.87Z" transform="translate(-8.33 -22.08)"/><path class="cls-3" d="M71.7,123.79c-3.45-2.82-17.57-13.94-21.2-16.45h0c3.35,2.87,17.56,13.86,21.15,16.49C71.72,123.91,71.76,123.85,71.7,123.79Z" transform="translate(-8.33 -22.08)"/><path class="cls-3" d="M68.55,109.78a6.22,6.22,0,0,0-4.85-2.29c-.07,0-.07.11,0,.12A24.91,24.91,0,0,1,68.41,110h.08s0,0,.06,0v-.06S68.56,109.8,68.55,109.78Z" transform="translate(-8.33 -22.08)"/><path class="cls-3" d="M69.07,111.16a6.19,6.19,0,0,0-4.85-2.29c-.06,0-.06.11,0,.13a24.12,24.12,0,0,1,4.72,2.34H69a.12.12,0,0,0,0,0,.06.06,0,0,0,0-.06A.08.08,0,0,0,69.07,111.16Z" transform="translate(-8.33 -22.08)"/><path class="cls-3" d="M69.6,112.54a6.21,6.21,0,0,0-4.85-2.29c-.07,0-.07.11,0,.13a25.25,25.25,0,0,1,4.72,2.33h.07l.06,0v-.07S69.61,112.56,69.6,112.54Z" transform="translate(-8.33 -22.08)"/><path class="cls-3" d="M70.13,113.92a6.22,6.22,0,0,0-4.85-2.29c-.07,0-.07.1,0,.12A24.33,24.33,0,0,1,70,114.09h.08a.1.1,0,0,0,.05,0,.06.06,0,0,0,0-.06A.17.17,0,0,0,70.13,113.92Z" transform="translate(-8.33 -22.08)"/><path class="cls-3" d="M73.6,108.59c0-1.17-1.24-1.63-2.21-1.59a9.21,9.21,0,0,0-4.6,1.51h0v0h0a.18.18,0,0,0,0,.09.17.17,0,0,0,0,.1.13.13,0,0,0,0,.09.16.16,0,0,0,.08.06,15.39,15.39,0,0,0,4.55,1.16C72.36,110.07,73.56,109.7,73.6,108.59Zm-4.33.57c-.74-.21-1.47-.46-2.21-.64.91-.29,1.79-.62,2.7-.82a12.83,12.83,0,0,1,1.36-.22c.7,0,2.94.43,1.52,1.76C71.87,110,70.13,109.46,69.27,109.16Z" transform="translate(-8.33 -22.08)"/><path class="cls-3" d="M63.6,105.38a15.08,15.08,0,0,0,3.19,3.44.18.18,0,0,0,.1,0H67a.18.18,0,0,0,.1,0,.33.33,0,0,0,.06-.1s.06,0,.06,0a9.26,9.26,0,0,0-.89-4.75c-.42-.85-1.47-1.76-2.45-1.15S63.15,104.58,63.6,105.38Zm.14-1.47c.47-1.88,2-.14,2.27.5a10.11,10.11,0,0,1,.45,1.27,26.74,26.74,0,0,1,.58,2.77c-.51-.56-1.07-1.06-1.61-1.6s-2-1.89-1.69-2.94Z" transform="translate(-8.33 -22.08)"/><path class="cls-10" d="M92.4,75.88c-1,7.21-18.65,27.9-20.7,30.31l-.47.54L56.58,95.46l.17-.22,12.9-16.88s-21.34,12.44-32,6.78a30.27,30.27,0,0,1-8.36-7l14-7.43s3.85,1.25,6.31.89c8.48-1.25,27.55-8.48,32-8.29C87.41,63.51,93.26,69.27,92.4,75.88Z" transform="translate(-8.33 -22.08)"/><path class="cls-3" d="M74.28,72.07a16.85,16.85,0,0,0-1.34,1.69c-.44.6-.91,1.19-1.37,1.79h0c.08-.18.16-.35.25-.52.29-.61.51-1.22.84-1.79,0,0,0-.06,0,0-.34.57-.73,1.1-1,1.7-.14.28-.28.56-.4.84s-.14.32-.2.48a1.59,1.59,0,0,0-.08.23,10,10,0,0,0-.6.85c-.43.63-.82,1.3-1.27,1.91m0,0c.43-.58,1-1.13,1.4-1.71s.89-1.21,1.32-1.82l1.27-1.8a15.73,15.73,0,0,0,1.28-1.86h0Z" transform="translate(-8.33 -22.08)"/><path class="cls-3" d="M72.72,103.24c-.8-.74-1.66-1.47-2.51-2.12s-1.69-1.39-2.57-2.07c-1.72-1.38-3.43-2.77-5.14-4.12-1-.74-1.92-1.47-2.93-2.2h0c1.62,1.46,3.36,2.84,5.08,4.21s3.44,2.75,5.19,4.1c1,.73,1.9,1.5,2.94,2.2C72.72,103.33,72.77,103.28,72.72,103.24Z" transform="translate(-8.33 -22.08)"/><path class="cls-3" d="M24.27,45.45a1.3,1.3,0,0,0-.43.67,1.27,1.27,0,0,0,.93,1.55,1.2,1.2,0,0,0,.42,0,1.57,1.57,0,0,0,0,.53,1.38,1.38,0,0,0,1.53,1,1.09,1.09,0,0,0,0,.44,1.3,1.3,0,0,0,.33.61,1.26,1.26,0,0,0,1.79,0l.08-.09a1.24,1.24,0,0,0,.58.73,1.25,1.25,0,0,0,1.38-.08.21.21,0,0,0,0,.11,1.26,1.26,0,0,0,1.47.93,1.16,1.16,0,0,0,.52-.26,1.11,1.11,0,0,0,.35-.48,1.17,1.17,0,0,0,.58.6,1.23,1.23,0,0,0,1.41-.22,1.2,1.2,0,0,0,.34-.56,1.37,1.37,0,0,0,.91.1,1.34,1.34,0,0,0,.5-.23,1.38,1.38,0,0,0,.36-.4,1.33,1.33,0,0,0,.67.22,1.36,1.36,0,0,0,1.44-1.31,1.35,1.35,0,0,0,.49,0,1.28,1.28,0,0,0,1-1.34,1.51,1.51,0,0,0,.6,0,1.5,1.5,0,0,0,.5-.22,1.41,1.41,0,0,0,.37-.4,1.27,1.27,0,0,0,.19-.5,1.63,1.63,0,0,0,0-.54,1.57,1.57,0,0,0-.18-.42h.22a1.28,1.28,0,0,0,.94-1.47,1.16,1.16,0,0,0-.33-.59,1.39,1.39,0,0,0,.77-.64,1.38,1.38,0,0,0-.22-1.65,1.37,1.37,0,0,0,.58-1.46,1.29,1.29,0,0,0-.28-.56,1.41,1.41,0,0,0-.49-.38,1.33,1.33,0,0,0,.21-.47,1.51,1.51,0,0,0,0-.52,1.19,1.19,0,0,0-.22-.47,1.48,1.48,0,0,0-.4-.35A1.38,1.38,0,0,0,43.36,36a1.32,1.32,0,0,0-.44-.67,1.5,1.5,0,0,0-.74-.26,1.18,1.18,0,0,0,0-.59,1.25,1.25,0,0,0-1.33-1,1.51,1.51,0,0,0,0-.6,1.46,1.46,0,0,0-.62-.86,1.4,1.4,0,0,0-1-.17,1.82,1.82,0,0,0-.3.11.89.89,0,0,0,0-.22,1.38,1.38,0,0,0-1.65-1,.93.93,0,0,0-.33.12,1.28,1.28,0,0,0,0-.39,1.35,1.35,0,0,0-.61-.86,1.37,1.37,0,0,0-1.55.06,1.28,1.28,0,0,0-.38.42,1.34,1.34,0,0,0-1.11-.43,1.52,1.52,0,0,0-.59.19,1.39,1.39,0,0,0-.44.43,1.23,1.23,0,0,0-.52-.49,1.26,1.26,0,0,0-.69-.14,1.3,1.3,0,0,0-.66.25.57.57,0,0,1-.53.6.58.58,0,0,1-.5-.25,1.17,1.17,0,0,0-.64.09,1.27,1.27,0,0,0-.51.41,1.18,1.18,0,0,0-.24.6,1.48,1.48,0,0,0-.53-.23,1.37,1.37,0,0,0-.57,0,1.31,1.31,0,0,0-.73.51,1.42,1.42,0,0,0-.28.85,1.14,1.14,0,0,0-.45,0,1.28,1.28,0,0,0-.94,1.5,1.22,1.22,0,0,0,.18.42h-.08a1.46,1.46,0,0,0-.86.62,1.39,1.39,0,0,0,0,1.42,1.09,1.09,0,0,0-.36,0,1.26,1.26,0,0,0-.93,1.5,1.08,1.08,0,0,0,.2.45,1.17,1.17,0,0,0,.36.34,1.25,1.25,0,0,0-.24,1.58,1.42,1.42,0,0,0,.4.41,1.36,1.36,0,0,0-.49,1.88,1.11,1.11,0,0,0,.25.32,1.3,1.3,0,0,0,.77.35,1.24,1.24,0,0,0-.32.54,1.12,1.12,0,0,0,0,.63,1.25,1.25,0,0,0,.36.64A1.27,1.27,0,0,0,24.27,45.45Z" transform="translate(-8.33 -22.08)"/><path class="cls-8" d="M35.82,56.21C38.43,60,47.37,69.67,53.55,71.08c3.4.74,19.88,3.08,22.13,1,2.64-2.4,1.42-11.46-.68-11.54-6.42-.25-18.28,1-21.25.35-1.33-.3-8.44-4.88-16-8.56C34.84,51,34.14,53.79,35.82,56.21Z" transform="translate(-8.33 -22.08)"/><path class="cls-11" d="M71.5,60.06,70.41,73.62S55.47,73.38,51,70.85s-11.86-9-14.65-13.52-1.87-6.94,3.62-4.17,12.88,7.2,13.84,7.43S71.5,60.06,71.5,60.06Z" transform="translate(-8.33 -22.08)"/><path class="cls-3" d="M68.47,61a27.59,27.59,0,0,0-.37,2.84c-.1.94-.21,2-.3,2.93-.17,2-.38,3.92-.41,5.88a.06.06,0,0,0,0,.06.06.06,0,0,0,.06-.06h0c.3-1.93.45-3.88.63-5.82.09-1,.18-1.91.25-2.88s.16-2,.14-3Z" transform="translate(-8.33 -22.08)"/><path class="cls-2" d="M48.27,57.7a63.9,63.9,0,0,1-4.75,7.63l-.16-.14a64.34,64.34,0,0,0,4.7-7.59A1,1,0,0,1,48.27,57.7Z" transform="translate(-8.33 -22.08)"/><path class="cls-2" d="M50.05,58.69a60.36,60.36,0,0,1-4.92,8L45,66.56a59.79,59.79,0,0,0,4.9-8Z" transform="translate(-8.33 -22.08)"/><path class="cls-12" d="M57.17,72.57A20.67,20.67,0,0,1,51,70.86c-4.52-2.52-11.88-9-14.65-13.53-2.14-3.43-2.12-5.67.48-5.31Z" transform="translate(-8.33 -22.08)"/><path class="cls-11" d="M22.61,81.35c.82.26,24.1-6.48,24.1-6.48L44,66.8a8.27,8.27,0,0,0,.73-5.09c-.84-3.34-7-8.81-7.51-9.16a5,5,0,0,0-5.4-.42C25.05,55.7,22.61,81.35,22.61,81.35Z" transform="translate(-8.33 -22.08)"/><path class="cls-2" d="M43.53,59.32c-6,2.94-14.34,4.08-17.84,4.41l.06-.22c3.53-.37,11.71-1.46,17.66-4.4Z" transform="translate(-8.33 -22.08)"/><path class="cls-2" d="M44.45,61c-6.39,3.49-16.07,4.66-19.31,5a.37.37,0,0,1,.05-.22c3.29-.31,12.85-1.47,19.17-5A.4.4,0,0,1,44.45,61Z" transform="translate(-8.33 -22.08)"/><path class="cls-8" d="M28.74,57.75c-1.87,10.62-.35,18.64,1.47,19.62,4.85,2.65,14.23-2,17.52-3.09,1.32-.42.05-11.48-1.42-11.18-3.61.74-10.06,4.49-10.28,4.47s-.78-2.75-2.64-10.65C31.9,50.53,29.5,53.42,28.74,57.75Z" transform="translate(-8.33 -22.08)"/><path class="cls-8" d="M44.92,63.48s6.83-2.86,12.35-2.6c1.87.08,9.47,2.47,9,4.33-.45,1.7-6.75-1.06-6.75-1.06s6.6,2.2,5.68,4.13-7.63-2.14-7.63-2.14,6.73,2.42,5.47,4.25c-.95,1.38-7.23-1.94-7.23-1.94s5.77,2.11,4.85,3.58c-1,1.62-7-1.08-7-1.08a9.74,9.74,0,0,1-7.74,3.75C45.41,74.74,44.92,63.48,44.92,63.48Z" transform="translate(-8.33 -22.08)"/><path class="cls-3" d="M57.25,63.21c.79.23,1.58.46,2.35.73a17.89,17.89,0,0,1,2.24,1,14.23,14.23,0,0,1,2.7,1.69,29.46,29.46,0,0,0-5-2.5c-.74-.3-1.51-.64-2.27-.94C57.23,63.26,57.24,63.21,57.25,63.21Z" transform="translate(-8.33 -22.08)"/><path class="cls-3" d="M56.13,66c1,.33,2,.63,2.94,1s1.86.83,2.8,1.27c.07,0,0,.06,0,0-1-.42-1.88-.73-2.84-1.11S57.08,66.33,56.1,66C56.13,66,56.13,66,56.13,66Z" transform="translate(-8.33 -22.08)"/><path class="cls-3" d="M54.72,68.13A23,23,0,0,1,59.13,70c.07,0,0,.07-.06,0-1.47-.66-2.59-1.19-4.36-1.89C54.66,68.18,54.66,68.12,54.72,68.13Z" transform="translate(-8.33 -22.08)"/><path class="cls-11" d="M43.58,63.51l5.58,11.95s-17.33,5.06-19.69,2-2.2-12.62-1.07-19.24,4.08-6.74,5.38-.73,2.07,9.74,2.31,9.74S43.58,63.51,43.58,63.51Z" transform="translate(-8.33 -22.08)"/><path class="cls-2" d="M35.24,64.23a48.64,48.64,0,0,1-7.62,4.11v-.23A48.64,48.64,0,0,0,35.2,64Z" transform="translate(-8.33 -22.08)"/><path class="cls-2" d="M35.74,66.29a49.25,49.25,0,0,1-8.08,4.3v-.23a48.3,48.3,0,0,0,8-4.28Z" transform="translate(-8.33 -22.08)"/><path class="cls-3" d="M41.31,65.12h-.06c.32.9.73,1.76,1.12,2.63s.81,1.79,1.23,2.68c.85,1.77,1.64,3.57,2.58,5.29h.08v0c-.73-1.81-1.57-3.57-2.39-5.33-.42-.88-.81-1.75-1.25-2.62S41.82,66,41.31,65.12Z" transform="translate(-8.33 -22.08)"/><path class="cls-3" d="M40,77.65a6.65,6.65,0,0,0-1.47.25l-1.5.23a29.14,29.14,0,0,1-2.94.25c-1,0-3.36-.12-4.1-.79a4.71,4.71,0,0,1-1.27-2.15c-.25-1.12-.45-2.25-.59-3.39a43.89,43.89,0,0,1-.19-7.34c0-.67.07-1.35.12-2s.13-1.38.16-2.07h0A25.29,25.29,0,0,0,27.74,64c0-.73-.12-1.39-.14-2.09m-.06,0c0,.74,0,1.47,0,2.2a8.79,8.79,0,0,0,.11,1.25c-.06.93-.09,1.87-.08,2.81a28.83,28.83,0,0,0,.85,7.34,4,4,0,0,0,1.69,2.59,6.07,6.07,0,0,0,2.28.6,18.56,18.56,0,0,0,5-.32c.46-.08.92-.18,1.38-.28a6.15,6.15,0,0,0,1.32-.36h0Z" transform="translate(-8.33 -22.08)"/><path class="cls-3" d="M43.55,63.29l-3.81,1.93-1.89,1-1.75.93a13.61,13.61,0,0,0-.35-1.66c-.12-.53-.27-1.17-.42-1.75,0-.15-.09-.3-.13-.46l-.07-.84c-.05-.45-.08-.91-.16-1.36h0a6.74,6.74,0,0,0,0,1.27c-.19-.73-.39-1.41-.6-2.12h0c.22,1.18.47,2.36.73,3.54.13.57.28,1.13.43,1.69s.31,1.22.5,1.82a19.15,19.15,0,0,0,1.91-.85l2-1c1.24-.63,2.51-1.28,3.72-2l.2.42s.07,0,0-.09A2.06,2.06,0,0,0,43.55,63.29Z" transform="translate(-8.33 -22.08)"/><path class="cls-13" d="M69.17,72.05H44.46v1.11H69.17Z" transform="translate(-8.33 -22.08)"/><path class="cls-14" d="M49.74,72.05l-.84,1.11H69.17V72.05Z" transform="translate(-8.33 -22.08)"/><path class="cls-13" d="M50.8,73.15H74.88l2-16.35H52.81Z" transform="translate(-8.33 -22.08)"/><path class="cls-2" d="M62.38,65a1.35,1.35,0,0,0,.1.56,1.52,1.52,0,0,0,.31.48,1.46,1.46,0,0,0,2.07,0,1.5,1.5,0,0,0,.45-1,1.54,1.54,0,0,0-.1-.56A1.25,1.25,0,0,0,64.9,64a1.67,1.67,0,0,0-.47-.33,1.55,1.55,0,0,0-.56-.11A1.52,1.52,0,0,0,62.38,65Z" transform="translate(-8.33 -22.08)"/><path class="cls-8" d="M76.69,58.38c.9,1.4,3.14,3,3.45,4.24a1.36,1.36,0,0,1,0,.89,1.41,1.41,0,0,1-.55.7s1.29.46,1.39,1.59c0,.58-.84,1.18-.84,1.18a1.43,1.43,0,0,1,.17,2.69,2,2,0,0,1,.56,1.7c-.49,1.7-7.38,2.6-8.81.2-.65-1.13,1-1.25,1-1.25s-2.49-.4-2.71-1.82,2-1.47,2-1.47S70,66.6,69.9,65.13,72,63.92,72,63.92s-1.67-.85-1.47-2c.32-1.9,4.24.13,5.72-.42Z" transform="translate(-8.33 -22.08)"/><path class="cls-3" d="M80.15,67s0,0,0,0a11.25,11.25,0,0,1-7.84.07c-.09,0-.12-.15,0-.11A19.68,19.68,0,0,0,80.15,67Z" transform="translate(-8.33 -22.08)"/><path class="cls-3" d="M71.88,63.8a15.74,15.74,0,0,0,7.59.46m0,0a10.29,10.29,0,0,1-4.19.57,7,7,0,0,1-3.45-1s0-.1,0-.09Z" transform="translate(-8.33 -22.08)"/><path class="cls-8" d="M30.66,52.93s4.12,3.48,6.74,2.85,1-3.3,1-3.3a8.48,8.48,0,0,0-4.95-1.12A4.37,4.37,0,0,0,30.66,52.93Z" transform="translate(-8.33 -22.08)"/><path class="cls-8" d="M32.78,52.32c.09.42,2.06,3.18,4,3.13.64,0,.67-3.45.67-3.45l.06-.26.85-3.53-4.72-3.1S32.74,52.15,32.78,52.32Z" transform="translate(-8.33 -22.08)"/><path class="cls-3" d="M38.34,48.21l-.86,3.53a7.35,7.35,0,0,1-4.17-4.24c.15-1.22.28-2.2.29-2.38h0l.6.36Z" transform="translate(-8.33 -22.08)"/><path class="cls-8" d="M43.4,43.08c.13,6.37-3.67,7.17-5,7.2s-5.52-.05-6.3-6.38,2.12-8.41,5-8.59S43.27,36.7,43.4,43.08Z" transform="translate(-8.33 -22.08)"/><path class="cls-3" d="M42.42,42.05a1.36,1.36,0,0,1-.43-.11.68.68,0,0,1-.42-.19.22.22,0,0,1,0-.28.68.68,0,0,1,.27-.13.71.71,0,0,1,.29,0,.82.82,0,0,1,.51.32.27.27,0,0,1,0,.12.15.15,0,0,1,0,.13.2.2,0,0,1-.09.09A.24.24,0,0,1,42.42,42.05Z" transform="translate(-8.33 -22.08)"/><path class="cls-3" d="M38.09,42.4a2,2,0,0,0,.43-.07.72.72,0,0,0,.43-.16A.28.28,0,0,0,39,42a.33.33,0,0,0,0-.14.57.57,0,0,0-.26-.15.51.51,0,0,0-.3,0,.76.76,0,0,0-.52.27.16.16,0,0,0-.06.13.19.19,0,0,0,0,.15.25.25,0,0,0,.28.1Z" transform="translate(-8.33 -22.08)"/><path class="cls-3" d="M39,43.38v0c0,.43-.07.93-.47,1.07h0C38.92,44.45,39,43.79,39,43.38Z" transform="translate(-8.33 -22.08)"/><path class="cls-3" d="M38.56,42.91c-.7-.07-.8,1.33-.14,1.4S39.14,43,38.56,42.91Z" transform="translate(-8.33 -22.08)"/><path class="cls-3" d="M38.28,43c-.14.08-.26.21-.43.21s-.29-.15-.4-.3h0c0,.28.06.55.35.61s.47-.17.55-.42C38.37,43,38.32,42.94,38.28,43Z" transform="translate(-8.33 -22.08)"/><path class="cls-3" d="M41.45,43.42c-.05.43,0,.94.36,1.11h0c-.45-.06-.47-.73-.36-1.15Z" transform="translate(-8.33 -22.08)"/><path class="cls-3" d="M41.87,43c.73,0,.65,1.4,0,1.4S41.28,43,41.87,43Z" transform="translate(-8.33 -22.08)"/><path class="cls-3" d="M42.18,43.08c.11.08.22.22.36.22s.27-.13.36-.27h0c0,.27-.09.54-.35.59s-.43-.2-.46-.47C42.07,43.12,42.12,43.05,42.18,43.08Z" transform="translate(-8.33 -22.08)"/><path class="cls-3" d="M38.62,47.22c.1.11.18.26.33.3a1.31,1.31,0,0,0,.48-.05h0a.56.56,0,0,1-.57.16.42.42,0,0,1-.21-.16.62.62,0,0,1-.09-.26S38.61,47.19,38.62,47.22Z" transform="translate(-8.33 -22.08)"/><path class="cls-3" d="M40.6,45.66a7.69,7.69,0,0,1,0,1h-.18a1.46,1.46,0,0,1-.77-.13,1.56,1.56,0,0,1-.59-.52s0-.06,0,0a2.27,2.27,0,0,0,1.27.49,9.09,9.09,0,0,1-.05-1.12,2.68,2.68,0,0,1,.68.21c0-1.36-.3-2.71-.31-4.07h0a21.68,21.68,0,0,1,.52,4.4C41.33,46,40.71,45.72,40.6,45.66Z" transform="translate(-8.33 -22.08)"/><path class="cls-3" d="M40.43,46.53a1.66,1.66,0,0,1-.7.56.82.82,0,0,1-.49,0c-.35-.09-.36-.43-.3-.7a2.07,2.07,0,0,1,.14-.42A2.32,2.32,0,0,0,40.43,46.53Z" transform="translate(-8.33 -22.08)"/><path class="cls-15" d="M39.73,47.09a.82.82,0,0,1-.49,0c-.35-.09-.36-.43-.3-.7a.85.85,0,0,1,.5.2A.86.86,0,0,1,39.73,47.09Z" transform="translate(-8.33 -22.08)"/><path class="cls-3" d="M32.56,43.63c.67-.05,2.42-1.91,2.46-5.18a23.79,23.79,0,0,1-.45,3.36c-.22.43,1-1.05,1-3.67a10.63,10.63,0,0,0,2.7,1.39,4,4,0,0,0,2.09.23c.09-.09-1.74-.65-2.2-1.22A21.57,21.57,0,0,0,43,40.18c.19,0,.13-3.12-2.2-4.67S35,35.17,34,36.14a6.26,6.26,0,0,0-2,2.07C30.77,40,31.83,43.68,32.56,43.63Z" transform="translate(-8.33 -22.08)"/><path class="cls-5" d="M32.43,45.15c.32.88-2.2-3.14-2.24-3.79a8.19,8.19,0,0,1,3.43-5.66c2.16-1.4,5.08-.91,5.57-.83a4.22,4.22,0,0,1,1.58.64,14.26,14.26,0,0,0-6.83.63C32.48,36.78,31.21,41.82,32.43,45.15Z" transform="translate(-8.33 -22.08)"/><path class="cls-5" d="M32.41,35.54a4.43,4.43,0,0,1,2.15-2.76,4.42,4.42,0,0,1,0,2.47c-.21.37-1.52.92-1.74.73A3.19,3.19,0,0,1,32.41,35.54Z" transform="translate(-8.33 -22.08)"/><path class="cls-16" d="M32.41,35.54a3.92,3.92,0,0,0,.46.45H33a1.9,1.9,0,0,0,.74-.2,3.64,3.64,0,0,0-.43-.67,1.16,1.16,0,0,0-.66-.31A4.49,4.49,0,0,0,32.41,35.54Z" transform="translate(-8.33 -22.08)"/><path class="cls-5" d="M32.07,35.9a9.06,9.06,0,0,0-3.49,1.27,3.34,3.34,0,0,0,2.31,1c.58,0,1.84-1.5,1.66-1.75A2.9,2.9,0,0,0,32.07,35.9Z" transform="translate(-8.33 -22.08)"/><path class="cls-16" d="M31.5,36a1.49,1.49,0,0,0,.29.78,1.13,1.13,0,0,0,.43.29c.24-.3.38-.58.32-.69a2.78,2.78,0,0,0-.49-.48Z" transform="translate(-8.33 -22.08)"/><path class="cls-5" d="M32,36.52a.76.76,0,0,0,.42.23.87.87,0,0,0,.48,0,.81.81,0,0,0,.44-1.07,1,1,0,0,0-.07-.15.84.84,0,0,0-.37-.3.87.87,0,0,0-.48,0,.82.82,0,0,0-.6,1.12A.64.64,0,0,0,32,36.52Z" transform="translate(-8.33 -22.08)"/><path class="cls-8" d="M33.09,44.37s-1.27-2.08-2.21-1.65-.07,3.39,1,3.85a1,1,0,0,0,.41.12.9.9,0,0,0,.43,0,1,1,0,0,0,.38-.21,1.23,1.23,0,0,0,.26-.34Z" transform="translate(-8.33 -22.08)"/><path class="cls-3" d="M31.17,43.57h0a2.73,2.73,0,0,1,1.3,1.8.53.53,0,0,0-.16-.2.51.51,0,0,0-.23-.12.57.57,0,0,0-.26,0,.55.55,0,0,0-.22.1v0a.65.65,0,0,1,.39,0,.72.72,0,0,1,.32.25,3.26,3.26,0,0,1,.31.62c0,.06.14,0,.13,0C32.81,45.1,32.16,43.73,31.17,43.57Z" transform="translate(-8.33 -22.08)"/><path class="cls-8" d="M124.34,106.15c-.33.91-16.7,21.25-17.79,21.62-.43.14-3.53-2.07-7.21-4.85-.8-.59-1.61-1.22-2.43-1.86C91.55,116.94,86,112.42,86,112.42L96.86,98.77l10.65,9,2.34,2s9.74-5,11-5.27S124.67,105.25,124.34,106.15Z" transform="translate(-8.33 -22.08)"/><path class="cls-1" d="M94,118.85l2.85,2.21c.85.64,1.64,1.27,2.43,1.86,3.67,2.78,6.79,5,7.2,4.83,1.12-.38,17.48-20.72,17.81-21.61s-2.21-1.92-3.49-1.63-11,5.27-11,5.27l-2.34-2-2.38-2Z" transform="translate(-8.33 -22.08)"/><path class="cls-9" d="M124.54,106.07c-.34.91-17.08,21.52-18.22,21.9-.52.18-5-3.2-9.74-6.86l10.83-13.44,2.37,2s9.94-5,11.23-5.31S124.88,105.15,124.54,106.07Z" transform="translate(-8.33 -22.08)"/><path class="cls-3" d="M123.48,105.69c-2.9,3.39-14.24,17.31-16.83,20.88h0c2.93-3.29,14.17-17.31,16.88-20.86C123.59,105.66,123.53,105.62,123.48,105.69Z" transform="translate(-8.33 -22.08)"/><path class="cls-3" d="M109.41,108.58A6.21,6.21,0,0,0,107,113.4c0,.07.11.06.12,0a26.07,26.07,0,0,1,2.42-4.66.11.11,0,0,0,0-.08.09.09,0,0,0,0-.08.09.09,0,0,0-.07,0S109.42,108.58,109.41,108.58Z" transform="translate(-8.33 -22.08)"/><path class="cls-3" d="M110.8,108.08a6.21,6.21,0,0,0-2.38,4.82c0,.07.11.06.13,0a24.53,24.53,0,0,1,2.42-4.66v-.15a.11.11,0,0,0-.08,0A.1.1,0,0,0,110.8,108.08Z" transform="translate(-8.33 -22.08)"/><path class="cls-3" d="M112.18,107.58a6.18,6.18,0,0,0-2.37,4.81c0,.08.11.07.13,0a24.5,24.5,0,0,1,2.41-4.66.11.11,0,0,0,0-.08.08.08,0,0,0,0-.07.06.06,0,0,0-.08,0S112.2,107.58,112.18,107.58Z" transform="translate(-8.33 -22.08)"/><path class="cls-3" d="M113.58,107.08a6.2,6.2,0,0,0-2.38,4.81c0,.08.1.07.12,0a25.14,25.14,0,0,1,2.42-4.66v-.07a.1.1,0,0,0,0-.07.09.09,0,0,0-.07,0Z" transform="translate(-8.33 -22.08)"/><path class="cls-3" d="M108.3,103.52c-1.17-.06-1.65,1.2-1.63,2.16a9.34,9.34,0,0,0,1.42,4.62h0a.19.19,0,0,0,.09,0,.14.14,0,0,0,.09,0,.31.31,0,0,0,.1,0,.22.22,0,0,0,0-.08,15.27,15.27,0,0,0,1.25-4.53C109.76,104.79,109.41,103.58,108.3,103.52Zm.5,4.34c-.22.74-.49,1.44-.68,2.17a23.39,23.39,0,0,1-.77-2.72,10.26,10.26,0,0,1-.18-1.34c0-.73.48-2.94,1.78-1.47.69.76.12,2.5-.15,3.36Z" transform="translate(-8.33 -22.08)"/><path class="cls-3" d="M104.92,113.47a15.87,15.87,0,0,0,3.5-3.15.2.2,0,0,0,0-.08.21.21,0,0,0,0-.11.41.41,0,0,0,0-.09l-.08-.05s0-.06,0-.07a9.43,9.43,0,0,0-4.77.81c-.84.42-1.78,1.41-1.2,2.43S104.12,113.86,104.92,113.47Zm-1.47-.18c-1.87-.51-.11-2,.54-2.25a9.85,9.85,0,0,1,1.3-.42,26.23,26.23,0,0,1,2.78-.54c-.57.51-1.09,1.06-1.63,1.59S104.49,113.57,103.45,113.29Z" transform="translate(-8.33 -22.08)"/><path class="cls-10" d="M106.93,105.72,95.45,121.2,56.71,94.33,53,91.74a28.41,28.41,0,0,1-2.65,1.6A27,27,0,0,1,42,96.53c-4.81.73-12.84.63-16.89-4.79-3.41-4.56-1.56-10.52-1.56-10.52L28.84,79S41.32,68.54,49.43,68.23c3.43-.13,8.44,2.47,13.08,5.19S106.93,105.72,106.93,105.72Z" transform="translate(-8.33 -22.08)"/><path class="cls-3" d="M53,91.73a28.41,28.41,0,0,1-2.65,1.6c-2.81-3.37-8.81-9.49-9-9.71Z" transform="translate(-8.33 -22.08)"/><path class="cls-3" d="M33.37,75.46c-.73.51-1.47,1.06-2.2,1.6s-1.47,1-2.2,1.58-1.37,1.21-2,1.83c-.31.31-.63.61-.94.93a8.19,8.19,0,0,0-.89,1s0,.08.05.06a9.91,9.91,0,0,0,1-.82l1.05-.89,2-1.69c.67-.58,1.27-1.19,1.95-1.77s1.47-1.18,2.2-1.77C33.43,75.46,33.43,75.46,33.37,75.46Z" transform="translate(-8.33 -22.08)"/><path class="cls-3" d="M104.24,105.17c-.73.8-1.43,1.67-2.12,2.52s-1.39,1.69-2.08,2.56c-1.38,1.73-2.77,3.44-4.12,5.18-.73.95-1.47,1.91-2.2,2.93,0,0,0,.09.07,0,1.47-1.63,2.84-3.37,4.22-5.08s2.74-3.45,4.09-5.19c.74-1,1.47-1.91,2.21-2.9C104.34,105.18,104.27,105.12,104.24,105.17Z" transform="translate(-8.33 -22.08)"/><path class="cls-3" d="M72.44,105.32c-1.93-1.52-3.92-2.93-5.93-4.4s-4-2.84-6-4.22l-1.74-1.17c-.58-.39-1.19-.73-1.76-1.15,0,0-.07,0,0,.06.52.38,1,.8,1.53,1.19s1,.73,1.47,1.11c1,.72,2,1.43,2.93,2.12q2.94,2.15,6,4.24c1.13.78,2.28,1.57,3.44,2.32C72.42,105.49,72.5,105.38,72.44,105.32Z" transform="translate(-8.33 -22.08)"/><path class="cls-3" d="M84.84,89.34c-1.79-1.47-3.67-2.8-5.57-4.17S75.51,82.4,73.61,81L68,77c-1.82-1.32-3.64-2.66-5.57-3.82-1.06-.63-2.14-1.22-3.24-1.76A21.33,21.33,0,0,0,55.8,70s0,0,0,.06c1,.53,2,1,2.94,1.46s1.88,1,2.8,1.6c1.92,1.16,3.72,2.48,5.52,3.78,3.76,2.71,7.52,5.43,11.31,8.08,2.12,1.47,4.21,3.07,6.41,4.41C84.81,89.5,84.9,89.39,84.84,89.34Z" transform="translate(-8.33 -22.08)"/></g></svg>