<svg id="Group_293" data-name="Group 293" xmlns="http://www.w3.org/2000/svg" xmlns:xlink="http://www.w3.org/1999/xlink" width="80.267" height="80.211" viewBox="0 0 80.267 80.211">
  <defs>
    <clipPath id="clip-path">
      <rect id="Rectangle_57" data-name="Rectangle 57" width="80.267" height="80.211" fill="none"/>
    </clipPath>
  </defs>
  <g id="Group_290" data-name="Group 290">
    <g id="Group_289" data-name="Group 289" clip-path="url(#clip-path)">
      <path id="Path_1965" data-name="Path 1965" d="M79.865,34.28a37.993,37.993,0,0,0-6.7-17.013A40.395,40.395,0,0,0,47.167.5,46.493,46.493,0,0,0,37.278.068a36.222,36.222,0,0,0-13.8,3.4A40.425,40.425,0,0,0,.192,34.7C.081,35.516.147,36.352,0,37.17v3.6a3.909,3.909,0,0,1,0,1.722v.626c.147.817.081,1.653.192,2.47a39.588,39.588,0,0,0,10.1,21.623A39.062,39.062,0,0,0,20.33,75.226a40.444,40.444,0,0,0,12.13,4.458c1.484.286,2.985.345,4.476.527h.626a4.47,4.47,0,0,1,1.878,0h1.252a3.908,3.908,0,0,1,1.721,0h.47a.387.387,0,0,1,.29-.081,33.419,33.419,0,0,0,13.352-3.248A39.815,39.815,0,0,0,70.616,66.324,39.811,39.811,0,0,0,79.865,34.28M77.041,35.9c-1.7,1.979-3.385,3.967-5.117,5.916a3.173,3.173,0,0,1-4.8-.025c-1.629-1.609-3.421-3.053-5.148-4.561a3.819,3.819,0,0,1-1.242-1.67,2.9,2.9,0,0,1,2.15-3.716,5.641,5.641,0,0,1,.767-.133c1.5-.118,1.549-.132.986-1.512-3.433-8.429-9.5-14.021-18.268-16.458a26.089,26.089,0,0,0-20.783,2.768A26.847,26.847,0,0,0,13.374,31.67a25.1,25.1,0,0,0-.81,3.174,31.532,31.532,0,0,0-.5,5.04A27.225,27.225,0,0,0,60.8,56.613a4.34,4.34,0,0,1,1.959-1.728,2.961,2.961,0,0,1,3.283,1.031,2.892,2.892,0,0,1-.029,3.561,31.308,31.308,0,0,1-4.093,4.616A32.518,32.518,0,0,1,43.366,72.8a31.8,31.8,0,0,1-21.054-4.471A32.348,32.348,0,0,1,6.843,46.412a31.623,31.623,0,0,1,4.062-23.367A32.058,32.058,0,0,1,32.8,7.554a32.016,32.016,0,0,1,27.329,6.8A32.083,32.083,0,0,1,70.886,30.389c.184.607.4.839,1.069.728a24.355,24.355,0,0,1,2.65-.2A2.959,2.959,0,0,1,77.041,35.9" transform="translate(0 0)" fill="#4530ae"/>
    </g>
  </g>
  <text id="_12" data-name="12" transform="translate(22.134 51.916)" fill="#fff" font-size="25" font-family="Poppins-Bold, Poppins" font-weight="700"><tspan x="0" y="0">12</tspan></text>
  <text id="m" transform="translate(46.134 39.416)" fill="#fff" font-size="12" font-family="Poppins-Bold, Poppins" font-weight="700"><tspan x="0" y="0">m</tspan></text>
</svg>
