<svg xmlns="http://www.w3.org/2000/svg" width="606.389" height="640.124" viewBox="0 0 606.389 640.124">
  <g id="Group_272" data-name="Group 272" transform="translate(-870.285 -315.321)">
    <path id="Path_1758" data-name="Path 1758" d="M903.014,613.378a43.571,43.571,0,0,1,5.735-47.769,42.779,42.779,0,0,1,66.422,1.485,43.448,43.448,0,0,1-14.4,65.358,42.834,42.834,0,0,1-57.757-19.074Z" transform="translate(10.609 95.618)" fill="#e1d9f1"/>
    <path id="Path_1759" data-name="Path 1759" d="M958.951,588.244c-3.36,14.407-16.642,25.5-16.642,25.5s-16.869-4.106-26.09-15.472c-7.749-9.494-7.148-21.854.643-26.335,11.081-6.439,18.972,13.773,18.972,13.773s-1.816-21.638,11.051-20.8C955.734,565.483,961.738,576.287,958.951,588.244Z" transform="translate(15.619 101.461)" fill="#fff"/>
    <path id="Path_1760" data-name="Path 1760" d="M1290.479,706.315a42.743,42.743,0,0,1-45.038-3.917,43.488,43.488,0,0,1,2.813-71.411,42.706,42.706,0,0,1,51.607,4.491,43.446,43.446,0,0,1-9.382,70.837Z" transform="translate(144.674 125.639)" fill="#e1d9f1"/>
    <path id="Path_1761" data-name="Path 1761" d="M1275.778,656.567A13.143,13.143,0,0,1,1266.706,668a13.032,13.032,0,0,1-13.967-4.079,13.248,13.248,0,0,1-1.6-14.558,13.157,13.157,0,0,1,5.3-5.477,13.047,13.047,0,0,1,16.33,3.058,13.158,13.158,0,0,1,3.01,9.619Z" transform="translate(153.425 132.917)" fill="#fff"/>
    <path id="Path_1762" data-name="Path 1762" d="M1285.942,686.022l-.464,5.417a42.739,42.739,0,0,1-45.038-3.919l.464-5.4a22.811,22.811,0,0,1,7.863-15.707,22.5,22.5,0,0,1,32.084,2.782,22.806,22.806,0,0,1,4.22,7.9A23.1,23.1,0,0,1,1285.942,686.022Z" transform="translate(149.675 140.516)" fill="#fff"/>
    <path id="Path_1763" data-name="Path 1763" d="M1257.532,449.815h-5.092a5.666,5.666,0,0,1-4.037-1.688,5.737,5.737,0,0,1-1.674-4.075,5.8,5.8,0,0,1,5.711-5.761h7.145l3.333-19.406h-6.428a5.747,5.747,0,0,1-4.079-1.7,5.835,5.835,0,0,1,0-8.21,5.747,5.747,0,0,1,4.079-1.7h8.4l2.194-13.283a5.74,5.74,0,0,1,5.725-4.8,5.889,5.889,0,0,1,2.419.578,5.939,5.939,0,0,1,3.136,3.747,6.016,6.016,0,0,1,.155,2.5l-1.969,11.251h17.371l2.208-13.283a5.8,5.8,0,0,1,2.04-3.516,5.692,5.692,0,0,1,3.84-1.28,5.812,5.812,0,0,1,2.433.536,5.885,5.885,0,0,1,1.983,1.505,5.76,5.76,0,0,1,1.181,2.2,6.005,6.005,0,0,1,.183,2.5l-1.9,11.251H1311a5.705,5.705,0,0,1,4.051,1.688,5.8,5.8,0,0,1,1.674,4.075,5.882,5.882,0,0,1-1.716,4.038,5.8,5.8,0,0,1-4.009,1.724h-7.075l-3.334,19.406h6.315a5.691,5.691,0,0,1,4.037,1.688,5.8,5.8,0,0,1,0,8.15,5.7,5.7,0,0,1-4.037,1.688h-8.313l-2.335,13.714a5.777,5.777,0,0,1-1.969,3.464,5.7,5.7,0,0,1-3.741,1.333,5.769,5.769,0,0,1-2.419-.557,5.907,5.907,0,0,1-3.305-6.228l2.124-11.726h-17.554l-2.335,13.714a5.832,5.832,0,0,1-2.026,3.5,5.929,5.929,0,0,1-8.256-.736,5.744,5.744,0,0,1-1.266-4.754Zm31.141-11.611,3.39-19.4H1274.72l-3.334,19.4Z" transform="translate(152.232 30.032)" fill="#e1d9f1"/>
    <path id="Path_1764" data-name="Path 1764" d="M1267.312,401.764a47.835,47.835,0,0,0,11.295-66.325,47,47,0,0,0-65.827-11.385,47.822,47.822,0,0,0-11.295,66.325A47,47,0,0,0,1267.312,401.764Z" transform="translate(130.314 0)" fill="#e1d9f1"/>
    <path id="Path_1765" data-name="Path 1765" d="M1223.139,377.373c-1.252-.793-2.335-1.931-4.009-1.772-.647,0-.506-.475-.506-.821V355.763c0-.461,0-.835.534-1.094,4.8-2.435,6.878-7.2,9.818-11.352a19.016,19.016,0,0,0,3.207-6.846,19.276,19.276,0,0,0,.281-7.56c-.2-1.442.464-2.061,1.73-2.349a3.112,3.112,0,0,1,3.587,1.138,25.031,25.031,0,0,1,2.8,8.341c.3,2.407-.563,4.74-.872,7.131-.211,1.73-.6,3.459-.943,5.216.422.3.9.145,1.365.159h15.936c2.25,0,3.333.648,3.643,2.146a4.39,4.39,0,0,1-.38,2.709,4.342,4.342,0,0,1-1.927,1.93c-.408.2-1.125,0-1.167.648s.689.577,1.069.836c1.913,1.325,1.547,4.062-.661,5.661-.549.374-1.575.2-1.6.994s.956.619,1.435,1.066c1.533,1.542.774,4.422-1.547,5.59a6.916,6.916,0,0,0-.928.374c-.267.173-.534.374,0,.736,2.293,1.655,2.25,3.961-.07,5.647l-.689.5a4.557,4.557,0,0,1-2.855.619h-25.051a2.834,2.834,0,0,1-1.154-.094A2.967,2.967,0,0,1,1223.139,377.373Z" transform="translate(140.8 4.496)" fill="#fff" fill-rule="evenodd"/>
    <path id="Path_1766" data-name="Path 1766" d="M1204.98,358.524V346.452c0-.821.084-1.224,1.069-1.21h14.628c.956,0,1.1.331,1.1,1.182v24.3c0,1.037-.267,1.325-1.294,1.311h-14.164c-1.2,0-1.35-.4-1.336-1.442C1205.022,366.592,1204.98,362.558,1204.98,358.524Z" transform="translate(135.258 12.165)" fill="#fff" fill-rule="evenodd"/>
    <path id="Path_1767" data-name="Path 1767" d="M1345.331,375.356H956.906V863.719h388.425Z" transform="translate(34.403 24.408)" fill="#455a64"/>
    <path id="Path_1768" data-name="Path 1768" d="M1317.493,413.948H973.209V760.884h344.284Z" transform="translate(41.031 40.097)" fill="#fff"/>
    <path id="Path_1769" data-name="Path 1769" d="M989.382,407.555a11.212,11.212,0,0,1-13.219-1,11.412,11.412,0,0,1,1.364-18.337,11.21,11.21,0,0,1,13.22.994,11.417,11.417,0,0,1-1.366,18.347Z" transform="translate(40.612 28.945)" fill="#fff"/>
    <path id="Path_1770" data-name="Path 1770" d="M984.615,394.678a3.475,3.475,0,0,1-.578,1.921,3.436,3.436,0,0,1-1.54,1.273,3.413,3.413,0,0,1-3.739-.748,3.473,3.473,0,0,1,.519-5.32,3.42,3.42,0,0,1,4.338.425,3.462,3.462,0,0,1,1,2.449Z" transform="translate(42.879 30.858)" fill="#37474f"/>
    <path id="Path_1771" data-name="Path 1771" d="M987.841,402.188v1.44a11.208,11.208,0,0,1-11.866,0v-1.44a6,6,0,0,1,1.737-4.228,5.9,5.9,0,0,1,8.39,0A6,6,0,0,1,987.841,402.188Z" transform="translate(42.156 32.885)" fill="#37474f"/>
    <path id="Path_1772" data-name="Path 1772" d="M1212.715,393.679a1.06,1.06,0,0,1,.745.322,1.092,1.092,0,0,1,.309.76,1.053,1.053,0,0,1-.309.744,1.076,1.076,0,0,1-.745.307,1.054,1.054,0,0,1-1.055-1.051,1.335,1.335,0,0,1,.07-.409,1.041,1.041,0,0,1,.577-.585A1.088,1.088,0,0,1,1212.715,393.679Z" transform="translate(137.975 31.857)" fill="#c7c7c7"/>
    <path id="Path_1773" data-name="Path 1773" d="M1215.021,393.679a1.1,1.1,0,0,1,.76.321,1.173,1.173,0,0,1,.323.761,1.021,1.021,0,0,1-.084.406,1.144,1.144,0,0,1-.239.343,1.109,1.109,0,0,1-.352.227,1.052,1.052,0,0,1-.408.075,1,1,0,0,1-.731-.308,1.053,1.053,0,0,1-.309-.743,1.012,1.012,0,0,1,.07-.409,1.11,1.11,0,0,1,.225-.349,1.056,1.056,0,0,1,.338-.236A1.086,1.086,0,0,1,1215.021,393.679Z" transform="translate(138.918 31.857)" fill="#c7c7c7"/>
    <path id="Path_1774" data-name="Path 1774" d="M1217.356,393.679a1.06,1.06,0,0,1,.745.322,1.065,1.065,0,0,1,.127,1.347,1.012,1.012,0,0,1-.478.385,1.032,1.032,0,0,1-.6.055,1.092,1.092,0,0,1-.548-.294,1.066,1.066,0,0,1,.169-1.637A1.059,1.059,0,0,1,1217.356,393.679Z" transform="translate(139.859 31.857)" fill="#c7c7c7"/>
    <path id="Path_1775" data-name="Path 1775" d="M1106.171,392.625H997.532v5.56h108.639Z" transform="translate(50.92 31.428)" fill="#37474f"/>
    <path id="Path_1776" data-name="Path 1776" d="M1297.03,660.615h-275.6v83.558Z" transform="translate(60.636 140.381)" fill="#37474f"/>
    <path id="Path_1777" data-name="Path 1777" d="M1042.482,694.136l-1.674-.332-3.418-12.836-7.891-8.643.7-1.6h27.85l.759,1.526Zm-10.141-21.61,6.611,7.2.211.4,2.968,11.179,14.009-18.844Z" transform="translate(63.917 144.491)" fill="#c7c7c7"/>
    <path id="Path_1778" data-name="Path 1778" d="M1056.354,670.482l-21.534,9.631.76,1.739,21.534-9.631Z" transform="translate(66.079 144.392)" fill="#c7c7c7"/>
    <path id="Path_1779" data-name="Path 1779" d="M985.09,693.445a11.84,11.84,0,0,1-6.964-2.287,12.051,12.051,0,0,1-.107-19.349,11.833,11.833,0,0,1,13.936-.19,12.046,12.046,0,0,1,4.571,13.268l1.8,7.376-1.144,1.152-6.248-1.44A11.828,11.828,0,0,1,985.09,693.445Zm0-22.028a9.991,9.991,0,0,0-7.971,3.976,10.14,10.14,0,0,0,.509,12.838,9.951,9.951,0,0,0,12.608,1.914l.7-.1,5.133,1.2-1.431-6.109v-.519a10.313,10.313,0,0,0,.487-3.082,10.131,10.131,0,0,0-2.931-7.161,9.973,9.973,0,0,0-7.1-2.954Z" transform="translate(41.031 143.97)" fill="#c7c7c7"/>
    <path id="Path_1780" data-name="Path 1780" d="M1163.334,575.978a1.207,1.207,0,0,1-.366.816,1.234,1.234,0,0,1-.8.366c-1.435-.073-3.179-.2-5.12-.332-3-12.534-6.653-22.661-5.851-18.728a62.288,62.288,0,0,1,.816,18.426l-10.085-.821c-1.2-21.523-4.276-37.773-4.543-32.933-1.252,19.564-3.193,25.643-5.415,32.112-24.305-2.059-56.178-5.128-79.175-7.837-1.125-11.957-1.814-24.836-2.335-24.016-3.98,6.152-6.076,15.559-7.145,22.878-7.3-.921-13.137-1.786-16.668-2.492,0,0-.422-9.984-.253-13.224a67.966,67.966,0,0,1,5.711-24.117c3.488-7.822,8.58-14.406,13.573-21.292l.127-.159a69.809,69.809,0,0,0,8.088-14.334v-.1a67.017,67.017,0,0,0,3.418-11.395c2.869-14.191,12.575-25.529,26.443-27.56,28.384-20.63,52.38-7.2,57.612,12.188.492,1.888.943,4.034,1.421,6.367v.073c1.519,8.643,2.419,19.693,3.474,28.279v.087a80.153,80.153,0,0,0,1.744,10C1152.559,524,1166.02,534.4,1163.334,575.978Z" transform="translate(62.637 51.047)" fill="#263238"/>
    <path id="Path_1781" data-name="Path 1781" d="M1078.264,450.436c-9.382,3.457-15.641,9.479-18.37,19.765-1.575,5.993-2.771,11.9-5.837,17.288s-7.609,10-12.153,14.406c-7.145,6.916-12.547,14.047-14.853,24.2s-3.446,22.675-1.238,32.86h.1c-1.533-10.243.169-23.914,3.263-34.013,3.4-11.107,10.7-17.417,18.356-25.181a47.756,47.756,0,0,0,12.631-21.913c1.322-5.086,1.955-10.473,4.656-15.07,3.221-5.5,8.58-8.542,13.925-11.193a.651.651,0,0,0,.338-.342.63.63,0,0,0-.014-.48.59.59,0,0,0-.338-.335A.584.584,0,0,0,1078.264,450.436Z" transform="translate(61.934 54.911)" fill="#263238"/>
    <path id="Path_1782" data-name="Path 1782" d="M1127.124,517.882c-5.134-8.947-10.662-16.725-12.982-27.286-2.1-9.624-2.729-19.593-4.895-29.217,0-.158-.267-.115-.225,0,3.052,16.986,1.9,33.567,10.563,48.651,4.712,8.2,9.48,15.846,12.054,25.269a80.639,80.639,0,0,1,2.04,30.254.157.157,0,0,0-.014.112.272.272,0,0,0,.028.107.567.567,0,0,0,.084.082.265.265,0,0,0,.1.039.241.241,0,0,0,.113-.009.225.225,0,0,0,.1-.056.268.268,0,0,0,.071-.093.3.3,0,0,0,.014-.111A66.778,66.778,0,0,0,1127.124,517.882Z" transform="translate(96.244 59.339)" fill="#263238"/>
    <path id="Path_1783" data-name="Path 1783" d="M1105.312,546.356c45.671,48.218,102.439,149,91.2,169.044-12.49,22.331-78.345-46.316-76.277-49.6,1.758-2.795-21-63.475-37.527-107.862S1094.017,534.427,1105.312,546.356Z" transform="translate(83.469 87.641)" fill="#eb9481"/>
    <path id="Path_1784" data-name="Path 1784" d="M1161.769,604.162l-65.559,11.9s-16.358-46.82-19.607-72.809c-1.829-14.565,6.667-15.156,17.357-7.42C1131.373,562.932,1161.769,604.162,1161.769,604.162Z" transform="translate(82.965 87.647)" fill="#4317af"/>
    <path id="Path_1785" data-name="Path 1785" d="M1091.074,550.793a5.2,5.2,0,0,1-1.1,1.283,7.139,7.139,0,0,1-.717.577h-.2a6.477,6.477,0,0,1-1.8-1.874,1.937,1.937,0,0,1-.309-.955,2,2,0,0,1,.183-.99,1.022,1.022,0,0,1,.352-.363.981.981,0,0,1,.492-.127,1.247,1.247,0,0,0,.464.6,1.225,1.225,0,0,0,.717.226,1.258,1.258,0,0,0,.717-.226,1.338,1.338,0,0,0,.464-.6.965.965,0,0,1,.492.125,1.053,1.053,0,0,1,.365.364,2.015,2.015,0,0,1,.183.995A1.963,1.963,0,0,1,1091.074,550.793Zm20.269-1.656a2.163,2.163,0,0,0,.239,1.641,6.472,6.472,0,0,0,1.8,1.874h.2a6.756,6.756,0,0,0,.731-.577.792.792,0,0,0,.155-.159c-.971-.921-1.941-1.872-3.066-2.779Zm-32.252-16.021a1.017,1.017,0,0,0-.352-.366.948.948,0,0,0-.492-.124,1.112,1.112,0,0,0-.549.129,9,9,0,0,0-1.238,3.774,3.654,3.654,0,0,0,.506.39h.2s.338-.245.7-.577a5.539,5.539,0,0,0,1.111-1.281,2.094,2.094,0,0,0,.3-.958A2.156,2.156,0,0,0,1079.09,533.117Zm12.167,47.21a.938.938,0,0,0-.366-.364.964.964,0,0,0-.492-.125,1.334,1.334,0,0,1-.464.6,1.243,1.243,0,0,1-1.435,0,1.244,1.244,0,0,1-.464-.6.981.981,0,0,0-.492.127,1.024,1.024,0,0,0-.352.363,2,2,0,0,0-.183.989,1.937,1.937,0,0,0,.31.956,6.367,6.367,0,0,0,1.8,1.858h.2a6.3,6.3,0,0,0,.717-.561,5.678,5.678,0,0,0,1.111-1.3,2.036,2.036,0,0,0,.309-.986,1.953,1.953,0,0,0-.2-1.017Zm24.305,0a1.2,1.2,0,0,0-.366-.363.981.981,0,0,0-.492-.127,1.325,1.325,0,0,0-.717.243,1.358,1.358,0,0,0-.478.592,1.342,1.342,0,0,0-.464-.594,1.308,1.308,0,0,0-.7-.242.945.945,0,0,0-.492.127.954.954,0,0,0-.366.363,2,2,0,0,0-.183.989,1.937,1.937,0,0,0,.309.956,6.549,6.549,0,0,0,1.814,1.858h.183a6.806,6.806,0,0,0,.731-.561,4.953,4.953,0,0,0,1.083-1.3,2.042,2.042,0,0,0,.338-.98,2.119,2.119,0,0,0-.169-1.023Zm24.291,0a1.006,1.006,0,0,0-.352-.364.981.981,0,0,0-.506-.125,1.307,1.307,0,0,0-.7.242.478.478,0,1,1-.928,0,1.341,1.341,0,0,0-.717-.241.98.98,0,0,0-.492.127.917.917,0,0,0-.352.363,2,2,0,0,0-.2.987,2.1,2.1,0,0,0,.309.958,6.2,6.2,0,0,0,1.815,1.858h.2a7.231,7.231,0,0,0,.717-.561,4.838,4.838,0,0,0,1.083-1.3,2.036,2.036,0,0,0,.352-.978,1.985,1.985,0,0,0-.183-1.025Zm-36.472-15.846a1.046,1.046,0,0,0-.366-.366.964.964,0,0,0-.492-.125,1.3,1.3,0,0,0-.717.243.478.478,0,1,1-.928,0,1.34,1.34,0,0,0-.717-.242.962.962,0,0,0-.493.129.943.943,0,0,0-.366.362,2.17,2.17,0,0,0-.183.989,2.1,2.1,0,0,0,.31.955,6.655,6.655,0,0,0,1.814,1.873h.183a7.13,7.13,0,0,0,.731-.577,4.818,4.818,0,0,0,1.083-1.3,1.913,1.913,0,0,0,.338-.943,2.151,2.151,0,0,0-.155-.987Zm24.291,0a.947.947,0,0,0-.858-.491,1.215,1.215,0,0,1-.45.6,1.256,1.256,0,0,1-.717.227,1.225,1.225,0,0,1-.717-.227,1.242,1.242,0,0,1-.464-.6.981.981,0,0,0-.506.125,1.01,1.01,0,0,0-.352.366,1.993,1.993,0,0,0-.183.989,1.931,1.931,0,0,0,.309.955,6.759,6.759,0,0,0,1.8,1.873h.2s.352-.245.731-.577a5.689,5.689,0,0,0,1.083-1.3,1.9,1.9,0,0,0,.338-.94,1.982,1.982,0,0,0-.126-.99Zm-12.167,47.2a.94.94,0,0,0-.366-.357.955.955,0,0,0-.492-.134,1.3,1.3,0,0,0-.7.243.478.478,0,1,1-.928,0,1.367,1.367,0,0,0-.717-.243.946.946,0,0,0-.844.491,1.616,1.616,0,0,0-.2.921l4.29-.778c.014-.039.028-.083.042-.13Zm-12.153-15.762a1.069,1.069,0,0,0-.366-.37.974.974,0,0,0-.492-.134,1.321,1.321,0,0,0-.717.25.479.479,0,1,1-.928,0,1.35,1.35,0,0,0-.717-.249.93.93,0,0,0-.492.138.95.95,0,0,0-.366.366,2.171,2.171,0,0,0-.183.989,2.091,2.091,0,0,0,.309.957,6.364,6.364,0,0,0,1.815,1.858h.183a6.435,6.435,0,0,0,1.814-1.858,2.058,2.058,0,0,0,.352-.94,2.158,2.158,0,0,0-.141-.99Zm24.291,0a.969.969,0,0,0-.858-.5,1.181,1.181,0,0,1-.45.619,1.228,1.228,0,0,1-1.449,0,1.261,1.261,0,0,1-.45-.619.989.989,0,0,0-.506.134,1.035,1.035,0,0,0-.352.37,2,2,0,0,0-.183.99,1.936,1.936,0,0,0,.31.955,6.436,6.436,0,0,0,1.8,1.858h.2a6.254,6.254,0,0,0,.731-.575,5.494,5.494,0,0,0,1.083-1.283,1.9,1.9,0,0,0,.352-.937,2.163,2.163,0,0,0-.112-.993Zm24.305,0a1.036,1.036,0,0,0-.352-.37.988.988,0,0,0-.506-.134,1.317,1.317,0,0,0-.7.25,1.356,1.356,0,0,0-.464.6,1.379,1.379,0,0,0-.478-.588,1.419,1.419,0,0,0-.7-.262,1,1,0,0,0-.506.135,1.042,1.042,0,0,0-.352.368,2,2,0,0,0-.183.989,2.094,2.094,0,0,0,.309.957,6.192,6.192,0,0,0,1.814,1.858h.183a6.264,6.264,0,0,0,.731-.575,4.679,4.679,0,0,0,1.083-1.283,2.039,2.039,0,0,0,.366-.934,2.006,2.006,0,0,0-.127-1Z" transform="translate(83.008 88.347)" fill="#fff"/>
    <path id="Path_1786" data-name="Path 1786" d="M1090.8,586.937c9.93-2.679,37.077-9.133,55.278-11.006.113,0,.2.4.1.432-14.909,3.861-45.165,9.393-55.179,11.179C1090.749,587.542,1090.622,586.981,1090.8,586.937Z" transform="translate(88.805 105.952)" fill="#263238"/>
    <path id="Path_1787" data-name="Path 1787" d="M1152.979,605.764,1096.2,616.051s-16.344-46.807-19.593-72.782c-1.182-9.32,1.9-12.966,7.061-12.288Z" transform="translate(82.964 87.645)" opacity="0.1"/>
    <path id="Path_1788" data-name="Path 1788" d="M1164.264,715.277H998.114s15.115-116.807,68.62-178.223c14.445-16.567,40.635-11.669,53.013-.46a117.053,117.053,0,0,1,12.054,13.8c11.252,14.579,29.636,49.558,31.352,59.065,2.855,15.647-10.9,32.559-10.9,32.559Z" transform="translate(51.156 85.792)" fill="#4317af"/>
    <path id="Path_1789" data-name="Path 1789" d="M1074.184,550.793a5.617,5.617,0,0,1-1.083,1.283c-.239.2-.479.4-.732.577h-.183a6.31,6.31,0,0,1-1.815-1.874,2.106,2.106,0,0,1-.323-.955,2.013,2.013,0,0,1,.2-.99.9.9,0,0,1,.352-.364.979.979,0,0,1,.506-.125,1.306,1.306,0,0,1,.7.242.478.478,0,1,0,.928,0,1.339,1.339,0,0,1,.717-.24.924.924,0,0,1,.492.129.948.948,0,0,1,.366.36,2.2,2.2,0,0,1,.183,1A2.13,2.13,0,0,1,1074.184,550.793Zm24.446-1.959a.97.97,0,0,0-.858-.489,1.267,1.267,0,0,0-.7.242,1.25,1.25,0,0,0-.464.594,1.357,1.357,0,0,0-.478-.592,1.327,1.327,0,0,0-.717-.243.967.967,0,0,0-.492.128,1.175,1.175,0,0,0-.366.361,2.16,2.16,0,0,0-.169.989,1.94,1.94,0,0,0,.309.956,6.31,6.31,0,0,0,1.815,1.874h.183a8.505,8.505,0,0,0,.731-.577,5.021,5.021,0,0,0,1.083-1.283,2.121,2.121,0,0,0,.324-.961,2.039,2.039,0,0,0-.183-1Zm24.305,0a.97.97,0,0,0-.858-.489,1.236,1.236,0,0,1-.464.6,1.243,1.243,0,0,1-1.435,0,1.324,1.324,0,0,1-.464-.6.9.9,0,0,0-.478.127.954.954,0,0,0-.366.363,2.174,2.174,0,0,0-.183.99,2.089,2.089,0,0,0,.31.955,6.524,6.524,0,0,0,1.814,1.874h.2a9.13,9.13,0,0,0,.717-.577,5.521,5.521,0,0,0,1.1-1.283,2.124,2.124,0,0,0,.323-.961,2.215,2.215,0,0,0-.183-1Zm-36.458-15.717a.938.938,0,0,0-.366-.364.886.886,0,0,0-.492-.125,1.31,1.31,0,0,0-.7.245,1.332,1.332,0,0,0-.464.591,1.47,1.47,0,0,0-.478-.581,1.423,1.423,0,0,0-.717-.255.884.884,0,0,0-.478.127.826.826,0,0,0-.352.363,1.882,1.882,0,0,0-.2.995,1.974,1.974,0,0,0,.309.965,6.751,6.751,0,0,0,1.814,1.858h.2s.338-.245.717-.575a4.676,4.676,0,0,0,1.083-1.283,1.963,1.963,0,0,0,.309-.964A2.025,2.025,0,0,0,1086.477,533.116Zm24.305,0a.936.936,0,0,0-.366-.363.946.946,0,0,0-.492-.127,1.423,1.423,0,0,0-.7.255,1.361,1.361,0,0,0-.478.581,1.438,1.438,0,0,0-.464-.591,1.357,1.357,0,0,0-.717-.245.951.951,0,0,0-.492.125.936.936,0,0,0-.366.364,2.193,2.193,0,0,0-.183,1,2.133,2.133,0,0,0,.323.964,6.289,6.289,0,0,0,1.814,1.858h.183c.253-.179.492-.371.731-.575a5.351,5.351,0,0,0,1.083-1.283,2.123,2.123,0,0,0,.323-.959,2.038,2.038,0,0,0-.169-1Zm-60.819,47.21a1,1,0,0,0-.352-.364.98.98,0,0,0-.506-.125,1.308,1.308,0,0,0-.7.242,1.341,1.341,0,0,0-.464.594,1.367,1.367,0,0,0-.478-.595,1.257,1.257,0,0,0-.7-.241.95.95,0,0,0-.858.49,2,2,0,0,0-.183.989,2.1,2.1,0,0,0,.309.956,6.191,6.191,0,0,0,1.814,1.858h.2a7.178,7.178,0,0,0,.717-.561,4.836,4.836,0,0,0,1.083-1.3,2.051,2.051,0,0,0,.352-.98,1.983,1.983,0,0,0-.2-1.023Zm24.305,0a.936.936,0,0,0-.366-.36.96.96,0,0,0-.492-.13.833.833,0,0,1-1.646.242,1.314,1.314,0,0,0-.717-.242.964.964,0,0,0-.492.125,1.044,1.044,0,0,0-.366.364,2.172,2.172,0,0,0-.183.989,2.111,2.111,0,0,0,.324.956,6.191,6.191,0,0,0,1.814,1.858h.183a8.577,8.577,0,0,0,.731-.561,5.743,5.743,0,0,0,1.083-1.3,2.037,2.037,0,0,0,.352-.978,2.137,2.137,0,0,0-.169-1.025Zm24.305,0a.97.97,0,0,0-.858-.49,1.269,1.269,0,0,0-.7.242,1.249,1.249,0,0,0-.464.594,1.358,1.358,0,0,0-.478-.592,1.3,1.3,0,0,0-.717-.243.98.98,0,0,0-.492.127,1.062,1.062,0,0,0-.366.363,1.989,1.989,0,0,0-.169.989,1.944,1.944,0,0,0,.309.956,6.2,6.2,0,0,0,1.814,1.858h.183a7.354,7.354,0,0,0,.732-.561,5.125,5.125,0,0,0,1.083-1.3,2.191,2.191,0,0,0,.366-.975,2.145,2.145,0,0,0-.169-1.028Zm24.305,0a.94.94,0,0,0-.366-.364.965.965,0,0,0-.492-.125,1.244,1.244,0,0,1-.464.6,1.243,1.243,0,0,1-1.435,0,1.334,1.334,0,0,1-.464-.6.981.981,0,0,0-.492.127,1.011,1.011,0,0,0-.352.363,2.17,2.17,0,0,0-.183.989,2.09,2.09,0,0,0,.309.956,6.551,6.551,0,0,0,1.8,1.858h.211a6.316,6.316,0,0,0,.717-.561,5.621,5.621,0,0,0,1.1-1.3,2.187,2.187,0,0,0,.366-.975,2.145,2.145,0,0,0-.169-1.028Zm24.305,0a.953.953,0,0,0-.366-.363.981.981,0,0,0-.492-.127,1.344,1.344,0,0,0-.717.243,1.361,1.361,0,0,0-.478.592,1.309,1.309,0,0,0-.45-.594,1.354,1.354,0,0,0-.717-.242.981.981,0,0,0-.492.127.953.953,0,0,0-.366.363,2,2,0,0,0-.183.989,2.09,2.09,0,0,0,.309.956,6.542,6.542,0,0,0,1.815,1.858h.2a6.6,6.6,0,0,0,.717-.561,5.3,5.3,0,0,0,1.1-1.3,2.185,2.185,0,0,0,.38-.969,2.157,2.157,0,0,0-.141-1.034Zm-85.139-15.846a.934.934,0,0,0-.366-.363.946.946,0,0,0-.492-.128,1.3,1.3,0,0,0-.7.243,1.247,1.247,0,0,0-.464.592,1.366,1.366,0,0,0-.478-.592,1.326,1.326,0,0,0-.717-.243.982.982,0,0,0-.492.128,1.167,1.167,0,0,0-.366.363,2.155,2.155,0,0,0-.169.989,1.939,1.939,0,0,0,.309.955,6.311,6.311,0,0,0,1.815,1.873h.183s.338-.245.731-.577a5.118,5.118,0,0,0,1.083-1.3,2.036,2.036,0,0,0,.366-.934,2.007,2.007,0,0,0-.127-1Zm24.305,0a.941.941,0,0,0-.366-.366.931.931,0,0,0-.492-.125,1.259,1.259,0,0,0-.7.243,1.245,1.245,0,0,0-.464.592,1.364,1.364,0,0,0-.478-.594,1.3,1.3,0,0,0-.717-.242.885.885,0,0,0-.478.128.934.934,0,0,0-.366.363,1.981,1.981,0,0,0-.183.986,2.083,2.083,0,0,0,.3.958,6.627,6.627,0,0,0,1.828,1.873h.2s.338-.245.717-.577a5.422,5.422,0,0,0,1.083-1.3,2.208,2.208,0,0,0,.38-.931,2.02,2.02,0,0,0-.127-1Zm24.305,0a.934.934,0,0,0-.366-.363.981.981,0,0,0-.492-.128,1.366,1.366,0,0,0-.717.243,1.337,1.337,0,0,0-.464.592,1.445,1.445,0,0,0-.464-.592,1.342,1.342,0,0,0-.717-.243.964.964,0,0,0-.492.125.942.942,0,0,0-.366.366,2.165,2.165,0,0,0-.183.989,2.085,2.085,0,0,0,.31.955,6.675,6.675,0,0,0,1.814,1.873h.2s.338-.245.731-.577a5.57,5.57,0,0,0,1.083-1.3,2.087,2.087,0,0,0,.281-1.93Zm24.305,0a.943.943,0,0,0-.366-.366.965.965,0,0,0-.492-.125,1.343,1.343,0,0,0-.717.243,1.442,1.442,0,0,0-.464.592,1.242,1.242,0,0,0-.464-.594,1.342,1.342,0,0,0-.717-.242,1,1,0,0,0-.492.129.943.943,0,0,0-.366.362,2.165,2.165,0,0,0-.183.989,2.277,2.277,0,0,0,.309.955,6.678,6.678,0,0,0,1.815,1.873h.2a8.023,8.023,0,0,0,.717-.577,5.178,5.178,0,0,0,1.1-1.3,2.192,2.192,0,0,0,.394-.926,2.032,2.032,0,0,0-.1-1Zm-109.472,47.2a.946.946,0,0,0-.844-.491,1.367,1.367,0,0,0-.717.243,1.328,1.328,0,0,0-.464.592v-.144c-.366.921-.7,1.83-1.013,2.765a8.318,8.318,0,0,0,1,.837h.2s.323-.246.717-.577a5.608,5.608,0,0,0,1.083-1.283,2.05,2.05,0,0,0,.352-.938,1.994,1.994,0,0,0-.141-.992Zm24.305,0a.942.942,0,0,0-.366-.366.93.93,0,0,0-.492-.125,1.33,1.33,0,0,0-1.167.836,1.6,1.6,0,0,0-.478-.58,1.474,1.474,0,0,0-.717-.256,1,1,0,0,0-.492.129,1.177,1.177,0,0,0-.365.362,2.012,2.012,0,0,0-.169.994,1.967,1.967,0,0,0,.31.964,6.2,6.2,0,0,0,1.814,1.859h.2a6.758,6.758,0,0,0,.717-.577,4.67,4.67,0,0,0,1.083-1.283,2.046,2.046,0,0,0,.408-.93,2.07,2.07,0,0,0-.084-1.014Zm24.305,0a.939.939,0,0,0-.366-.362,1,1,0,0,0-.492-.129,1.424,1.424,0,0,0-.7.256,1.358,1.358,0,0,0-.478.58,1.438,1.438,0,0,0-.464-.591,1.379,1.379,0,0,0-.717-.245.964.964,0,0,0-.492.125.944.944,0,0,0-.366.366,2.193,2.193,0,0,0-.183,1,2.109,2.109,0,0,0,.31.962,6.416,6.416,0,0,0,1.828,1.859h.183a7.97,7.97,0,0,0,.731-.577,5.466,5.466,0,0,0,1.083-1.283,2.22,2.22,0,0,0,.422-.927,2.079,2.079,0,0,0-.07-1.017Zm24.305,0a.944.944,0,0,0-.366-.366.965.965,0,0,0-.492-.125,1.292,1.292,0,0,0-.7.245,1.242,1.242,0,0,0-.464.591,1.5,1.5,0,0,0-.492-.58,1.376,1.376,0,0,0-.7-.256.968.968,0,0,0-.492.128.935.935,0,0,0-.366.363,2.194,2.194,0,0,0-.183.994,2.307,2.307,0,0,0,.309.964,6.553,6.553,0,0,0,1.814,1.859h.2a5.488,5.488,0,0,0,.717-.577,4.73,4.73,0,0,0,1.1-1.283,2.221,2.221,0,0,0,.436-.924,2.088,2.088,0,0,0-.07-1.02Zm24.305,0a.944.944,0,0,0-.366-.366.964.964,0,0,0-.492-.125,1.329,1.329,0,0,1-.464.6,1.25,1.25,0,0,1-1.435,0,1.239,1.239,0,0,1-.464-.6.982.982,0,0,0-.492.127,1.016,1.016,0,0,0-.352.364,2.021,2.021,0,0,0-.183,1,2.112,2.112,0,0,0,.309.962,6.556,6.556,0,0,0,1.8,1.859h.211a4.923,4.923,0,0,0,.7-.577,5.109,5.109,0,0,0,1.111-1.283,2.217,2.217,0,0,0,.436-.924,2.09,2.09,0,0,0-.07-1.02Zm24.305,0a1.036,1.036,0,0,0-.366-.363.969.969,0,0,0-.492-.128,1.474,1.474,0,0,0-.717.256,1.593,1.593,0,0,0-.478.58,1.33,1.33,0,0,0-1.167-.836.982.982,0,0,0-.858.491,2.019,2.019,0,0,0-.183,1,1.958,1.958,0,0,0,.309.962,6.552,6.552,0,0,0,1.815,1.859h.183a5.373,5.373,0,0,0,.731-.577,4.775,4.775,0,0,0,1.083-1.283,2.24,2.24,0,0,0,.464-.918,2.111,2.111,0,0,0-.042-1.025Zm-109.191-15.746a.952.952,0,0,0-.844-.5,1.26,1.26,0,0,1-.45.619,1.228,1.228,0,0,1-1.449,0,1.26,1.26,0,0,1-.45-.619.99.99,0,0,0-.506.134,1.027,1.027,0,0,0-.352.371,1.849,1.849,0,0,0-.183.989,1.933,1.933,0,0,0,.309.955,6.463,6.463,0,0,0,1.8,1.859h.2a6.434,6.434,0,0,0,.732-.577,5.461,5.461,0,0,0,1.083-1.283,1.941,1.941,0,0,0,.309-.956A1.993,1.993,0,0,0,1037.824,595.929Zm24.305,0a1.033,1.033,0,0,0-.352-.37,1,1,0,0,0-.506-.135,1.317,1.317,0,0,0-.7.25,1.362,1.362,0,0,0-.464.6,1.382,1.382,0,0,0-.478-.588,1.419,1.419,0,0,0-.7-.262,1,1,0,0,0-.506.135,1.034,1.034,0,0,0-.352.37,2,2,0,0,0-.183.989,1.94,1.94,0,0,0,.31.955,6.214,6.214,0,0,0,1.814,1.859h.183a6.422,6.422,0,0,0,.731-.577,4.675,4.675,0,0,0,1.083-1.283,2.08,2.08,0,0,0,.323-.951,2.006,2.006,0,0,0-.169-.993Zm24.305,0a1.027,1.027,0,0,0-.352-.371.988.988,0,0,0-.506-.134,1.339,1.339,0,0,0-1.168.85,1.389,1.389,0,0,0-.478-.6,1.32,1.32,0,0,0-.717-.249.9.9,0,0,0-.478.135.963.963,0,0,0-.366.37,1.985,1.985,0,0,0-.183.987,1.942,1.942,0,0,0,.309.956,6.3,6.3,0,0,0,1.815,1.859h.2a6.973,6.973,0,0,0,.717-.577,4.676,4.676,0,0,0,1.083-1.283,2.079,2.079,0,0,0,.338-.949,2.014,2.014,0,0,0-.169-.994Zm24.305,0a.962.962,0,0,0-.366-.37.952.952,0,0,0-.492-.135.833.833,0,0,1-1.646.25,1.321,1.321,0,0,0-.717-.25.976.976,0,0,0-.492.134.957.957,0,0,0-.366.371,2.164,2.164,0,0,0-.183.989,2.085,2.085,0,0,0,.309.955,6.434,6.434,0,0,0,1.829,1.859h.183a8,8,0,0,0,.731-.577,5.354,5.354,0,0,0,1.083-1.283,2.071,2.071,0,0,0,.338-.947,2.016,2.016,0,0,0-.141-1Zm24.305,0a.957.957,0,0,0-.366-.371.94.94,0,0,0-.492-.134,1.363,1.363,0,0,0-.717.25,1.334,1.334,0,0,0-.45.6,1.39,1.39,0,0,0-.478-.6,1.32,1.32,0,0,0-.717-.249,1.008,1.008,0,0,0-.492.138.964.964,0,0,0-.366.367,1.985,1.985,0,0,0-.169.989,2.078,2.078,0,0,0,.3.955,6.569,6.569,0,0,0,1.814,1.859h.2a5.465,5.465,0,0,0,.717-.577,4.721,4.721,0,0,0,1.1-1.283,2.063,2.063,0,0,0,.352-.944,2.026,2.026,0,0,0-.141-1Zm23.757-.461a.944.944,0,0,0-.281,0,1.376,1.376,0,0,0-.7.255,1.505,1.505,0,0,0-.492.581,1.323,1.323,0,0,0-1.182-.836.981.981,0,0,0-.492.127,1.014,1.014,0,0,0-.352.363,2.019,2.019,0,0,0-.183.994,1.961,1.961,0,0,0,.3.965,7.108,7.108,0,0,0,1.828,1.874h.2a8.177,8.177,0,0,0,.7-.591,5.162,5.162,0,0,0,1.111-1.283,3.408,3.408,0,0,0,.253-.75Zm-133.215,47.657a.94.94,0,0,0-.858-.491,1.28,1.28,0,0,0-.7.243,1.367,1.367,0,0,0-.478.592,1.335,1.335,0,0,0-.464-.592,1.3,1.3,0,0,0-.7-.243.982.982,0,0,0-.506.125,1.01,1.01,0,0,0-.352.366,1.85,1.85,0,0,0-.183.989,1.931,1.931,0,0,0,.309.955,6.311,6.311,0,0,0,1.815,1.874h.183c.253-.18.492-.373.731-.577a5.487,5.487,0,0,0,1.083-1.281,2.116,2.116,0,0,0,.352-.954,2.047,2.047,0,0,0-.141-1.006Zm24.305,0a.943.943,0,0,0-.366-.366.9.9,0,0,0-.492-.125,1.3,1.3,0,0,0-.7.243,1.337,1.337,0,0,0-.464.592,1.374,1.374,0,0,0-.478-.6,1.306,1.306,0,0,0-.7-.241.947.947,0,0,0-.858.491,2,2,0,0,0-.183.989,1.939,1.939,0,0,0,.309.955,6.312,6.312,0,0,0,1.814,1.874h.2s.338-.245.717-.577a4.771,4.771,0,0,0,1.083-1.281,2.1,2.1,0,0,0,.366-.951,2.063,2.063,0,0,0-.141-1.009Zm24.305,0a.942.942,0,0,0-.366-.361.962.962,0,0,0-.492-.129,1.31,1.31,0,0,0-1.181.836,1.322,1.322,0,0,0-1.182-.836.965.965,0,0,0-.492.125.942.942,0,0,0-.366.366,2.165,2.165,0,0,0-.183.989,2.1,2.1,0,0,0,.324.955,6.311,6.311,0,0,0,1.814,1.874h.183c.253-.18.492-.373.731-.577a5.628,5.628,0,0,0,1.083-1.281,2.1,2.1,0,0,0,.366-.948,1.91,1.91,0,0,0-.113-1.011Zm24.305,0a.941.941,0,0,0-.366-.366.931.931,0,0,0-.492-.125,1.26,1.26,0,0,0-.7.243,1.245,1.245,0,0,0-.464.592,1.363,1.363,0,0,0-1.2-.836.985.985,0,0,0-.492.128.937.937,0,0,0-.366.363,1.988,1.988,0,0,0-.169.989,2.078,2.078,0,0,0,.3.955,6.54,6.54,0,0,0,1.828,1.874h.183a8.45,8.45,0,0,0,.731-.577,5.348,5.348,0,0,0,1.083-1.281,2.09,2.09,0,0,0,.38-.945,1.918,1.918,0,0,0-.113-1.014Zm24.305,0a.943.943,0,0,0-.366-.366.966.966,0,0,0-.492-.125,1.241,1.241,0,0,1-.464.6,1.249,1.249,0,0,1-1.435,0,1.331,1.331,0,0,1-.464-.6.981.981,0,0,0-.492.127,1.017,1.017,0,0,0-.352.364,1.993,1.993,0,0,0-.183.989,2.082,2.082,0,0,0,.309.955,6.667,6.667,0,0,0,1.8,1.874h.211a8.683,8.683,0,0,0,.7-.577,5.258,5.258,0,0,0,1.111-1.281,2.09,2.09,0,0,0,.38-.945,1.921,1.921,0,0,0-.113-1.014Zm24.305,0a.937.937,0,0,0-.366-.363.984.984,0,0,0-.492-.128,1.364,1.364,0,0,0-1.2.836,1.244,1.244,0,0,0-.464-.592,1.259,1.259,0,0,0-.7-.243.984.984,0,0,0-.492.128.937.937,0,0,0-.366.363,2,2,0,0,0-.183.989,2.084,2.084,0,0,0,.309.955,6.675,6.675,0,0,0,1.814,1.874h.2c.239-.18.492-.373.717-.577a5.231,5.231,0,0,0,1.1-1.281,2.257,2.257,0,0,0,.394-.94,2.09,2.09,0,0,0-.084-1.02Zm-109.472-15.776a.908.908,0,0,0-.352-.363.981.981,0,0,0-.492-.127,1.241,1.241,0,0,1-.464.6,1.226,1.226,0,0,1-.717.228,1.258,1.258,0,0,1-.717-.228,1.332,1.332,0,0,1-.464-.6.965.965,0,0,0-.492.125,1.042,1.042,0,0,0-.366.364,2.171,2.171,0,0,0-.183.989,2.107,2.107,0,0,0,.323.956,6.542,6.542,0,0,0,1.8,1.872h.2c.253-.179.492-.371.731-.575a5.5,5.5,0,0,0,1.083-1.283,2,2,0,0,0,.3-1.959Zm24.305,0a.977.977,0,0,0-.858-.489,1.269,1.269,0,0,0-.7.242,1.247,1.247,0,0,0-.464.594,1.362,1.362,0,0,0-.478-.592,1.315,1.315,0,0,0-.717-.243.982.982,0,0,0-.492.127,1.065,1.065,0,0,0-.366.363,1.991,1.991,0,0,0-.169.989,2.083,2.083,0,0,0,.3.956,6.512,6.512,0,0,0,1.828,1.872h.183c.253-.179.492-.371.731-.575a4.673,4.673,0,0,0,1.083-1.283,2.085,2.085,0,0,0,.422-.934,2.118,2.118,0,0,0-.084-1.025Zm24.305,0a.939.939,0,0,0-.366-.364.966.966,0,0,0-.492-.125,1.354,1.354,0,0,0-.717.242,1.313,1.313,0,0,0-.45.594,1.365,1.365,0,0,0-.478-.595,1.338,1.338,0,0,0-.717-.241.981.981,0,0,0-.492.127,1.016,1.016,0,0,0-.352.363,1.989,1.989,0,0,0-.183.987,2.082,2.082,0,0,0,.3.958,6.752,6.752,0,0,0,1.814,1.872h.211s.338-.245.717-.575a4.939,4.939,0,0,0,1.083-1.283,2.067,2.067,0,0,0,.422-.932,1.962,1.962,0,0,0-.07-1.027Zm24.305,0a.956.956,0,0,0-.366-.363.982.982,0,0,0-.492-.127,1.364,1.364,0,0,0-1.2.836,1.31,1.31,0,0,0-.45-.594,1.354,1.354,0,0,0-.717-.242.965.965,0,0,0-.492.125.938.938,0,0,0-.366.364,2,2,0,0,0-.183.989,2.088,2.088,0,0,0,.309.956,6.652,6.652,0,0,0,1.815,1.872h.2a7.6,7.6,0,0,0,.717-.575,5.1,5.1,0,0,0,1.1-1.283,2.241,2.241,0,0,0,.436-.93,2.13,2.13,0,0,0-.056-1.03Zm24.305,0a.938.938,0,0,0-.366-.364.967.967,0,0,0-.492-.125,1.316,1.316,0,0,0-1.181.836,1.311,1.311,0,0,0-1.182-.836,1,1,0,0,0-.492.129.935.935,0,0,0-.366.36,2.166,2.166,0,0,0-.183.989,2.1,2.1,0,0,0,.309.956,6.65,6.65,0,0,0,1.814,1.872h.183a5.5,5.5,0,0,0,.731-.575,4.981,4.981,0,0,0,1.1-1.283,2.072,2.072,0,0,0,.45-.927,2.145,2.145,0,0,0-.056-1.032Zm23.475-.489a1.3,1.3,0,0,0-.717.241,1.366,1.366,0,0,0-.478.595,1.344,1.344,0,0,0-.464-.6,1.323,1.323,0,0,0-.717-.238.982.982,0,0,0-.492.127,1.016,1.016,0,0,0-.352.363,2.169,2.169,0,0,0-.2.987,2.1,2.1,0,0,0,.31.958,6.441,6.441,0,0,0,1.828,1.872h.183c.647-1.18,1.308-2.463,1.927-3.831a.928.928,0,0,0-.239-.3,1,1,0,0,0-.324-.18Zm-132.962,47.7a.968.968,0,0,0-.365-.369.953.953,0,0,0-.492-.135,1.405,1.405,0,0,0-.7.262,1.38,1.38,0,0,0-.478.588,1.356,1.356,0,0,0-.464-.6,1.323,1.323,0,0,0-.717-.25.974.974,0,0,0-.492.134.962.962,0,0,0-.366.37,2.171,2.171,0,0,0-.183.99,2.107,2.107,0,0,0,.323.955,6.193,6.193,0,0,0,1.815,1.858h.183a7.712,7.712,0,0,0,.731-.575,5.356,5.356,0,0,0,1.083-1.283,2.063,2.063,0,0,0,.464-.917,2.122,2.122,0,0,0-.042-1.028Zm24.305,0a.964.964,0,0,0-.366-.37.938.938,0,0,0-.492-.134,1.363,1.363,0,0,0-.717.25,1.328,1.328,0,0,0-.45.6,1.38,1.38,0,0,0-.478-.6,1.308,1.308,0,0,0-.717-.249,1.008,1.008,0,0,0-.492.138.953.953,0,0,0-.366.366,1.992,1.992,0,0,0-.169.989,2.078,2.078,0,0,0,.3.956,6.409,6.409,0,0,0,1.829,1.858h.2a6.778,6.778,0,0,0,.717-.575,4.678,4.678,0,0,0,1.083-1.283,2.051,2.051,0,0,0,.478-.913,2.135,2.135,0,0,0-.042-1.032Zm24.305,0a.952.952,0,0,0-.366-.366,1.008,1.008,0,0,0-.492-.138,1.348,1.348,0,0,0-.717.249,1.382,1.382,0,0,0-.478.6,1.327,1.327,0,0,0-.45-.6,1.364,1.364,0,0,0-.717-.25.938.938,0,0,0-.492.134.963.963,0,0,0-.366.37,2,2,0,0,0-.183.99,2.09,2.09,0,0,0,.309.955,6.543,6.543,0,0,0,1.814,1.858h.2a6.128,6.128,0,0,0,.717-.575,5.234,5.234,0,0,0,1.1-1.283,2.2,2.2,0,0,0,.478-.91,1.988,1.988,0,0,0-.014-1.035Zm24.305,0a.962.962,0,0,0-.365-.37.976.976,0,0,0-.493-.134,1.336,1.336,0,0,0-1.181.85,1.379,1.379,0,0,0-.478-.588,1.359,1.359,0,0,0-.7-.262.952.952,0,0,0-.492.135.967.967,0,0,0-.366.369,2.17,2.17,0,0,0-.183.989,2.1,2.1,0,0,0,.309.956,6.545,6.545,0,0,0,1.815,1.858h.183a4.8,4.8,0,0,0,.731-.575,4.98,4.98,0,0,0,1.1-1.283,2.024,2.024,0,0,0,.492-.907,2,2,0,0,0-.014-1.038Zm24.305,0a.961.961,0,0,0-.366-.37.974.974,0,0,0-.492-.134,1.287,1.287,0,0,1-.464.619,1.228,1.228,0,0,1-1.449,0,1.26,1.26,0,0,1-.45-.619.991.991,0,0,0-.492.135.933.933,0,0,0-.352.369,2,2,0,0,0-.183.99,1.938,1.938,0,0,0,.309.955,6.351,6.351,0,0,0,1.8,1.858h.2a5.826,5.826,0,0,0,.717-.575,4.829,4.829,0,0,0,1.1-1.283,1.923,1.923,0,0,0,.506-.907,2,2,0,0,0-.014-1.038Zm24.291,0a.931.931,0,0,0-.352-.369.991.991,0,0,0-.492-.135,1.405,1.405,0,0,0-.717.262,1.489,1.489,0,0,0-.478.588,1.264,1.264,0,0,0-.464-.6,1.277,1.277,0,0,0-.7-.25.916.916,0,0,0-.492.135.969.969,0,0,0-.366.369,2,2,0,0,0-.183.99,1.939,1.939,0,0,0,.309.955,6.364,6.364,0,0,0,1.814,1.858h.183a5.267,5.267,0,0,0,.731-.575,4.781,4.781,0,0,0,1.083-1.283,2.067,2.067,0,0,0,.521-.9,2.017,2.017,0,0,0,.014-1.042Zm-133.777-15.775a.939.939,0,0,0-.366-.364.918.918,0,0,0-.492-.125,1.269,1.269,0,0,0-.7.242,1.25,1.25,0,0,0-.464.594,1.359,1.359,0,0,0-.478-.595,1.289,1.289,0,0,0-.717-.241.983.983,0,0,0-.492.129,1.044,1.044,0,0,0-.366.36,1.991,1.991,0,0,0-.169.989,2.083,2.083,0,0,0,.3.956,6.516,6.516,0,0,0,1.828,1.872h.183s.352-.245.731-.575a5.42,5.42,0,0,0,1.083-1.3,2.034,2.034,0,0,0,.521-.9,1.882,1.882,0,0,0,0-1.044Zm24.305,0a1.014,1.014,0,0,0-.352-.363.967.967,0,0,0-.492-.126,1.243,1.243,0,0,1-.464.6,1.25,1.25,0,0,1-1.435,0,1.335,1.335,0,0,1-.464-.6.952.952,0,0,0-.492.125.94.94,0,0,0-.366.364,2.162,2.162,0,0,0-.183.989,2.085,2.085,0,0,0,.309.956,6.959,6.959,0,0,0,1.8,1.872h.211s.338-.245.717-.575a5.46,5.46,0,0,0,1.1-1.3,2.034,2.034,0,0,0,.52-.9,1.88,1.88,0,0,0,0-1.044Zm24.305,0a.936.936,0,0,0-.365-.363.982.982,0,0,0-.492-.126,1.354,1.354,0,0,0-.717.242,1.45,1.45,0,0,0-.464.594,1.329,1.329,0,0,0-.464-.592,1.344,1.344,0,0,0-.717-.243.981.981,0,0,0-.492.126.936.936,0,0,0-.366.363,2.169,2.169,0,0,0-.183.989,2.283,2.283,0,0,0,.309.956,6.65,6.65,0,0,0,1.814,1.872h.2s.338-.245.717-.575a5.17,5.17,0,0,0,1.1-1.3,2.022,2.022,0,0,0,.534-.895,1.9,1.9,0,0,0,.028-1.051Zm24.305,0a.94.94,0,0,0-.366-.364.952.952,0,0,0-.492-.125,1.317,1.317,0,0,0-1.181.835,1.311,1.311,0,0,0-1.181-.835.968.968,0,0,0-.492.126,1.014,1.014,0,0,0-.352.363,2.17,2.17,0,0,0-.2.987,2.1,2.1,0,0,0,.309.958,6.765,6.765,0,0,0,1.814,1.872h.2a8.152,8.152,0,0,0,.717-.575,4.841,4.841,0,0,0,1.083-1.3,1.936,1.936,0,0,0,.563-.893,2.053,2.053,0,0,0,.028-1.052Zm24.305,0a1.171,1.171,0,0,0-.366-.363.981.981,0,0,0-.492-.126,1.3,1.3,0,0,0-.717.243,1.359,1.359,0,0,0-.478.592,1.249,1.249,0,0,0-.464-.594,1.306,1.306,0,0,0-.7-.242.887.887,0,0,0-.492.125.94.94,0,0,0-.366.364,1.993,1.993,0,0,0-.183.989,1.936,1.936,0,0,0,.309.956,6.652,6.652,0,0,0,1.814,1.872h.183s.352-.245.732-.575a4.961,4.961,0,0,0,1.083-1.3,1.94,1.94,0,0,0,.563-.89,2.068,2.068,0,0,0,.056-1.055Zm24.291,0a1.007,1.007,0,0,0-.352-.364.967.967,0,0,0-.506-.125,1.307,1.307,0,0,0-.7.242.478.478,0,1,1-.928,0,1.326,1.326,0,0,0-.717-.241.912.912,0,0,0-.492.129.938.938,0,0,0-.366.36,2,2,0,0,0-.183.989,2.1,2.1,0,0,0,.309.956,6.468,6.468,0,0,0,1.815,1.872h.183a7.24,7.24,0,0,0,.731-.575,4.843,4.843,0,0,0,1.083-1.3,2.042,2.042,0,0,0,.577-.886,2.081,2.081,0,0,0,.056-1.059Zm20.2.187a1.966,1.966,0,0,0-.113.9,1.891,1.891,0,0,0,.3.858.854.854,0,0,0,.155.245Zm-153.483,47.023a.926.926,0,0,0-.352-.37.968.968,0,0,0-.5-.134,1.313,1.313,0,0,0-.708.245,1.334,1.334,0,0,0-.464.591,2.039,2.039,0,0,0-.3-.447c-.228,1.283-.385,2.407-.543,3.342a7.975,7.975,0,0,0,.743.577h.2l.714-.561a4.428,4.428,0,0,0,1.082-1.311,2.071,2.071,0,0,0,.323-.949A1.98,1.98,0,0,0,1001.338,705.993Zm24.305,0a1.023,1.023,0,0,0-.352-.363,1,1,0,0,0-.506-.127,1.423,1.423,0,0,0-.7.255,1.469,1.469,0,0,0-.478.581,1.33,1.33,0,0,0-1.167-.836.98.98,0,0,0-.506.125,1,1,0,0,0-.352.364,2.02,2.02,0,0,0-.183,1,1.961,1.961,0,0,0,.309.964,6.636,6.636,0,0,0,1.815,1.858h.183c.253-.179.492-.371.731-.575a4.781,4.781,0,0,0,1.083-1.283,2.119,2.119,0,0,0,.323-.959,2.04,2.04,0,0,0-.169-1Zm24.305,0a1,1,0,0,0-.352-.364.981.981,0,0,0-.506-.125,1.329,1.329,0,0,0-1.167.836,1.471,1.471,0,0,0-.478-.581,1.423,1.423,0,0,0-.7-.255,1.012,1.012,0,0,0-.506.129,1,1,0,0,0-.352.36,2.023,2.023,0,0,0-.183,1,2.127,2.127,0,0,0,.309.964,6.636,6.636,0,0,0,1.814,1.858h.2s.338-.245.717-.575a4.671,4.671,0,0,0,1.083-1.283,1.962,1.962,0,0,0,.338-.958,2.043,2.043,0,0,0-.169-1Zm24.305,0a.937.937,0,0,0-.366-.36.96.96,0,0,0-.492-.129,1.423,1.423,0,0,0-.7.255,1.359,1.359,0,0,0-.478.581,1.328,1.328,0,0,0-1.181-.836.964.964,0,0,0-.492.125,1.042,1.042,0,0,0-.366.364,2.2,2.2,0,0,0-.183,1,2.134,2.134,0,0,0,.324.964,6.448,6.448,0,0,0,1.814,1.858h.183c.253-.179.492-.371.731-.575a5.491,5.491,0,0,0,1.083-1.283,1.946,1.946,0,0,0,.338-.954,2.046,2.046,0,0,0-.141-1.006Zm24.305,0a.97.97,0,0,0-.858-.49,1.323,1.323,0,0,0-.7.245,1.243,1.243,0,0,0-.464.591,1.6,1.6,0,0,0-.478-.581,1.472,1.472,0,0,0-.717-.255.982.982,0,0,0-.492.127,1.064,1.064,0,0,0-.366.363,2.016,2.016,0,0,0-.169,1,1.973,1.973,0,0,0,.309.964,6.277,6.277,0,0,0,1.815,1.858h.183a8.2,8.2,0,0,0,.731-.575,4.677,4.677,0,0,0,1.083-1.283,1.943,1.943,0,0,0,.352-.952,2.052,2.052,0,0,0-.141-1.007Zm24.305,0a.939.939,0,0,0-.366-.364.965.965,0,0,0-.492-.125,1.244,1.244,0,0,1-.464.6,1.243,1.243,0,0,1-1.435,0,1.332,1.332,0,0,1-.464-.6.981.981,0,0,0-.492.127,1.012,1.012,0,0,0-.352.363,2.195,2.195,0,0,0-.183,1,2.116,2.116,0,0,0,.309.964,6.862,6.862,0,0,0,1.8,1.858h.211c.239-.177.478-.37.717-.575a5.1,5.1,0,0,0,1.1-1.283,2.089,2.089,0,0,0,.352-.952,2.052,2.052,0,0,0-.141-1.007Zm24.305,0a.953.953,0,0,0-.365-.363.983.983,0,0,0-.492-.127,1.376,1.376,0,0,0-.7.255,1.506,1.506,0,0,0-.492.581,1.241,1.241,0,0,0-.464-.591,1.284,1.284,0,0,0-.7-.245.981.981,0,0,0-.492.127.953.953,0,0,0-.366.363,2.022,2.022,0,0,0-.183,1,2.116,2.116,0,0,0,.309.964,6.636,6.636,0,0,0,1.814,1.858h.2a7.53,7.53,0,0,0,.717-.575,5.105,5.105,0,0,0,1.1-1.283,2.092,2.092,0,0,0,.366-.947,2.069,2.069,0,0,0-.113-1.013Zm-133.665-15.846a1.01,1.01,0,0,0-.352-.366.981.981,0,0,0-.506-.125,1.331,1.331,0,0,0-1.167.836,1.357,1.357,0,0,0-.478-.579,1.425,1.425,0,0,0-.7-.256.927.927,0,0,0-.492.129.941.941,0,0,0-.366.362,2.025,2.025,0,0,0-.183,1,2.134,2.134,0,0,0,.309.964,6.209,6.209,0,0,0,1.814,1.858h.183a4.813,4.813,0,0,0,.731-.577,4.688,4.688,0,0,0,1.083-1.281,2.14,2.14,0,0,0,.323-.964A2.029,2.029,0,0,0,1013.505,690.147Zm24.305,0a.939.939,0,0,0-.844-.491,1.213,1.213,0,0,1-.45.6,1.272,1.272,0,0,1-1.449,0,1.213,1.213,0,0,1-.45-.6.981.981,0,0,0-.506.125,1.011,1.011,0,0,0-.352.366,1.876,1.876,0,0,0-.183,1,1.966,1.966,0,0,0,.309.964,6.472,6.472,0,0,0,1.8,1.858h.2a6.421,6.421,0,0,0,.731-.577,5.483,5.483,0,0,0,1.083-1.281,1.967,1.967,0,0,0,.309-.964,1.873,1.873,0,0,0-.183-1Zm24.305,0a.933.933,0,0,0-.366-.363.911.911,0,0,0-.492-.128,1.331,1.331,0,0,0-1.167.836,1.466,1.466,0,0,0-.478-.579,1.425,1.425,0,0,0-.7-.256.94.94,0,0,0-.858.491,2.027,2.027,0,0,0-.183,1,1.975,1.975,0,0,0,.31.964,6.209,6.209,0,0,0,1.814,1.858h.183a6.431,6.431,0,0,0,.731-.577,4.686,4.686,0,0,0,1.083-1.281,1.97,1.97,0,0,0,.338-.958,2.038,2.038,0,0,0-.169-1Zm24.305,0a.943.943,0,0,0-.366-.366.932.932,0,0,0-.492-.125,1.33,1.33,0,0,0-1.167.836,1.6,1.6,0,0,0-.478-.579,1.474,1.474,0,0,0-.717-.256.884.884,0,0,0-.478.128.936.936,0,0,0-.366.363,2.012,2.012,0,0,0-.183.994,1.974,1.974,0,0,0,.309.965,6.292,6.292,0,0,0,1.814,1.858h.2a6.779,6.779,0,0,0,.717-.577,4.7,4.7,0,0,0,1.083-1.281,1.957,1.957,0,0,0,.338-.956,1.893,1.893,0,0,0-.155-1Zm24.305,0a.935.935,0,0,0-.366-.363.982.982,0,0,0-.492-.128,1.424,1.424,0,0,0-.7.256,1.358,1.358,0,0,0-.478.579,1.446,1.446,0,0,0-.464-.591,1.38,1.38,0,0,0-.717-.245.965.965,0,0,0-.492.125.942.942,0,0,0-.366.366,2.195,2.195,0,0,0-.183,1,2.123,2.123,0,0,0,.309.964,6.428,6.428,0,0,0,1.829,1.858h.183a7.982,7.982,0,0,0,.731-.577,5.374,5.374,0,0,0,1.083-1.281,2.118,2.118,0,0,0,.352-.954,2.226,2.226,0,0,0-.141-1.006Zm24.305,0a.943.943,0,0,0-.366-.366.966.966,0,0,0-.492-.125,1.294,1.294,0,0,0-.7.245,1.249,1.249,0,0,0-.464.591,1.5,1.5,0,0,0-.492-.579,1.377,1.377,0,0,0-.7-.256,1,1,0,0,0-.492.129.942.942,0,0,0-.366.362,2.016,2.016,0,0,0-.169,1,2.116,2.116,0,0,0,.3.964,6.563,6.563,0,0,0,1.815,1.858h.2a5.485,5.485,0,0,0,.717-.577,4.739,4.739,0,0,0,1.1-1.281,2.11,2.11,0,0,0,.366-.951,2.241,2.241,0,0,0-.141-1.008Zm24.305,0a.942.942,0,0,0-.366-.362,1,1,0,0,0-.492-.129,1.329,1.329,0,0,1-.464.6,1.249,1.249,0,0,1-1.435,0,1.24,1.24,0,0,1-.464-.6.966.966,0,0,0-.492.125.944.944,0,0,0-.366.366,2.02,2.02,0,0,0-.183,1,2.122,2.122,0,0,0,.309.964,6.661,6.661,0,0,0,1.8,1.858h.211a6.271,6.271,0,0,0,.717-.577,5.216,5.216,0,0,0,1.1-1.281,2.1,2.1,0,0,0,.366-.948,2.062,2.062,0,0,0-.112-1.011Z" transform="translate(51.302 88.347)" fill="#fff"/>
    <path id="Path_1790" data-name="Path 1790" d="M1125.711,601.007c-1.547-6.455-5.106-12.347-8.242-18.109-3.306-6.093-6.766-12.087-10.324-18.022l-.38-.634c-.591-1.9-1.435-3.76-2.166-5.6-.914-2.348-1.9-4.682-2.855-7.06,0-.072-.155,0-.127,0,.745,2.464,1.435,4.927,2.377,7.334l.675,1.886c-1.2-1.973-2.391-3.947-3.643-5.906-2.11-3.328-4.29-6.584-6.456-9.912,0-.086-.183,0-.127.072,3.39,5.85,6.639,11.77,10,17.62s6.7,11.726,9.86,17.69c1.561,2.954,3.094,5.936,4.571,8.947a78.544,78.544,0,0,1,3.8,8.731,28.3,28.3,0,0,1,.127,17.921c-2.039,6.6-5.711,12.591-9.143,18.513-.141.231.211.518.394.288C1121.392,625.166,1128.721,613.67,1125.711,601.007Z" transform="translate(90.315 93.354)" fill="#263238"/>
    <path id="Path_1791" data-name="Path 1791" d="M1203.5,676.373c-10.69,14.9-39.2,17.288-110.414,30.11-9.86,1.771-40.987-64.945-30.564-67.38,13.137-3.083,64.772-12.13,68.626-12.317C1163.678,625.316,1210.756,666.288,1203.5,676.373Z" transform="translate(76.484 126.612)" fill="#eb9481"/>
    <path id="Path_1792" data-name="Path 1792" d="M1102.2,633.421s-30.157,4.063-45.319,11.151c-20.339,9.479-34.024,26.1-39.341,33.409-11.084,15.271-27.429,59.9-15.486,66.9,10.788,6.325,25.22-40.164,25.22-40.164s-22.463,44.948-8.074,50.148,28.047-49.7,28.047-49.7-22.055,46.706-6.372,49.7c11.871,2.262,27.048-46.762,27.048-46.762s-18.665,40.265-6.569,43.132c13.419,3.1,30.213-41.216,30.213-41.216,31.971,2.061,48.02-10.085,58.414-20.169C1152.531,687.417,1102.2,633.421,1102.2,633.421Z" transform="translate(51.061 129.325)" fill="#eb9481"/>
    <path id="Path_1793" data-name="Path 1793" d="M1029.27,672.719c-2.855,5.186-5.711,10.416-8.088,15.846s-4.529,10.935-6.386,16.538c-4.529,13.787-5.246,23.122-5.134,22.547,2.5-13.528,10.648-33.136,13.025-38.48s4.445-10.935,6.794-16.351C1029.608,672.675,1029.327,672.6,1029.27,672.719Z" transform="translate(55.847 145.278)" fill="#263238"/>
    <path id="Path_1794" data-name="Path 1794" d="M1042.663,678.575c-3.334,6.785-6.878,13.383-9.916,20.312s-5.289,13.7-7.82,20.775c-.2.547.169.475.38,0,2.855-6.988,5.964-13.212,8.847-20.17s5.528-14,8.664-20.8C1042.874,678.545,1042.705,678.473,1042.663,678.575Z" transform="translate(62.034 147.663)" fill="#263238"/>
    <path id="Path_1795" data-name="Path 1795" d="M1054.077,681.454c-5.612,10.085-9.354,21.221-12.856,32.213-.169.547.267.4.478-.143,4.051-10.791,7.145-19.291,12.659-31.882A.17.17,0,1,0,1054.077,681.454Z" transform="translate(68.666 148.816)" fill="#263238"/>
    <path id="Path_1796" data-name="Path 1796" d="M1142.126,634.994c-4.726-3.026-18.145-10.085-31.324-8.155a.144.144,0,0,0-.085.034.163.163,0,0,0-.028.082.153.153,0,0,0,.028.082.135.135,0,0,0,.085.034c10.873,0,26.387,5.562,31.225,8.112C1142.14,635.253,1142.239,635.066,1142.126,634.994Z" transform="translate(96.925 126.515)" fill="#263238"/>
    <path id="Path_1797" data-name="Path 1797" d="M1062.945,542.164c.717,2.765,14.361,20.427,26.95,19.477,4.093-.316,3.4-22.92,3.4-22.92l.323-1.687,4.544-23.54-27.752-16.884-3.995-2.218s-.83,6.526-1.772,14.652c0,.374-.1.748-.14,1.152s-.141.893-.183,1.325c-.155,1.211-.31,2.449-.436,3.688-.1.951-.2,1.859-.267,2.882s-.183,1.959-.281,2.952A155.7,155.7,0,0,0,1062.945,542.164Z" transform="translate(77.436 72.802)" fill="#eb9481"/>
    <path id="Path_1798" data-name="Path 1798" d="M1064.1,509.044a47.864,47.864,0,0,0,28.975,27.99l4.543-23.54-27.752-16.884-3.995-2.218S1065.042,500.918,1064.1,509.044Z" transform="translate(77.983 72.802)" fill="#263238"/>
    <path id="Path_1799" data-name="Path 1799" d="M1134.521,492.719c6.737,41.548-17.16,50.307-26.078,51.763-8.074,1.311-35.74,4.782-46.7-35.843s6.09-56.906,24.39-60.911S1127.783,451.184,1134.521,492.719Z" transform="translate(75.626 53.443)" fill="#eb9481"/>
    <path id="Path_1800" data-name="Path 1800" d="M1107.31,474.707a27.5,27.5,0,0,1-2.869-.274,4.65,4.65,0,0,1-2.855-.85,1.4,1.4,0,0,1-.422-.879,1.418,1.418,0,0,1,.225-.951,3.689,3.689,0,0,1,1.589-1.115,3.639,3.639,0,0,1,1.927-.152,5.432,5.432,0,0,1,3.587,1.542,1.531,1.531,0,0,1,.394.823,1.55,1.55,0,0,1-.113.909,1.644,1.644,0,0,1-.59.695A1.59,1.59,0,0,1,1107.31,474.707Z" transform="translate(93.047 63.056)" fill="#263238"/>
    <path id="Path_1801" data-name="Path 1801" d="M1087.091,477.166c.97-.231,1.814-.591,2.743-.909a4.636,4.636,0,0,0,2.616-1.44,1.483,1.483,0,0,0,.225-.944,1.46,1.46,0,0,0-.422-.871,3.659,3.659,0,0,0-3.7-.461,5.419,5.419,0,0,0-3.179,2.305,1.568,1.568,0,0,0-.183.872,1.629,1.629,0,0,0,.31.835,1.582,1.582,0,0,0,1.589.612Z" transform="translate(86.556 63.795)" fill="#263238"/>
    <path id="Path_1802" data-name="Path 1802" d="M1091.921,482.8c0-.115-.211.159-.2.273.478,2.882.535,6.152-1.885,7.435-.07,0,0,.187,0,.157C1092.948,489.826,1092.807,485.418,1091.921,482.8Z" transform="translate(88.435 68.077)" fill="#263238"/>
    <path id="Path_1803" data-name="Path 1803" d="M1090.115,480.935c-4.585.274-3.7,9.494.534,9.235S1093.927,480.662,1090.115,480.935Z" transform="translate(87.315 67.329)" fill="#263238"/>
    <path id="Path_1804" data-name="Path 1804" d="M1089.551,481.423c-.76.6-1.421,1.6-2.391,1.786s-2.04-.664-2.869-1.528c-.07-.087-.141,0-.141.129.141,1.758.984,3.5,2.855,3.587s2.869-1.6,3.094-3.414C1090.184,481.639,1089.86,481.193,1089.551,481.423Z" transform="translate(86.135 67.504)" fill="#263238"/>
    <path id="Path_1805" data-name="Path 1805" d="M1102.847,480.83c0-.115.239.115.239.231.155,2.881.816,6.109,3.474,6.829.07,0,.084.173,0,.173C1103.368,487.918,1102.538,483.6,1102.847,480.83Z" transform="translate(93.712 67.276)" fill="#263238"/>
    <path id="Path_1806" data-name="Path 1806" d="M1105.114,478.55c4.529-.75,5.711,8.428,1.505,9.119S1101.316,479.184,1105.114,478.55Z" transform="translate(93.71 66.344)" fill="#263238"/>
    <path id="Path_1807" data-name="Path 1807" d="M1105.969,479.109c.774.4,1.6,1.2,2.462,1.138s1.618-1.152,2.138-2.19c0-.1.141,0,.155.087.267,1.743-.084,3.644-1.7,4.206s-2.869-.864-3.432-2.564C1105.477,479.483,1105.66,478.966,1105.969,479.109Z" transform="translate(94.838 66.144)" fill="#263238"/>
    <path id="Path_1808" data-name="Path 1808" d="M1092.028,498.869c.7.634,1.421,1.528,2.461,1.556a7.223,7.223,0,0,0,3.024-.864.08.08,0,0,1,.056-.008.086.086,0,0,1,.056.031.1.1,0,0,1,.014.121,3.878,3.878,0,0,1-1.533,1.353,3.794,3.794,0,0,1-2,.376,3.046,3.046,0,0,1-1.547-.851,3.156,3.156,0,0,1-.816-1.568C1091.649,498.854,1091.86,498.783,1092.028,498.869Z" transform="translate(89.213 74.607)" fill="#263238"/>
    <path id="Path_1809" data-name="Path 1809" d="M1103.185,498.227s1.055,4.221,1.266,6.238a10.8,10.8,0,0,1-10.845-2.131c-.169-.159.07-.419.281-.3a14.371,14.371,0,0,0,8.96,1.557c0-.563-2.025-7.2-1.716-7.2a17.122,17.122,0,0,1,4.656.549c-1.927-8.846-5.232-17.288-7.019-26.134a.36.36,0,0,1,.014-.211.261.261,0,0,1,.155-.142.275.275,0,0,1,.211.01.326.326,0,0,1,.141.156c4.093,8.643,6.512,18.728,8.735,27.819C1108.3,499.553,1104.029,498.487,1103.185,498.227Z" transform="translate(89.956 63.06)" fill="#263238"/>
    <path id="Path_1810" data-name="Path 1810" d="M1101.9,495.378a10.342,10.342,0,0,1-3.868,3.616,4.657,4.657,0,0,1-2.855.433c-2.082-.36-2.321-2.248-2.068-3.9a11.544,11.544,0,0,1,.675-2.564A13.448,13.448,0,0,0,1101.9,495.378Z" transform="translate(89.745 72.22)" fill="#263238"/>
    <path id="Path_1811" data-name="Path 1811" d="M1098.036,498.254a4.656,4.656,0,0,1-2.855.432c-2.082-.36-2.321-2.248-2.068-3.9C1095.364,494.811,1097.671,496.121,1098.036,498.254Z" transform="translate(89.745 72.96)" fill="#ff9abb"/>
    <path id="Path_1812" data-name="Path 1812" d="M1064.641,507.911c7.891.706,9.213-17.5,9.213-17.5s33.251-7,35.065-34.576c0,0,6.4,17.288,24.291,24.491,0,0-2.307-30.052-26.218-34.994,0,0-29.791-9.652-45.432,14.479S1059.352,507.435,1064.641,507.911Z" transform="translate(73.969 52.08)" fill="#263238"/>
    <path id="Path_1813" data-name="Path 1813" d="M1101.373,450.8a30.25,30.25,0,0,1-1.027,12.591,30.949,30.949,0,0,1-5.894,11.338,25.846,25.846,0,0,1-2.18,2.362l-1.111,1.153c-.408.346-.83.677-1.252,1.009-.844.648-1.646,1.339-2.518,1.959s-1.828,1.094-2.743,1.627c-.464.259-.914.533-1.421.778l-1.435.634-2.855,1.253c-2,.648-4.037,1.182-6.048,1.685,1.885-.921,3.826-1.627,5.711-2.55l2.743-1.44,1.336-.72c.45-.274.844-.591,1.28-.879q1.245-.893,2.532-1.729c.788-.619,1.533-1.311,2.321-1.973l1.167-.98,1.041-1.108a29.938,29.938,0,0,0,2.011-2.262,35.611,35.611,0,0,0,5.992-10.574,39.587,39.587,0,0,0,1.66-5.95A38.533,38.533,0,0,0,1101.373,450.8Z" transform="translate(81.557 55.08)" fill="#263238"/>
    <path id="Path_1814" data-name="Path 1814" d="M1070.866,493.963s-10.071-12.418-15.725-8.643,2.6,22.186,9.733,24.26a6.959,6.959,0,0,0,2.785.421,7.072,7.072,0,0,0,6.358-4.944Z" transform="translate(73.58 68.823)" fill="#eb9481"/>
    <path id="Path_1815" data-name="Path 1815" d="M1056.383,488.8c-.1,0-.112.159,0,.188,5.007,1.613,7.9,5.95,10.015,10.531-1.589-1.715-3.629-2.55-5.907-.634a.146.146,0,0,0,.141.245,4.357,4.357,0,0,1,2.63-.194,4.409,4.409,0,0,1,2.265,1.362,20.678,20.678,0,0,1,2.574,3.716c.253.418,1.027.115.83-.374v-.1C1068.564,497.286,1063.106,488.988,1056.383,488.8Z" transform="translate(74.814 70.529)" fill="#263238"/>
    <path id="Path_1816" data-name="Path 1816" d="M1065.283,501.264a1.763,1.763,0,0,1-.282.956,1.689,1.689,0,0,1-2.616.276,1.634,1.634,0,0,1-.464-.878,1.681,1.681,0,0,1,.717-1.764,1.7,1.7,0,0,1,2.644,1.409Z" transform="translate(77.082 74.905)" fill="#fff"/>
    <path id="Path_1817" data-name="Path 1817" d="M1060.814,500.365a1.224,1.224,0,1,0-1.224-1.224A1.213,1.213,0,0,0,1060.814,500.365Z" transform="translate(76.15 74.235)" fill="#fff"/>
    <path id="Path_1818" data-name="Path 1818" d="M1055.677,487.268l-2.574-.222a.849.849,0,0,0-.928.786l-.014.073a.861.861,0,0,0,.788.934l2.574.224a.857.857,0,0,0,.928-.788V488.2A.862.862,0,0,0,1055.677,487.268Z" transform="translate(73.128 69.814)" fill="#a385eb"/>
    <path id="Path_1819" data-name="Path 1819" d="M1055.544,488.126l-2.56.339a.855.855,0,0,0-.731.969v.07a.867.867,0,0,0,.971.744l2.56-.339a.855.855,0,0,0,.732-.969v-.07A.868.868,0,0,0,1055.544,488.126Z" transform="translate(73.163 70.252)" fill="#a385eb"/>
    <path id="Path_1820" data-name="Path 1820" d="M1054.507,470.978l-2.377,3.817,12.138,11.05,5.148-8.643Zm9.283,10.632-8.481-6.872.534-.907,9.818,4.768Z" transform="translate(73.117 63.283)" fill="#a385eb"/>
    <path id="Path_1821" data-name="Path 1821" d="M1054.953,465.969l-.774,4.438,15.374,5.633,1.561-9.926Zm12.575,6.325-10.437-3.141.155-1.038,10.887.692Z" transform="translate(73.95 61.247)" fill="#a385eb"/>
    <path id="Path_1822" data-name="Path 1822" d="M1073.278,457.233c3.179-1.2,6.217-19.116-5.486-27.646s-26.668,1.21-20.4,15.848C1051.378,454.77,1066.541,459.769,1073.278,457.233Z" transform="translate(70.591 45.162)" fill="#263238"/>
    <path id="Path_1823" data-name="Path 1823" d="M1052.516,427.909a20.167,20.167,0,0,0-6.737,11.368,12.124,12.124,0,0,0,3.544,11.525,24.236,24.236,0,0,0,11.6,5.761,35.8,35.8,0,0,0,6.681.821,17.813,17.813,0,0,0,6.738-.748,15.884,15.884,0,0,1-6.681,2,29.646,29.646,0,0,1-7.061-.115,23.326,23.326,0,0,1-13.039-5.763,13.619,13.619,0,0,1-3.713-13.859,17.73,17.73,0,0,1,8.664-10.992Z" transform="translate(69.523 45.773)" fill="#263238"/>
    <path id="Path_1824" data-name="Path 1824" d="M1144.193,582.587l19.9-2.708-7.778-58.058-25.177,3.429Z" transform="translate(105.239 83.954)" fill="#a385eb"/>
    <path id="Path_1825" data-name="Path 1825" d="M1131.14,525.25l4.979,21.868,8.074,35.483,19.9-2.708-7.778-58.072Z" transform="translate(105.239 83.954)" fill="#a385eb"/>
    <path id="Path_1826" data-name="Path 1826" d="M1131.14,525.25l4.979,21.868,23.166-3.155-2.968-22.142Z" transform="translate(105.239 83.954)" opacity="0.1"/>
    <path id="Path_1827" data-name="Path 1827" d="M1131.211,538.766l31.324-4.262-3.221-23.986-31.324,4.263Z" transform="translate(103.958 79.358)" fill="#a385eb"/>
    <path id="Path_1828" data-name="Path 1828" d="M1113.563,520.79l24.671-.865-5.19-38.8-24.024,5.749Z" transform="translate(96.246 67.41)" fill="#a385eb"/>
    <path id="Path_1829" data-name="Path 1829" d="M1134.26,491.389l7.68,57.266,41.479-.62,99.668,22.287-18.412-137.538L1174.445,480.9Z" transform="translate(106.507 47.755)" fill="#a385eb"/>
    <path id="Path_1830" data-name="Path 1830" d="M1251.279,570.538c12.181-1.657,17.906-33.943,12.786-72.114s-19.129-67.771-31.31-66.115-17.891,33.944-12.786,72.114S1239.1,572.2,1251.279,570.538Z" transform="translate(140.594 47.535)" fill="#a385eb"/>
    <path id="Path_1831" data-name="Path 1831" d="M1249.749,559.577c9.973-1.356,14.375-29.922,9.832-63.8s-16.3-60.248-26.275-58.892-14.361,29.923-9.832,63.8S1239.777,560.934,1249.749,559.577Z" transform="translate(142.053 49.401)" opacity="0.2"/>
    <path id="Path_1832" data-name="Path 1832" d="M1225.5,487.478c.591,4.509,1.322,8.874,2.166,13.065a13.678,13.678,0,0,0,19.579-6.086,13.915,13.915,0,0,0,1.125-7.586l-.858-6.483a13.908,13.908,0,0,0-3.066-6.971,13.65,13.65,0,0,0-20.381-.765C1224.281,477.421,1224.773,482.392,1225.5,487.478Z" transform="translate(143.02 62.257)" fill="#a385eb"/>
    <path id="Path_1833" data-name="Path 1833" d="M1126.9,541.717l47.7-1.657-10.057-75.043-46.417,11.136Z" transform="translate(99.945 60.86)" fill="#a385eb"/>
    <path id="Path_1834" data-name="Path 1834" d="M1126.9,541.717l47.7-1.657-10.057-75.043-46.417,11.136Z" transform="translate(99.945 60.86)" opacity="0.2"/>
    <path id="Path_1835" data-name="Path 1835" d="M1225.47,440.1a43.244,43.244,0,0,0-5.387,14.637,99.941,99.941,0,0,0-1.857,15.573c-.183,2.622-.113,5.23-.155,7.851s.141,5.23.324,7.837.338,5.23.619,7.823.563,5.2.914,7.794a172.176,172.176,0,0,0,6.85,30.57,90.55,90.55,0,0,0,6.189,14.407c2.588,4.494,5.6,8.974,9.846,12.015a38.379,38.379,0,0,1-9.157-12.361,91.1,91.1,0,0,1-5.711-14.407,182.644,182.644,0,0,1-6.484-30.425,188.156,188.156,0,0,1-2.1-31.061,100.252,100.252,0,0,1,1.421-15.488A45.445,45.445,0,0,1,1225.47,440.1Z" transform="translate(140.579 50.729)" opacity="0.2"/>
    <path id="Path_1836" data-name="Path 1836" d="M1268.132,433.1c-2.855,2.132-5.711,4.322-8.467,6.67s-5.486,4.639-8.186,7.016-5.359,4.8-7.947,7.29l-3.882,3.746c-1.252,1.3-2.56,2.55-3.77,3.875,1.435-1.052,2.855-2.176,4.29-3.27l4.192-3.4c2.785-2.277,5.486-4.639,8.186-7.016s5.345-4.8,7.933-7.29S1265.671,435.738,1268.132,433.1Z" transform="translate(147.821 47.884)" fill="#263238"/>
    <path id="Path_1837" data-name="Path 1837" d="M1241.61,507.553c3.882,1.181,7.792,2.19,11.717,3.184s7.863,1.872,11.8,2.751,7.9,1.671,11.885,2.391l5.964,1.052c2.011.3,3.995.648,6.02.893-1.955-.6-3.91-1.11-5.851-1.671l-5.88-1.513c-3.91-.993-7.848-1.872-11.787-2.751s-7.9-1.671-11.885-2.391S1245.633,508.072,1241.61,507.553Z" transform="translate(150.151 78.153)" fill="#263238"/>
    <path id="Path_1838" data-name="Path 1838" d="M1315.407,500.911c-5.893-.706-11.815-1.239-17.737-1.744s-11.843-.921-17.751-1.311-11.857-.706-17.793-.937l-8.9-.331c-2.954,0-5.936-.159-8.9-.159,2.94.36,5.894.634,8.861.951l8.861.792c5.922.519,11.857.923,17.765,1.312s11.857.7,17.793.935S1309.457,500.882,1315.407,500.911Z" transform="translate(151.253 73.631)" fill="#263238"/>
    <path id="Path_1839" data-name="Path 1839" d="M1299.726,434.9c-5.2,3.068-10.31,6.3-15.4,9.536s-10.113,6.57-15.134,9.912-10,6.742-14.952,10.228l-7.4,5.215c-2.419,1.8-4.895,3.543-7.3,5.373,2.6-1.528,5.162-3.141,7.75-4.7l7.652-4.84c5.078-3.242,10.113-6.57,15.134-9.912s10.015-6.757,14.952-10.228S1294.9,438.535,1299.726,434.9Z" transform="translate(149.309 48.617)" fill="#263238"/>
    <path id="Path_1840" data-name="Path 1840" d="M1243.28,483.485c6.934-.677,13.84-1.526,20.732-2.405s13.784-1.9,20.676-2.882,13.742-2.073,20.592-3.213l10.3-1.743c3.418-.634,6.85-1.225,10.268-1.916-3.474.331-6.92.748-10.38,1.124l-10.352,1.281c-6.906.879-13.784,1.9-20.676,2.882s-13.756,2.075-20.592,3.227S1250.116,482.146,1243.28,483.485Z" transform="translate(150.83 63.425)" fill="#263238"/>
    <path id="Path_1841" data-name="Path 1841" d="M1049.672,555.5c-21.647,35.714-58.266,112.8-44.32,140.823,13.432,26.983,148.9-47.022,166.044-60.507,7.483-5.848-27.47-75.144-35.994-69.641-11.435,7.334-66.727,52.771-67.937,53-2.574.5,5.12-25.167,10.324-56.977C1085.328,515.943,1065.243,529.831,1049.672,555.5Z" transform="translate(52.845 88.016)" fill="#eb9481"/>
    <path id="Path_1842" data-name="Path 1842" d="M1188.621,537.686c5.063,6.037.759,12.966.759,12.966a16.774,16.774,0,0,1,9,7c3.432,6.037-4.445,14.089-4.445,14.089a20.563,20.563,0,0,1,8.313,8.9c2.7,6.109-4.079,15.371-4.079,15.371a18.28,18.28,0,0,1,2.419,12.476c-2.335,11.525-18.918,17.821-29.5,21.768-15.739,5.878-44.18,5.663-50.58,6.628l-26.485-67.9s42.07-31.781,55.137-34.793C1160.166,531.65,1182.91,530.928,1188.621,537.686Z" transform="translate(90.151 88.244)" fill="#eb9481"/>
    <path id="Path_1843" data-name="Path 1843" d="M1171.607,544.714c-12.335-.13-24.038,3.429-35.923,6.31a.195.195,0,0,0-.141.252.168.168,0,0,0,.084.128.219.219,0,0,0,.155.024c11.787-3,24.01-3.6,35.9-6.123a.337.337,0,0,0,.155-.121.331.331,0,0,0,.056-.2.321.321,0,0,0-.1-.184A.282.282,0,0,0,1171.607,544.714Z" transform="translate(107.025 93.259)" fill="#263238"/>
    <path id="Path_1844" data-name="Path 1844" d="M1174.417,559.779a32.3,32.3,0,0,0-8.2,1.816c-2.869.85-5.725,1.757-8.58,2.693-5.724,1.888-11.295,3.891-16.864,6.079-.239.087-.169.491.113.4,5.64-1.858,11.323-3.644,17.047-5.273,2.855-.806,5.725-1.6,8.58-2.377a36.874,36.874,0,0,0,8.031-2.549.409.409,0,0,0,.169-.19.39.39,0,0,0,.042-.25.46.46,0,0,0-.113-.228A.488.488,0,0,0,1174.417,559.779Z" transform="translate(109.096 99.386)" fill="#263238"/>
    <path id="Path_1845" data-name="Path 1845" d="M1176.743,577.662c-2.433,0-5.049,1.239-7.3,2.031-2.574.923-5.134,1.816-7.708,2.695-5.148,1.772-10.31,3.543-15.514,5.128a.184.184,0,0,0-.084.105.166.166,0,0,0-.014.141.218.218,0,0,0,.085.117.214.214,0,0,0,.126.041c5.289-1.585,10.619-3.1,15.908-4.726,2.588-.792,5.176-1.613,7.764-2.435,2.194-.7,5.021-1.339,6.836-2.881a.111.111,0,0,0,.014-.066.1.1,0,0,0-.014-.065c0-.021-.014-.039-.042-.054A.1.1,0,0,0,1176.743,577.662Z" transform="translate(111.326 106.656)" fill="#263238"/>
    <path id="Path_1846" data-name="Path 1846" d="M1093.266,633c-8.763,4.322-17.61,8.442-26.654,12.146s-18.1,7.073-27.329,9.954c-5.176,1.657-10.395,3.256-15.725,4.639-.141,0,0,.26.07.231a220.424,220.424,0,0,0,28.3-7.448q6.9-2.378,13.658-5.2c4.459-1.858,8.917-3.774,13.208-5.992,4.909-2.55,9.832-5.172,14.558-8.068a.161.161,0,0,0,.056-.073.1.1,0,0,0,0-.089.152.152,0,0,0-.056-.07A.155.155,0,0,0,1093.266,633Z" transform="translate(61.476 129.155)" fill="#263238"/>
    <path id="Path_1847" data-name="Path 1847" d="M1155.289,603.764c-10.479,2.881-27.16,2.089-27.315,2.2-3.165,2.809-16.189,11.309-19.509,13.2-.126.072,0,.259.127.2,7.159-3.3,16.133-8.211,19.9-11.856,14.825.518,22.238-2.061,26.851-3.415C1155.584,603.995,1155.542,603.677,1155.289,603.764Z" transform="translate(95.999 117.262)" fill="#263238"/>
    <path id="Path_1848" data-name="Path 1848" d="M1003.95,614.28l66.572,2.305s9.55-48.693,9.058-74.913c-.267-14.68-8.763-14.047-18.243-4.841C1028.171,569.072,1003.95,614.28,1003.95,614.28Z" transform="translate(53.529 87.37)" fill="#4317af"/>
    <path id="Path_1849" data-name="Path 1849" d="M1043.472,545.587a2.756,2.756,0,0,1-.253.663,5.2,5.2,0,0,1-1.1,1.283,7.518,7.518,0,0,1-.717.575h-.112Zm24.207-1.3a.938.938,0,0,0-.366-.36,1,1,0,0,0-.492-.129,1.34,1.34,0,0,0-.717.24,1.366,1.366,0,0,0-.478.6,1.31,1.31,0,0,0-.45-.594,1.351,1.351,0,0,0-.717-.242.963.963,0,0,0-.492.125.94.94,0,0,0-.366.364,2,2,0,0,0-.183.989,2.087,2.087,0,0,0,.309.956,6.65,6.65,0,0,0,1.815,1.872h.2a7.58,7.58,0,0,0,.717-.575,5.342,5.342,0,0,0,1.1-1.283,2.111,2.111,0,0,0,.3-.964A2.018,2.018,0,0,0,1067.679,544.29Zm-49.525,34.316a3.605,3.605,0,0,0,.745-.935,1.516,1.516,0,0,0,.141-.346C1018.759,577.757,1018.449,578.188,1018.154,578.606Zm25.191-2.881a.939.939,0,0,0-.366-.364.949.949,0,0,0-.492-.125,1.351,1.351,0,0,0-.717.242,1.309,1.309,0,0,0-.45.594,1.36,1.36,0,0,0-.478-.595,1.338,1.338,0,0,0-.717-.24,1,1,0,0,0-.492.129.938.938,0,0,0-.366.36,2,2,0,0,0-.169.989,2.086,2.086,0,0,0,.3.956,6.542,6.542,0,0,0,1.814,1.858h.211c.239-.174.478-.362.7-.561a5.165,5.165,0,0,0,1.1-1.3,2.086,2.086,0,0,0,.309-.956A2,2,0,0,0,1043.345,575.726Zm24.305,0a.937.937,0,0,0-.366-.36,1,1,0,0,0-.492-.129,1.337,1.337,0,0,0-.717.24,1.357,1.357,0,0,0-.478.595,1.249,1.249,0,0,0-.464-.594,1.266,1.266,0,0,0-.7-.242.95.95,0,0,0-.492.125.939.939,0,0,0-.366.364,2,2,0,0,0-.183.989,2.09,2.09,0,0,0,.309.956,6.544,6.544,0,0,0,1.814,1.858h.2a6.649,6.649,0,0,0,.717-.561,5.464,5.464,0,0,0,1.1-1.3,1.92,1.92,0,0,0,.309-.952,2.17,2.17,0,0,0-.155-.993Zm-38.722-12.086.183.129h.2a9.322,9.322,0,0,0,.731-.591,4.881,4.881,0,0,0,1.069-1.283,2.441,2.441,0,0,0,.3-1.44A33.932,33.932,0,0,0,1028.928,563.639Zm26.64-3.688a.934.934,0,0,0-.366-.363.982.982,0,0,0-.492-.128,1.34,1.34,0,0,0-.717.243,1.309,1.309,0,0,0-.45.592,1.363,1.363,0,0,0-1.2-.836.982.982,0,0,0-.492.128.934.934,0,0,0-.366.363,1.988,1.988,0,0,0-.169.989,2.077,2.077,0,0,0,.3.955,6.654,6.654,0,0,0,1.815,1.874h.2s.338-.245.731-.577a5.393,5.393,0,0,0,1.083-1.3,2.1,2.1,0,0,0,.281-.962,1.977,1.977,0,0,0-.211-.982Zm-36.5,47.2a.947.947,0,0,0-.844-.491,1.367,1.367,0,0,0-.717.243.478.478,0,1,1-.928,0,1.328,1.328,0,0,0-.717-.241,1,1,0,0,0-.492.132,1.171,1.171,0,0,0-.366.359,2.152,2.152,0,0,0-.183.986,2.081,2.081,0,0,0,.3.958l.141.2,3.516.129c.056-.1.126-.208.183-.317a2.149,2.149,0,0,0,.281-.973,2.176,2.176,0,0,0-.225-.986Zm24.305,0a.94.94,0,0,0-.365-.361,1,1,0,0,0-.492-.129,1.241,1.241,0,0,1-.464.6,1.249,1.249,0,0,1-1.435,0,1.33,1.33,0,0,1-.464-.6,1,1,0,0,0-.492.132,1.039,1.039,0,0,0-.366.359,1.986,1.986,0,0,0-.169.989,2.074,2.074,0,0,0,.3.955,4.909,4.909,0,0,0,.858,1.08l2.054.073a5.542,5.542,0,0,0,.914-1.138,2.128,2.128,0,0,0,.3-.968,2.183,2.183,0,0,0-.2-.992Zm23.476-.491a1.33,1.33,0,0,1-.464.6,1.25,1.25,0,0,1-1.435,0,1.242,1.242,0,0,1-.464-.6,1,1,0,0,0-.492.129.941.941,0,0,0-.366.361,2,2,0,0,0-.183.989,1.926,1.926,0,0,0,.309.955,6.547,6.547,0,0,0,1.814,1.874h.2l.45-.346c.126-.663.394-2.017.731-3.947Zm-35.642-15.271a1.04,1.04,0,0,0-.352-.368.99.99,0,0,0-.492-.135,1.26,1.26,0,0,1-.45.619,1.237,1.237,0,0,1-.731.236,1.3,1.3,0,0,1-.731-.236,1.262,1.262,0,0,1-.45-.619.974.974,0,0,0-.492.134.964.964,0,0,0-.366.37,2.169,2.169,0,0,0-.183.99,2.087,2.087,0,0,0,.309.955,6.678,6.678,0,0,0,1.814,1.858h.2a7.7,7.7,0,0,0,.732-.575,5.494,5.494,0,0,0,1.083-1.283,2.285,2.285,0,0,0,.3-.961,1.988,1.988,0,0,0-.211-.985Zm24.305,0a.967.967,0,0,0-.365-.368.992.992,0,0,0-.493-.135,1.361,1.361,0,0,0-.717.25,1.327,1.327,0,0,0-.45.6,1.624,1.624,0,0,0-.478-.588,1.453,1.453,0,0,0-.717-.262.99.99,0,0,0-.492.135.968.968,0,0,0-.366.368,2.173,2.173,0,0,0-.183.989,2.276,2.276,0,0,0,.309.956,6.548,6.548,0,0,0,1.815,1.858h.2a6.142,6.142,0,0,0,.717-.575,4.732,4.732,0,0,0,1.1-1.283,2.09,2.09,0,0,0,.309-.955A2,2,0,0,0,1055.512,591.385Z" transform="translate(57.948 92.89)" fill="#fff"/>
    <path id="Path_1850" data-name="Path 1850" d="M1066.188,584.933c-10.212-1.211-38.019-3.688-56.29-2.882-.112,0-.141.432,0,.432,15.3,1.672,45.994,2.795,56.276,3.113C1066.328,585.566,1066.371,584.961,1066.188,584.933Z" transform="translate(55.908 108.376)" fill="#263238"/>
    <path id="Path_1851" data-name="Path 1851" d="M1061.489,557.5q-1.139,4.323-2.152,8.731c0-.346.084-.706.113-1.066.408-4.078.8-8.14,1.1-12.231a.084.084,0,0,0-.169,0c-1.969,14.263-7.567,50.293-7.891,54.225-.309,0-3.348.087-4.065,0-.155,0-.141.231,0,.246s4.923.591,4.951.49c1.983-6.944,4.993-33.207,5.626-39.028a111.993,111.993,0,0,0,2.56-11.352C1061.573,557.469,1061.5,557.454,1061.489,557.5Z" transform="translate(71.564 96.568)" fill="#263238"/>
    <path id="Path_1852" data-name="Path 1852" d="M1156.206,442.033c-1.111,11.122-10,20.832-10,20.832s-13.039-1.442-21.155-9.047c-6.738-6.353-7.455-15.732-2.082-19.868,7.708-5.936,15.613,8.472,15.613,8.472s-3.446-16.106,6.231-16.741C1151.551,425.236,1157.135,432.755,1156.206,442.033Z" transform="translate(100.469 44.86)" fill="#fc3fa8"/>
    <path id="Path_1853" data-name="Path 1853" d="M1133.048,388.068a16.989,16.989,0,0,1-4.009,8.37,16.742,16.742,0,0,1-8.482-3.63c-2.715-2.55-3.01-6.31-.844-7.981,3.08-2.377,6.259,3.4,6.259,3.4s-1.435-6.455,2.5-6.714C1131.262,381.34,1133.428,384.351,1133.048,388.068Z" transform="translate(100.011 26.908)" fill="#fc3fa8"/>
    <path id="Path_1854" data-name="Path 1854" d="M1164.157,415.872c-4.909,6.57-14.178,9.278-14.178,9.278s-7.68-5.892-9.9-13.8c-1.857-6.612,1.238-12.779,6.175-13.326,7.145-.793,6.653,11.323,6.653,11.323s3.9-11.525,10.254-8.154C1167.575,403.453,1168.25,410.384,1164.157,415.872Z" transform="translate(108.651 33.608)" fill="#fc3fa8"/>
    <path id="Path_1855" data-name="Path 1855" d="M1037.877,413.9H898.087v79.538h139.79Z" transform="translate(10.49 40.077)" fill="#fc3fa8"/>
    <path id="Path_1856" data-name="Path 1856" d="M921.732,470.445l-23.646,24.447V470.445Z" transform="translate(10.49 63.066)" fill="#fc3fa8"/>
    <path id="Path_1857" data-name="Path 1857" d="M995.454,425.256H912.449v2.463h83.005Z" transform="translate(16.329 44.695)" fill="#fff"/>
    <path id="Path_1858" data-name="Path 1858" d="M969.32,430.6H912.449v2.464H969.32Z" transform="translate(16.329 46.868)" fill="#fff"/>
    <path id="Path_1859" data-name="Path 1859" d="M1011.823,435.949H912.449v2.463h99.374Z" transform="translate(16.329 49.042)" fill="#fff"/>
    <path id="Path_1860" data-name="Path 1860" d="M946.631,441.295H912.449v2.463h34.182Z" transform="translate(16.329 51.215)" fill="#fff"/>
    <path id="Path_1861" data-name="Path 1861" d="M990.421,446.651H912.449v2.464h77.972Z" transform="translate(16.329 53.393)" fill="#fff"/>
    <path id="Path_1862" data-name="Path 1862" d="M995.454,452H912.449v2.463h83.005Z" transform="translate(16.329 55.567)" fill="#fff"/>
    <path id="Path_1863" data-name="Path 1863" d="M974.638,457.345H912.449v2.464h62.189Z" transform="translate(16.329 57.741)" fill="#fff"/>
    <path id="Path_1864" data-name="Path 1864" d="M917.694,546.469h139.792v-58.2H917.694Z" transform="translate(18.461 70.312)" fill="#dbdbdb"/>
    <path id="Path_1865" data-name="Path 1865" d="M1000.27,529.646l23.644,24.447V529.646Z" transform="translate(52.033 87.135)" fill="#dbdbdb"/>
    <path id="Path_1866" data-name="Path 1866" d="M1008.277,497.044H933.021v2.535h75.256Z" transform="translate(24.692 73.88)" fill="#fff"/>
    <path id="Path_1867" data-name="Path 1867" d="M1028.82,502.555h-95.8v2.535h95.8Z" transform="translate(24.692 76.121)" fill="#fff"/>
    <path id="Path_1868" data-name="Path 1868" d="M1002.644,508.055H933.021v2.535h69.623Z" transform="translate(24.692 78.357)" fill="#fff"/>
    <path id="Path_1869" data-name="Path 1869" d="M1020.586,513.565H933.021V516.1h87.565Z" transform="translate(24.692 80.597)" fill="#fff"/>
    <path id="Path_1870" data-name="Path 1870" d="M990.449,519.065H933.021V521.6h57.428Z" transform="translate(24.692 82.833)" fill="#fff"/>
    <path id="Path_1871" data-name="Path 1871" d="M1258.6,351.726H1149.94v46.3H1258.6Z" transform="translate(112.882 14.801)" fill="#fc3fa8"/>
    <path id="Path_1872" data-name="Path 1872" d="M1179.59,384.645h25.234l-12.6,17.489Z" transform="translate(124.936 28.184)" fill="#fc3fa8"/>
    <path id="Path_1873" data-name="Path 1873" d="M1185.868,373.224a27.826,27.826,0,0,1-6.006,7.1,39.676,39.676,0,0,1-4.009,3.17H1174.8c-.281-.2-7.146-4.841-10-10.286-2.054-3.789-2.335-8.01-.7-10.762a5.294,5.294,0,0,1,4.712-2.723,7.392,7.392,0,0,1,6.526,4.625,7.359,7.359,0,0,1,6.5-4.625,5.349,5.349,0,0,1,2.743.706,5.283,5.283,0,0,1,1.983,2.017C1188.189,365.214,1187.922,369.435,1185.868,373.224Z" transform="translate(118.208 18.053)" fill="#fff"/>
    <path id="Path_1874" data-name="Path 1874" d="M1219.559,363.26,1206.6,380.705l-2.771-10.4-1.6.72-.774-1.743,1.505-.663-6.147-6.757h21.225l4.29-1.9h-27.667l-.7,1.6,7.891,8.645,3.418,12.836,1.688.316,16.161-21.726Z" transform="translate(130.778 18.148)" fill="#fff"/>
    <path id="Path_1875" data-name="Path 1875" d="M1216.705,362.306l-12.954,17.447-2.771-10.4Z" transform="translate(133.632 19.102)" fill="#fff"/>
    <path id="Path_1876" data-name="Path 1876" d="M1217.215,361.312l-15.078,6.757-6.147-6.757Z" transform="translate(131.604 18.698)" fill="#fff"/>
    <path id="Path_1877" data-name="Path 1877" d="M1257.533,825.093v32.325a16.886,16.886,0,0,1-16.879,16.879H889.164a16.879,16.879,0,0,1-16.879-16.879V526.879A16.879,16.879,0,0,1,889.164,510h16.621" transform="translate(0 79.148)" fill="none" stroke="rgba(67,23,175,0.15)" stroke-width="4"/>
  </g>
</svg>
