<svg xmlns="http://www.w3.org/2000/svg" width="706.319" height="783.368" viewBox="0 0 706.319 783.368">
  <g id="Group_276" data-name="Group 276" transform="translate(165.026 -61.634)" opacity="0.05">
    <path id="Path_1920" data-name="Path 1920" d="M448.386,699.609c48.1-30.835,77.573-68.052,87.662-110.629s-.629-87.806-31.464-135.9l-24.405-38.067c-32.916-51.341-76.873-69.554-134.4-55.717a2.37,2.37,0,0,1-2.171-4.089,115.044,115.044,0,0,0,37.1-65.076c4.152-25.784-3.2-52.939-22.555-83.132l-35.816-55.863C291.5,103.039,254.342,74.351,212,65.8S123.267,68.262,75.757,98.722L-149.4,243.074a30.811,30.811,0,0,0-13.466,19.339,30.812,30.812,0,0,0,4.141,23.2L190.064,829.64a30.018,30.018,0,0,0,41.412,9.034Zm.852,1.33L232.329,840a31.6,31.6,0,0,1-43.656-9.547L-159.944,286.7a32.458,32.458,0,0,1-4.326-24.4,32.456,32.456,0,0,1,14.155-20.339L74.961,97.656c48.681-31.21,94.4-41.752,137.386-33.129s80.2,37.277,111.43,85.985l35.815,55.863c19.306,30.113,27.034,57.74,22.722,84.152a116.133,116.133,0,0,1-37.539,65.919.821.821,0,0,0,.853,1.33c57.135-13.809,102.48,4.227,135.907,56.366l24.406,38.067q46.831,73.047,31.625,137.149C527.422,632.083,497.919,669.729,449.238,700.939Z" fill="#4317ad"/>
    <path id="Path_1921" data-name="Path 1921" d="M419.783,709.5l19.18-12.3a239.224,239.224,0,0,0,50.046-42.37c3.337-3.753,6.412-7.564,9.428-11.524a147.792,147.792,0,0,0,26.783-55.12c9.285-38.8.728-80.831-25.755-124.773l-5.116-7.98-23.962-37.375c-15.981-24.926-35.185-42.117-57.052-51.107s-46.583-10.073-74.2-3.327a2.37,2.37,0,0,1-2.154-4.062,111.987,111.987,0,0,0,35.953-63.475,91.637,91.637,0,0,0-2.853-40.4A155.527,155.527,0,0,0,350.9,214.835l-35-54.586A237.9,237.9,0,0,0,278,113.762a143.274,143.274,0,0,0-69.96-37.05,150.505,150.505,0,0,0-66.063,2.341c-2.906.737-5.9,1.569-8.889,2.47A234.277,234.277,0,0,0,74,109.156l-.505.324L-24.184,172.1-144.53,249.261l-1.223.784a30.149,30.149,0,0,0-13.094,18.963,30.141,30.141,0,0,0,4.127,22.67L-87.456,396.6l3.138,4.895,11.7,18.248c4.468,6.97,6.327,9.87,6.969,11.222l92.64,145.552.495.771,41.477,64.7.563.878L163.832,788.84l-.053.035c.9,1.111,2.547,3.621,6.112,9.181l10.881,16.972,5.338,8.326.085.133a29.294,29.294,0,0,0,40.434,8.911l152.5-97.135,1.064-.683Zm.853,1.33-40.461,25.94-152.5,97.136a31,31,0,0,1-42.616-9.388L162.8,789.8,68.492,643.819l-42.637-66.5-92.64-145.551-22.027-34.3-67.247-104.89a31.855,31.855,0,0,1-4.289-23.85,31.855,31.855,0,0,1,13.733-19.966l121.57-77.94,98.186-62.95A238.533,238.533,0,0,1,132.6,80c3.005-.875,6-1.707,8.976-2.451a152.245,152.245,0,0,1,66.836-2.424,144.06,144.06,0,0,1,70.7,37.441,238.555,238.555,0,0,1,38.2,46.825l35,54.586a156.8,156.8,0,0,1,19.378,41.29,95.152,95.152,0,0,1,2.911,41.074,113.19,113.19,0,0,1-36.468,64.37.79.79,0,0,0,.7,1.389c56.041-13.408,100.392,4.365,133,55.227l23.791,37.109q2.559,3.99,5.116,7.98,40.029,66.826,25.97,125.986a150.247,150.247,0,0,1-27.1,55.737c-2.962,3.926-6.275,7.776-9.49,11.6A241.079,241.079,0,0,1,439.73,698.4Z" fill="#4317ad"/>
    <path id="Path_1922" data-name="Path 1922" d="M410.951,706.38l18.621-11.938a235.748,235.748,0,0,0,48.935-42c3.2-3.668,6.429-7.537,9.276-11.352a147.475,147.475,0,0,0,26.7-54.017c9.154-37.887.71-78.867-25.115-121.842l-4.946-7.714L461.11,421.156c-31.023-48.388-74.223-66.3-128.4-53.26a2.339,2.339,0,0,1-2.12-4.009,109.452,109.452,0,0,0,34.881-61.925,91.625,91.625,0,0,0-2.8-39.495,152.479,152.479,0,0,0-18.743-40.008l-34.086-53.518a236.548,236.548,0,0,0-37-45.533A139.42,139.42,0,0,0,204.58,87.186,147.256,147.256,0,0,0,139.647,90c-2.879.72-5.821,1.517-8.782,2.4a233.042,233.042,0,0,0-58.227,26.858l-.532.341-95.367,61.142C-75,213.918-131.928,250.416-140.5,256.135l-1.224.785a29.832,29.832,0,0,0-12.6,18.585,29.825,29.825,0,0,0,3.931,22.106L-84.543,400.32l2.695,4.2L-70.3,422.532c4.537,7.076,6.4,9.976,7.028,11.372L26.695,576.4l.495.772c3.766,6.518,35.727,56.37,40.287,63.131l.563.878L160.651,783.41c.884,1.086,2.5,3.542,6.036,9.005s7.436,11.6,10.66,16.626l5.116,7.981a28.628,28.628,0,0,0,39.444,8.831l149.079-94.339,1.064-.682,38.6-24.746Zm.551,1.036-39.689,25.445L222.733,827.2a30.364,30.364,0,0,1-41.49-9.1l-21.762-33.943-92.6-142.2c-.213.136-41.785-64.648-41.614-64.908l-90.129-142.4-21.286-33.611-65.832-102.682a31.252,31.252,0,0,1-4.205-23.31,31.249,31.249,0,0,1,13.352-19.564s61.331-39.583,118.444-76.2l95.9-61.482A234.187,234.187,0,0,1,130.15,90.763c2.934-.868,5.9-1.683,8.835-2.436a150.222,150.222,0,0,1,65.722-2.873,140.134,140.134,0,0,1,69.18,36.537,237.8,237.8,0,0,1,37.231,45.834l34.1,53.545a154.856,154.856,0,0,1,18.929,40.414,94.136,94.136,0,0,1,2.9,40.181,110.313,110.313,0,0,1-35.407,62.863.759.759,0,0,0,.8,1.25c54.59-13.153,98.3,4.319,130.1,53.931l23.313,36.364c1.706,2.66,3.411,5.32,4.98,7.768q39.25,65.259,25.3,123a148.292,148.292,0,0,1-26.993,54.616q-4.416,5.76-9.338,11.43a236.347,236.347,0,0,1-49.445,42.548l-18.621,11.938Z" fill="#4317ad"/>
    <path id="Path_1923" data-name="Path 1923" d="M402.9,704.825l-.853-1.33,17.477-11.205.638-.409a229.939,229.939,0,0,0,47.58-41.652c3.141-3.591,6.223-7.331,9.167-11.17a144.894,144.894,0,0,0,26.6-52.94c9.012-36.821.787-76.815-24.485-118.869l-4.826-7.528-22.9-35.428c-30.289-47.244-72.479-64.75-125.352-52.022a2.339,2.339,0,0,1-2.12-4.009,106.491,106.491,0,0,0,33.811-60.376,91.869,91.869,0,0,0-2.876-38.619,149.528,149.528,0,0,0-18.268-39.149l-33.256-52.4a232.2,232.2,0,0,0-36.019-44.472A135.275,135.275,0,0,0,200.4,97.937a147.184,147.184,0,0,0-63.714,3.313c-2.739.7-5.654,1.485-8.642,2.387A226.35,226.35,0,0,0,70.654,129.7l-.319.2c-4.5,2.882-42.648,27.154-93.191,59.558-61.529,39.448-106.858,68.509-114.25,73.549l-1.224.784a29.134,29.134,0,0,0-12.217,18.2,29.133,29.133,0,0,0,3.932,21.567L-82.2,404.035l3,4.682,11.154,17.4c4.264,6.651,6.037,9.417,6.636,10.76L25.943,576.283l.495.771C30.267,583.495,61.572,632.266,66,638.77l.46.718,90.934,138.5c.893,1.042,2.472,3.445,5.944,8.8s7.282,11.359,10.437,16.28l5.014,7.821.1.159a28.438,28.438,0,0,0,38.544,8.658l145.672-91.516,1.064-.682c4.283-2.746,22.235-14.03,37.85-24.042l.852,1.33Zm-.018-.027c-16.652,10.677-38.811,24.883-38.957,24.714l-145.645,91.5a29.8,29.8,0,0,1-40.7-9.152c-.085-.133-21.383-33.06-21.524-33.045L65.108,640.358c-.293.188-40.875-63.054-40.659-63.418l-87.21-139.424L-83.755,404.77l-64.4-100.448a30.618,30.618,0,0,1-4.178-22.78,30.619,30.619,0,0,1,12.967-19.189c-.1-.16,59.78-38.664,115.484-74.377,48.282-30.954,93.425-59.9,93.633-59.8a228.4,228.4,0,0,1,57.8-26.243c2.908-.851,5.832-1.675,8.695-2.422a148.67,148.67,0,0,1,64.431-3.247A136.377,136.377,0,0,1,268.3,131.953a235.825,235.825,0,0,1,36.292,44.9l33.256,52.4a151.666,151.666,0,0,1,18.471,39.582,93.164,93.164,0,0,1,2.985,39.375A107.435,107.435,0,0,1,325.14,369.26a.759.759,0,0,0,.784,1.224C379.131,357.692,422.011,374.868,453,423.2l22.9,35.428,4.844,7.555q38.293,63.77,24.672,120.1a146.4,146.4,0,0,1-26.885,53.5c-2.908,3.778-5.983,7.589-9.23,11.247a230.152,230.152,0,0,1-48.087,42.09L403.1,704.732Z" fill="#4317ad"/>
    <path id="Path_1924" data-name="Path 1924" d="M393.814,702.015l-.853-1.33L410.092,689.7l.639-.41a225.982,225.982,0,0,0,46.65-41.169c3.052-3.495,6.081-7.2,9-11.023,9.423-12.235,21.656-31.151,26.54-51.811,8.967-35.778.813-74.843-23.886-116.061l-4.707-7.342-22.331-34.48c-29.573-46.127-70.621-63.315-122.351-50.794a2.306,2.306,0,0,1-2.1-3.982,102.069,102.069,0,0,0,32.74-58.827,90.671,90.671,0,0,0-2.893-37.708,147.781,147.781,0,0,0-17.836-38.3l-32.409-51.253A229.366,229.366,0,0,0,261.9,142.584a131.113,131.113,0,0,0-65.291-34.451c-18.127-3.392-39.817-2.211-62.537,3.684-2.642.681-5.514,1.471-8.518,2.346a223.393,223.393,0,0,0-56.536,25.4l-.532.341c-4.389,2.814-41.7,26.47-90.8,57.953-59.854,38.373-104.066,66.719-111.22,71.718l-1.224.785a28.442,28.442,0,0,0-11.9,17.826,28.441,28.441,0,0,0,3.923,21.072l63,98.266,2.729,4.257,10.966,17.1c4.247,6.624,6.02,9.391,6.609,10.778L25.055,575.951l.495.771c3.647,6.333,34.2,53.933,38.595,60.2l.563.878,89.205,134.691c.893,1.041,2.411,3.409,5.824,8.615s7.112,11.093,10.233,15.961l4.9,7.635.085.133a27.587,27.587,0,0,0,37.565,8.535l142.131-88.608,1.064-.683c4.176-2.677,21.693-13.645,36.856-23.366l.853,1.33Zm-.395.028c-16.254,10.42-37.774,24.218-37.981,24.012L213.307,814.664a29.136,29.136,0,0,1-39.615-9.1c-.1-.16-20.9-32.245-21.118-32.179L63.55,638.8c-.518.07-40.036-61.452-39.721-61.955l-84.7-136.38c.16-.1-20.2-32.093-20.173-32.11l-62.966-98.213a29.988,29.988,0,0,1-4.108-22.243,29.992,29.992,0,0,1,12.6-18.785c-.153-.239,58.143-37.764,112.41-72.556,47.085-30.187,91.057-58.378,91.353-58.268a224.9,224.9,0,0,1,56.957-25.443c2.881-.834,5.753-1.624,8.589-2.353,21.047-5.461,43.383-7.507,63.23-3.716A132.365,132.365,0,0,1,263.1,141.633a232.241,232.241,0,0,1,35.38,43.943L330.9,236.855a148.542,148.542,0,0,1,18.005,38.68,92.278,92.278,0,0,1,2.96,38.341,104.633,104.633,0,0,1-33.248,59.79.727.727,0,0,0,.767,1.2c51.764-12.467,93.887,4.406,124.057,51.464l22.331,34.48,4.741,7.395c24.94,41.478,33.068,80.559,23.989,117.159-4.287,18.138-14.6,36.536-26.787,52.42-2.872,3.718-5.85,7.5-9.078,11.075a225.237,225.237,0,0,1-47.023,41.408l-17.77,11.392Z" fill="#4317ad"/>
    <path id="Path_1925" data-name="Path 1925" d="M383.948,697.868,400.68,687.14l.639-.409a214.568,214.568,0,0,0,45.444-40.884c2.936-3.383,5.911-7.056,8.872-10.868,9.476-12.269,21.768-31.035,26.442-50.735,8.777-34.9.99-72.928-23.161-113l-4.587-7.156-21.89-33.674c-28.857-45.01-69.011-61.682-119.348-49.566a2.275,2.275,0,0,1-2.069-3.929A99.447,99.447,0,0,0,342.7,319.6a89.716,89.716,0,0,0-2.909-36.8,144.661,144.661,0,0,0-17.361-37.441L290.853,195.23A226.988,226.988,0,0,0,256.6,152.517a127.063,127.063,0,0,0-63.7-33.555c-21.962-4.162-45.5-.069-61.238,4.014-2.554.7-5.3,1.448-8.4,2.348A218.8,218.8,0,0,0,67.6,149.748l-.505.324c-4.342,2.6-40.748,25.786-88.577,56.451-58.178,37.3-100.983,64.967-108.136,69.853l-1.356.87a27.742,27.742,0,0,0-11.537,17.414,27.745,27.745,0,0,0,3.88,20.526l61.408,96.134,2.695,4.2L-63.84,432.2c4.144,6.464,5.867,9.151,6.395,10.5L24.607,576.013l.477.745c3.44,6.127,33.4,52.682,37.657,58.736l.512.8L150.9,767.142c.876,1.015,2.4,3.339,5.765,8.466s7.01,10.933,10.154,15.486c2.3,3.591,4.3,6.7,4.673,7.289a26.924,26.924,0,0,0,36.639,8.378l138.8-85.837,1.064-.682c4.155-2.476,21.2-13.251,35.906-22.682Zm.806,1.022c-15.961,10.233-36.817,23.6-37.075,23.319L208.817,808.421a28.441,28.441,0,0,1-38.812-8.9c-.137-.213-20.413-31.43-20.677-31.373L61.684,637.3c-.642.111-39.154-59.842-38.766-60.466L-58.957,443.448c.186-.119-19.567-31.222-19.72-31.461l-61.391-96.108a29.386,29.386,0,0,1-4.057-21.669,29.388,29.388,0,0,1,12.154-18.393c-.187-.293,56.522-36.838,109.326-70.691,45.861-29.4,88.769-56.912,89.143-56.739a220.34,220.34,0,0,1,56.085-24.7c2.855-.817,5.656-1.6,8.448-2.339,20.459-5.384,42.713-7.79,62.02-4.14a128.1,128.1,0,0,1,64.528,33.964,230.684,230.684,0,0,1,34.484,43.015l31.773,50.085a145.541,145.541,0,0,1,17.546,37.848,90.986,90.986,0,0,1,2.95,37.446,101.436,101.436,0,0,1-32.238,58.2.726.726,0,0,0,.75,1.17c50.365-12.132,91.677,4.472,121.028,50.254l21.873,33.647,4.621,7.209c24.363,40.459,32.315,78.565,23.35,114.229-4.165,17.684-14.877,35.812-26.751,51.307-2.808,3.64-5.742,7.436-8.908,10.929A220.484,220.484,0,0,1,402.274,687.7L384.9,698.831Z" fill="#4317ad"/>
    <path id="Path_1926" data-name="Path 1926" d="M375,694.973l16.253-10.42.639-.409a210.6,210.6,0,0,0,44.279-40.476c2.856-3.332,5.8-6.943,8.721-10.7,9.582-12.337,21.95-30.926,26.36-49.632,8.664-33.968,1.069-70.989-22.52-110.067l-4.4-6.863-21.362-32.736c-28.158-43.919-67.3-60.187-116.364-48.364a2.274,2.274,0,0,1-2.565-1.133,2.242,2.242,0,0,1,.514-2.769,96.8,96.8,0,0,0,30.608-55.77,88.482,88.482,0,0,0-2.926-35.886,140.349,140.349,0,0,0-16.911-36.565L284.6,204.156A222.9,222.9,0,0,0,251.259,162.4a122.77,122.77,0,0,0-62.229-32.66c-20.95-3.873-44.28.312-60.142,4.551-2.739.705-5.5,1.5-8.281,2.306a214.25,214.25,0,0,0-54.892,23.631l-.559.358c-4.269,2.474-39.717,25.051-86.217,54.862-56.555,36.259-98.324,63.263-105.166,67.988l-1.091.7a27.049,27.049,0,0,0-11.171,17,27.049,27.049,0,0,0,3.839,19.979l59.822,93.659,2.626,4.1c11.805,18.706,15.47,24.54,16.439,26.7l79.521,130.24.444.692c3.275,6.045,32.441,51.42,36.685,57.22l.665,1.037L147.459,761.84c.859.988,2.352,3.259,5.621,8.182s6.822,10.641,9.864,15.034c2.285,3.565,4.263,6.651,4.639,7.236l.034.053a26.225,26.225,0,0,0,35.659,8.255l135.378-83.04,1.064-.682c3.827-2.228,19.031-11.826,35.045-22.093Zm.619,1.142c-15.455,9.909-36.024,22.908-36.231,22.7l-135.378,83.04a27.9,27.9,0,0,1-37.667-8.694c-.171-.266-19.972-30.625-20.28-30.578L60.426,635.515c-.809.143-38.314-58.24-37.827-59L-57.048,446.428c.154-.286-19.019-30.485-19.163-30.768l-59.931-93.89a28.751,28.751,0,0,1-4-21.159,28.751,28.751,0,0,1,11.812-18.005c-.221-.346,54.954-35.945,106.348-68.895,44.611-28.6,86.375-55.377,86.793-55.194a215.15,215.15,0,0,1,55.325-23.834l8.28-2.306c19.9-5.254,41.993-8.154,60.879-4.573A123.908,123.908,0,0,1,252.25,160.9a227.238,227.238,0,0,1,33.572,42.062l30.722,49.031a142.633,142.633,0,0,1,17.15,36.938,89.538,89.538,0,0,1,2.967,36.535,98.469,98.469,0,0,1-31.169,56.768.694.694,0,0,0-.1.868.7.7,0,0,0,.828.276c48.991-11.816,89.52,4.5,118.069,49.034l21.363,32.736,4.5,7.023c23.794,39.4,31.571,76.526,22.6,111.366-4.04,17.117-14.953,35.224-26.642,50.187-2.8,3.6-5.637,7.368-8.783,10.774-11.476,13.363-27.035,29.494-44.618,40.767,0,0-7.506,5.037-16.816,11.006Z" fill="#4317ad"/>
    <path id="Path_1927" data-name="Path 1927" d="M366.011,692.139c9.736-6.242,14.445-9.261,15.876-10.366l.611-.392c17.69-11.342,33.071-28.335,43.125-40.111,2.767-3.237,5.554-6.676,8.6-10.54,9.679-12.361,22.062-30.81,26.28-48.528,8.523-33.016,1.148-69.051-21.881-107.137l-3.837-5.986-.529-.824L413.24,436.419c-27.049-42.19-66.21-58.484-113.335-47.152a2.179,2.179,0,0,1-2.521-1.124,2.21,2.21,0,0,1,.461-2.735,93.759,93.759,0,0,0,29.537-54.22,87.9,87.9,0,0,0-2.933-35.018,138.274,138.274,0,0,0-16.436-35.707l-29.9-47.868a220.436,220.436,0,0,0-32.34-40.9,118.749,118.749,0,0,0-60.621-31.852c-19.9-3.643-43.033.676-58.932,4.976l-8.13,2.248c-15.1,4.314-36.736,11.728-54.08,22.847l-.559.359c-4.207,2.4-39.459,24.81-83.963,53.342-54.879,35.184-95.46,61.464-102.109,66.14l-1.224.785c-11.385,7.3-14.579,24.1-6.938,36.015l58.541,91.779L-69.7,422.3c11.472,18.244,15.137,24.078,15.977,26.091L23.054,575.582l.495.772c3.1,6.007,31.491,50.115,35.73,55.73l.133-.085.546.851,84.2,123.6c1.53,1.684,4.977,6.943,15.294,22.625l4.468,6.97.12.186a25.5,25.5,0,0,0,34.706,8.116l131.91-80.254,1.143-.733c3.791-2.167,18.843-11.593,34.166-21.416Zm.8,1.136c-15.056,9.653-35.083,22.267-35.35,22.026L199.569,795.7a27.239,27.239,0,0,1-36.863-8.61c-.187-.293-19.486-29.809-19.864-29.755L58.754,633.959c-.95.159-37.449-56.655-37.023-57.454L-55.048,449.312c.19-.347-18.427-29.738-18.605-30.074l-58.439-91.619c-7.964-12.423-4.927-30.285,7.5-38.25-.256-.4,53.306-35,103.371-67.1,43.414-27.833,84.12-53.743,84.539-53.674,17.1-10.966,38.169-18.39,54.486-23.033l8.157-2.265c19.219-5.152,41.374-8.358,59.642-4.981a119.889,119.889,0,0,1,61.43,32.235,225.483,225.483,0,0,1,32.634,41.124l29.918,47.9A139.39,139.39,0,0,1,326.2,295.684a89.214,89.214,0,0,1,2.982,35.624,95.928,95.928,0,0,1-30.028,55.21.664.664,0,0,0,.7,1.091c47.582-11.437,87.31,4.569,115.041,47.823l20.87,31.851c1.467,2.287,2.968,4.628,4.383,6.836C463.367,512.5,470.924,548.641,462.2,582.46c-3.945,16.68-15.294,34.692-26.57,49.128-2.737,3.519-5.623,7.1-8.6,10.584-11.128,13.028-26.385,29.453-43.49,40.419.086.133-7.3,4.945-16.373,10.76Z" fill="#4317ad"/>
    <path id="Path_1928" data-name="Path 1928" d="M357.025,689.3c9.47-6.071,14.072-9.022,15.3-10.034l.585-.375c16.2-10.387,30.946-26.672,42.067-39.77,2.614-3.065,5.349-6.47,8.389-10.333,9.759-12.413,22.218-30.685,26.182-47.452,8.427-32.054,1.271-67.1-21.224-104.181l-3.411-5.32-.955-1.49-20.1-30.995c-26.332-41.072-64.467-56.937-110.315-45.9a2.277,2.277,0,0,1-2.539-1.15,2.179,2.179,0,0,1,.5-2.682,90.98,90.98,0,0,0,28.449-52.7,86.131,86.131,0,0,0-3.055-34.038,134.272,134.272,0,0,0-15.97-34.8l-29.044-46.766a216.972,216.972,0,0,0-31.491-39.868,114.865,114.865,0,0,0-59.033-30.956c-18.9-3.423-41.857,1.048-57.765,5.392l-6.36,1.788-1.657.461c-22.27,6.246-40.073,13.606-53.214,22.031l-.532.341c-4.127,2.345-38.482,24.109-81.71,51.823-53.2,34.109-92.553,59.675-99.025,64.275l.017.027-1.224.784c-11.013,7.061-14.147,23.484-6.677,35.135l57.082,89.561,2.388,3.725c11.224,17.916,14.735,23.509,15.626,25.6L22.4,575.553l.495.771c2.826,5.7,30.646,48.855,34.758,54.214l.133-.085.546.851L140.85,751.062c1.513,1.658,4.9,6.767,14.972,22.006l4.366,6.81.1.16a25.28,25.28,0,0,0,33.753,7.976l128.51-77.36,1.037-.666c3.728-2.089,18.425-11.249,33.268-20.766Zm.687,1.249c-14.657,9.4-34.186,21.617-34.471,21.349L194.887,789.388A26.671,26.671,0,0,1,159,780.9c-.221-.345-19.079-29.057-19.4-28.852L57.083,632.29c-1.046.183-36.566-55.044-35.934-56.049l-74.207-124c.19-.347-17.863-28.974-18.058-29.337l-57.031-89.481c-7.743-12.077-4.9-29.592,7.155-37.318-.307-.479,51.669-34.1,100.19-65.21,42.19-27.049,81.822-52.233,82.329-52.145,16.6-10.642,37.781-17.766,53.621-22.216l8.017-2.249c18.727-5.1,40.721-8.615,58.458-5.423A116.033,116.033,0,0,1,241.5,180.252a222.065,222.065,0,0,1,31.722,40.17l29.045,46.767a136.55,136.55,0,0,1,16.19,35.264,87.636,87.636,0,0,1,2.981,34.685,92.872,92.872,0,0,1-28.983,53.678.665.665,0,0,0-.048.781.662.662,0,0,0,.73.283c46.182-11.1,85.126,4.618,112.038,46.6l20.22,30.953,4.264,6.651C452.306,513.4,459.706,548.59,451.07,581.49c-3.83,16.156-15.413,33.979-26.463,48.008-2.744,3.448-5.577,6.991-8.372,10.36-10.675,12.624-25.753,29.385-42.352,40.027-.031.245-7.083,4.878-15.808,10.472Z" fill="#4317ad"/>
    <path id="Path_1929" data-name="Path 1929" d="M348.847,687.79l-.852-1.33c9.23-5.918,13.7-8.783,14.9-9.778l.585-.375c14.817-9.5,28.374-24.535,40.832-39.354,2.446-2.919,5.072-6.141,8.407-10.307,14.33-18.045,23.128-33.6,26.117-46.322,8.288-31.1,1.35-65.165-20.6-101.277l-3.086-4.814-1.024-1.6-19.858-30.1c-25.582-39.9-62.715-55.433-107.42-44.6a2.272,2.272,0,0,1-2.495-1.14,2.179,2.179,0,0,1,.495-2.682c14.415-12.995,23.264-29.93,27.315-51.069a85.314,85.314,0,0,0-2.767-33.473,130.055,130.055,0,0,0-15.528-34l-28.275-45.683a214.911,214.911,0,0,0-30.569-38.958,110.6,110.6,0,0,0-57.48-30.112c-17.9-3.16-40.636,1.429-56.58,5.833l-4.167,1.17-3.683,1.048c-22.912,6.356-40.05,13.29-52.393,21.2l-.505.324c-4.037,2.251-37.515,23.451-79.306,50.245-51.607,33.086-89.839,57.935-96.118,62.486l-1.224.785c-10.64,6.822-13.662,22.835-6.413,34.14l55.639,87.371,2.388,3.724c10.839,17.374,14.248,22.808,15.1,24.892l71.59,121.324.478.745-.133.085c2.746,5.747,29.68,47.523,33.953,52.666l.16-.1.546.851,80.677,116.061c1.5,1.63,4.8,6.607,14.64,21.43l4.23,6.6.119.187a24.49,24.49,0,0,0,32.791,7.879l125.112-74.581,1.037-.665c3.639-1.995,17.963-10.916,32.2-20.04l.853,1.33Zm-.324.021c-14.259,9.141-33.229,21-33.531,20.709L190.215,783.037c-11.758,7.538-27.784,2.8-34.93-8.348-.256-.4-18.56-28.189-19.035-28.109L55.525,630.737c-1.187.2-35.7-53.459-35.156-54.484L-51.094,455.185c.226-.407-17.271-28.227-17.5-28.643l-55.589-87.29c-7.5-11.705-4.864-28.9,6.734-36.335-.324-.506,50.065-33.149,97.256-63.4,40.94-26.248,79.375-50.664,79.925-50.567,16.094-10.318,37.437-17.132,52.827-21.406l7.866-2.191c18.138-5.022,40.034-8.925,57.256-5.891a112.143,112.143,0,0,1,58.3,30.522,221.2,221.2,0,0,1,30.8,39.259l28.275,45.683a133.22,133.22,0,0,1,15.7,34.379,85.98,85.98,0,0,1,2.952,33.878,89.934,89.934,0,0,1-27.886,52.112.632.632,0,0,0,.665,1.037c44.783-10.769,82.916,4.683,109.01,45.384l19.859,30.1c1.364,2.128,2.8,4.363,4.144,6.464,22.07,36.3,29.277,70.49,20.692,102.532-3.725,15.676-15.665,33.353-26.259,46.863-2.681,3.371-5.478,6.853-8.406,10.307-10.334,12.218-25.065,29.17-41.186,39.505.1.16-6.922,4.776-15.515,10.285Z" fill="#4317ad"/>
    <path id="Path_1930" data-name="Path 1930" d="M339.86,684.957l-.853-1.33c8.965-5.748,13.3-8.528,14.459-9.533l.611-.392c15.429-9.892,30.03-27.4,39.669-38.945,2.821-3.385,5.592-6.851,8.174-10.083,14.427-18.07,23.176-33.288,25.993-45.229,8.174-30.164,1.473-63.216-19.917-98.336l-2.831-4.416-1.16-1.809-19.339-29.228C359.748,406.791,323.8,391.7,280.354,402.214a2.212,2.212,0,0,1-2.01-3.779c13.7-12.534,22.4-28.7,26.351-49.587a84.518,84.518,0,0,0-3-32.311,129.571,129.571,0,0,0-15.079-33.123l-27.367-44.5a213.082,213.082,0,0,0-29.612-38.107,106.524,106.524,0,0,0-55.952-29.253c-13.335-2.3-32.491-.152-55.326,6.268l-2.334.633-5.435,1.533c-14.8,4.083-36.243,10.624-51.539,20.431l-.505.324C54.6,202.9,22.169,223.389-18.478,249.449c-49.931,32.012-86.986,56.181-93.061,60.639l.1.16-1.223.784c-10.136,6.5-13.031,22.355-6.022,33.289l54.18,85.153,2.251,3.511C-51.677,450-48.38,455.322-47.566,457.353L21.077,575.311l.478.745-.16.1c2.6,5.577,28.851,46.289,32.865,51.261l.186-.119.529.824,79,112.1c1.5,1.587,4.723,6.431,14.335,20.838,1.927,3.006,3.769,5.879,4.226,6.3l.222.346c6.054,9.444,20.585,14.954,31.838,7.74l121.81-71.827,1.038-.665.085.133c3.575-1.917,17.491-10.538,31.431-19.475l.852,1.33Zm-.044-.01c-13.859,8.886-32.288,20.363-32.65,20.032L185.532,776.73c-11.385,7.3-27.145,2.389-33.967-8.252-.273-.425-18.1-27.356-18.647-27.269L53.931,629.131c-1.327.213-34.861-51.858-34.269-53.1L-49.183,458.051c.263-.468-16.723-27.489-16.943-27.949l-54.129-85.073c-7.282-11.359-4.833-28.206,6.5-35.472-.375-.585,48.534-32.317,94.209-61.6,39.716-25.463,77.042-49.093,77.662-49,15.588-9.995,37.076-16.526,51.972-20.633l7.743-2.15c17.549-4.945,39.364-9.209,56.036-6.272a107.626,107.626,0,0,1,56.76,29.635,217.783,217.783,0,0,1,29.889,38.3L287.9,282.368a130.16,130.16,0,0,1,15.248,33.5,85.472,85.472,0,0,1,3.022,32.933c-3.5,18.608-10.966,36.233-26.825,50.605a.631.631,0,0,0-.042.74.633.633,0,0,0,.69.271c43.366-10.462,80.647,4.6,105.991,44.128l19.322,29.2,4.025,6.278c21.492,35.28,28.514,68.539,20.173,99.674-3.576,15.2-15.863,32.691-26.3,45.8-2.655,3.353-5.389,6.758-8.2,10.1-10.031,11.986-24.471,29.276-40.059,39.271-.04.288-6.729,4.726-15.082,10.082Z" fill="#4317ad"/>
    <path id="Path_1931" data-name="Path 1931" d="M330.014,680.722c8.167-5.236,12.822-8.221,14.006-9.243l.586-.375c14.152-9.073,27.42-25.087,37.089-36.879l1.424-1.7c2.4-2.928,4.813-5.9,7.117-8.8l.9-1.106c14.775-18.406,23.255-32.814,25.938-44.143,8.035-29.212,1.536-61.3-19.3-95.389l-2.61-4.07-1.262-1.969L375.058,448.7c-23.877-37.242-59.775-52.251-101.283-42.23a2.21,2.21,0,0,1-2.461-1.087,2.182,2.182,0,0,1,.485-2.639c13.294-12.051,21.352-27.351,25.237-48.047a82.664,82.664,0,0,0-3.005-31.443,124.625,124.625,0,0,0-14.6-32.264L252.88,247.652a210.081,210.081,0,0,0-28.735-37.093A102.575,102.575,0,0,0,169.781,182.2c-12.671-2.2-30.944.1-54.159,6.683l-.757.223-6.872,1.928c-17.238,4.671-36.778,10.667-50.717,19.6l-.505.324c-3.885,2.078-35.358,21.956-74.808,47.248-47.537,30.477-84.113,54.339-89.968,58.731l.1.16-1.224.784c-9.816,6.293-12.4,21.648-5.574,32.289l52.452,82.808,2.234,3.484c10.215,16.461,13.4,21.663,14.214,23.694L20.4,575.184l.477.745-.16.1c2.414,5.7,27.771,44.956,32.006,49.747l.213-.136.546.851,77.43,108.421c1.472,1.534,4.648,6.254,14.014,20.218l3.922,6.118.188.293c5.867,9.151,20.413,14.276,30.912,7.583L298.171,700.2l1.038-.665.085.133C303.01,697.734,316.447,689.42,330.014,680.722Zm.853,1.33c-13.3,8.527-31.357,19.765-31.753,19.381L180.728,770.464c-11.013,7.06-26.363,2.263-33-8.085-.307-.479-17.634-26.568-18.206-26.465L52.322,627.5c-1.451.254-33.978-50.247-33.29-51.514l-66.19-114.952c.289-.485-16.141-26.7-16.4-27.212l-52.687-82.882c-7.027-10.96-4.8-27.513,6.185-34.557-.41-.638,46.9-31.347,91.169-59.726,38.492-24.678,74.621-47.541,75.365-47.492,15.083-9.67,36.663-16,51.124-19.789l7.6-2.134c16.977-4.842,38.694-9.493,54.878-6.732a103.493,103.493,0,0,1,55.18,28.809,212.649,212.649,0,0,1,28.976,37.351L280.8,290.033a127.1,127.1,0,0,1,14.789,32.67,84.8,84.8,0,0,1,3.039,32.022c-3.444,18.048-10.412,35.165-25.755,49.055a.6.6,0,0,0,.631.985c41.984-10.1,78.533,4.754,102.955,42.847l18.83,28.316,3.9,6.092c20.925,34.218,27.665,66.569,19.466,96.637-3.462,14.681-16.045,32.057-26.22,44.7-2.609,3.249-5.317,6.637-8.023,9.91-9.64,11.661-23.8,29.263-38.861,38.916-.05.332-6.542,4.607-14.656,9.809Z" fill="#4317ad"/>
    <path id="Path_1932" data-name="Path 1932" d="M321.018,677.931c7.98-5.116,12.449-7.982,13.59-9.013l.585-.375c13.088-8.391,25.558-23.893,34.769-35.053l2.59-3.162,5.36-6.627,2.537-3.128c9.475-11.743,22.5-28.953,25.839-43.067,7.9-28.372,1.739-59.407-18.608-92.606-.767-1.2-1.586-2.474-2.4-3.751l-1.347-2.1-18.4-27.537c-23.161-36.125-58.058-50.687-98.281-41a2.149,2.149,0,0,1-1.959-3.7c12.661-11.458,20.359-26.265,24.166-46.5a82.627,82.627,0,0,0-3.021-30.531,122.682,122.682,0,0,0-14.157-31.274l-25.69-42.236a208.756,208.756,0,0,0-27.823-36.139,98.406,98.406,0,0,0-52.81-27.513c-12.1-2-29.414.315-52.975,7.125l-7.506,2.11c-13.194,3.542-35.248,9.423-49.878,18.8l-.452.29c-3.8,1.983-34.3,21.2-72.369,45.609-45.941,29.453-81.312,52.618-87.044,56.969l.12.186-1.357.87c-9.47,6.071-12.035,21.04-5.366,31.442l51.307,80.613,2.1,3.272c9.967,16.132,13.023,21.192,13.793,23.213L19.732,575.085l.46.718-.186.119a541.938,541.938,0,0,0,31.1,48.153l.239-.153.529.824L127.588,729.5c1.464,1.463,4.538,6.024,13.726,19.652l3.8,5.932.171.266c5.713,8.912,19.717,14.01,29.932,7.461l114.844-66.123,1.011-.648.1.16c3.379-1.754,16.558-9.828,29.62-18.2Zm.632,1.4c-13.061,8.374-30.46,19.116-30.873,18.706l-114.819,66.1c-10.64,6.822-25.631,2.057-32.061-7.972-.324-.506-17.149-25.753-17.791-25.642L50.7,625.909c-1.565.252-33.113-48.662-32.352-50.051l-63.546-111.88c.3-.53-15.567-25.979-15.864-26.5l-51.219-80.708c-6.822-10.641-4.838-26.926,5.776-33.731-.444-.692,45.319-30.482,88.174-57.957C18.914,241.2,54,219.05,54.7,219.159c14.578-9.346,36.36-15.241,50.355-19,2.5-.666,5-1.4,7.436-2.1,16.406-4.737,38.041-9.75,53.667-7.156a99.8,99.8,0,0,1,53.68,27.932,213.541,213.541,0,0,1,28.037,36.414l25.707,42.262a124.293,124.293,0,0,1,14.341,31.8,83.941,83.941,0,0,1,3.054,31.111c-3.283,17.419-9.857,34.1-24.683,47.505a.6.6,0,0,0,.247.933.606.606,0,0,0,.367.025c40.583-9.766,76.349,4.8,99.986,41.672l18.338,27.431,3.786,5.9c20.346,33.2,26.974,64.5,18.8,93.724-3.383,14.218-16.269,31.413-26.138,43.6l-7.9,9.755c-9.234,11.475-23.1,29.371-37.7,38.734-.05.333-6.339,4.515-14.213,9.563Z" fill="#4317ad"/>
    <path id="Path_1933" data-name="Path 1933" d="M312.841,676.417l-.853-1.33c8.619-5.526,12.178-7.995,13.165-8.74l-.086-.133.612-.392c12.1-7.76,23.992-22.589,32.68-33.452l3.514-4.355,3.676-4.571,4.079-5.055c10.4-12.708,22.7-29,25.7-41.886,7.8-27.3,1.737-57.417-18.007-89.5-.716-1.118-1.483-2.315-2.251-3.512l-1.381-2.155-17.836-26.589c-22.461-35.034-56.315-49.139-95.3-39.756a2.149,2.149,0,0,1-1.941-3.673c12.028-10.864,19.393-25.195,23.173-44.885a82.18,82.18,0,0,0-3.055-29.647,119.533,119.533,0,0,0-13.7-30.556L240.182,265.14a202.534,202.534,0,0,0-26.963-35.264,94.8,94.8,0,0,0-50.946-26.832c-14.971-2.45-36.714,3.156-51.764,7.55-2.4.711-4.864,1.43-7.365,2.1l-1.356.344c-13.861,3.556-34.376,9.2-47.784,17.8l-.506.324c-3.707,1.889-33.245,20.451-70.009,44.021-44.371,28.447-78.555,50.889-84.11,55.163l.153.24-1.2.767c-8.991,5.765-11.447,20.552-5.069,30.5l49.549,78.513,2.012,3.139a256.878,256.878,0,0,1,13.348,22.635L19.051,574.958l.46.719-.213.136a452.636,452.636,0,0,0,30.169,46.646l.239-.153.529.824,74,100.9a222.726,222.726,0,0,1,13.472,19.139c1.808,2.82,3.646,5.4,3.826,5.617l.1.16c5.559,8.672,19.109,13.648,28.979,7.321l111.41-63.283,1.011-.648.119.187c3.317-1.677,16.071-9.478,28.653-17.544l.853,1.33Zm-.182-.108c-12.636,8.1-29.45,18.467-29.95,18.038L171.48,757.737c-10.268,6.583-24.874,1.834-31.082-7.849-.358-.558-16.69-24.921-17.376-24.819l-73.9-100.74c-1.688.294-32.162-46.945-31.423-48.545L-43.2,466.976c.335-.59-15-25.215-15.307-25.808l-49.759-78.491c-6.566-10.241-4.7-26.117,5.546-32.683-.495-.772,43.735-29.616,85.18-56.187,35.992-23.075,69.893-44.435,70.688-44.307,14.1-9.039,36-14.634,49.5-18.222,2.475-.649,4.942-1.367,7.312-2.061,15.808-4.617,37.372-10.034,52.483-7.6a96.1,96.1,0,0,1,52.109,27.062A211.073,211.073,0,0,1,241.7,264.167l24.859,41.117a121.376,121.376,0,0,1,13.883,30.962,83.11,83.11,0,0,1,3.071,30.2c-3.176,16.825-9.3,33.028-23.622,46a.537.537,0,0,0-.163.742.537.537,0,0,0,.743.162c39.05-9.346,74.148,4.825,96.984,40.444l17.818,26.563,3.667,5.719c19.778,32.138,26.247,62.485,18.168,90.75-3.252,13.721-16.451,30.779-26.04,42.519l-7.745,9.583c-8.892,10.955-22.576,29.188-36.569,38.158a156.185,156.185,0,0,1-13.824,9.351Z" fill="#4317ad"/>
    <path id="Path_1934" data-name="Path 1934" d="M303.881,673.566l-.853-1.33c8.3-5.321,11.762-7.766,12.7-8.521l.611-.392c11.279-7.231,22.59-21.614,30.807-32.1l4.109-5.3,2.313-2.834,5.307-6.593c7.876-9.554,22.473-27.358,25.677-40.861,7.66-26.343,1.941-55.521-17.315-86.492l-2.1-3.272-1.415-2.208-17.343-25.7c-21.438-33.439-55.073-47.495-92.225-38.466a2.151,2.151,0,0,1-2.391-1.094,2.088,2.088,0,0,1,.467-2.552c11.52-10.426,18.449-23.915,22.043-43.485a81.257,81.257,0,0,0-3.063-28.665,115.534,115.534,0,0,0-13.249-29.68l-24.012-39.971a199.779,199.779,0,0,0-25.86-34.657A90.719,90.719,0,0,0,158.4,213.634c-13.749-2.183-34.2,3.157-50.553,7.975-2.15.628-4.671,1.38-7.242,2.053l-2.976.744c-13.1,3.4-32.873,8.5-45.27,16.449l-.692.444c-3.644,1.81-32.331,19.827-67.711,42.51-42.749,27.407-75.735,49.081-81.07,53.289l.154.239-1.224.785c-9.47,6.071-10.3,20.87-4.728,29.569l48.368,76.38,1.927,3.006A229.751,229.751,0,0,1-39.7,469.16L18.369,574.832l.477.745-.213.137c1.932,5.18,25.2,41.122,29.179,45.1l.266-.171.529.825,72.276,97.161c1.415,1.27,4.355,5.5,13.238,18.539,1.705,2.661,3.544,5.235,3.69,5.4l.187.292c5.389,8.406,18.476,13.3,28.026,7.181l108-60.459,1.011-.648.119.186c3.228-1.582,15.626-9.117,27.783-16.911l.852,1.33Zm-.088-.019c-12.263,7.862-28.588,17.878-29.1,17.378l-107.8,60.6c-9.922,6.361-24.16,1.6-30.129-7.71-.525-.526-16.249-24.115-16.978-24.023L47.5,622.67c-1.829.309-31.391-45.45-30.512-47.065L-41.241,469.851c.327-.66-14.471-24.5-14.776-25.1l-48.317-76.3c-6.327-9.869-4.664-25.424,5.205-31.751-.529-.825,42.158-28.68,82.167-54.331,34.768-22.29,67.552-42.933,68.391-42.8,13.593-8.715,35.654-14,48.679-17.4,2.422-.614,4.845-1.342,7.189-2.019,15.219-4.539,36.711-10.361,51.193-7.971a91.35,91.35,0,0,1,50.564,26.175,208.147,208.147,0,0,1,26.23,34.532l24.029,40a118.393,118.393,0,0,1,13.434,30.087,82.389,82.389,0,0,1,3.087,29.288c-3.043,16.214-8.784,31.907-22.534,44.476a.532.532,0,0,0-.145.319.537.537,0,0,0,.707.559c37.76-9.194,71.965,4.873,93.983,39.215l17.325,25.678,3.548,5.533c19.2,31.119,25.477,60.464,17.528,87.819-3.13,13.267-16.7,30.152-25.986,41.434-2.544,3.057-5.1,6.272-7.619,9.426-8.534,10.577-21.882,29.043-35.448,37.741a142.071,142.071,0,0,1-13.355,9.087Z" fill="#4317ad"/>
    <path id="Path_1935" data-name="Path 1935" d="M294.877,670.705l-.853-1.33c7.98-5.116,11.465-7.35,12.279-8.247l.133-.086.585-.375c10.641-6.822,21.277-20.735,29.005-30.87l4.773-6.138,1.166-1.46,6.275-7.777c9.1-11.276,22.633-27.46,25.644-39.976,7.546-25.407,1.914-53.514-16.682-83.631l-1.962-3.06-1.432-2.234-16.824-24.836c-20.738-32.347-53.3-45.964-89.257-37.29a2.117,2.117,0,0,1-1.934-3.6c13.91-12.672,18.542-29.041,21-41.953a80.591,80.591,0,0,0-3.08-27.754,113.74,113.74,0,0,0-12.789-28.848l-23.182-38.851c-6.447-10.055-16.042-24.436-25.087-33.276A86.843,86.843,0,0,0,154.513,224.2c-14.241-2.13-37.1,4.718-49.369,8.417-2.864.86-5.057,1.479-7.118,2.011l-4.262,1.081c-12.609,3.167-31.61,7.954-43.1,15.322l-.532.341-.085-.133c-3.554,1.716-31.168,19.007-65.4,40.956-41.153,26.384-72.908,47.344-78.066,51.476l.2.32-1.224.784c-9.071,5.816-9.827,20.151-4.387,28.637l46.909,74.163,1.842,2.873c9.154,15.038,11.9,19.733,12.5,21.6L17.7,574.733l.461.719-.239.153c1.769,4.984,24.339,39.836,28.268,43.623l.266-.17.529.824,70.69,93.224c1.364,1.19,4.211,5.22,12.95,17.973,1.7,2.66,3.4,4.952,3.6,5.2l.17.266c5.117,7.98,18.029,12.839,27.064,7.084L266.01,685.984l.985-.631.119.186c3.165-1.5,15.154-8.739,26.859-16.243l.853,1.33Zm-.051-.079c-11.838,7.589-27.648,17.237-28.157,16.737L162.1,744.983c-9.55,6.123-23.385,1.405-29.15-7.587-.542-.553-15.764-23.3-16.546-23.174l-70.5-93.158c-2,.341-30.525-43.865-29.6-45.584L-39.3,472.77c.381-.694-13.846-23.7-14.2-24.376l-46.857-74.083c-6.106-9.523-4.606-24.748,4.864-30.82-.563-.878,40.573-27.814,79.146-52.543,33.545-21.507,65.2-41.39,66.128-41.233,13.061-8.374,35.266-13.376,47.814-16.579,2.378-.623,4.774-1.334,7.075-2.021,14.62-4.419,36.014-10.627,50.061-8.448A87.973,87.973,0,0,1,203.743,248a207.665,207.665,0,0,1,25.275,33.568l23.216,38.9A115.109,115.109,0,0,1,265.192,349.7a82.569,82.569,0,0,1,3.174,28.369c-2.936,15.62-8.2,30.892-21.348,42.814a.506.506,0,1,0,.546.851c36.118-8.592,69.445,5.1,90.644,38.166L355,484.683l3.411,5.32c18.579,30.092,24.681,58.461,16.888,84.889-3.068,12.778-16.85,29.571-25.878,40.314-2.481,2.98-4.984,6.16-7.441,9.237-8.072,10.242-21.1,29.03-34.188,37.421a116.566,116.566,0,0,1-13.045,8.927Z" fill="#4317ad"/>
    <path id="Path_1936" data-name="Path 1936" d="M285.8,667.782l-.853-1.331c7.768-4.98,10.99-7.271,11.863-8.018l.612-.392c9.842-6.31,20.053-19.951,27.532-29.888,1.894-2.491,3.646-4.853,5.171-6.806l.266-.171c2.341-2.965,4.744-6.007,7.127-8.848l1.236-1.468c8.474-10.2,21.56-25.8,24.262-37.213,7.424-24.428,1.993-51.576-16.052-80.658l-1.859-2.9-1.416-2.208-16.313-23.923c-20.074-31.31-51.508-44.451-86.246-36.106a2.085,2.085,0,0,1-1.917-3.575c13.026-11.767,17.392-27.029,19.928-40.4a80.263,80.263,0,0,0-3.113-26.869,110.587,110.587,0,0,0-12.3-27.963l-22.378-37.715c-6.822-10.641-15.888-24.2-24.122-32.355a82.787,82.787,0,0,0-46.57-24.045c-13.086-1.969-34.055,4.492-47.911,8.758l-.239.154c-2.724.845-4.944,1.48-6.978,2l-5.318,1.308c-12.176,2.964-30.558,7.429-41.225,14.268l-.505.324C44.972,263.347,18.3,280-14.634,301.111c-39.556,25.36-70.1,45.579-75.035,49.645l.17.266-1.224.785c-8.592,5.509-9.24,19.662-4.072,27.722l45.148,71.651,1.705,2.66c8.991,14.843,11.592,19.368,12.121,21.131l52.843,99.636.46.718-.266.171c1.629,5,23.345,38.521,27.313,42.133l.319-.205.512.8,68.873,89.51c1.312,1.11,4.049,4.911,12.695,17.46,1.6,2.5,3.29,4.722,3.487,4.971l.171.266c4.98,7.768,17.412,12.522,26.11,6.945l101.144-54.823,1.011-.648.12.186c3.1-1.426,14.709-8.38,25.961-15.594l.836,1.3Zm-.027.017c-11.465,7.35-26.84,16.682-27.25,16.044L157.487,738.782c-9.177,5.884-22.634,1.111-28.177-7.534-.586-.563-15.306-22.468-16.158-22.335l-68.7-89.585c-2.093.366-29.642-42.254-28.619-44.111L-37.146,475.6c.39-.738-13.254-22.957-13.645-23.683l-45.416-71.892c-5.867-9.151-4.6-24.038,4.55-29.9-.6-.931,39.033-26.939,76.115-50.713C16.753,278.7,47.31,259.558,48.28,259.724c12.556-8.049,34.922-12.742,47-15.795,2.342-.563,4.668-1.267,6.924-1.962,14.05-4.316,35.362-10.885,48.912-8.837a83.955,83.955,0,0,1,47.429,24.507c8.244,8.115,16.961,21.068,24.363,32.614l22.4,37.741a112.085,112.085,0,0,1,12.483,28.369,82.175,82.175,0,0,1,3.137,27.492c-2.829,15.026-7.643,29.824-20.419,41.393a.505.505,0,0,0,.528.825c34.711-8.328,67.414,4.976,87.811,36.791l16.28,23.871,3.326,5.187c17.948,29.107,23.988,56.5,16.124,82-2.883,12.246-17.1,28.83-25.865,39.1-2.428,2.946-4.868,6.049-7.272,9.091-7.692,10.074-20.5,29.094-33.053,37.144a107.347,107.347,0,0,1-12.59,8.523Z" fill="#4317ad"/>
    <path id="Path_1937" data-name="Path 1937" d="M276.877,665.054l-.853-1.33c7.475-4.793,10.522-7.008,11.421-7.772l.03-.245.612-.393c9.231-5.918,18.98-19.224,26.1-28.967,2.012-2.716,3.872-5.26,5.5-7.282,2.413-3.086,4.78-6.068,7.216-8.943l2.114-2.557c8.283-9.739,20.714-24.54,23.277-35,7.433-23.534,1.992-49.586-15.413-77.727-.545-.852-1.142-1.783-1.705-2.661l-1.416-2.208L317.966,466.91c-19.1-29.794-50.257-42.851-83.244-34.877a2.054,2.054,0,0,1-1.883-3.523c12.154-11.019,16.255-25.172,18.841-38.879a80.729,80.729,0,0,0-3.13-25.958,107.241,107.241,0,0,0-11.865-27.113l-21.5-36.586a201.319,201.319,0,0,0-23.227-31.428,79,79,0,0,0-44.919-23.226c-11.952-1.722-31.7,4.481-44.805,8.568l-2.169.715c-2.644.794-4.82,1.439-6.871,1.928s-3.918.973-6.18,1.485c-11.786,2.752-29.576,6.913-39.525,13.291l-.505.324-.16.1c-3.393,1.5-29.082,17.519-60.738,37.814-37.987,24.355-67.331,43.806-72.092,47.8l.2.319-1.33.853c-8.22,5.27-8.763,18.943-3.731,26.79l44.025,69.781,1.706,2.66c8.716,14.531,11.154,18.861,11.649,20.571L16.385,574.49l.443.692-.164.33c1.439,4.821,22.483,37.235,26.341,40.617l.422-.045.495.772,66.883,85.529c1.322,1.067,4.1,4.877,12.461,16.86,1.535,2.394,3.144,4.553,3.324,4.775l.1.16c4.707,7.342,16.92,12.048,25.157,6.8l97.885-51.945.984-.631.136.213c2.933-1.28,14.238-8,25.065-14.944l.853,1.33Zm-.1-.046c-11.066,7.1-25.793,15.974-26.4,15.384l-97.605,52.03c-8.8,5.645-21.9.975-27.217-7.325-.637-.642-14.854-21.706-15.76-21.538L42.677,617.842c-2.233.38-28.777-40.67-27.707-42.632l-50.312-96.566c.4-.782-12.733-22.2-13.131-23L-92.43,385.971C-98.058,377.192-97,362.625-88.221,357c-.648-1.011,37.385-25.995,73.138-48.917,31.044-19.9,60.431-38.293,61.471-38.134,12.077-7.743,34.568-12.065,46.181-14.968,2.3-.573,4.572-1.242,6.784-1.948,13.451-4.194,34.777-11.035,47.667-9.315A80.1,80.1,0,0,1,192.9,267.336c7.871,7.828,16.373,20.62,23.468,31.686l21.538,36.639a109.276,109.276,0,0,1,12.034,27.494,81.711,81.711,0,0,1,3.153,26.58c-2.722,14.432-7.089,28.756-19.455,39.912a.508.508,0,0,0-.022.577.506.506,0,0,0,.534.221c33.585-8.094,65.37,5.009,84.983,35.6l15.761,23,3.206,5c17.433,28.011,23.184,54.428,15.565,79.019-2.68,11.627-17.236,28.091-25.6,37.995-2.409,2.859-4.822,5.945-7.163,8.909-7.437,9.535-19.889,28.93-31.966,36.673a91.539,91.539,0,0,1-12.063,8.409Z" fill="#4317ad"/>
    <path id="Path_1938" data-name="Path 1938" d="M267.875,662.192l-.853-1.33a130.675,130.675,0,0,0,10.995-7.5l.057-.262.585-.375c8.646-5.543,18.058-18.672,24.722-28.124,1.944-2.823,3.922-5.592,5.689-7.814,2.251-2.869,4.664-5.955,7.073-8.814l2.946-3.427c7.993-9.253,20.051-23.29,22.33-33.084,7.17-22.539,2.2-47.689-14.755-74.771-.512-.8-1.075-1.675-1.706-2.66l-1.4-2.181L308.231,469.7c-18.419-28.73-48.4-41.3-80.241-33.649a2.054,2.054,0,0,1-1.866-3.5c10.718-9.687,14.882-21.928,17.769-37.329a79.8,79.8,0,0,0-3.119-25.064,104.908,104.908,0,0,0-11.492-26.414l-20.708-35.52c-7.368-11.492-15.168-23.307-22.315-30.474a75.392,75.392,0,0,0-43.471-22.315c-10.948-1.5-29.674,4.536-42.052,8.53l-3.711,1.179c-2.557.813-4.777,1.448-6.758,1.93l-6.936,1.594c-11.889,3.118-28.573,6.72-37.83,12.655l-.505.324-.245-.031C41.438,283.067,16.7,298.4-13.68,317.878c-36.391,23.331-64.5,42.068-69.062,45.966l.2.319-1.224.785c-7.635,4.895-8.261,18.321-3.417,25.876l42.539,67.58,1.552,2.421c8.46,14.132,10.8,18.373,11.238,20.046l47.588,93.546.443.692-.19.347c1.281,4.809,21.49,35.919,25.429,39.137l.431-.089.495.772,65.225,81.713c1.3.969,3.907,4.514,12.173,16.293,1.466,2.288,3.034,4.323,3.231,4.572l.171.266c4.571,7.129,16.357,11.7,24.231,6.649l94.285-49.188.984-.631.154.24c2.933-1.28,13.812-7.73,24.107-14.33l.853,1.33Zm-.114,0c-10.641,6.822-24.88,15.35-25.5,14.735l-94.178,49.118c-8.459,5.424-21.208.76-26.308-7.193-.654-.67-14.335-20.838-15.3-20.707l-65.4-81.935c-2.374.4-27.938-39.068-26.8-41.151L-33.4,481.562c.453-.816-12.125-21.43-12.557-22.279l-42.5-67.457c-5.389-8.406-4.538-22.652,3.894-28.058-.665-1.038,35.791-25.086,70.107-47.087,29.82-19.118,58.08-36.748,59.154-36.536,11.572-7.419,34.206-11.458,45.394-14.089,2.254-.582,4.5-1.234,6.661-1.906,12.88-4.09,33.952-11.444,46.333-9.7a76.385,76.385,0,0,1,44.331,22.777c7.526,7.524,15.665,19.986,22.487,30.626l20.708,35.52A106.272,106.272,0,0,1,242.2,370.037a81.546,81.546,0,0,1,3.169,25.669c-2.588,13.82-6.508,27.67-18.278,38.293a.479.479,0,0,0-.122.28.469.469,0,0,0,.073.3.473.473,0,0,0,.544.2c32.159-7.743,63.267,5.006,82.027,34.268l15.3,22.1,3.07,4.788c16.881,26.975,22.377,52.467,14.994,76.081-2.664,11.242-17.567,27.516-25.635,37-2.372,2.8-4.723,5.806-7.01,8.737-7.08,9.156-19.24,28.888-30.812,36.307a85.455,85.455,0,0,1-11.637,8.136Z" fill="#4317ad"/>
    <path id="Path_1939" data-name="Path 1939" d="M258.888,659.358l-.853-1.33a107.008,107.008,0,0,0,10.552-7.253l.041-.289.585-.375c8.113-5.2,16.977-18.016,23.455-27.349,2.24-3.238,4.175-6.017,5.951-8.282,2.046-2.663,4.459-5.749,6.921-8.641l3.634-4.169c7.791-8.749,19.541-22.213,21.621-31.2,7.014-21.613,2.257-45.776-14.115-71.84-.477-.745-1.006-1.569-1.535-2.394s-.972-1.516-1.381-2.155l-14.81-21.284c-17.481-27.267-47.061-39.682-77.133-32.489a1.961,1.961,0,0,1-2.269-1.023,2.022,2.022,0,0,1,.421-2.446c11.03-9.962,14.3-23.131,16.715-35.753a80.465,80.465,0,0,0-3.186-24.233,101.334,101.334,0,0,0-10.958-25.4l-19.827-34.321-.17-.266c-6.345-9.9-14.258-22.239-21.223-29.3a71.2,71.2,0,0,0-42.256-21.18c-10.065-1.354-27.216,4.387-39.614,8.469L94.472,276.5c-2.486.806-4.636,1.433-6.617,1.915l-7.5,1.654C68.6,282.58,52.482,286.008,43.81,291.568l-.505.324-.245-.031c-3.25,1.371-27.022,16.048-56.124,34.706-34.795,22.308-61.72,40.321-66.058,44.153l.222.345-1.2.768c-7.289,4.673-7.783,17.6-3.076,24.944l41.08,65.363,1.5,2.341c8.195,13.777,10.392,17.848,10.715,19.4l44.9,90.352.444.691-.2.391c1.118,4.613,20.654,34.616,24.484,37.6l.346-.222.512.8,63.564,78.011c1.29.9,3.851,4.25,11.956,15.72,1.4,2.181,2.9,4.11,3.1,4.359l.187.293c4.4,6.863,15.707,11.325,23.279,6.508l90.85-46.347.985-.631.17.266A262.223,262.223,0,0,0,257.9,658l.852,1.33Zm-.131-.029c-10.268,6.584-23.938,14.71-24.726,14.126l-90.613,46.308c-7.98,5.116-20.45.537-25.311-7.045-.688-.722-13.928-20.085-14.9-19.91L39.5,614.585c-2.5.437-27.055-37.457-25.9-39.7l-45.015-90.353c.489-.877-11.55-20.709-12.026-21.568l-41.028-65.283c-5.116-7.981-4.463-21.95,3.571-27.1-.716-1.118,34.207-24.221,67.086-45.3,28.6-18.334,55.73-35.2,56.874-35,11.066-7.094,33.862-10.824,44.463-13.492,2.192-.5,4.395-1.166,6.511-1.846,12.346-4.162,33.361-11.78,45.237-10.235a72.1,72.1,0,0,1,42.872,22.023c7.181,7.22,15.1,19.633,21.617,29.8l19.929,34.481a103.5,103.5,0,0,1,11.127,25.785A81.552,81.552,0,0,1,238,401.552c-2.481,13.227-5.955,26.6-17.217,36.787a.444.444,0,0,0-.112.26.444.444,0,0,0,.29.452.449.449,0,0,0,.283.007c30.8-7.4,61,5.106,78.945,33.091l14.776,21.231,2.95,4.6c16.3,25.957,21.677,50.439,14.284,73.158-2.542,10.789-17.775,26.9-25.536,35.928-2.337,2.737-4.651,5.685-6.886,8.581-6.705,8.8-18.608,28.821-29.567,35.848a70.187,70.187,0,0,1-11.178,7.916Z" fill="#4317ad"/>
    <path id="Path_1940" data-name="Path 1940" d="M249.031,655.168a98.721,98.721,0,0,0,10.126-6.98l.04-.289.612-.392c7.555-4.844,16.029-17.446,22.207-26.662,2.269-3.369,4.147-6.412,5.831-8.468s4.281-5.559,6.8-8.486c1.2-1.407,2.621-2.995,4.186-4.711,7.5-8.561,18.98-21.214,20.971-29.585,6.89-20.633,2.353-43.811-13.485-68.866l-1.45-2.261-1.347-2.1-14.317-20.4c-16.8-26.2-45.222-38.159-74.228-31.236a2.021,2.021,0,0,1-2.269-1.022,1.988,1.988,0,0,1,.411-2.4c10.184-9.232,13.225-21.467,15.6-34.213a81.308,81.308,0,0,0-3.081-23.249,97.96,97.96,0,0,0-10.5-24.573L196.13,326.113,194.9,324.2A189.155,189.155,0,0,0,175.649,297.5a67.654,67.654,0,0,0-40.33-20.575c-9.262-1.157-25.49,4.443-37.362,8.526L91.8,287.563a59.952,59.952,0,0,1-6.361,1.788c-1.821.379-4.875,1.061-7.99,1.706-11.436,2.3-27.113,5.484-35.2,10.669l-.452.29-.262-.057c-3.187,1.292-25.975,15.339-53.8,33.178-33.225,21.3-58.954,38.547-63.008,42.235l.239.373-1.224.784c-6.81,4.366-7.2,17.043-2.735,24.012l39.637,63.172,1.381,2.155c8.049,13.608,10.022,17.447,10.345,19l41.985,87.267.426.665-.323.432c.972,4.444,19.809,33.357,23.529,36.114l.5-.1.495.771,61.751,74.069c1.256.847,3.741,4.02,11.616,15.074a45.487,45.487,0,0,0,2.985,4.13l.205.319c4.23,6.6,15.3,10.871,22.166,6.471l.159-.1,87.443-43.525.958-.614.171.266a230.782,230.782,0,0,0,22.3-13.056Zm.557,1.219c-9.87,6.328-23.008,14.113-23.723,13.408L138.65,713.323c-7.688,4.929-19.693.314-24.332-6.922-.732-.732-13.443-19.27-14.489-19.087l-61.974-74.3c-2.611.436-26.138-35.792-24.929-38.181L-29.47,487.453c.5-.92-10.986-19.945-11.468-20.874l-39.62-63.145c-4.929-7.688-4.449-21.284,3.212-26.195-.75-1.171,32.63-23.285,64.126-43.478,27.32-17.515,53.309-33.651,54.541-33.428,10.641-6.822,33.474-10.2,43.693-12.585,2.148-.514,4.325-1.159,6.344-1.815,11.761-3.787,32.692-12.064,44.088-10.624a68.573,68.573,0,0,1,41.233,21.048c6.792,6.906,14.48,19.131,20.705,28.841l19.03,33.254a100.034,100.034,0,0,1,10.634,24.9,82.955,82.955,0,0,1,3.219,23.873c-2.305,12.739-5.4,25.533-16.145,35.237a.411.411,0,0,0,.134.747.406.406,0,0,0,.309-.055c29.3-7,58.794,5.172,75.917,31.88l14.254,20.477,2.831,4.416c15.736,24.895,20.907,48.417,13.576,70.121-2.253,10.3-17.816,26.249-25.1,34.858-2.317,2.649-4.578,5.563-6.706,8.391-6.4,8.458-17.959,28.78-28.519,35.551a66.348,66.348,0,0,1-10.779,7.66Z" fill="#4317ad"/>
    <path id="Path_1941" data-name="Path 1941" d="M240.1,652.3a86.639,86.639,0,0,0,9.684-6.734l.067-.306.532-.341c7.076-4.536,15.143-16.953,20.905-25.939,2.307-3.544,4.307-6.515,5.925-8.791a106.446,106.446,0,0,1,6.671-8.331c1.289-1.5,2.907-3.252,4.677-5.175,7.367-8.064,18.542-20.258,20.338-28.054,6.778-19.7,2.459-41.89-12.8-65.926l-1.347-2.1c-.461-.719-.938-1.464-1.331-2.075l-13.8-19.531c-15.895-24.793-43.839-36.53-71.218-29.938a1.99,1.99,0,0,1-1.814-3.416c10.068-9.12,12.43-21.6,14.557-32.68a81.753,81.753,0,0,0-3.123-22.434,96.237,96.237,0,0,0-10-23.618l-18.149-32.055-2.1-3.272a169.577,169.577,0,0,0-17.488-24.409,62.887,62.887,0,0,0-38.848-19.612c-8.511-1.037-23.993,4.5-35.285,8.546l-6.916,2.445c-2.363.764-4.443,1.384-6.344,1.815s-5.1,1.057-8.436,1.654c-11.144,2.115-26.422,5.041-33.95,9.867l-.505.325-.288-.041c-2.7,1.056-21.3,12.268-51.44,31.591-31.629,20.278-56.127,36.809-60.084,40.473l.256.4-1.224.784c-6.464,4.144-6.779,16.358-2.447,23.115l38.154,60.857,1.262,1.969c7.739,13.243,9.679,17.029,9.941,18.55l39.589,84,.426.665-.226.408c.788,4.449,18.8,32.014,22.583,34.58l.366.1.478.745,60.1,70.323c1.231.749,3.658,3.773,11.44,14.624a38.317,38.317,0,0,0,2.876,3.9l.17.266c3.991,6.225,14.776,10.459,21.213,6.332l.16-.1L217.3,665.039l.958-.614.188.293A199.447,199.447,0,0,0,240.1,652.3Zm.853,1.33c-9.443,6.054-22.084,13.445-22.8,12.74L134.064,707.1c-7.342,4.707-18.962.108-23.4-6.809-.793-.768-12.985-18.438-14.084-18.221l-60.338-70.7c-2.735.477-25.333-34.244-24-36.675l-39.723-84.324c.508-.964-10.438-19.208-10.938-20.164L-76.57,409.36c-4.69-7.316-4.374-20.581,2.942-25.271-.785-1.224,31.019-22.4,61.078-41.673,26.1-16.731,50.958-32.108,52.234-31.875C49.739,304.1,72.83,301,82.555,298.783a60.569,60.569,0,0,0,6.31-1.868c11.155-3.736,32.022-12.347,42.877-11.049a64.75,64.75,0,0,1,39.688,20.161c6.464,6.629,13.865,18.7,19.783,27.93L209.4,366.066a97.318,97.318,0,0,1,10.2,24.051,83.189,83.189,0,0,1,3.235,22.962c-2.283,12.012-4.847,24.465-15.084,33.731a.414.414,0,0,0-.038.494.415.415,0,0,0,.2.163.409.409,0,0,0,.261.008c27.993-6.686,56.507,5.061,72.9,30.625l13.72,19.469,2.729,4.256c15.264,23.808,20.153,46.423,13.084,67.246-2.323,9.784-18.26,25.557-25.348,33.705-2.308,2.606-4.506,5.442-6.581,8.236-6.071,8.095-17.309,28.739-27.365,35.185a60.66,60.66,0,0,1-10.282,7.381Z" fill="#4317ad"/>
    <path id="Path_1942" data-name="Path 1942" d="M231.841,650.836l-.853-1.33a80.478,80.478,0,0,0,9.285-6.478l.05-.332.611-.392c6.6-4.23,14.285-16.478,19.9-25.406,2.283-3.64,4.276-6.795,5.9-9,2.444-3.331,4.525-5.941,6.5-8.185,1.4-1.57,3.12-3.389,5.1-5.519,7.247-7.724,18.167-19.379,19.818-26.406,6.7-18.822,2.511-39.934-12.188-62.979L284.7,502.84l-1.3-2.022L270.1,482.173a63.893,63.893,0,0,0-68.19-28.727,1.928,1.928,0,0,1-2.226-1.012,1.9,1.9,0,0,1,.419-2.333c9.186-8.33,11.319-19.757,13.419-30.825l.05-.332a81.735,81.735,0,0,0-3.165-21.506,92.4,92.4,0,0,0-9.546-22.97l-17.3-30.909-2.8-4.363a156.67,156.67,0,0,0-15.877-22.364,59.57,59.57,0,0,0-37.188-18.837c-7.838-.867-22.628,4.636-33.411,8.659-2.788,1.037-5.427,2.015-7.605,2.774a57.459,57.459,0,0,1-6.326,1.841c-2.245.538-5.243,1.072-8.648,1.791-10.895,1.918-25.817,4.578-32.813,9.064l-.505.324-.315-.023c-2.638.978-20.43,11.634-49.133,30.036-30.033,19.255-53.316,35.045-57.07,38.616l.273.426-1.33.852c-5.959,3.821-6.251,15.719-2.106,22.183L-34.563,473.3l1.194,1.862c7.484,12.844,9.3,16.558,9.469,17.989l36.874,80.934.426.665-.253.425c.625,4.254,17.919,30.7,21.56,32.985l.6-.121.478.745,58.3,66.521c1.224.679,3.548,3.543,11.161,14.014A34.978,34.978,0,0,0,108,693.034l.187.293c3.837,5.985,14.035,10.182,20.26,6.192l.16-.1,80.584-37.888.931-.6.187.293a173.861,173.861,0,0,0,20.432-11.748l.853,1.33Zm-.245-.03c-9.044,5.8-21.126,12.831-21.875,12.073L129.382,700.8c-7,4.485-18.248-.125-22.443-6.669-.827-.822-12.517-17.65-13.694-17.5L34.626,609.791c-2.875.492-24.467-32.66-23.063-35.212L-25.55,493.273c.561-1-9.829-18.435-10.449-19.576l-36.685-58.684c-4.451-6.943-4.3-19.764,2.669-24.233-.819-1.277,29.425-21.492,58.048-39.843C12.906,334.991,36.658,320.4,37.987,320.6c9.55-6.123,32.792-8.862,42.034-10.958a55.312,55.312,0,0,0,6.08-1.759c10.6-3.6,31.4-12.621,41.693-11.49a61.368,61.368,0,0,1,38.161,19.3c6.092,6.341,13.216,18.214,18.844,26.993l17.354,30.989a95.732,95.732,0,0,1,9.753,23.175,86.124,86.124,0,0,1,3.225,22.068c-2.15,11.4-4.293,23.4-14.013,32.182a.4.4,0,0,0-.073.226.41.41,0,0,0,.482.412,65.061,65.061,0,0,1,69.895,29.4l13.124,18.537c.818,1.277,1.807,2.82,2.609,4.07,14.616,22.8,19.383,44.4,12.321,64.357-2.2,9.331-18.486,24.914-25.267,32.6-2.149,2.5-4.417,5.347-6.439,8.107-5.521,7.781-16.517,28.569-26.067,34.692a53.392,53.392,0,0,1-9.946,7.2Z" fill="#4317ad"/>
    <path id="Path_1943" data-name="Path 1943" d="M222.889,648.055l-.853-1.33a70.451,70.451,0,0,0,8.816-6.215l.076-.349.585-.375c6.145-3.94,13.428-16.116,18.818-24.864,2.285-3.755,4.254-7.006,5.826-9.178a96.209,96.209,0,0,1,6.462-7.9c1.422-1.588,3.289-3.535,5.477-5.8,7.083-7.393,17.828-18.561,19.355-25.02,6.5-17.792,2.59-38-11.6-60.128l-1.177-1.836-1.262-1.968L260.5,485.06a61.144,61.144,0,0,0-65.187-27.5,1.961,1.961,0,0,1-2.209-.986,1.925,1.925,0,0,1,.419-2.333c8.294-7.5,10.285-17.855,12.105-27.956l.31-1.625a84.833,84.833,0,0,0-3.13-20.514,90.947,90.947,0,0,0-9.144-21.99L177.21,352.394c-1.058-1.649-2.183-3.4-3.411-5.32a146.734,146.734,0,0,0-14.4-20.532,55.67,55.67,0,0,0-35.616-17.967c-7.218-.778-21.324,4.738-31.668,8.742-3,1.174-5.986,2.374-8.155,3.089a51.473,51.473,0,0,1-6.133,1.792c-2.235.495-5.365,1-8.969,1.584-10.655,1.764-25.205,4.186-31.723,8.364l-.505.324-.332-.05c-2.576.9-19.543,11.028-46.783,28.492-28.464,18.249-50.55,33.272-54.084,36.776l.29.453-1.224.784c-5.613,3.6-5.79,14.973-1.782,21.224l35.294,56.573,1.091,1.7c7.253,12.541,8.908,16.06,9.031,17.482L12.322,573.83l.409.638-.236.452c.452,4.1,17.064,29.485,20.758,31.734l.528-.113.611.659,56.589,62.739c1.19.627,3.482,3.323,10.9,13.431a32.955,32.955,0,0,0,2.637,3.527l.171.266c3.666,5.72,13.694,9.651,19.28,6.069l.186-.119,77.176-35.066.859-.475.205.319a150.383,150.383,0,0,0,19.562-11.115l.852,1.33Zm-.08.051c-8.672,5.56-20.239,12.225-21.022,11.413l-77.237,35.03c-6.6,4.229-17.472-.322-21.463-6.546-.844-.848-12.058-16.818-13.245-16.62L33.007,608.2c-3.016.507-23.655-31.041-22.151-33.731L-23.6,496.262c.571-1.042-9.264-17.671-9.833-18.733l-35.226-56.466c-4.23-6.6-4.311-19.195,2.26-23.407-.737-1.442,27.857-20.6,55.071-38.047,23.622-15.145,46.231-29,47.62-28.766,9.071-5.816,32.315-8.144,41.2-10.159a51.387,51.387,0,0,0,5.983-1.733c9.959-3.495,30.691-12.958,40.481-11.915a57.441,57.441,0,0,1,36.59,18.431c5.774,6.02,12.6,17.712,17.933,26.038L195,381.376a93.112,93.112,0,0,1,9.278,22.316,87.983,87.983,0,0,1,3.241,21.157c-2.043,10.806-3.713,22.311-12.857,30.764a.382.382,0,0,0-.091.221.378.378,0,0,0,.059.231.371.371,0,0,0,.186.15.38.38,0,0,0,.238.01,62.848,62.848,0,0,1,66.747,28l12.735,17.7,2.49,3.883c13.985,21.814,18.614,42.381,11.681,61.427C286.64,576.066,270,591.5,263.5,598.749a94.226,94.226,0,0,0-6.275,7.776c-5.424,7.231-16,28.614-25.072,34.429a46.541,46.541,0,0,1-9.261,7.1Z" fill="#4317ad"/>
    <path id="Path_1944" data-name="Path 1944" d="M213.789,645.219l-.853-1.33a61.4,61.4,0,0,0,8.373-5.969l.059-.376.612-.392c5.719-3.667,12.55-15.553,17.755-24.295,2.27-3.9,4.214-7.244,5.724-9.338a87.928,87.928,0,0,1,6.275-7.777c1.476-1.621,3.476-3.654,5.8-6.006,6.99-7.071,17.542-17.778,18.954-23.713,6.359-16.838,2.714-36.047-10.873-57.065l-1.109-1.729-1.211-1.888L251,488.449c-13.474-21.016-39.139-31.774-62.185-26.27a1.9,1.9,0,0,1-2.166-.977,1.928,1.928,0,0,1,.393-2.316c7.492-6.755,9.195-16.218,10.866-25.321l.505-2.726a89.9,89.9,0,0,0-3.215-19.71,88.205,88.205,0,0,0-8.736-21.237l-15.625-28.645-3.8-5.932a133.49,133.49,0,0,0-13.117-18.879,52.3,52.3,0,0,0-34.046-17.1c-6.606-.644-20.116,4.864-30,8.877-3.364,1.369-6.278,2.561-8.59,3.4a49.229,49.229,0,0,1-6.009,1.751c-2.226.451-5.442.937-9.161,1.519-10.3,1.5-24.671,3.731-30.71,7.6l-.506.324-.332-.049c-2.513.822-18.672,10.394-44.5,26.955-30.246,19.391-48.053,31.9-51.07,34.919l.307.478-1.224.785c-5.32,3.411-5.125,14.547-1.424,20.319l33.835,54.355.972,1.517c7,12.213,8.547,15.615,8.637,16.984l31.49,74.7.392.611-.263.469c.312,4.117,16.071,28.17,19.745,30.094l.572-.1.443.691L87.4,664.581c1.294.672,3.569,3.342,10.622,12.821a34.731,34.731,0,0,0,2.483,3.288l.171.266c3.513,5.48,13.051,9.349,18.345,5.955l.212-.136,73.725-32.252.99-.447.205.319a129.176,129.176,0,0,0,18.638-10.448l.853,1.33Zm-.15.058c-8.247,5.287-19.316,11.558-20.116,10.72l-73.752,32.269c-6.224,3.991-16.741-.527-20.527-6.433-.861-.874-11.573-16-12.83-15.8L31.343,606.6c-3.166.566-22.665-29.5-21.223-32.224l-31.806-75.137c.607-1.1-8.717-16.933-9.275-18.039l-33.715-54.169c-3.991-6.225-4.333-18.467,1.919-22.475-.887-1.383,26.263-19.691,51.907-36.131,22.4-14.361,43.88-27.457,45.34-27.23,8.539-5.474,32.077-7.577,40.374-9.331a48.7,48.7,0,0,0,5.914-1.84c9.4-3.364,30.049-13.259,39.3-12.357a53.715,53.715,0,0,1,35.036,17.588c5.411,5.689,11.989,17.237,17.02,25.084l15.579,28.749a95.847,95.847,0,0,1,12.1,41.713c-1.936,10.212-3.2,21.234-11.882,29.125a.353.353,0,0,0-.08.2.345.345,0,0,0,.054.21.353.353,0,0,0,.168.137.357.357,0,0,0,.217.011c23.8-5.728,50.094,5.419,63.891,26.94l12.242,16.812,2.371,3.7c13.354,20.829,17.86,40.387,11.174,58.412-2.114,8.412-18.953,23.6-25.132,30.413a89.919,89.919,0,0,0-6.275,7.777c-5,6.958-15.414,28.65-23.9,34.09a40.572,40.572,0,0,1-9.043,6.737Z" fill="#4317ad"/>
    <path id="Path_1945" data-name="Path 1945" d="M204.6,642.477l-.852-1.33a52.811,52.811,0,0,0,7.973-5.713l.059-.375.612-.393c5.321-3.411,11.912-15.144,16.713-23.814,2.218-3.975,4.155-7.394,5.612-9.454a77.84,77.84,0,0,1,6.116-7.674c1.475-1.622,3.581-3.723,6.079-6.15,6.906-6.792,17.283-17.011,18.573-22.493,6.3-16.165,2.947-33.869-10.233-54.134l-1.04-1.623c-.376-.585-.853-1.33-1.16-1.809l-11.775-16.024c-12.637-19.711-37.526-30.255-59.166-25.014a1.99,1.99,0,0,1-2.165-.977,1.9,1.9,0,0,1,.409-2.289c6.71-6.1,8.213-14.649,9.632-22.916l.652-3.609a94.458,94.458,0,0,0-3.334-18.957,84.4,84.4,0,0,0-8.219-20.256l-14.777-27.5-4.161-6.491a125.95,125.95,0,0,0-11.864-17.393,48.731,48.731,0,0,0-32.352-16.269c-6.056-.546-19.022,4.989-28.482,9.027-3.533,1.515-6.607,2.81-8.919,3.654a42.947,42.947,0,0,1-5.912,1.726c-2.156.443-5.46.91-9.3,1.42-10.167,1.413-24.147,3.319-29.707,6.884l-.505.324-.332-.05c-2.424.728-17.775,9.745-42.169,25.384-28.49,18.266-45.27,30.149-48.066,33.106l.324.505-1.224.785c-4.762,3.052-4.674,13.844-1.076,19.457l32.393,52.165.87,1.356c6.729,11.9,8.144,15.161,8.172,16.494l28.79,71.778.409.639-.262.468c.122,3.938,15.209,26.885,18.772,28.579l.6-.121.443.692,53.165,55.174c1.286.6,3.5,3.122,10.31,12.158a24.312,24.312,0,0,0,2.373,3.058l.188.293c3.291,5.134,12.453,8.944,17.348,5.806l.239-.153,70.412-29.34.98-.4.222.346a116.063,116.063,0,0,0,17.681-9.834l.852,1.33Zm-.08.051c-7.847,5.031-18.357,10.944-19.218,10.07l-70.238,29.378c-5.879,3.769-15.983-.751-19.513-6.257-.939-.937-11.217-15.33-12.416-14.975l-53.49-55.68c-3.359.615-21.862-27.836-20.312-30.744l-29.152-72.109c.617-1.146-8.108-16.16-8.728-17.3l-32.324-52.058c-3.752-5.852-4.248-17.808,1.6-21.56-.938-1.463,24.652-18.808,49.019-34.43,21.281-13.644,41.5-25.9,43.033-25.675,7.98-5.117,31.723-6.9,39.562-8.549a37.447,37.447,0,0,0,5.692-1.66c8.84-3.19,29.379-13.542,38.087-12.782a50.374,50.374,0,0,1,33.492,16.7c5.057,5.429,11.358,16.779,16.1,24.174l14.845,27.6a87.1,87.1,0,0,1,8.354,20.582,94.232,94.232,0,0,1,3.078,19.5c-1.8,9.6-2.622,20.148-10.81,27.575a.316.316,0,1,0,.341.532c22.4-5.393,47.842,5.362,60.889,25.712l11.723,15.944c.682,1.064,1.729,2.345,2.394,3.382,12.723,19.845,17.107,38.392,10.4,55.566-1.876,7.847-19.114,22.878-25.033,29.337a79.986,79.986,0,0,0-5.982,7.589c-4.573,6.685-14.7,28.532-22.736,33.682a37.706,37.706,0,0,1-8.644,6.481Z" fill="#4317ad"/>
    <path id="Path_1946" data-name="Path 1946" d="M194.6,638.415a45.555,45.555,0,0,0,7.5-5.449l.069-.419.612-.393c4.841-3.1,11.193-14.683,15.713-23.324,2.167-4.054,4.053-7.553,5.447-9.535a71.9,71.9,0,0,1,5.956-7.572c1.466-1.578,3.722-3.738,6.343-6.207,6.8-6.5,17.061-16.3,18.246-21.306,6.162-15.212,3.008-31.958-9.6-51.161l-.955-1.489-1.126-1.756-11.35-15.245c-11.836-18.461-35.995-28.685-56.181-23.813a1.924,1.924,0,0,1-2.121-.967,1.864,1.864,0,0,1,.382-2.272c6.041-5.449,7.275-13.185,8.478-20.675l.769-4.246a98.317,98.317,0,0,0-3.238-17.931,83.269,83.269,0,0,0-7.787-19.406L157.828,378.9c-1.331-2.075-2.831-4.415-4.258-6.992A116.538,116.538,0,0,0,142.821,355.9a45.314,45.314,0,0,0-30.9-15.358c-5.4-.289-17.929,5.114-26.987,9.194-3.719,1.634-6.918,3.084-9.23,3.928a38.42,38.42,0,0,1-5.772,1.712c-2.129.426-5.511.83-9.438,1.321-9.4,1.146-23.622,2.908-28.756,6.2l-.505.324-.376-.059c-2.344.677-16.888,9.138-39.819,23.84-26.6,17.054-42.5,28.375-45.1,31.239l.341.532-1.224.784c-4.629,2.968-3.848,13.728-.8,18.49l30.8,49.848.767,1.2c6.464,11.546,7.749,14.663,7.734,15.986l26.329,68.7.392.612-.263.468c-.05,3.786,14.337,25.642,17.818,27.089l.615-.094.586.562,51.522,51.5c1.313.585,3.539,3.061,10.082,11.628,1.02,1.3,2.03,2.64,2.254,2.872l.171.266c3.087,4.815,11.916,8.575,16.412,5.693l.266-.171,66.811-26.468,1-.376.221.346a102.414,102.414,0,0,0,16.678-9.116Zm.7,1.5c-7.475,4.793-17.443,10.32-18.321,9.419l-66.758,26.434c-5.506,3.531-15.269-.983-18.595-6.17-.956-.964-10.647-14.382-12-14.152L27.678,603.7c-3.393.562-21-26.251-19.373-29.281l-26.534-69.021c.653-1.207-7.534-15.439-8.17-16.608L-57.281,438.92c-3.513-5.48-4.19-17.132,1.29-20.646-.972-1.516,23.075-17.871,46.032-32.59,19.925-12.774,39.109-24.36,40.806-24.172,7.555-4.843,31.378-6.267,38.724-7.748a35.423,35.423,0,0,0,5.525-1.628c8.285-3.06,28.683-13.809,36.9-13.224a46.738,46.738,0,0,1,31.938,15.859c4.721,5.081,10.735,16.276,15.187,23.219l14,26.46a82.8,82.8,0,0,1,7.9,19.749,101.076,101.076,0,0,1,3.44,18.364c-1.722,9.024-2.1,19.1-9.633,25.957a.316.316,0,0,0,.13.494.322.322,0,0,0,.194.012c20.978-5.042,45.632,5.427,57.878,24.527l11.213,15.032c.631.984,1.661,2.238,2.275,3.2,12.3,18.724,16.336,36.371,9.76,52.636-1.744,7.349-19.49,22.292-24.952,28.234a74.084,74.084,0,0,0-5.8,7.47c-4.31,6.216-14.07,28.463-21.6,33.29a32.6,32.6,0,0,1-8.185,6.261Z" fill="#4317ad"/>
    <path id="Path_1947" data-name="Path 1947" d="M185.41,635.674a44.731,44.731,0,0,0,7.1-5.15l.078-.463.585-.375c4.312-2.877,10.477-14.337,14.777-22.911a105.936,105.936,0,0,1,5.149-9.533,64.636,64.636,0,0,1,5.823-7.486c1.43-1.518,3.783-3.7,6.511-6.239,6.825-6.215,16.931-15.51,18.152-20.046,5.934-14.164,3.238-30.077-8.946-48.2l-.886-1.384a15.635,15.635,0,0,1-1.075-1.676L221.9,497.982c-11.035-17.211-34.393-27.122-53.179-22.585a1.863,1.863,0,0,1-2.078-.957,1.9,1.9,0,0,1,.356-2.255c5.381-4.839,6.382-11.825,7.38-18.582.23-1.574.479-3.235.7-4.765A113.425,113.425,0,0,0,171.7,431.86a80.641,80.641,0,0,0-7.328-18.574l-13.168-25.339c-1.331-2.075-2.917-4.549-4.392-7.319a109.681,109.681,0,0,0-9.677-14.742,41.963,41.963,0,0,0-29.315-14.461c-5.026-.344-16.933,5.263-25.622,9.332-3.828,1.816-7.16,3.352-9.455,4.222a34.4,34.4,0,0,1-5.648,1.67c-2.032.4-5.475.77-9.436,1.207-9.247.974-23.185,2.478-27.894,5.5l-.532.341-.376-.06c-2.308.616-16.763,8.983-37.512,22.286-24.979,16.014-39.676,26.638-42.083,29.382l.375.585-1.224.785c-4.2,2.694-3.354,13.035-.472,17.531l29.465,47.773.648,1.011c6.216,11.217,7.362,14.235,7.287,15.522l23.713,65.5.375.585L9,574.981c-.2,3.616,13.5,24.337,16.9,25.538l.722-.163.392.612,49.8,47.76c1.349.524,3.517,2.851,9.848,11.028.952,1.192,1.945,2.507,2.118,2.659l.136.213c2.644,4.123,11.123,8.333,15.459,5.553l.133-.085,63.538-23.844.971-.36.221.346a87.555,87.555,0,0,0,15.87-8.561Zm.555,1.334c-7.05,4.519-16.5,9.679-17.425,8.769l-63.555,23.817c-5.134,3.292-14.538-1.189-17.642-6.03-.973-.991-10.162-13.567-11.586-13.33L25.989,602.116c-3.544.62-20.114-24.641-18.418-27.792l-23.889-65.949c.662-1.251-6.969-14.676-7.613-15.915l-29.44-47.676c-3.275-5.107-4.168-16.4.966-19.687-1.023-1.6,21.464-16.989,42.984-30.786C9.2,382.372,27.338,371.495,29,371.743c7.023-4.5,31.042-5.562,37.876-6.9a34.3,34.3,0,0,0,5.428-1.6C79.99,360.3,100.344,349.012,108,349.587a43.417,43.417,0,0,1,30.325,14.865c4.316,4.741,10.114,15.775,14.258,22.239l13.168,25.34a81.78,81.78,0,0,1,7.446,18.874,113.493,113.493,0,0,1,3.324,17.538c-1.537,8.492-1.515,18.012-8.737,24.369a.283.283,0,0,0-.086.393.285.285,0,0,0,.393.086c19.7-4.407,43.437,5.633,54.949,23.59l10.677,14.136c.614.958,1.619,2.116,2.2,3.02,11.71,17.679,15.583,34.376,9.077,49.7-1.6,6.879-19.662,21.614-24.811,27.167a58.916,58.916,0,0,0-5.61,7.35c-4,5.828-13.42,28.423-20.469,32.943a28.679,28.679,0,0,1-7.76,5.988Z" fill="#4317ad"/>
    <path id="Path_1948" data-name="Path 1948" d="M176.22,632.933a38.326,38.326,0,0,0,6.653-4.9l.061-.49.612-.392c4.07-2.609,9.719-14.113,13.814-22.481a99.9,99.9,0,0,1,5.081-9.639,56.866,56.866,0,0,1,5.663-7.384c1.393-1.457,3.843-3.666,6.685-6.2,6.637-5.982,16.677-14.971,17.751-19.15,5.873-13.262,3.167-28.08-8.315-45.229l-.819-1.277c-.29-.453-.768-1.2-1.006-1.57l-10.3-13.367c-10.233-15.961-32.72-25.567-50.124-21.391a1.9,1.9,0,0,1-2.1-.94,1.8,1.8,0,0,1,.39-2.2c4.74-4.316,5.5-10.28,6.293-16.647.242-1.731.466-3.489.778-5.228a132.511,132.511,0,0,0-3.261-16.152,78.282,78.282,0,0,0-6.88-17.7l-12.27-24.114c-1.347-2.1-2.984-4.655-4.458-7.539a97.058,97.058,0,0,0-8.7-13.567,38.646,38.646,0,0,0-27.762-13.619c-4.5-.229-15.936,5.413-24.293,9.532-3.944,1.928-7.331,3.612-9.556,4.475a32.9,32.9,0,0,1-5.525,1.628c-1.979.367-5.455.682-9.494,1.057-9.061.854-22.714,2.1-26.944,4.812l-.505.324-.42-.069c-2.218.521-15.812,8.3-35.178,20.714C-31.13,419.114-44.8,429.116-47,431.768l.392.612-1.224.784c-3.8,2.439-2.852,12.414-.14,16.643l28.032,45.539.546.851c5.933,10.835,6.958,13.781,6.849,15.015l21.2,62.342.324.506-.335.59c-.541,3.312,12.594,23.156,15.934,24.092l.642-.111.569.536,48.106,44c1.437.543,3.682,2.933,9.613,10.428a17.974,17.974,0,0,0,2,2.473l.188.292c2.456,3.831,10.516,7.972,14.48,5.431l-.266.171,60.05-20.971.961-.316.239.373A76.284,76.284,0,0,0,176.22,632.933Zm.853,1.33c-6.651,4.264-15.59,9.056-16.545,8.092l-60.007,20.98c-4.788,3.07-13.78-1.412-16.663-5.908-1.034-1.026-9.747-12.744-11.2-12.489L24.209,600.629c-3.657.618-19.248-23.056-17.507-26.312l-21.3-63.028c.672-1.294-6.421-13.938-7.082-15.2l-27.981-45.459c-3.053-4.761-4.127-15.746.635-18.8-1.04-1.623,19.763-16.011,39.981-28.973,17.451-11.188,34.408-21.271,36.1-20.969,6.544-4.2,30.644-4.895,37.048-6.148a31.577,31.577,0,0,0,5.278-1.545C76.5,371.428,96.8,359.7,103.888,360.1a39.913,39.913,0,0,1,28.84,14.129c4.031,4.473,9.481,15.317,13.4,21.435l12.488,24.162a79.011,79.011,0,0,1,6.987,18.042,124.194,124.194,0,0,1,3.207,16.711c-1.454,7.8-.96,16.944-7.58,22.953-.24.153,0,.526.289.452,18.179-4.373,41.116,5.583,51.724,22.129l10.211,13.235c.563.878,1.507,2,2.08,2.833,11.132,16.661,14.813,32.356,8.436,46.766-1.507,6.372-19.921,20.917-24.657,25.943a57.665,57.665,0,0,0-5.552,7.088c-3.656,5.422-12.761,28.338-19.3,32.533a24.965,24.965,0,0,1-7.327,5.786Z" fill="#4317ad"/>
    <path id="Path_1949" data-name="Path 1949" d="M167.9,631.547l-.853-1.33a32.4,32.4,0,0,0,6.254-4.647l.061-.49.612-.392c3.671-2.354,9.2-14.229,12.86-22.1a97.557,97.557,0,0,1,4.844-9.6,45.973,45.973,0,0,1,5.579-7.1c1.34-1.423,3.878-3.612,6.816-6.172,6.206-5.367,16.57-14.377,17.459-18.025,5.744-12.353,3.213-26.2-7.675-42.3l-.751-1.17c-.272-.426-.733-1.144-.955-1.49l-9.8-12.482c-9.482-14.791-31.047-24.012-47.121-20.163a1.833,1.833,0,0,1-1.7-3.115c4.161-3.756,4.695-9.129,5.365-14.7.19-1.811.373-3.693.694-5.475a155.5,155.5,0,0,0-3.472-15.6,75.82,75.82,0,0,0-6.327-16.777L138.333,405.4c-1.331-2.075-2.842-4.784-4.439-7.627a86.62,86.62,0,0,0-7.788-12.5,34.946,34.946,0,0,0-26.174-12.723c-3.922-.263-15.017,5.5-23.016,9.651-4.026,2.093-7.485,3.9-9.639,4.754a29.162,29.162,0,0,1-5.428,1.6c-1.838.353-5.209.6-9.466.926-8.883.665-22.3,1.687-26.187,4.177l-.505.324-.42-.069c-2.129.427-14.872,7.658-32.775,19.136-21.281,13.644-34,23.076-36.1,25.659l.426.665-1.224.785c-3.378,2.166-2.314,11.73.21,15.667l26.563,43.365.409.638c5.634,10.427,6.555,13.327,6.479,14.614L7.753,573.906l.307.479-.308.573C7.5,576.093,9.647,581.25,14.3,588.1c4.262,6.239,7.5,9.3,8.316,9.458l.756-.109.561.466,46.385,40.266c1.473.482,3.632,2.738,9.4,9.854a14.124,14.124,0,0,0,1.827,2.206l.171.266c2.285,3.565,9.962,7.577,13.527,5.291l.16-.1.16-.1,56.153-18.209.908-.282.238.372a64.474,64.474,0,0,0,14.069-7.33l.852,1.33Zm-.122-.072c-6.251,4.008-14.631,8.442-15.621,7.425L95.663,657.1c-4.416,2.831-13.049-1.618-15.71-5.768-1.05-1.053-9.262-11.929-10.783-11.667L22.441,599.1c-3.808.677-18.392-21.428-16.579-24.8L-12.754,514.46c.752-1.345-5.812-13.165-6.559-14.563l-26.5-43.258c-2.814-4.39-4.105-15.01.284-17.824-.932-1.8,18.3-15.187,36.977-27.16C7.679,401.252,23.493,391.9,25.258,392.2c6.039-3.871,30.343-4.252,36.226-5.321a27.01,27.01,0,0,0,5.111-1.512c6.569-2.635,26.772-14.8,33.323-14.533a36.753,36.753,0,0,1,27.269,13.259c3.659,4.185,8.85,14.858,12.4,20.391l11.534,23.084a76.685,76.685,0,0,1,6.539,17.166,157.743,157.743,0,0,1,3.356,15.715c-1.374,7.225-.407,15.876-6.537,21.42a.251.251,0,0,0-.11.159.254.254,0,0,0,.034.19.249.249,0,0,0,.159.111.254.254,0,0,0,.19-.034c16.78-4.039,39.038,5.563,48.828,20.833l9.8,12.482c.512.8,1.422,1.866,1.892,2.54,10.6,15.723,14.06,30.361,7.78,43.809-1.4,5.892-20.1,20.4-24.683,24.908a50.487,50.487,0,0,0-5.4,6.916c-3.342,5.033-12.112,28.3-18.151,32.168a22.908,22.908,0,0,1-6.927,5.53Z" fill="#4317ad"/>
    <path id="Path_1950" data-name="Path 1950" d="M157.875,627.5a27.854,27.854,0,0,0,5.812-4.4l.071-.533.691-.444c3.3-2.115,8.506-13.9,11.95-21.7a94.576,94.576,0,0,1,4.6-9.629,45.806,45.806,0,0,1,5.437-6.977c1.294-1.318,3.946-3.505,7-6.063,6.131-5.132,16.409-13.748,17.213-17l.133-.085c5.577-11.383,3.238-24.222-7.045-39.325a9.458,9.458,0,0,0-.665-1.037l-.955-1.49-9.166-11.428c-8.732-13.62-29.4-22.44-44.119-18.934a1.8,1.8,0,0,1-2.044-.9,1.832,1.832,0,0,1,.363-2.185c3.617-3.257,3.975-8.028,4.328-13.1a52.5,52.5,0,0,1,.609-5.608c-.908-4.635-2.037-9.617-3.318-14.426a70.776,70.776,0,0,0-5.87-15.83l-.1-.16-10.626-21.9c-1.279-1.995-2.781-4.748-4.359-7.677a77.3,77.3,0,0,0-6.956-11.494,31.594,31.594,0,0,0-24.559-11.843c-3.609-.126-14.577,5.892-21.818,9.821-4.081,2.241-7.613,4.168-9.67,5a24.185,24.185,0,0,1-5.314,1.605c-1.758.3-5.119.5-9.427.752-8.713.519-21.919,1.29-25.4,3.525l-.505.324-.463-.079c-2.049.375-13.9,7-30.5,17.643-19.526,12.518-31.325,21.4-33.139,23.836l.46.718-1.224.784c-2.926,1.877-1.812,11.109.491,14.7l25.1,41.147.256.4c5.419,10.151,6.175,12.97,5.988,14.141L6.963,573.962l.307.479-.308.573c-.3,1.055,1.629,5.937,5.994,12.335s7.322,8.668,7.969,8.741l.712-.118.561.466,44.077,36.49c1.439.429,3.583,2.545,9.083,9.191a11.5,11.5,0,0,0,1.674,1.967l.188.293c2.081,3.245,9.461,7.146,12.547,5.168l.213-.136.186-.12,53.165-15.317.924-.255.256.4a54.125,54.125,0,0,0,13.075-6.656Zm.564,1.29c-5.852,3.752-13.761,7.809-14.741,6.749L90.507,650.875c-4.017,2.575-12.415-1.8-14.8-5.524-1.1-1.133-8.794-11.141-10.359-10.888L20.627,597.558c-3.948.692-17.553-19.826-15.667-23.325l-15.945-56.779c.761-1.389-5.265-12.427-5.994-13.8l-25.036-41.04c-2.592-4.044-4.047-14.334-.03-16.91-.983-1.884,16.623-14.41,33.887-25.479,14.977-9.6,29.637-18.175,31.472-17.888,5.533-3.547,30.006-3.548,35.405-4.494a26.5,26.5,0,0,0,5-1.515C69.668,393.9,89.828,381.2,95.83,381.372a33.43,33.43,0,0,1,25.741,12.4c3.34,3.864,8.228,14.356,11.485,19.437l10.651,22a74.143,74.143,0,0,1,6.09,16.29c1.411,5.363,2.539,10.459,3.373,14.8-1.241,6.613.2,14.887-5.476,19.913-.186.12.019.439.239.373,15.379-3.705,36.855,5.612,45.825,19.6l9.2,11.481c.478.745,1.38,1.743,1.918,2.524,10,14.607,13.29,28.339,7.14,40.878-1.271,5.394-20.432,19.593-24.61,23.849a43.625,43.625,0,0,0-5.249,6.743c-3,4.627-11.48,28.229-17.119,31.845a19.621,19.621,0,0,1-6.468,5.31Z" fill="#4317ad"/>
    <path id="Path_1951" data-name="Path 1951" d="M148.729,624.771a23.236,23.236,0,0,0,5.342-4.138l.071-.534.612-.392c2.926-1.876,7.8-13.6,11.023-21.331a87.565,87.565,0,0,1,4.344-9.617,41.1,41.1,0,0,1,5.311-6.82c1.232-1.241,3.838-3.324,7.093-5.974,5.709-4.561,16.32-13.128,17.02-16.017l.133-.085c5.42-10.457,3.354-22.345-6.37-36.342l-.614-.957a6.362,6.362,0,0,0-1.037-1.325l-8.7-10.753-.1-.16c-7.88-12.29-27.869-20.869-41.1-17.679a1.769,1.769,0,0,1-2.017-.921,1.738,1.738,0,0,1,.354-2.141c3.083-2.8,3.229-7.025,3.4-11.492a48.921,48.921,0,0,1,.417-5.673c-.721-3.291-1.9-8.238-3.281-13.549a70.83,70.83,0,0,0-5.421-14.954l-.119-.186-9.779-20.757c-1.245-1.941-2.694-4.729-4.263-7.7a76.36,76.36,0,0,0-6.114-10.531c-7.46-8.768-14.881-12.38-22.707-11l-.239.153-.288-.04c-3.022-.615-14.186,6.092-20.85,10.1a100,100,0,0,1-9.165,5.2,23.529,23.529,0,0,1-5.208,1.537c-1.618.287-5.03.41-9.346.587-8.035.347-21.518.921-24.471,2.814l-.532.341-.48-.105c-1.96.28-12.937,6.342-28.18,16.115-17.8,11.41-28.532,19.606-30.143,21.953l.478.744-1.224.785c-2.66,1.7-1.327,10.46.839,13.838l23.33,38.907.1.159c5.137,9.769,5.789,12.542,5.575,13.73l13.246,53.33.147.581-.282.556c-.351.975,1.415,5.661,5.439,11.527s6.949,7.97,7.606,8l.668-.128.571.422,43.039,32.764c1.579.414,3.836,2.646,8.943,8.68a10.3,10.3,0,0,0,1.511,1.771l.17.266c1.876,2.927,8.934,6.734,11.594,5.029l.213-.137.213-.136,49.757-12.494.872-.221.273.425a45.758,45.758,0,0,0,12.16-6.032Zm.695,1.318c-5.48,3.513-12.821,7.169-13.888,6.089l-49.6,12.506c-3.671,2.354-11.56-2.048-13.777-5.506-1.145-1.142-8.309-10.325-9.927-10.039l-43.35-33.015c-4.089.707-16.687-18.241-14.729-21.861l-13.3-53.708c.771-1.432-4.7-11.663-5.463-13.088L-38.2,468.617c-2.336-3.644-4.016-13.641-.345-15.994-1-1.911,15.08-13.422,30.908-23.569,13.753-8.818,27.3-16.675,29.192-16.351,5.028-3.224,29.635-2.9,34.55-3.721a20.78,20.78,0,0,0,4.847-1.456c5.431-2.243,25.617-16.424,30.945-15.373,9.321-1.621,17.19,3.393,24.171,11.53,3,3.516,7.623,13.88,10.573,18.482l9.821,20.88a71.471,71.471,0,0,1,5.658,15.441c1.338,5.073,2.558,9.845,3.406,13.919-1.151,5.993.727,13.722-4.4,18.364-.16.1.028.395.222.345,14-3.343,34.671,5.661,42.823,18.377l8.681,10.612c.426.665,1.321,1.593,1.774,2.241,9.408,13.562,12.52,26.319,6.473,37.965-1.183,4.887-20.718,18.913-24.529,22.745a39.8,39.8,0,0,0-5.114,6.544c-2.7,4.282-10.813,28.216-15.841,31.439a17.121,17.121,0,0,1-6.024,5.064Z" fill="#4317ad"/>
    <path id="Path_1952" data-name="Path 1952" d="M139.539,622.029a19.67,19.67,0,0,0,5-3.916l.1-.55.585-.376c2.66-1.705,7.311-13.771,10.149-20.995a85.537,85.537,0,0,1,4.064-9.587,36.066,36.066,0,0,1,5.185-6.665c1.143-1.146,3.809-3.193,7.2-5.815,5.671-4.386,16.222-12.577,16.677-14.971l.159-.1c5.184-9.479,3.39-20.415-5.74-33.368-.154-.239-.341-.532-.546-.851a15.013,15.013,0,0,1-.986-1.245l-8.205-9.753-.119-.187c-7.044-10.986-26.293-19.289-38.1-16.45a1.8,1.8,0,0,1-2.017-.922,1.735,1.735,0,0,1,.37-2.114c2.593-2.338,2.554-6.029,2.519-9.948a32.665,32.665,0,0,1,.322-5.762c-.758-2.7-1.544-5.8-2.4-9.124l-.918-3.54a66.807,66.807,0,0,0-4.963-14.122l-.12-.186-8.868-19.689c-1.177-1.835-2.573-4.656-4.071-7.637a73.339,73.339,0,0,0-5.394-9.642c-6.933-8.355-13.824-11.669-21.092-10.125l-.266.171-.306-.067c-2.585-.52-13.809,6.564-19.812,10.374a91.75,91.75,0,0,1-8.993,5.353,20.491,20.491,0,0,1-5.067,1.522c-1.538.235-4.967.332-9.291.439-7.91.191-21.151.5-23.865,2.237l-.426.273-.594-.107c-1.764.117-11.924,5.581-25.89,14.534-16.121,10.335-25.8,17.893-27.156,20.113l.512.8-1.224.785c-1.968,1.262-.917,9.634,1.18,12.906l22.186,36.712c4.842,9.133,5.351,12.034,5.137,13.223L4.825,573.907l.051.605-.219.479c-.366.834.951,5.171,4.942,10.869,3.624,5.184,6.42,7.145,7.191,7.177l.642-.112.537.369,41.451,28.941c1.615.353,3.847,2.488,8.76,8.159a8.6,8.6,0,0,0,1.34,1.506l.171.266c1.842,2.873,8.5,6.3,10.658,4.915l.239-.154.213-.136,46.35-9.671.862-.178.256.4a37.914,37.914,0,0,0,11.246-5.408Zm.828,1.234c-5.081,3.257-11.863,6.554-12.974,5.465l-46.3,9.751c-3.325,2.132-10.846-2.28-12.841-5.392-1.162-1.17-7.851-9.494-9.619-9.148l-41.656-29.26c-4.212.749-15.8-16.63-13.8-20.355L-7.494,523.662c.824-1.467-4.091-10.89-4.889-12.368l-22.152-36.659c-2.1-3.272-3.941-12.938-.669-15.036-1.051-1.991,13.564-12.45,27.982-21.693,12.5-8.016,24.892-15.1,26.859-14.78,4.522-2.9,29.3-2.193,33.746-2.868a21.754,21.754,0,0,0,4.723-1.414c4.876-2.113,24.923-16.8,29.744-15.841,8.755-1.86,16.156,2.892,22.616,10.686,2.643,3.186,7,13.379,9.662,17.529l8.92,19.768a70.844,70.844,0,0,1,5.165,14.555c1.238,4.8,2.252,9.367,3.311,12.892-1.017,5.381,1.281,12.654-3.334,16.814-.16.1.011.368.205.319,12.6-3.009,32.487,5.709,39.821,17.148l8.205,9.754c.375.585,1.236,1.459,1.655,2.054,8.83,12.544,11.819,24.29,5.833,35.035-.955,4.365-20.994,18.189-24.422,21.625a36.032,36.032,0,0,0-4.988,6.389c-2.2,3.773-10,28.072-14.526,30.971a15.361,15.361,0,0,1-5.6,4.791Z" fill="#4317ad"/>
    <path id="Path_1953" data-name="Path 1953" d="M130.366,619.314a19.46,19.46,0,0,0,4.446-3.488l.109-.708.612-.392c1.888-1.211,5.553-11.068,7.874-17.811a64.788,64.788,0,0,1,5.147-12.346,20.444,20.444,0,0,1,5.087-6.526c1.08-1.068,3.807-3.079,7.254-5.665,5.215-3.868,16.088-11.966,16.67-14.1l.031-.245.186-.119c5.1-8.56,3.408-18.513-5.187-30.456l-.478-.745a12.671,12.671,0,0,1-.961-1.148l-7.6-8.753-.119-.186c-6.259-9.763-24.638-17.761-34.985-15.107a1.769,1.769,0,0,1-1.629-3.009c2.1-1.873,1.966-5.014,1.644-8.561a25.61,25.61,0,0,1,.01-5.487c-.938-2.927-1.985-6.609-3.338-11.823a60.069,60.069,0,0,0-4.47-13.237l-.137-.212-8.1-18.491a81.852,81.852,0,0,1-3.862-7.546,64.79,64.79,0,0,0-4.681-8.823c-6.388-7.916-12.768-10.958-19.478-9.246l-.293.188-.323-.094c-.577-.08-2.854.291-11.952,6.124l-6.916,4.434-5.108,3.275a31.586,31.586,0,0,1-3.72,2.159,18.55,18.55,0,0,1-4.971,1.5c-1.4.22-4.65.241-9.165.283-7.258.037-20.794.119-23.135,1.62l-.639.409-.577-.081c-1.447.027-9.7,4.078-23.557,12.964C-20.362,457.1-28.962,464.006-30.1,466.089l.546.851-1.224.785c-1.623,1.04-.4,9.038,1.495,11.991l20.744,34.522c3.3,6.256,4.836,10.412,4.555,12.432l7.916,47.475.074.29-.263.469c-.453.816.691,5,4.565,10.4,3.319,4.592,5.971,6.269,6.657,6.168l.6-.121.52.342,39.674,25.35c1.634.266,3.825,2.277,8.612,7.579a6.842,6.842,0,0,0,1.143,1.256l.188.293c1.705,2.66,7.88,5.908,9.662,4.766l.293-.188.325-.02,42.925-6.876.782-.126.273.426a31.072,31.072,0,0,0,10.306-4.768Zm.747,1.4c-4.655,2.984-10.923,5.914-11.988,4.72L76.21,632.265c-2.926,1.876-10.071-2.477-11.845-5.244-1.2-1.222-7.382-8.7-9.141-8.4L15.307,593.124c-4.353.764-14.965-15.029-12.889-18.875l-8-47.608c.807-1.493-3.544-10.152-4.358-11.657l-20.692-34.442c-1.876-2.926-4.059-12.186-1-14.147-1.085-2.045,12.021-11.461,24.9-19.715,11.279-7.232,22.559-13.525,24.569-13.2,4.017-2.575,29.024-1.566,32.917-2.11a18.248,18.248,0,0,0,4.583-1.4,31.465,31.465,0,0,0,3.49-2.05c3.139-2.012,7.612-5.105,11.922-7.868,5.666-3.633,11.1-6.744,13.095-6.331,8.233-2.088,15.078,2.382,21.072,9.8,2.341,2.891,6.369,12.92,8.739,16.618l8.17,18.6a69.492,69.492,0,0,1,4.69,13.7c1.147,4.482,2.307,8.693,3.412,12.114-.91,4.787,1.835,11.585-2.246,15.29-.133.085.021.325.188.293,11.18-2.7,30.26,5.748,36.775,15.91l7.679,8.815c.341.532,1.185,1.38,1.535,1.868,8.3,11.535,11.04,22.313,5.193,32.1-.9,3.919-21.3,17.412-24.35,20.566a18.006,18.006,0,0,0-4.809,6.2c-2.675,3.029-9.532,28.107-13.548,30.682a13.331,13.331,0,0,1-5.214,4.281Z" fill="#4317ad"/>
    <path id="Path_1954" data-name="Path 1954" d="M122,617.92l-.852-1.33a16.041,16.041,0,0,0,4.072-3.25l.109-.708.586-.375c1.622-1.04,5.041-11.34,7.114-17.474a65.843,65.843,0,0,1,4.743-12.274,19.171,19.171,0,0,1,4.971-6.415c.981-.929,3.795-2.921,7.32-5.444,5.15-3.677,15.795-11.252,16.5-13.2l.057-.262.213-.137c4.9-7.643,3.444-16.584-4.506-27.4a4.076,4.076,0,0,0-.409-.639,3.227,3.227,0,0,0-.893-1.041l-7.081-7.884-.222-.346c-5.407-8.433-23.115-16.148-32.068-14.011a1.771,1.771,0,0,1-1.983-.869,1.706,1.706,0,0,1,.362-2.071c1.657-1.513,1.294-4.245.9-7.145a20.889,20.889,0,0,1-.265-5.273,96.428,96.428,0,0,1-3.309-11.016,50.57,50.57,0,0,0-4.162-12.346l-.051-.08-7.351-17.32a77.418,77.418,0,0,1-3.6-7.375,61.842,61.842,0,0,0-4.029-8.04c-5.888-7.486-11.641-10.253-17.854-8.41l-.293.188-.393-.086a15.8,15.8,0,0,0-5.944,3.023c-2.66,1.7-5.99,4.065-9.106,6.288s-5.5,3.9-7.624,5.263a18.417,18.417,0,0,1-3.709,2,11.692,11.692,0,0,1-4.874,1.473c-1.2.172-4.078.138-9.03.084-6.66-.084-20.453-.287-22.448.992l-.452.29-.621-.09c-1.323-.015-8.953,3.6-21.189,11.445-12.742,8.17-20.278,14.39-21.207,16.337l.58.9-1.2.767c-1.2.768.018,8.284,1.809,11.077l19.284,32.3c1.137,2.124,4.531,8.882,3.872,11.894l5.326,44.256.07.518-.226.408c-.482.947.562,4.857,3.863,9.422,2.959,4.146,5.55,5.788,6.446,5.664l.528-.113.512.272,37.9,21.417c1.671.205,3.95,2.122,8.455,7.041a5.191,5.191,0,0,0,.946,1.007l.119.187c1.518,2.367,7.316,5.556,8.726,4.653l.319-.205.266-.171,39.76-3.907.773-.083.273.426a25.291,25.291,0,0,0,9.348-4.154l.853,1.33Zm.027-.017c-4.256,2.728-9.982,5.273-11.144,4.1l-39.517,4.052c-2.66,1.706-9.277-2.76-10.829-5.181-1.257-1.258-6.924-7.873-8.646-7.632L13.528,591.637c-4.467.761-14.09-13.488-11.951-17.412L-3.7,529.637c.843-1.554-2.935-9.379-3.8-10.963l-19.25-32.251c-1.705-2.66-3.878-11.552-1.3-13.206-1.119-2.1,10.315-10.668,21.887-18.086,10.055-6.447,20.191-12.007,22.245-11.672,3.538-2.269,28.634-.829,32.079-1.311a10.663,10.663,0,0,0,4.3-1.255l.16-.1a14.808,14.808,0,0,0,3.522-1.883c4.389-2.814,11.356-8.107,16.73-11.552a15.487,15.487,0,0,1,7.071-3.257c7.685-2.3,14.017,1.9,19.518,8.957,1.971,2.49,5.747,12.419,7.827,15.664l7.4,17.4a67.41,67.41,0,0,1,4.258,12.848,99.964,99.964,0,0,0,3.429,11.2c-.769,4.246,2.389,10.518-1.175,13.741a.153.153,0,0,0-.069.1.156.156,0,0,0,.021.119.158.158,0,0,0,.218.048c9.686-2.456,28.077,5.8,33.774,14.682l7.159,7.946c.307.479,1.126,1.23,1.443,1.665,7.549,10.663,10.056,20.429,4.447,29.243-.8,3.439-21.54,16.812-24.311,19.339a17,17,0,0,0-4.667,6.07c-2.361,2.64-8.814,28.172-12.325,30.424a11.79,11.79,0,0,1-4.741,4.315Z" fill="#4317ad"/>
    <path id="Path_1955" data-name="Path 1955" d="M111.977,613.875a11.655,11.655,0,0,0,3.613-3.029l.083-.691.585-.376c1.4-1.158,4.5-11.183,6.381-17.153a66.389,66.389,0,0,1,4.338-12.2,17.337,17.337,0,0,1,4.855-6.3c.839-.8,3.225-2.4,7.343-5.233,5.431-3.707,15.671-10.685,16.393-12.311l.04-.289.19-.347c4.785-6.822,3.548-14.549-3.858-24.4l-.341-.532a6.876,6.876,0,0,1-.842-.962l-6.633-7.008-.17-.266c-4.622-7.209-21.459-14.619-29.066-12.783a1.737,1.737,0,0,1-1.912-.876l-.574-1.246.908-.808c1.114-1.014.781-2.94.068-5.749a16.029,16.029,0,0,1-.594-5.024,62.711,62.711,0,0,1-3.369-10.115l-.187-.292a50.162,50.162,0,0,0-3.429-11.2l-.17-.266-6.407-16.2a51.493,51.493,0,0,1-2.823-6.335,37.93,37.93,0,0,0-3.732-7.929l-.154-.24-.154-.239c-3.481-6.777-9.62-9.56-15.979-7.36l-.266.171-.437-.1a12.166,12.166,0,0,0-3.743,1.949c-2.979,1.91-6.835,4.795-10.531,7.578-3.3,2.456-6.423,4.794-8.578,6.175a11.6,11.6,0,0,1-2.407,1.281,11.1,11.1,0,0,1-4.724,1.414c-1.037.139-3.769-.024-8.878-.089-6.447-.22-19.885-.689-21.736.347l-.479.307-.594-.107c-1.287-.075-8.162,3.019-18.882,9.892-11.678,7.487-17.532,12.817-18.21,14.452l.631.985-1.224.784c-.871,1.159.672,8.015,2.07,10.2l17.842,30.113c.529.825,4.176,8.095,3.428,11.2l2.641,41.472.018.439-.2.391c-.617,1.146.406,4.732,3.143,8.532s5.069,5.271,6.2,4.923l.475-.079.478.219,36.2,17.933c1.733.128,4.032,1.957,8.42,6.576a8.939,8.939,0,0,0,.654.669l.171.266c1.245,1.942,6.6,5.08,7.746,4.53l.372-.238.439-.019,36.057-1.2.693-.032.273.426a19.8,19.8,0,0,0,8.434-3.531Zm.746,1.4c-3.857,2.473-9.067,4.65-10.264,3.428l-36.082,1.213c-2.208,1.415-8.6-2.933-9.878-4.928-1.274-1.285-6.5-7.094-8.294-6.731L11.7,590.369c-4.59.8-13.217-11.834-11.023-15.905L-2.034,533c.879-1.614-2.4-8.668-3.243-10.269L-23,492.8c-1.416-2.208-3.864-10.886-1.656-12.3-1.154-2.15,8.748-9.774,18.883-16.272,8.832-5.662,17.841-10.462,19.832-10.05,3.033-1.944,28.314-.1,31.284-.5a9.827,9.827,0,0,0,4.053-1.173l.239-.153a9.22,9.22,0,0,0,2.247-1.178c4.5-2.883,13.417-10.1,19.109-13.753a9.92,9.92,0,0,1,4.772-2.159c7.119-2.537,14.146.578,17.974,8.071,2.035,1.886,5.142,11.943,6.916,14.709l6.4,16.015a66.842,66.842,0,0,1,3.889,11.921,55.138,55.138,0,0,0,3.445,10.291c-.669,3.581,2.908,9.4-.131,12.208l.153.239c8.425-2.023,25.928,5.9,30.772,13.453l6.633,7.009c.255.4,1.041,1.1,1.323,1.478,7.184,9.508,9.516,18.3,3.913,26.244-.683,2.916-21.816,16.089-24.179,18.317a15.258,15.258,0,0,0-4.514,5.9c-2,2.261-8.388,27.9-11.341,29.792a9.673,9.673,0,0,1-4.307,4.113Z" fill="#4317ad"/>
    <path id="Path_1956" data-name="Path 1956" d="M102.789,611.133a9.477,9.477,0,0,0,3.187-2.757l0-.64.611-.392c1.179-1.206,3.967-11.026,5.658-16.877a72.965,72.965,0,0,1,3.934-12.131,12.259,12.259,0,0,1,4.765-6.209,80.512,80.512,0,0,1,9.95-6.9,104.275,104.275,0,0,0,13.68-9.634l.266-.17c4.549-5.844,3.539-12.629-3.247-21.341a2.148,2.148,0,0,0-.29-.452,6.358,6.358,0,0,1-.79-.882l-6.063-6.06-.17-.266c-3.8-5.933-19.9-13.066-26.161-11.531a1.642,1.642,0,0,1-1.912-.875l-.566-1.176.891-.835c.851-.545.093-2.724-.515-4.549a13.424,13.424,0,0,1-.977-4.628,40.553,40.553,0,0,1-3.4-9.344l-.145-.7a53.942,53.942,0,0,0-2.952-9.931l-.188-.293L92.73,467.4A43.24,43.24,0,0,1,90.3,461.45a39.5,39.5,0,0,0-3.122-7.27l-.153-.239-.171-.266c-2.947-6.294-8.59-8.832-14.4-6.42l-.4.256-.289-.041a9.248,9.248,0,0,0-2.124,1.137c-2.873,1.842-7.212,5.262-11.364,8.562-3.645,2.862-7.051,5.571-9.072,6.868a8.01,8.01,0,0,1-1.436.921l-.186.119a10.553,10.553,0,0,1-4.52,1.321,76.749,76.749,0,0,1-8.716-.3c-6.261-.34-19.389-.97-21.059-.237l-.505.324-.577-.081c-1.181-.143-7.292,2.386-16.549,8.321-10,6.412-14.855,11.138-15.24,12.586l.682,1.064-1.064.682a21.079,21.079,0,0,0,2.252,9.367l16.139,27.339s3.8,7.4,2.985,10.51l.008,38.244v.412l-.19.347c-.643,1.163.029,4.261,2.483,7.679s4.635,4.536,5.933,4.454l.346-.221.444.165L44.967,601.1c1.8.05,4.2,1.811,8.445,6.147l.2.319.188.293a15.455,15.455,0,0,0,6.794,4.39l.426-.273.5.018,32.631,1.6.613.019.256.4a15.162,15.162,0,0,0,7.477-2.916Zm.564,1.29c-3.458,2.217-8.137,4.053-9.447,2.829l-32.631-1.6c-1.835,1.176-7.868-3.139-8.976-4.868s-5.988-6.3-7.87-5.952l-34.5-14.178C5.2,589.471-2.425,578.4-.185,574.228l-.05-38.367c.932-1.649-1.8-7.9-2.669-9.549l-16.349-27.843c-1.177-1.835-3.815-10.166-1.98-11.343-1.178-2.247,7.136-8.892,15.862-14.486,7.581-4.86,15.464-8.9,17.649-8.537,2.527-1.62,27.977.606,30.446.3a9.472,9.472,0,0,0,3.85-1.08l.319-.2a4.562,4.562,0,0,0,1.389-.7c4.2-2.695,14.9-11.882,20.437-15.43a6.321,6.321,0,0,1,3.119-1.4c6.571-2.749,13.085.094,16.42,7.227,1.716,1.565,4.493,11.458,5.977,13.773l5.6,15.177a68.136,68.136,0,0,1,3.343,11.069,36.747,36.747,0,0,0,3.478,9.406c-.562,2.988,3.5,8.381.94,10.658,0,0,.1.16.12.186,7-1.671,23.693,5.868,27.769,12.225l6.13,6.167c.205.319,1,.973,1.231,1.276,6.606,8.489,8.719,16.293,3.256,23.286-.588,2.479-22.464,15.078-24.107,17.257A10.464,10.464,0,0,0,117.66,579c-1.69,1.872-7.574,27.94-10.1,29.56a8.526,8.526,0,0,1-3.882,3.84Z" fill="#4317ad"/>
    <path id="Path_1957" data-name="Path 1957" d="M93.589,608.435a6.883,6.883,0,0,0,2.754-2.554l.109-.708.585-.375a118.98,118.98,0,0,0,4.951-16.574,73.042,73.042,0,0,1,3.547-12.033,11.187,11.187,0,0,1,4.623-6.08,22.624,22.624,0,0,1,3.631-2.591l6.305-4.042,7.634-4.894a37.315,37.315,0,0,0,5.851-4.164l.319-.2c4.332-4.954,3.583-10.63-2.626-18.323l-.221-.346a6.314,6.314,0,0,1-.749-.758l-5.544-5.192-.1-.16-.1-.159c-2.968-4.629-18.281-11.477-23.061-10.327a1.736,1.736,0,0,1-1.913-.876l-.7-1.09.935-.825a9.093,9.093,0,0,0-1.15-3.316,10.907,10.907,0,0,1-1.432-4.225,28.991,28.991,0,0,1-3.415-8.546l-.212-.915a47.652,47.652,0,0,0-2.453-8.862l-.1-.16-.1-.159-4.756-13.917a39.748,39.748,0,0,1-2.15-5.754,42.388,42.388,0,0,0-2.538-6.593l-.188-.293-.171-.266a10.55,10.55,0,0,0-5.711-6.1,8.631,8.631,0,0,0-7.111.617l-.426.273-.262-.057a7.112,7.112,0,0,0-.958.614c-2.66,1.705-7.537,5.808-11.791,9.361s-7.492,6.229-9.274,7.372a4.7,4.7,0,0,1-.851.546l-.293.187a7.653,7.653,0,0,1-4.308,1.186,87.466,87.466,0,0,1-11.463-.609,138.549,138.549,0,0,0-17.474-.733l-.452.29L10.181,476c-1.171-.188-6.511,1.847-14.225,6.792-8.379,5.373-12.294,9.571-12.329,10.57l.785,1.224-.9.58a24.9,24.9,0,0,0,2.53,8.512l14.9,25.7s3.455,6.794,2.217,9.84L.6,574.286l-.006.342L.33,574.8A7.8,7.8,0,0,0,2.2,581.634c1.838,2.575,4.1,4.053,5.7,3.854l.378-.055.34.12,32.879,10.3c1.018-.052,3.3.4,8.446,5.621l.17.266a16.623,16.623,0,0,0,6.027,4.131l.213-.137.594.107,29.144,4.475.473.035.273.426a11.029,11.029,0,0,0,6.563-2.294Zm.659,1.38c-3.059,1.961-7.213,3.385-8.488,2.1l-29.144-4.474c-1.463.938-7.11-3.362-8-4.745s-5.53-5.464-7.455-5.13L7.989,587.155c-4.854.86-11.468-8.638-9.139-12.909l2.527-35.4c.925-1.719-1.248-7.157-2.138-8.839l-14.88-25.668c-.938-1.463-3.784-9.473-2.321-10.411-1.2-2.274,5.586-7.973,12.875-12.646,6.358-4.076,13.1-7.383,15.325-7.01,2.022-1.3,27.695,1.688,29.607,1.1a5.691,5.691,0,0,0,3.557-.892l.479-.307a3.525,3.525,0,0,0,.771-.495c3.671-2.353,16.09-13.544,21.065-16.733a3.732,3.732,0,0,1,1.873-.825c6.022-2.961,12.163-.291,14.875,6.34,1.371,1.261,3.862,11,5.055,12.862L92.309,489.4a65.95,65.95,0,0,1,2.831,10.271,25.941,25.941,0,0,0,3.521,8.478c-.481,2.411,4.05,7.313,2.081,9.1l.1.159c5.626-1.354,21.51,5.916,24.784,11.024l5.639,5.281c.17.266.914.84,1.111,1.089,5.994,7.418,7.949,14.273,2.616,20.357a25.725,25.725,0,0,1-6.5,4.915c-4.522,2.9-10.387,6.4-14.058,8.75A21.739,21.739,0,0,0,111,571.3l-.212.136a9.484,9.484,0,0,0-4.025,5.433c-1.332,1.493-6.941,27.873-8.963,29.169a7.174,7.174,0,0,1-3.449,3.637Z" fill="#4317ad"/>
    <path id="Path_1958" data-name="Path 1958" d="M84.4,605.694a5.53,5.53,0,0,0,2.3-2.264l.109-.708.372-.239a165.362,165.362,0,0,0,4.281-16.332,82.93,82.93,0,0,1,3.106-11.9,10.3,10.3,0,0,1,4.357-5.909l.213-.136a8.774,8.774,0,0,1,1.676-1.075c1.809-1.159,4.894-3.138,8.364-4.986s8.185-4.8,10.845-6.5a21.61,21.61,0,0,0,2.66-1.706l.372-.238c4.167-4.1,3.548-8.694-2-15.235l-.188-.293a5.13,5.13,0,0,1-.707-.635l-5.034-4.28-.119-.186-.12-.186c-2.166-3.379-16.608-9.922-20.032-9.116a1.674,1.674,0,0,1-1.9-.849l-.682-1.064.718-.46a12.675,12.675,0,0,0-1.484-2.315,10.113,10.113,0,0,1-1.923-3.759,19.468,19.468,0,0,1-3.446-7.776,4.819,4.819,0,0,1-.244-1.082,58.751,58.751,0,0,0-1.973-7.819l-.119-.186-.119-.187-3.9-12.814a35.129,35.129,0,0,1-1.814-5.406,56.9,56.9,0,0,0-1.927-5.934l-.2-.319-.2-.319a8.658,8.658,0,0,0-4.793-5.485,7.36,7.36,0,0,0-6.265.825l-.505.324-.085-.133-.239.154c-2.128,1.364-7.418,5.994-11.871,9.938-4.195,3.7-7.819,6.89-9.256,7.811l-.984.631a6.9,6.9,0,0,1-4.121,1.066,90.758,90.758,0,0,1-11.231-.833,156.316,156.316,0,0,0-16.913-1.2l-.319.2-.621-.09a27.763,27.763,0,0,0-11.909,5.2c-6.97,4.468-9.548,8-9.361,8.817l.785,1.223-.718.461a32.231,32.231,0,0,0,2.641,7.691l13.455,23.5s2.879,5.661,1.481,8.809l-5.168,32.1-.057.262-.186.12a6.319,6.319,0,0,0,1.242,6.035,6.323,6.323,0,0,0,5.335,3.111l.239-.154.262.058,31.235,6.624c2.966-.175,6.9,3.569,8.084,4.764l.171.266a21.238,21.238,0,0,0,5.25,3.916l.239-.153,1,.333,25.772,7.237.417.183.188.292a7.705,7.705,0,0,0,5.6-1.679Zm.9,1.339c-2.66,1.706-6.282,2.789-7.573,1.478l-25.816-7.247c-1.091.7-6.311-3.461-7.061-4.632-1.386-1.4-5.071-4.631-7.023-4.28L6.342,585.7c-4.968.857-10.6-7.054-8.218-11.473l5.206-32.277c.934-1.763-.683-6.394-1.5-8.2L-11.62,510.317c-.7-1.091-3.76-8.851-2.669-9.55-1.246-2.354,3.975-7.09,9.854-10.859,5.108-3.275,10.719-5.821,13.035-5.429,1.516-.973,27.324,2.338,28.743,1.916a5.4,5.4,0,0,0,3.257-.774l.984-.631c2.953-1.893,17.03-15.122,21.127-17.749a2.313,2.313,0,0,1,.99-.447c5.474-3.171,11.061-.9,13.322,5.5,1.026.956,3.256,10.524,4.143,11.908l3.958,12.964a74.623,74.623,0,0,1,2.3,9.447,17.817,17.817,0,0,0,3.511,7.583c-.348,1.8,4.631,6.228,3.072,7.6,4.2-1,19.3,5.982,21.755,9.813l5.061,4.263c.136.212.846.733,1.009.929,5.511,6.489,7.222,12.261,1.983,17.5a11.953,11.953,0,0,1-3.155,2.4c-5.32,3.411-15.4,9.051-19.262,11.524a6.866,6.866,0,0,0-1.543.989l-.346.222a8.719,8.719,0,0,0-3.739,5.175c-1,1.13-6.275,27.858-7.791,28.83a6.319,6.319,0,0,1-3.023,3.364Z" fill="#4317ad"/>
    <path id="Path_1959" data-name="Path 1959" d="M74.961,603.149a3.825,3.825,0,0,0,1.869-2.061l.109-.708.266-.171c.7-1.837,2.4-10.432,3.654-16.08a115.27,115.27,0,0,1,2.773-11.951,9.478,9.478,0,0,1,4.108-5.711l1.037-.665c1.436-.921,5.1-2.933,9.3-5.286,4.842-2.692,10.331-5.723,12.7-7.241l.745-.477.452-.29a7.05,7.05,0,0,0,2.87-5.594,9.012,9.012,0,0,0-4.213-6.571l-.153-.239a2.319,2.319,0,0,1-.588-.449l-4.532-3.438L105.22,536l-.154-.239c-1.347-2.1-14.753-8.258-17.04-7.843l-1.284.222-.665-1.037-.665-1.038.213-.136a13.2,13.2,0,0,0-1.452-1.622,10.112,10.112,0,0,1-2.4-3.154,14.789,14.789,0,0,1-3.6-7.077s-.13-.555-.251-1.153c-.811-4.134-1.416-6.6-1.49-6.89l-.256-.4-.136-.213-3.052-11.668a31.423,31.423,0,0,1-1.452-5.075c-.484-1.867-1.2-4.676-1.533-5.436l-.119-.186-.222-.346a6.854,6.854,0,0,0-3.916-5,5.818,5.818,0,0,0-5.249.887l-.851.546c-1.782,1.143-7.1,6.2-11.438,10.261-4.991,4.627-8.094,7.517-9.1,8.165l-.8.511a6.321,6.321,0,0,1-3.988.981c-.833.046-2.96-.167-10.963-1.117-5.86-.71-14.666-1.858-16.4-1.687l-.239.153-.594-.107A18.49,18.49,0,0,0-3.5,499.97c-4.868,3.121-6.77,6.067-6.3,6.969l.785,1.224-.665.426A49.153,49.153,0,0,0-6.9,515.511L5.1,536.8a11.818,11.818,0,0,1,1.132,8.733l-7.689,28.99-.133.085-.133.086a5.087,5.087,0,0,0,.677,5.271,5.213,5.213,0,0,0,5.13,2.792l.16-.1.133-.085,29.584,2.879c3.5-.4,7.611,3.791,7.783,3.943l.154.24a27.755,27.755,0,0,0,4.5,3.683l.16-.1.791.356,22.365,10.06.137.213.153.239c.375.586,2.623.345,4.725-1Zm.617,1.256c-2.261,1.45-5.368,2.166-6.694.8L46.5,595.119c-.745.478-5.7-3.853-6.091-4.465-1.42-1.454-4.6-3.843-6.626-3.485L4.017,584.3A7.236,7.236,0,0,1-3.289,574.3l7.86-29.25a10.362,10.362,0,0,0-1.007-7.424L-8.441,516.387c-.46-.719-3.694-8.105-2.949-8.582-1.28-2.407,2.381-6.181,6.823-9.029A19.717,19.717,0,0,1,6.161,494.9c1.011-.648,26.97,3.016,28,2.692a4.86,4.86,0,0,0,3.24-.8l.638-.409.16-.1c2.075-1.331,17.813-16.713,20.739-18.589a.76.76,0,0,1,.4-.256l.319-.2c4.841-3.1,9.722-1.053,11.448,4.859.69.608,2.661,10.005,3.258,10.936l3.111,11.819c.461.718,1.779,7.868,1.951,8.546a12.8,12.8,0,0,0,3.527,6.673c-.241,1.205,5.185,5.159,4.16,6.078,2.782-.7,17.125,5.987,18.762,8.541l4.61,3.5a8.783,8.783,0,0,1,.916.726c5.933,4.454,6.532,10.188,1.292,14.486a3.7,3.7,0,0,1-1.271,1c-4.416,2.831-18.939,10.565-22,12.526a2.614,2.614,0,0,0-.585.376l-.585.375a7.963,7.963,0,0,0-3.48,4.934c-.671.768-5.643,27.791-6.627,28.422a5.245,5.245,0,0,1-2.59,3.161Z" fill="#4317ad"/>
    <path id="Path_1960" data-name="Path 1960" d="M65.735,600.469a3.163,3.163,0,0,0,1.453-1.833l.109-.708.133-.085c.5-1.972,1.966-9.931,3.036-15.872,1.485-8.047,1.925-10.581,2.222-11.522a8.847,8.847,0,0,1,3.871-5.672l.692-.444c.771-.494,4.231-2.3,9.761-5.207,5.071-2.688,11.22-5.918,13.32-7.151l.532-.341a5.34,5.34,0,0,0,2.88-4.173,6.322,6.322,0,0,0-3.492-4.744l-.347-.19a3.979,3.979,0,0,1-.52-.342l-4.039-2.553-.171-.266-.136-.213a72.273,72.273,0,0,0-14.36-6.708l-1.012.236L79,531.643l-.239-.372c-.484-.4-1.409-1.086-2-1.535a13.117,13.117,0,0,1-2.9-2.418,11.157,11.157,0,0,1-3.829-6.441s-.07-.519-.2-1.187c-.24-1.311-.914-5.232-1.153-6.131l-.154-.239-2.248-10.532c-.273-.426-.4-1.506-1.056-4.691-.347-1.654-.848-4.074-1.078-4.9l-.079-.475a5.561,5.561,0,0,0-2.729-4.256,4.294,4.294,0,0,0-4.009.656,5.788,5.788,0,0,0-.878.563l-.639.409c-1.612,1.409-6.991,6.659-10.846,10.482-6.094,6.009-8.092,7.928-8.74,8.381a4.478,4.478,0,0,1-.771.5,6.034,6.034,0,0,1-3.969.893c-.841-.024-3.035-.344-10.581-1.4-5.657-.8-14-1.986-15.932-2.135l-.814-.04a11.558,11.558,0,0,0-7.3,2.087c-2.235,1.432-4.122,3.581-3.3,5.156l.785,1.224-.266.17c.714,1.757,2.539,5.542,2.861,6.161L7.508,540.619a9.479,9.479,0,0,1,1.171,4,9.478,9.478,0,0,1-.659,4.116L-2.546,574.879a4.2,4.2,0,0,0,.076,4.568,4.582,4.582,0,0,0,4.741,1.54l27.977-.858a9.666,9.666,0,0,1,7.482,3.123l.1.159a35.143,35.143,0,0,0,3.839,3.47l.858.576,18.93,12.9.085.133c.671.7,2.445.535,3.828-.352Zm.491,1a4.865,4.865,0,0,1-5.882.017L41.87,589.006a27.973,27.973,0,0,1-5.087-4.246,8.151,8.151,0,0,0-6.211-2.662l-28.135.846A5.687,5.687,0,0,1-3.9,574.469L6.564,548.281a8.154,8.154,0,0,0,.453-3.4,8.148,8.148,0,0,0-.983-3.283l-10.52-19.043A48.494,48.494,0,0,1-7.8,514.925c-1.288-2.477.813-5.288,3.846-7.232a13.237,13.237,0,0,1,8.378-2.331c.505-.324,26.642,3.676,27.11,3.527a4.455,4.455,0,0,0,3-.648,3.381,3.381,0,0,0,.665-.426c1.091-.7,18.382-18.166,20-19.207a8.5,8.5,0,0,1,1.037-.665c4.07-2.609,8.068-.706,9.237,4.513.239.373,1.986,9.538,2.19,9.857l2.3,10.726c.222.346,1.411,7.353,1.475,7.687a9.479,9.479,0,0,0,3.65,5.693c-.107.594,5.738,4.091,5.231,4.529a59.17,59.17,0,0,1,15.734,7.329l4.117,2.616s.745.46.78.513c5.425,3.428,5.689,8.289.669,11.583l-.186.119c-2.66,1.705-21.619,11.42-23.321,12.512l-.692.443a7.207,7.207,0,0,0-3.239,4.667c-.426.273-4.993,27.749-5.5,28.073a4.486,4.486,0,0,1-2.062,3.049Z" fill="#4317ad"/>
    <path id="Path_1961" data-name="Path 1961" d="M56.492,597.761a2.211,2.211,0,0,0,1.01-1.586l4.361-27.682a8.029,8.029,0,0,1,3.641-5.562,4.983,4.983,0,0,1,.825-.529l23.658-11.751.931-.6c1.224-.785,1.844-1.633,1.814-2.44a4.2,4.2,0,0,0-2.772-2.8l-23.4-11.27a7.9,7.9,0,0,1-4.441-6.049l-3.823-25.4a4.3,4.3,0,0,0-1.927-3.532,2.94,2.94,0,0,0-2.778.467,7.458,7.458,0,0,0-1.254,1.029l-19.014,19.7a5.005,5.005,0,0,1-1.011.648,5.657,5.657,0,0,1-3.906.815L2.129,516.891a7.621,7.621,0,0,0-4.988.534c-.426.272-1.516.972-.27,3.326L9.62,544.558a8.025,8.025,0,0,1-.074,7.554L-3.577,575.2c-.879,1.615-1.054,3.041-.472,3.831s2.248,1.224,4.366.955l26.362-4.665a8.151,8.151,0,0,1,7.208,2.285l19.7,19.952a2.337,2.337,0,0,0,2.931.3Zm.877,1.427a3.886,3.886,0,0,1-4.951-.579L32.7,578.56a6.541,6.541,0,0,0-5.8-1.839L.52,581.359c-5.372.929-8.066-2.336-5.423-7L8.229,551.23a6.32,6.32,0,0,0-.052-5.935l-12.709-23.57c-1.322-2.531-.807-4.362.815-5.4a8.919,8.919,0,0,1,6.114-.767l26.271,4.327a3.98,3.98,0,0,0,2.78-.581,4.218,4.218,0,0,0,.745-.478L51.156,499.16a9.477,9.477,0,0,1,1.556-1.261c3.325-2.132,6.494-.409,7.139,4.169l3.83,25.471a6.319,6.319,0,0,0,3.56,4.849l23.4,11.271c4.493,2.149,4.9,5.6,1.154,8.006l-1.091.7L67.034,564.089l-.665.427a6.57,6.57,0,0,0-2.947,4.479L59.088,596.66a3.853,3.853,0,0,1-1.731,2.686Z" fill="#4317ad"/>
  </g>
</svg>
