<svg xmlns="http://www.w3.org/2000/svg" viewBox="0 0 750 500"><defs><style>.cls-1{fill:#fff;}.cls-2{fill:#ebebeb;}.cls-3{fill:#263238;}.cls-4{fill:#dbdbdb;}.cls-5{fill:#fc3fa8;}.cls-12,.cls-16,.cls-6{isolation:isolate;opacity:0.1;}.cls-7{fill:#d2d2d2;}.cls-8{fill:#eb9481;}.cls-9{fill:#494454;}.cls-10{fill:#455a64;}.cls-11{fill:#4317af;}.cls-12{fill:#020100;}.cls-13{fill:#c7c7c7;}.cls-14{fill:#a6a6a6;}.cls-15{fill:#ff9cbd;}.cls-16{fill:#050400;}</style></defs><g id="BACKGROUND"><rect class="cls-1" width="750" height="500"/></g><g id="OBJECTS"><path class="cls-2" d="M336.6,384.27c47,0,85-3.28,85-7.32s-38.07-7.32-85-7.32-85,3.28-85,7.32S289.64,384.27,336.6,384.27Z"/><path class="cls-1" d="M382.88,271.65h-2.83v2.83h2.83Z"/><path class="cls-1" d="M394.91,274.48h-2.83l1.16-1.41-1.16-1.42h2.83l1.16,1.42Z"/><path class="cls-1" d="M382.88,281.08h-2.83v2.83h2.83Z"/><path class="cls-1" d="M394.91,283.91h-2.83l1.16-1.42-1.16-1.41h2.83l1.16,1.41Z"/><path class="cls-2" d="M395,284.05h-3.21l1.28-1.56-1.28-1.56H395l1.27,1.56Zm-2.59-.29h2.45l1-1.27-1-1.27h-2.45l1,1.27Z"/><path class="cls-1" d="M387.63,281.08l.46.93,1,.15-.74.73.17,1-.93-.48-.91.48.17-1-.75-.73,1-.15Z"/><path class="cls-2" d="M388.75,284.17l-1.1-.57-1.11.57.21-1.23-.9-.88,1.23-.18.59-1.13.58,1.13,1.23.18-.89.88Zm-1.12-.92.73.39-.14-.82.58-.57-.81-.13-.37-.73-.36.73-.81.13.58.57-.14.82Z"/><path class="cls-1" d="M382.88,290.51h-2.83v2.83h2.83Z"/><path class="cls-1" d="M394.91,293.33h-2.83l1.16-1.41-1.16-1.41h2.83l1.16,1.41Z"/><path class="cls-1" d="M387.63,290.51l.46.92,1,.16-.74.72.17,1-.93-.48-.91.48.17-1-.75-.72,1-.16Z"/><path class="cls-3" d="M300.24,338.82v-.43c.77,0,1.54,0,2.31-.08l0,.43C301.79,338.78,301,338.81,300.24,338.82Zm-2.89-.09c-.77-.05-1.55-.12-2.31-.22l0-.43c.76.09,1.53.17,2.32.22Zm8.12-.29-.06-.43c.75-.1,1.52-.23,2.27-.38l.08.43c-.77.15-1.55.27-2.31.38ZM292.19,338c-.75-.15-1.51-.33-2.26-.52l.11-.42c.74.19,1.49.37,2.24.52Zm18.42-.64-.11-.41c.73-.2,1.48-.42,2.21-.67l.13.42c-.77.24-1.51.46-2.27.66Zm-23.52-.72c-.73-.25-1.47-.52-2.18-.82l.16-.4c.71.29,1.44.58,2.16.81Zm28.42-.94-.16-.4,1.11-.46,1-.46.18.39-1,.46Zm-33.25-1.07c-.7-.33-1.39-.7-2.06-1.08l.21-.38q1,.57,2,1.08Zm37.95-1.21-.22-.38c.65-.38,1.3-.8,1.93-1.23l.24.36c-.62.44-1.27.85-1.94,1.25Zm-42.49-1.38c-.65-.42-1.29-.87-1.9-1.33l.25-.35q.93.69,1.89,1.32Zm46.76-1.61-.27-.34c.57-.47,1.15-1,1.72-1.51l.3.32c-.55.53-1.14,1.05-1.73,1.53Zm-50.92-1.52c-.58-.5-1.16-1-1.73-1.57l.3-.31c.57.53,1.12,1.06,1.73,1.55Zm54.75-2-.32-.31c.52-.54,1-1.12,1.53-1.73l.33.29c-.51.59-1,1.17-1.54,1.73Zm-58.48-1.65c-.52-.58-1-1.19-1.49-1.79l.35-.27c.46.58.95,1.19,1.46,1.77Zm61.85-2.37-.36-.26c.45-.58.91-1.22,1.36-1.86l.36.25Zm-65-1.8a21.8,21.8,0,0,1-1.16-2l.39-.2c.35.66.74,1.33,1.15,2Zm68-2.48-.37-.23c.42-.65.82-1.3,1.23-2l.37.23C335.48,317.31,335.07,318,334.66,318.61Zm-70.38-2.19a17.41,17.41,0,0,1-.72-2.22l.41-.11a20.54,20.54,0,0,0,.71,2.18Zm73.08-2.27-.38-.22,1.15-2,.38.21Zm2.5-4.58-.39-.2c.36-.68.72-1.36,1.07-2.05l.39.2C340.57,308.21,340.19,308.9,339.86,309.57Zm2.38-4.62-.39-.19,1-2.07.39.19Zm2.3-4.66-.38-.19,1-2.07.38.19Zm2.35-4.61-.35-.22,1.06-2.06.39.2Zm2.41-4.62-.38-.21c.36-.68.73-1.35,1.11-2l.38.2-1.08,2Zm2.53-4.53-.37-.22c.38-.66.77-1.32,1.15-2l.38.23-1.13,1.95Zm2.69-4.42-.36-.23c.42-.66.84-1.3,1.27-1.94l.36.24c-.41.61-.82,1.25-1.24,1.9Zm2.89-4.29-.35-.26c.45-.63.92-1.24,1.38-1.86l.35.26-1.33,1.83Zm3.16-4.12-.34-.27c.5-.58,1-1.2,1.51-1.77l.32.28c-.45.54-.95,1.13-1.44,1.73Zm3.44-3.88-.32-.3c.54-.58,1.08-1.12,1.62-1.65l.31.3c-.49.5-1,1.06-1.57,1.62Zm3.71-3.62-.29-.31c.58-.52,1.16-1,1.74-1.52l.28.33c-.53.46-1.12,1-1.68,1.48Zm4-3.28-.25-.35c.61-.46,1.25-.92,1.88-1.35l.23.35c-.57.41-1.2.86-1.81,1.32ZM376,260l-.23-.37c.65-.41,1.33-.8,2-1.19l.21.38c-.62.35-1.29.74-1.94,1.15Z"/><path class="cls-4" d="M382.52,241.16a.81.81,0,0,1-.12.4.74.74,0,0,1-.32.26.72.72,0,0,1-.79-.16.7.7,0,0,1-.19-.36.75.75,0,0,1,0-.42.68.68,0,0,1,.26-.32.72.72,0,0,1,.4-.12.67.67,0,0,1,.28.06.65.65,0,0,1,.23.15.83.83,0,0,1,.15.23A.67.67,0,0,1,382.52,241.16Z"/><path class="cls-4" d="M383.06,243.13v.26h-2.47v-.26a1.27,1.27,0,0,1,.36-.88,1.24,1.24,0,0,1,.87-.36,1.23,1.23,0,0,1,1.24,1.24Z"/><path class="cls-4" d="M384.34,240.73a.8.8,0,0,1-.11.4.74.74,0,0,1-.32.26.67.67,0,0,1-.42,0,.6.6,0,0,1-.36-.19.72.72,0,0,1-.16-.79.76.76,0,0,1,.27-.32.66.66,0,0,1,.39-.11.73.73,0,0,1,.51.2A.74.74,0,0,1,384.34,240.73Z"/><path class="cls-4" d="M384.87,242.69V243H382.4v-.26a1.23,1.23,0,0,1,1.23-1.23,1.23,1.23,0,0,1,.87.36A1.21,1.21,0,0,1,384.87,242.69Z"/><path class="cls-3" d="M384.84,255.31l-.2-.38,1-.52.19.39Z"/><path class="cls-5" d="M383.53,248.33l-3.62,9.94,7.6-5.94,29.06-10.54Z"/><path class="cls-6" d="M383.53,248.33l-3.62,9.94,7.6-5.94,29.06-10.54Z"/><path class="cls-3" d="M388.48,254.65l-8.57,3.62,7.6-5.94Z"/><path class="cls-5" d="M387.51,252.33l29.06-10.54-23.84,23.27Z"/><path class="cls-5" d="M383.53,248.33l-12.08-7.8,45.12,1.26Z"/><path class="cls-7" d="M266.09,374.37l83.46.36c20.28-15.93,22.38-39.52,7.91-53.83-8.76-8.66-19.89-6.93-30.47-8.29h0a31.52,31.52,0,0,1-10.74-3.15c-10.9-5.78-17-19.32-26.22-30.74-1.16-1.43-2.35-2.82-3.59-4.16-7.55-8.05-22.57-8.32-30.41,3C236,306.34,245.17,349.17,266.09,374.37Z"/><path class="cls-4" d="M264.24,308.53c2.19,34.24,41.73,47,66.42,36.77,21.48-8.92,14.44-29.28-3.67-32.69h0a31.52,31.52,0,0,1-10.74-3.15c-10.9-5.78-17-19.32-26.22-30.74C276.32,271.62,262.63,283.46,264.24,308.53Z"/><path class="cls-8" d="M330.58,379.73c-1.24-.44-29.32-22.24-29.87-23.75-.21-.58,2.73-4.85,6.42-9.91.8-1.1,1.63-2.22,2.48-3.36,5.51-7.39,11.54-15.11,11.54-15.11L340,342.13l-12.05,14.7-2.64,3.24s7,13.15,7.45,14.87S331.82,380.16,330.58,379.73Z"/><path class="cls-2" d="M312.56,338.76l-3,3.95c-.85,1.15-1.68,2.26-2.47,3.35-3.7,5.07-6.63,9.34-6.42,9.92.55,1.51,28.63,23.31,29.87,23.75s2.56-3.07,2.15-4.78-7.47-14.88-7.47-14.88l2.65-3.23,2.69-3.28Z"/><path class="cls-9" d="M330.71,380c-1.25-.45-29.72-22.75-30.27-24.29-.25-.71,4.24-7,9.12-13.46l18.55,14.46-2.7,3.27s7.08,13.42,7.51,15.17S332,380.44,330.71,380Z"/><path class="cls-3" d="M331.2,378.53c-4.69-3.85-23.92-19-28.87-22.42,0,0-.05,0,0,0,4.56,3.92,23.92,18.88,28.81,22.47C331.24,378.69,331.29,378.61,331.2,378.53Z"/><path class="cls-3" d="M326.92,359.44c-1.61-1.82-4.13-3.33-6.61-3.12-.1,0-.09.15,0,.17a34,34,0,0,1,6.42,3.18.11.11,0,0,0,.1,0,.1.1,0,0,0,.08-.05.36.36,0,0,0,0-.09A.19.19,0,0,0,326.92,359.44Z"/><path class="cls-3" d="M327.63,361.32c-1.6-1.82-4.12-3.33-6.61-3.12-.09,0-.08.15,0,.18a32.52,32.52,0,0,1,6.42,3.18.21.21,0,0,0,.11,0,.16.16,0,0,0,.08-.06.11.11,0,0,0,0-.09A.13.13,0,0,0,327.63,361.32Z"/><path class="cls-3" d="M328.35,363.2c-1.6-1.82-4.13-3.33-6.61-3.12-.1,0-.09.15,0,.18a33.7,33.7,0,0,1,6.43,3.17h.09a.16.16,0,0,0,.08-.06.19.19,0,0,0,0-.09A.16.16,0,0,0,328.35,363.2Z"/><path class="cls-3" d="M329.07,365.08c-1.61-1.82-4.13-3.33-6.61-3.12-.1,0-.09.14,0,.17a33.36,33.36,0,0,1,6.42,3.18.17.17,0,0,0,.1,0,.16.16,0,0,0,.08-.06.11.11,0,0,0,0-.08A.3.3,0,0,0,329.07,365.08Z"/><path class="cls-3" d="M333.79,357.82c.06-1.6-1.68-2.22-3-2.17a12.63,12.63,0,0,0-6.27,2.06s0,0,0,0v.06l0,0a.23.23,0,0,0-.06.12.33.33,0,0,0,0,.14.27.27,0,0,0,.06.12.28.28,0,0,0,.11.08c2,.64,4,1.57,6.2,1.58C332.1,359.84,333.74,359.33,333.79,357.82Zm-5.9.78c-1-.29-2-.63-3-.88,1.23-.39,2.43-.84,3.68-1.11a14.55,14.55,0,0,1,1.85-.3c.95-.06,4,.58,2.06,2.39C331.44,359.69,329.07,359,327.89,358.6Z"/><path class="cls-3" d="M320.17,353.45c1,1.88,2.83,3.23,4.35,4.68a.31.31,0,0,0,.13.06h.13a.31.31,0,0,0,.13-.06A.5.5,0,0,0,325,358s.08,0,.08-.06a12.7,12.7,0,0,0-1.22-6.47c-.57-1.15-2-2.39-3.33-1.57S319.56,352.36,320.17,353.45Zm.2-2c.64-2.57,2.68-.2,3.08.68a13.19,13.19,0,0,1,.62,1.73,37.1,37.1,0,0,1,.79,3.77c-.7-.76-1.46-1.45-2.2-2.18S320,352.87,320.37,351.45Z"/><path class="cls-10" d="M359.4,313.27c-1.29,9.81-25.4,38-28.2,41.28l-.64.74-19.95-15.36.23-.29,17.57-23s-29.06,16.95-43.59,9.24a41.51,41.51,0,0,1-11.38-9.6l19-10.12s5.25,1.7,8.6,1.2c11.55-1.69,37.52-11.54,43.64-11.28C352.6,296.42,360.58,304.26,359.4,313.27Z"/><path class="cls-3" d="M334.72,308.07a24,24,0,0,0-1.82,2.31c-.61.81-1.24,1.62-1.87,2.43v0c.11-.24.22-.47.34-.71.39-.82.7-1.65,1.15-2.43,0,0,0-.09-.07,0-.47.77-1,1.5-1.43,2.31-.2.38-.38.76-.55,1.15-.09.22-.19.43-.27.65s-.08.21-.11.31c-.28.38-.58.76-.82,1.16-.58.86-1.12,1.77-1.73,2.61a0,0,0,0,0,.07,0c.58-.8,1.29-1.55,1.91-2.34s1.21-1.64,1.8-2.47l1.73-2.46a24.14,24.14,0,0,0,1.74-2.53S334.75,308.07,334.72,308.07Z"/><path class="cls-3" d="M332.6,350.53c-1.09-1-2.27-2-3.42-2.88s-2.31-1.9-3.5-2.83c-2.35-1.88-4.68-3.77-7-5.61-1.31-1-2.62-2-4-3h-.05a.05.05,0,0,0,0,0,.06.06,0,0,0,0,0s0,0,0,0c2.21,2,4.58,3.87,6.92,5.74s4.69,3.74,7.07,5.58c1.3,1,2.59,2.05,4,3C332.59,350.66,332.66,350.58,332.6,350.53Z"/><path class="cls-3" d="M266.6,271.81a1.73,1.73,0,0,0-.58.92,1.74,1.74,0,0,0,1.84,2.16,1.75,1.75,0,0,0,0,.72,1.86,1.86,0,0,0,2.08,1.43,1.57,1.57,0,0,0,0,.61,1.78,1.78,0,0,0,.45.83,1.72,1.72,0,0,0,2.55-.16,1.69,1.69,0,0,0,.78,1,1.65,1.65,0,0,0,1.23.19,1.55,1.55,0,0,0,.65-.3.38.38,0,0,0,0,.15,1.72,1.72,0,0,0,2,1.27,1.79,1.79,0,0,0,.72-.35,1.63,1.63,0,0,0,.47-.66,1.66,1.66,0,0,0,.79.82,1.69,1.69,0,0,0,1.92-.3,1.63,1.63,0,0,0,.47-.76,1.9,1.9,0,0,0,1.24.13,1.71,1.71,0,0,0,.67-.31,1.73,1.73,0,0,0,.49-.55,1.77,1.77,0,0,0,.92.3,1.84,1.84,0,0,0,1.67-.86,1.81,1.81,0,0,0,.29-.92,1.89,1.89,0,0,0,.67,0,1.75,1.75,0,0,0,1.32-1.83,1.89,1.89,0,0,0,.82,0,2.08,2.08,0,0,0,.68-.3,1.84,1.84,0,0,0,.5-.54,1.81,1.81,0,0,0,.26-.68,2,2,0,0,0,0-.74,1.92,1.92,0,0,0-.24-.57,1,1,0,0,0,.3,0,1.74,1.74,0,0,0,1.28-2,1.67,1.67,0,0,0-.45-.81,1.92,1.92,0,0,0,1.05-.87,1.87,1.87,0,0,0-.31-2.24,1.87,1.87,0,0,0,.79-2,1.8,1.8,0,0,0-.37-.76,1.76,1.76,0,0,0-.67-.51,1.78,1.78,0,0,0,.28-.65,1.83,1.83,0,0,0,0-.7,1.68,1.68,0,0,0-.3-.65,1.87,1.87,0,0,0-.54-.47,1.91,1.91,0,0,0,.29-1.93A1.81,1.81,0,0,0,292,258a1.93,1.93,0,0,0-1-.35,1.59,1.59,0,0,0,0-.81,1.68,1.68,0,0,0-.67-1,1.74,1.74,0,0,0-1.15-.32,1.84,1.84,0,0,0,0-.81,1.88,1.88,0,0,0-.84-1.17,1.84,1.84,0,0,0-1.41-.23,1.44,1.44,0,0,0-.41.15,1.57,1.57,0,0,0-.05-.3,1.88,1.88,0,0,0-2.25-1.41,1.79,1.79,0,0,0-.44.16,1.93,1.93,0,0,0,0-.53,1.89,1.89,0,0,0-.84-1.17,1.87,1.87,0,0,0-2.11.08,1.85,1.85,0,0,0-.51.57,1.81,1.81,0,0,0-1.52-.58,1.93,1.93,0,0,0-.8.26,2.07,2.07,0,0,0-.6.58,1.74,1.74,0,0,0-.7-.67,1.81,1.81,0,0,0-.94-.19,1.73,1.73,0,0,0-.9.35.77.77,0,0,1-1.41.47,1.64,1.64,0,0,0-.87.13,1.76,1.76,0,0,0-.69.55,1.64,1.64,0,0,0-.33.82,1.92,1.92,0,0,0-.72-.31,1.87,1.87,0,0,0-.78,0,1.84,1.84,0,0,0-1,.69,1.93,1.93,0,0,0-.37,1.16,1.62,1.62,0,0,0-.62,0,1.69,1.69,0,0,0-1.05.76,1.76,1.76,0,0,0-.23,1.29,1.71,1.71,0,0,0,.25.57h-.11a1.9,1.9,0,0,0-1.17.84,1.87,1.87,0,0,0,0,1.93,1.63,1.63,0,0,0-.49,0,1.74,1.74,0,0,0-1.05.77,1.69,1.69,0,0,0-.22,1.28,1.52,1.52,0,0,0,.27.61,1.65,1.65,0,0,0,.49.46,1.7,1.7,0,0,0-.32,2.15,1.61,1.61,0,0,0,.54.56,1.88,1.88,0,0,0-.33,3,1.82,1.82,0,0,0,1.05.48,1.71,1.71,0,0,0-.44.73,1.79,1.79,0,0,0,0,.86,1.74,1.74,0,0,0,.5.87A1.68,1.68,0,0,0,266.6,271.81Z"/><path class="cls-8" d="M282.34,286.47c3.55,5.1,15.73,18.33,24.15,20.26,4.62,1,27.07,4.19,30.14,1.39,3.6-3.27,1.93-15.62-.93-15.73-8.74-.34-24.9,1.37-28.94.48-1.82-.41-11.5-6.65-21.84-11.65C281,279.34,280.05,283.18,282.34,286.47Z"/><path class="cls-11" d="M330.94,291.71l-1.49,18.47s-20.35-.32-26.49-3.77S286.8,294.15,283,288s-2.54-9.46,4.93-5.69,17.54,9.81,18.86,10.13S330.94,291.71,330.94,291.71Z"/><path class="cls-3" d="M326.88,293a0,0,0,0,0-.08,0c-.26,1.27-.36,2.58-.5,3.86s-.28,2.66-.4,4c-.24,2.66-.52,5.33-.57,8a.08.08,0,1,0,.16,0c.4-2.62.61-5.28.86-7.92.12-1.3.24-2.61.33-3.92S326.9,294.33,326.88,293Z"/><path class="cls-1" d="M299.29,288.5a87,87,0,0,1-6.47,10.39,1.86,1.86,0,0,0-.22-.19A84.12,84.12,0,0,0,299,288.36,1.3,1.3,0,0,1,299.29,288.5Z"/><path class="cls-1" d="M301.72,289.85a83.53,83.53,0,0,1-6.7,10.91l-.22-.19a82.11,82.11,0,0,0,6.67-10.86Z"/><path class="cls-12" d="M311.41,308.76c-3.46-.55-6.62-1.3-8.46-2.34C296.8,303,286.78,294.16,283,288c-2.92-4.67-2.89-7.72.65-7.23Z"/><path class="cls-11" d="M264.34,320.71c1.11.36,32.83-8.82,32.83-8.82l-3.74-11s1.85-3.55,1-6.93c-1.15-4.55-9.57-12-10.23-12.47a6.85,6.85,0,0,0-7.36-.58C267.66,285.77,264.34,320.71,264.34,320.71Z"/><path class="cls-1" d="M292.84,290.71c-8.21,4-19.54,5.56-24.3,6a1.38,1.38,0,0,1,.08-.29c4.8-.51,15.95-2,24.05-6Z"/><path class="cls-1" d="M294.09,293c-8.71,4.75-21.89,6.35-26.3,6.77,0-.1,0-.2.07-.3,4.48-.43,17.5-2,26.11-6.74A.64.64,0,0,1,294.09,293Z"/><path class="cls-8" d="M272.69,288.57c-2.55,14.46-.48,25.39,2,26.73,6.61,3.61,19.38-2.76,23.86-4.22,1.81-.57.07-15.63-1.93-15.22-4.92,1-13.7,6.11-14,6.09-.49-.06-1.06-3.75-3.59-14.51C277,278.73,273.73,282.67,272.69,288.57Z"/><path class="cls-8" d="M294.73,296.37s9.3-3.89,16.82-3.54c2.55.11,12.9,3.37,12.22,5.9-.62,2.31-9.2-1.45-9.2-1.45s9,3,7.74,5.63S311.92,300,311.92,300s9.16,3.3,7.45,5.78c-1.3,1.88-9.85-2.64-9.85-2.64s7.86,2.88,6.61,4.88c-1.38,2.21-9.54-1.47-9.54-1.47-4,4.55-7.81,5.06-10.54,5.11C295.4,311.71,294.73,296.37,294.73,296.37Z"/><path class="cls-3" d="M311.53,296c1.07.32,2.15.63,3.19,1s2.06.86,3.06,1.37a19.27,19.27,0,0,1,3.68,2.31,41.37,41.37,0,0,0-6.86-3.41c-1-.41-2.05-.87-3.09-1.28C311.49,296.07,311.51,296,311.53,296Z"/><path class="cls-3" d="M310,299.76c1.35.46,2.7.87,4,1.39s2.53,1.13,3.81,1.73c.1.05,0,.09-.05.05-1.31-.58-2.56-1-3.87-1.52s-2.6-1.15-3.93-1.62C310,299.78,310,299.75,310,299.76Z"/><path class="cls-3" d="M308.08,302.71a31.64,31.64,0,0,1,6,2.6c.1.05,0,.09-.08,0-2-.9-3.53-1.62-5.93-2.57C308,302.77,308,302.7,308.08,302.71Z"/><path class="cls-11" d="M292.9,296.42l7.6,16.27s-23.6,6.89-26.81,2.75-3-17.18-1.47-26.2,5.56-9.19,7.33-1,2.82,13.27,3.15,13.27S292.9,296.42,292.9,296.42Z"/><path class="cls-1" d="M281.55,297.39a65.81,65.81,0,0,1-10.39,5.6v-.31a65.55,65.55,0,0,0,10.33-5.58Z"/><path class="cls-1" d="M282.22,300.2a66.66,66.66,0,0,1-11,5.86v-.31a66.2,66.2,0,0,0,10.88-5.84A2.45,2.45,0,0,1,282.22,300.2Z"/><path class="cls-3" d="M289.81,298.61s-.09,0-.08,0c.43,1.22,1,2.4,1.52,3.58s1.11,2.44,1.68,3.65c1.16,2.41,2.24,4.86,3.52,7.2a.09.09,0,0,0,.05,0h.06l0,0V313c-1-2.46-2.14-4.86-3.26-7.26-.58-1.19-1.11-2.38-1.7-3.56S290.5,299.75,289.81,298.61Z"/><path class="cls-3" d="M288,315.68a9.53,9.53,0,0,0-2,.33c-.68.12-1.36.23-2.05.32a39.07,39.07,0,0,1-4,.34c-1.31,0-4.58-.16-5.58-1.07a6.4,6.4,0,0,1-1.73-2.93,45.57,45.57,0,0,1-.81-4.62,60.26,60.26,0,0,1-.26-10c0-.92.1-1.84.16-2.76s.18-1.88.22-2.82l0,0h0v0a33.18,33.18,0,0,0-.62,4.55c-.06-1-.17-1.9-.19-2.85a0,0,0,1,0-.09,0c0,1-.05,2,0,3a13.43,13.43,0,0,0,.15,1.69c-.08,1.27-.12,2.55-.11,3.83a39.48,39.48,0,0,0,1.16,10,5.4,5.4,0,0,0,2.31,3.53,8.34,8.34,0,0,0,3.1.82,25.85,25.85,0,0,0,6.8-.44c.62-.11,1.25-.24,1.88-.38a8.06,8.06,0,0,0,1.79-.49l0,0a0,0,0,0,0,0,0l0,0Z"/><path class="cls-3" d="M292.86,296.12q-2.6,1.29-5.19,2.62l-2.57,1.31-2.38,1.27a20.45,20.45,0,0,0-.48-2.26c-.17-.73-.37-1.59-.58-2.39-.05-.2-.11-.41-.17-.62l-.1-1.15c-.06-.61-.11-1.24-.21-1.85h0a8.34,8.34,0,0,0,0,1.73c-.27-1-.54-1.92-.82-2.89h-.06c.31,1.61.64,3.22,1,4.82.18.78.38,1.55.58,2.31s.42,1.66.69,2.47a26.3,26.3,0,0,0,2.6-1.15l2.66-1.3c1.7-.86,3.42-1.74,5.07-2.69l.27.57s.1,0,.08-.12A3,3,0,0,0,292.86,296.12Z"/><path class="cls-13" d="M327.76,308.05H294.1v1.51h33.66Z"/><path class="cls-14" d="M301.3,308.05l-1.15,1.51h27.61v-1.51Z"/><path class="cls-13" d="M302.74,309.55h32.8l2.73-22.27h-32.8Z"/><path class="cls-1" d="M318.51,298.42a1.8,1.8,0,0,0,.14.76,2,2,0,0,0,.42.65,2,2,0,0,0,.64.44,2,2,0,0,0,.76.15,2.09,2.09,0,0,0,1.42-.59,2,2,0,0,0,.61-1.41,1.8,1.8,0,0,0-.14-.76,1.66,1.66,0,0,0-.42-.65,1.88,1.88,0,0,0-.64-.44,2,2,0,0,0-.76-.15,2,2,0,0,0-1.42.59A2,2,0,0,0,318.51,298.42Z"/><path class="cls-8" d="M338,289.43c1.23,1.91,4.28,4.14,4.7,5.77a1.89,1.89,0,0,1,0,1.22,1.91,1.91,0,0,1-.75.95s1.76.62,1.9,2.16c.07.8-1.15,1.61-1.15,1.61a1.95,1.95,0,0,1,.24,3.67,2.79,2.79,0,0,1,.76,2.31c-.67,2.31-10.06,3.54-12,.27-.89-1.53,1.42-1.7,1.42-1.7s-3.38-.55-3.68-2.48,2.7-2,2.7-2-3.27-.58-3.39-2.59,2.89-1.65,2.89-1.65-2.27-1.15-2-2.72c.44-2.59,5.77.17,7.79-.57Z"/><path class="cls-3" d="M342.72,301.14s.06.06,0,.07a15.33,15.33,0,0,1-10.68.1c-.12-.05-.17-.21,0-.16C334.4,301.9,339.73,301.82,342.72,301.14Z"/><path class="cls-3" d="M331.45,296.81a21.42,21.42,0,0,0,10.34.63,0,0,0,0,1,0,.07,14,14,0,0,1-5.71.77,9.45,9.45,0,0,1-4.69-1.35S331.37,296.79,331.45,296.81Z"/><path class="cls-8" d="M275.3,282s5.61,4.75,9.18,3.88,1.38-4.49,1.38-4.49a11.66,11.66,0,0,0-6.74-1.53A6.06,6.06,0,0,0,275.3,282Z"/><path class="cls-8" d="M278.19,281.17c.13.58,2.81,4.34,5.43,4.26.86,0,.91-4.7.91-4.7l.08-.35,1.15-4.81-6.43-4.22S278.14,280.94,278.19,281.17Z"/><path class="cls-3" d="M285.76,275.57l-1.16,4.81a10,10,0,0,1-5.68-5.77c.2-1.66.37-3,.39-3.24v0l.81.49Z"/><path class="cls-8" d="M292.66,268.58c.18,8.68-5,9.77-6.87,9.81s-7.51-.07-8.58-8.69S280.1,258.25,284,258,292.48,259.89,292.66,268.58Z"/><path class="cls-3" d="M291.32,267.19c-.19,0-.39-.09-.58-.15a1,1,0,0,1-.57-.27.26.26,0,0,1-.07-.19.28.28,0,0,1,.07-.19.86.86,0,0,1,.36-.17.79.79,0,0,1,.4,0,1.08,1.08,0,0,1,.69.43.34.34,0,0,1,.05.17.33.33,0,0,1,0,.17.33.33,0,0,1-.13.13A.38.38,0,0,1,291.32,267.19Z"/><path class="cls-3" d="M285.43,267.66a3.36,3.36,0,0,0,.58-.09,1,1,0,0,0,.58-.22.3.3,0,0,0,.06-.18.31.31,0,0,0-.06-.19.78.78,0,0,0-.35-.21.78.78,0,0,0-.4,0,1.1,1.1,0,0,0-.72.37.25.25,0,0,0-.08.18.34.34,0,0,0,0,.2.31.31,0,0,0,.15.13A.28.28,0,0,0,285.43,267.66Z"/><path class="cls-3" d="M286.59,269s0,0,0,.05c0,.58-.09,1.27-.63,1.46h0C286.55,270.45,286.67,269.55,286.59,269Z"/><path class="cls-3" d="M286.06,268.36c-.95-.1-1.08,1.81-.19,1.9S286.85,268.44,286.06,268.36Z"/><path class="cls-3" d="M285.68,268.44c-.18.1-.35.28-.58.28s-.4-.2-.54-.4h0c0,.37.08.75.47.83s.64-.24.75-.58C285.8,268.5,285.74,268.4,285.68,268.44Z"/><path class="cls-3" d="M290,269a0,0,0,0,1,0,.05c-.06.58,0,1.28.49,1.51v0C289.88,270.48,289.85,269.57,290,269Z"/><path class="cls-3" d="M290.57,268.44c1,0,.89,1.91,0,1.91S289.77,268.44,290.57,268.44Z"/><path class="cls-3" d="M291,268.58c.15.11.3.3.48.31s.37-.18.5-.37h0c0,.36-.13.74-.48.8s-.58-.27-.62-.64C290.85,268.64,290.91,268.54,291,268.58Z"/><path class="cls-3" d="M286.15,274.22c.13.15.24.36.45.41a1.78,1.78,0,0,0,.65-.06s0,0,0,0a.84.84,0,0,1-.36.22,1,1,0,0,1-.42,0,.63.63,0,0,1-.28-.23.77.77,0,0,1-.12-.35S286.14,274.19,286.15,274.22Z"/><path class="cls-3" d="M288.85,272.1a10.79,10.79,0,0,1,0,1.31s-.1,0-.25,0a2,2,0,0,1-1.05-.18,2,2,0,0,1-.8-.71c0-.05,0-.08.06-.05a3,3,0,0,0,1.74.66c0-.11-.14-1.52-.07-1.52a3.39,3.39,0,0,1,.92.29c0-1.86-.4-3.69-.42-5.55l0,0,0,0,0,0,0,0a29.87,29.87,0,0,1,.71,6C289.84,272.57,289,272.18,288.85,272.1Z"/><path class="cls-3" d="M288.61,273.29a2.28,2.28,0,0,1-.95.76,1.1,1.1,0,0,1-.67.06c-.48-.12-.49-.58-.41-.94a2.49,2.49,0,0,1,.2-.58A3.14,3.14,0,0,0,288.61,273.29Z"/><path class="cls-15" d="M287.66,274.05a1.1,1.1,0,0,1-.67.06c-.48-.12-.49-.58-.41-.94a1.12,1.12,0,0,1,.68.26A1.16,1.16,0,0,1,287.66,274.05Z"/><path class="cls-3" d="M277.89,269.33c.92-.06,3.3-2.6,3.36-7.05a33.88,33.88,0,0,1-.62,4.58c-.3.58,1.33-1.43,1.43-5a14.57,14.57,0,0,0,3.68,1.89c1.7.47,2.73.45,2.85.32s-2.37-.89-3-1.67c0,0,4.51,2.08,6.58,2.23.25,0,.18-4.25-3-6.35s-7.95-.47-9.31.85c0,0-1,.44-2.7,2.82S276.9,269.4,277.89,269.33Z"/><path class="cls-5" d="M277.72,271.4c.43,1.21-3-4.27-3.06-5.16a11.2,11.2,0,0,1,4.67-7.71c2.95-1.9,6.92-1.24,7.6-1.12a5.61,5.61,0,0,1,2.15.87s-5.19-.87-9.31.86C277.78,260,276.06,266.87,277.72,271.4Z"/><path class="cls-5" d="M277.69,258.31a6,6,0,0,1,2.93-3.75s.65,2.33.07,3.36c-.29.51-2.07,1.25-2.37,1A4.1,4.1,0,0,1,277.69,258.31Z"/><path class="cls-16" d="M277.69,258.31a4.54,4.54,0,0,0,.62.62h.2a2.62,2.62,0,0,0,1-.27,5.11,5.11,0,0,0-.58-.92,1.6,1.6,0,0,0-.9-.42A5.86,5.86,0,0,0,277.69,258.31Z"/><path class="cls-5" d="M277.22,258.81s-3.41.54-4.75,1.73a4.62,4.62,0,0,0,3.15,1.35c.79,0,2.5-2.05,2.26-2.39A3.6,3.6,0,0,0,277.22,258.81Z"/><path class="cls-16" d="M276.45,259a2,2,0,0,0,.4,1.06,1.67,1.67,0,0,0,.58.4c.32-.42.52-.8.43-.94a3.44,3.44,0,0,0-.66-.66Z"/><path class="cls-5" d="M277.12,259.65a1,1,0,0,0,.57.31,1.2,1.2,0,0,0,.65-.06,1.12,1.12,0,0,0,.5-1.66,1.05,1.05,0,0,0-.5-.41,1.12,1.12,0,0,0-.65-.07,1.18,1.18,0,0,0-.82.67,1.2,1.2,0,0,0,0,.86A1,1,0,0,0,277.12,259.65Z"/><path class="cls-8" d="M278.61,270.34s-1.73-2.83-3-2.24-.1,4.62,1.3,5.24a1.4,1.4,0,0,0,.56.17,1.32,1.32,0,0,0,.59-.07,1.44,1.44,0,0,0,.51-.29,1.6,1.6,0,0,0,.36-.46Z"/><path class="cls-3" d="M276,269.25v0a3.72,3.72,0,0,1,1.77,2.45.73.73,0,0,0-.22-.27.71.71,0,0,0-.31-.16.82.82,0,0,0-.35,0,.73.73,0,0,0-.31.14v.05a.91.91,0,0,1,.54,0,1,1,0,0,1,.43.34,4.12,4.12,0,0,1,.42.84c0,.09.2.05.18-.05C278.24,271.34,277.35,269.47,276,269.25Z"/><path class="cls-8" d="M402.91,354.5c-.45,1.23-22.75,28.94-24.24,29.44-.58.2-4.8-2.81-9.82-6.6-1.08-.81-2.19-1.66-3.31-2.53-7.3-5.62-14.88-11.78-14.88-11.78l14.82-18.59,14.5,12.3,3.19,2.69s13.27-6.79,15-7.18S403.36,353.27,402.91,354.5Z"/><path class="cls-2" d="M361.63,371.8l3.89,3c1.15.87,2.23,1.73,3.31,2.54,5,3.78,9.24,6.78,9.81,6.58,1.52-.52,23.81-28.22,24.25-29.44s-3-2.61-4.75-2.22-15,7.18-15,7.18l-3.19-2.7L376.72,354Z"/><path class="cls-9" d="M403.18,354.38c-.46,1.24-23.26,29.32-24.82,29.84-.71.24-6.88-4.36-13.27-9.35l14.76-18.31,3.22,2.76s13.55-6.85,15.3-7.24S403.65,353.13,403.18,354.38Z"/><path class="cls-3" d="M401.73,353.87c-3.94,4.61-19.39,23.58-22.92,28.44,0,0,0,.06,0,0,4-4.48,19.3-23.58,23-28.41C401.88,353.83,401.81,353.77,401.73,353.87Z"/><path class="cls-3" d="M382.57,357.81c-1.86,1.57-3.4,4.07-3.24,6.56,0,.09.15.08.17,0a34.73,34.73,0,0,1,3.29-6.35.12.12,0,0,0,0-.11.16.16,0,0,0-.05-.11.12.12,0,0,0-.1,0A.13.13,0,0,0,382.57,357.81Z"/><path class="cls-3" d="M384.46,357.13c-1.85,1.58-3.41,4.07-3.23,6.56,0,.09.14.08.17,0a33.53,33.53,0,0,1,3.29-6.35.2.2,0,0,0,0-.11.11.11,0,0,0,0-.09.14.14,0,0,0-.1,0A.15.15,0,0,0,384.46,357.13Z"/><path class="cls-3" d="M386.35,356.45c-1.85,1.57-3.4,4-3.23,6.55,0,.1.14.09.17,0a33.53,33.53,0,0,1,3.29-6.35.14.14,0,0,0,0-.11.12.12,0,0,0-.05-.1.12.12,0,0,0-.11,0A.12.12,0,0,0,386.35,356.45Z"/><path class="cls-3" d="M388.25,355.76c-1.86,1.58-3.41,4.07-3.24,6.56,0,.1.14.09.17,0a33.53,33.53,0,0,1,3.29-6.35.36.36,0,0,0,0-.1.19.19,0,0,0-.05-.1.15.15,0,0,0-.1,0A.14.14,0,0,0,388.25,355.76Z"/><path class="cls-3" d="M381.06,350.91c-1.59-.08-2.25,1.64-2.22,2.94a12.71,12.71,0,0,0,1.93,6.3s0,0,0,0h0l0,0a.23.23,0,0,0,.12.06.2.2,0,0,0,.13,0,.31.31,0,0,0,.13-.06.28.28,0,0,0,.08-.11c.68-2,1.65-4,1.7-6.17C383.05,352.64,382.57,351,381.06,350.91Zm.68,5.92c-.3,1-.66,1.95-.93,2.95a36.47,36.47,0,0,1-1.05-3.71,14,14,0,0,1-.24-1.82c0-1,.65-4,2.42-2C382.89,353.29,382.11,355.65,381.74,356.83Z"/><path class="cls-3" d="M376.46,364.46c1.89-1,3.28-2.78,4.76-4.28a.27.27,0,0,0,.06-.12.33.33,0,0,0,0-.14.37.37,0,0,0-.07-.12.24.24,0,0,0-.11-.08s0-.08-.05-.09a12.85,12.85,0,0,0-6.5,1.11c-1.15.57-2.42,1.91-1.63,3.3S375.36,365,376.46,364.46Zm-2-.24c-2.56-.69-.15-2.69.73-3.07a13.52,13.52,0,0,1,1.77-.57,36.56,36.56,0,0,1,3.78-.73c-.77.69-1.48,1.44-2.22,2.16S375.87,364.6,374.46,364.22Z"/><path class="cls-10" d="M379.2,353.91,363.56,375,310.79,338.4l-5.1-3.53s-1.43,1-3.6,2.17c-3,1.67-7.43,3.78-11.34,4.35-6.55,1-17.49.86-23-6.52-4.65-6.22-2.13-14.33-2.13-14.33l7.2-3.09s17-14.18,28.05-14.61c4.68-.18,11.5,3.37,17.82,7.07S379.2,353.91,379.2,353.91Z"/><path class="cls-3" d="M305.69,334.86s-1.43,1-3.6,2.17c-3.84-4.59-12-12.93-12.21-13.22Z"/><path class="cls-3" d="M279,312.69c-1,.7-2,1.45-3,2.18s-2,1.39-3,2.16-1.86,1.64-2.76,2.49c-.43.42-.86.83-1.28,1.26a11,11,0,0,0-1.22,1.33s0,.1.07.07a13.28,13.28,0,0,0,1.37-1.11l1.42-1.21c.92-.77,1.85-1.53,2.76-2.31s1.73-1.62,2.65-2.4,2-1.62,3-2.42C279.08,312.69,279.08,312.69,279,312.69Z"/><path class="cls-3" d="M375.53,353.16c-1,1.09-1.95,2.27-2.89,3.43s-1.89,2.3-2.83,3.49c-1.88,2.35-3.77,4.68-5.61,7.05-1,1.3-2,2.61-3,4,0,0,.06.12.1.07,2-2.22,3.87-4.59,5.74-6.92s3.74-4.7,5.58-7.08c1-1.29,2-2.59,3-3.94C375.66,353.17,375.57,353.09,375.53,353.16Z"/><path class="cls-3" d="M332.22,353.37c-2.63-2.07-5.35-4-8.08-6s-5.42-3.87-8.17-5.74l-2.38-1.6c-.79-.53-1.62-1-2.4-1.56-.05,0-.09,0,0,.08.71.51,1.39,1.08,2.09,1.61s1.33,1,2,1.52q2,1.47,4,2.89,4,2.92,8.16,5.77c1.55,1.07,3.11,2.14,4.69,3.16C332.19,353.59,332.3,353.44,332.22,353.37Z"/><path class="cls-3" d="M349.1,331.6c-2.43-2-5-3.82-7.58-5.68s-5.13-3.78-7.71-5.65l-7.69-5.55c-2.48-1.8-4.95-3.62-7.58-5.2-1.44-.86-2.91-1.67-4.42-2.4a29.19,29.19,0,0,0-4.57-1.86c-.05,0-.07.05,0,.07,1.29.73,2.65,1.34,4,2s2.57,1.41,3.82,2.18c2.61,1.57,5.06,3.37,7.51,5.15,5.13,3.68,10.25,7.39,15.41,11,2.89,2,5.73,4.18,8.73,6C349.07,331.81,349.18,331.67,349.1,331.6Z"/></g></svg>